<svg viewBox="0 0 20.0001 20" fill="none" xmlns="http://www.w3.org/2000/svg">
<g id="Vector">
<path d="M12.4571 10.5684C12.7991 10.5684 13.0806 10.6558 13.3019 10.8301C13.5231 11.0044 13.6339 11.2321 13.6339 11.5137C13.6339 11.8087 13.5262 12.0435 13.3116 12.2178C13.0971 12.3919 12.8123 12.4795 12.4571 12.4795C12.102 12.4795 11.8171 12.3919 11.6026 12.2178C11.3948 12.0435 11.2902 11.8087 11.2901 11.5137C11.2901 11.2321 11.398 11.0044 11.6124 10.8301C11.8336 10.6558 12.1152 10.5684 12.4571 10.5684Z" fill="currentColor"/>
<path d="M12.4571 7.54102C12.8057 7.54102 13.0772 7.6183 13.2716 7.77246C13.4727 7.92667 13.5733 8.13806 13.5733 8.40625C13.5733 8.65415 13.4695 8.86176 13.2618 9.0293C13.0607 9.19021 12.7924 9.27051 12.4571 9.27051C12.1286 9.2705 11.8603 9.1902 11.6524 9.0293C11.4448 8.86177 11.341 8.65411 11.3409 8.40625C11.3409 8.13806 11.4385 7.92667 11.6329 7.77246C11.834 7.61836 12.1086 7.54103 12.4571 7.54102Z" fill="currentColor"/>
<path fill-rule="evenodd" clip-rule="evenodd" d="M10.004 0C16.7516 5.03232e-05 19.9834 3.19838 20.0001 10.0605C20.0093 16.9539 16.822 20 10.004 20C3.136 19.9944 -0.0201966 16.8613 9.72217e-05 10.0605C0.0149475 3.13366 3.17856 9.11923e-05 10.004 0ZM12.4571 6.07227C11.8873 6.07227 11.3943 6.16273 10.9786 6.34375C10.563 6.51805 10.2417 6.77017 10.0138 7.09863C9.79255 7.42041 9.68177 7.80575 9.68174 8.25488C9.68174 8.62361 9.78239 8.96211 9.9835 9.27051C10.0916 9.43632 10.2234 9.57876 10.378 9.69824C10.5228 9.81023 10.5171 10.0866 10.3663 10.1904C10.1861 10.3143 10.0312 10.4667 9.90244 10.6484C9.68118 10.9636 9.57041 11.3162 9.57041 11.7051C9.57048 12.1608 9.68835 12.5565 9.92295 12.8916C10.1576 13.22 10.4931 13.4753 10.9288 13.6562C11.3644 13.8371 11.8772 13.9277 12.4669 13.9277C13.0567 13.9277 13.5632 13.8371 13.9854 13.6562C14.4145 13.4752 14.7469 13.2201 14.9815 12.8916C15.2162 12.5564 15.3331 12.164 15.3331 11.7148C15.3331 11.3327 15.2193 10.977 14.9913 10.6484C14.8726 10.4723 14.7295 10.3243 14.5626 10.2041C14.4113 10.095 14.4053 9.80121 14.5509 9.68457C14.6882 9.57461 14.8084 9.44354 14.9112 9.29102C15.1258 8.98262 15.2325 8.63395 15.2325 8.24512C15.2325 7.57464 14.9845 7.04513 14.4884 6.65625C13.9922 6.26743 13.3153 6.07227 12.4571 6.07227ZM7.44053 6.24414C7.01032 6.24414 6.65934 6.54838 6.47178 6.93555C6.45052 6.97944 6.42862 7.02061 6.40635 7.05859C6.29241 7.25283 6.15504 7.39337 5.99424 7.48047C5.84003 7.56092 5.65201 7.61172 5.43076 7.63184C5.0124 7.65796 4.66735 7.99105 4.66709 8.41016C4.66709 8.82935 5.00696 9.17341 5.42588 9.16016C5.50904 9.15748 5.58486 9.15425 5.65244 9.15039C5.89377 9.13028 6.08489 9.09672 6.22568 9.0498C6.24085 9.04498 6.25572 9.0395 6.27061 9.03418C6.4273 8.97815 6.62803 9.08164 6.62803 9.24805V12.8916C6.62803 13.3749 7.01978 13.7666 7.50303 13.7666C7.98628 13.7666 8.37803 13.3749 8.37803 12.8916V7.18164C8.37787 6.66394 7.95822 6.2443 7.44053 6.24414Z" fill="currentColor"/>
</g>
</svg>
