<svg viewBox="0 0 20.0001 20" fill="none" xmlns="http://www.w3.org/2000/svg">
<g id="Vector">
<path fill-rule="evenodd" clip-rule="evenodd" d="M12.4571 6.07227C13.3152 6.07227 13.9922 6.26746 14.4884 6.65625C14.9845 7.04513 15.2325 7.57464 15.2325 8.24512C15.2325 8.63395 15.1258 8.98262 14.9112 9.29102C14.8084 9.44352 14.6881 9.57462 14.5509 9.68457C14.4054 9.80123 14.4114 10.095 14.5626 10.2041C14.7295 10.3243 14.8726 10.4723 14.9913 10.6484C15.2193 10.977 15.3331 11.3327 15.3331 11.7148C15.3331 12.164 15.2162 12.5564 14.9815 12.8916C14.7469 13.2201 14.4145 13.4753 13.9854 13.6562C13.5632 13.8371 13.0566 13.9277 12.4669 13.9277C11.8773 13.9277 11.3644 13.8371 10.9288 13.6562C10.4931 13.4753 10.1576 13.22 9.92295 12.8916C9.68837 12.5565 9.57048 12.1608 9.57041 11.7051C9.57041 11.3162 9.68121 10.9635 9.90244 10.6484C10.0312 10.4667 10.1861 10.3143 10.3663 10.1904C10.5171 10.0866 10.5229 9.81022 10.378 9.69824C10.2234 9.57876 10.0916 9.43632 9.9835 9.27051C9.78241 8.96212 9.68174 8.62359 9.68174 8.25488C9.68177 7.80578 9.79257 7.4204 10.0138 7.09863C10.2417 6.77019 10.563 6.51805 10.9786 6.34375C11.3943 6.16274 11.8873 6.07228 12.4571 6.07227ZM12.4571 10.5684C12.1153 10.5684 11.8336 10.6558 11.6124 10.8301C11.398 11.0044 11.2901 11.2322 11.2901 11.5137C11.2902 11.8086 11.3948 12.0435 11.6026 12.2178C11.8171 12.3919 12.102 12.4795 12.4571 12.4795C12.8123 12.4795 13.0971 12.3919 13.3116 12.2178C13.5262 12.0435 13.6339 11.8087 13.6339 11.5137C13.6339 11.2321 13.5231 11.0044 13.3019 10.8301C13.0806 10.6558 12.799 10.5684 12.4571 10.5684ZM12.4571 7.54102C12.1087 7.54104 11.834 7.61838 11.6329 7.77246C11.4385 7.92667 11.3409 8.13809 11.3409 8.40625C11.341 8.65409 11.4449 8.86178 11.6524 9.0293C11.8603 9.19018 12.1287 9.27048 12.4571 9.27051C12.7923 9.27051 13.0607 9.19018 13.2618 9.0293C13.4695 8.86176 13.5733 8.65415 13.5733 8.40625C13.5733 8.13806 13.4727 7.92667 13.2716 7.77246C13.0772 7.61834 12.8057 7.54102 12.4571 7.54102Z" fill="currentColor"/>
<path d="M7.44053 6.24414C7.95827 6.24424 8.37787 6.66391 8.37803 7.18164V12.8916C8.37803 13.3749 7.98628 13.7666 7.50303 13.7666C7.01982 13.7665 6.62803 13.3748 6.62803 12.8916V9.24805C6.62803 9.08182 6.4282 8.97856 6.27158 9.03418C6.25661 9.03953 6.24094 9.04495 6.22568 9.0498C6.0849 9.09671 5.89372 9.13028 5.65244 9.15039C5.585 9.15424 5.5098 9.15748 5.42686 9.16016C5.00773 9.17367 4.66709 8.8295 4.66709 8.41016C4.66735 7.99108 5.01245 7.658 5.43076 7.63184C5.65197 7.61173 5.84005 7.56089 5.99424 7.48047C6.15503 7.39337 6.29242 7.25281 6.40635 7.05859C6.42862 7.02061 6.45052 6.97944 6.47178 6.93555C6.65933 6.54837 7.01031 6.24414 7.44053 6.24414Z" fill="currentColor"/>
<path fill-rule="evenodd" clip-rule="evenodd" d="M10.004 0C16.7516 5.03232e-05 19.9834 3.19838 20.0001 10.0605C20.0093 16.9539 16.822 20 10.004 20C3.136 19.9944 -0.0201966 16.8613 9.72217e-05 10.0605C0.0149475 3.13366 3.17856 9.11957e-05 10.004 0ZM10.004 1.36328C6.77273 1.36333 4.69879 2.10749 3.41318 3.39551C2.12648 4.68501 1.3714 6.77891 1.36436 10.0635C1.35477 13.2786 2.09822 15.3379 3.37998 16.6113C4.66465 17.8874 6.74915 18.6329 10.004 18.6357C13.2409 18.6357 15.3202 17.9096 16.6056 16.6436C17.8862 15.382 18.641 13.3263 18.6368 10.0635L18.6261 9.46875C18.5304 6.56217 17.7792 4.64121 16.5606 3.41992C15.2622 2.11866 13.1855 1.36331 10.004 1.36328Z" fill="currentColor"/>
</g>
</svg>
