<svg viewBox="0 0 20.0001 20" fill="none" xmlns="http://www.w3.org/2000/svg">
<g transform="translate(0 20) scale(1 -1)">
<g id="Vector">
<path fill-rule="evenodd" clip-rule="evenodd" d="M10.0036 0C16.7513 0 19.9834 3.19815 20.0001 10.0604C20.0093 16.9539 16.8218 20 10.0036 20C3.13559 19.9944 -0.0202516 16.8613 9.77643e-05 10.0604C0.014948 3.13348 3.1782 9.11957e-05 10.0036 0ZM10.0036 1.36364C6.77216 1.36368 4.69833 2.1076 3.41274 3.39577C2.12604 4.68527 1.37078 6.77846 1.36373 10.063C1.35408 13.2785 2.09804 15.3379 3.37989 16.6113C4.66456 17.8874 6.7488 18.6326 10.0036 18.6355C13.2407 18.6355 15.3198 17.9094 16.6052 16.6433C17.8859 15.3817 18.6407 13.3261 18.6365 10.063L18.6258 9.46911C18.5302 6.56233 17.7794 4.64108 16.5608 3.41974C15.2624 2.1184 13.1853 1.36364 10.0036 1.36364Z" fill="currentColor"/>
<path d="M3.75359 12.2638L6.28785 9.72957C6.97128 9.04633 8.07936 9.04621 8.76272 9.72957L9.83236 10.7992C9.93 10.8967 10.0883 10.8968 10.1859 10.7992L13.6407 7.34447H11.2086C10.7945 7.34447 10.4588 7.00865 10.4587 6.59455C10.4587 6.18033 10.7944 5.84463 11.2086 5.84463H14.4513C15.4178 5.8447 16.2012 6.62799 16.2012 7.59444V10.8372C16.201 11.2513 15.8653 11.5871 15.4512 11.5871C15.0371 11.5871 14.7014 11.2513 14.7013 10.8372V8.40513L11.2466 11.8599C10.5632 12.5432 9.45513 12.5431 8.7717 11.8599L7.70206 10.7902C7.60449 10.6927 7.44615 10.6928 7.34851 10.7902L4.81425 13.3245C4.52133 13.6171 4.04639 13.6173 3.75359 13.3245C3.46079 13.0317 3.46098 12.5567 3.75359 12.2638Z" fill="currentColor"/>
</g>
</g>
</svg>
