<svg viewBox="0 0 14.4998 12.2706" fill="none" xmlns="http://www.w3.org/2000/svg">
<g transform="translate(1.1146,-1.1146) rotate(90 6.1353 7.2499)">
<path id="Vector (Stroke)" d="M5.38561 13.7498V1.90805C5.38561 1.89492 5.38689 1.88194 5.38756 1.86899L1.30553 6.36703C1.02711 6.67372 0.552643 6.69623 0.245957 6.41781C-0.0605062 6.13951 -0.0838047 5.66589 0.1942 5.35922L4.31041 0.82504C5.30907 -0.275013 6.96116 -0.275014 7.95982 0.82504L12.076 5.35922C12.3541 5.66576 12.3314 6.13942 12.0253 6.41781C11.7186 6.69619 11.2441 6.67357 10.9657 6.36703L6.88365 1.86996C6.88429 1.88259 6.8856 1.89526 6.88561 1.90805V13.7498C6.88561 14.1639 6.54966 14.4997 6.13561 14.4998C5.72139 14.4998 5.38561 14.1641 5.38561 13.7498Z" fill="currentColor"/>
</g>
</svg>
