<svg viewBox="0 0 21.5215 17.7789" fill="none" xmlns="http://www.w3.org/2000/svg">
<g id="Vector">
<path d="M12.4629 0.244141C12.7776 0.267857 13.0805 0.372068 13.3428 0.544922L13.4531 0.624023L13.4678 0.635742L20.8262 6.75977C21.0446 6.95359 21.22 7.19166 21.3398 7.45801C21.4596 7.72435 21.5214 8.01364 21.5215 8.30566C21.5214 8.59756 21.4595 8.88708 21.3398 9.15332C21.22 9.4196 21.0446 9.65878 20.8262 9.85254C20.8225 9.85574 20.8182 9.85921 20.8145 9.8623L13.4678 15.9766C13.4633 15.9803 13.4577 15.9847 13.4531 15.9883C13.1673 16.2081 12.8224 16.3401 12.4629 16.3672C12.1034 16.3941 11.7431 16.3151 11.4277 16.1406C11.1121 15.9657 10.8534 15.7012 10.6855 15.3818C10.5251 15.0764 10.4549 14.7322 10.4795 14.3887V13.0342C10.4792 12.7448 10.2624 12.6051 10.0859 12.6367C9.10858 12.8122 7.98909 13.2345 7.20605 13.7715C6.09587 14.5331 5.22982 15.6017 4.71484 16.8457L4.71387 16.8447C4.57857 17.1799 4.32663 17.4551 4.00391 17.6182C3.67917 17.7819 3.30493 17.8227 2.95312 17.7305C2.60128 17.638 2.29418 17.4195 2.0918 17.1172C1.89729 16.8264 1.81263 16.4759 1.84961 16.1289V14.2402C1.84967 12.6256 2.19706 11.0933 2.81543 9.73438C3.34572 9.90462 3.91121 9.99801 4.49805 9.99805C7.5354 9.99794 9.99785 7.53538 9.99805 4.49805C9.99805 4.41304 9.99405 4.32821 9.99023 4.24414C10.0407 4.23822 10.0918 4.23061 10.1426 4.22559C10.3505 4.20475 10.4791 4.04366 10.4795 3.89453V2.22461C10.4545 1.88123 10.5246 1.53698 10.6846 1.23145C10.8521 0.911921 11.1104 0.647875 11.4258 0.472656C11.7415 0.297581 12.1029 0.217214 12.4629 0.244141Z" fill="currentColor"/>
<path fill-rule="evenodd" clip-rule="evenodd" d="M4.49805 0C6.98205 0 8.99609 2.01405 8.99609 4.49805C8.9959 6.98188 6.98193 8.99512 4.49805 8.99512C2.01422 8.99505 0.00019788 6.98184 0 4.49805C0 2.01409 2.0141 6.59709e-05 4.49805 0ZM4.54883 1.14551C4.21764 1.14563 3.94935 1.41393 3.94922 1.74512V1.88281C3.69098 1.9468 3.43417 2.0632 3.2168 2.25293C2.89092 2.53755 2.70215 2.9464 2.70215 3.4375C2.70222 3.71489 2.77825 3.96724 2.9248 4.18262C3.06622 4.39003 3.25361 4.53497 3.43262 4.63867C3.76829 4.83287 4.19973 4.94798 4.50098 5.03711C4.85399 5.14158 5.08099 5.22296 5.21875 5.32617C5.27524 5.3686 5.29724 5.4021 5.30762 5.4248C5.31736 5.44644 5.33383 5.49602 5.32324 5.59766C5.29917 5.82573 5.10868 6.03665 4.64355 6.06445C4.17163 6.09251 3.74523 5.88897 3.58301 5.62402C3.41044 5.34124 3.04066 5.25137 2.75781 5.42383C2.47508 5.59641 2.38517 5.9662 2.55762 6.24902C2.87215 6.76433 3.40272 7.06672 3.94922 7.19434V7.25C3.94937 7.58116 4.21766 7.84949 4.54883 7.84961C4.87997 7.84945 5.14828 7.58114 5.14844 7.25V7.19531C5.79542 7.03359 6.42672 6.58287 6.5166 5.72168C6.54596 5.43976 6.51063 5.1709 6.39941 4.92676C6.28867 4.68411 6.11931 4.50187 5.93848 4.36621C5.6007 4.11304 5.16164 3.98067 4.84082 3.88574C4.46841 3.77555 4.21411 3.70461 4.03418 3.60059C3.95694 3.55585 3.92714 3.5224 3.91699 3.50781C3.91255 3.50129 3.9024 3.48603 3.90234 3.4375C3.90234 3.27512 3.95416 3.20245 4.00586 3.15723C4.07402 3.09771 4.19964 3.0408 4.38574 3.02344C4.56897 3.00647 4.76982 3.03276 4.94043 3.09473C5.11677 3.15891 5.21121 3.24116 5.24609 3.29199C5.43308 3.56521 5.80662 3.63592 6.08008 3.44922C6.35335 3.26235 6.42377 2.88873 6.2373 2.61523C6.01736 2.29335 5.67843 2.08607 5.35059 1.9668C5.28509 1.943 5.21685 1.92354 5.14844 1.90527V1.74512C5.14831 1.41395 4.87999 1.14566 4.54883 1.14551Z" fill="currentColor"/>
</g>
</svg>
