<svg width="24" height="24" viewBox="0 0 24 24" fill="none" xmlns="http://www.w3.org/2000/svg">
<path d="M18.4998 11.2504H6.65805C6.64492 11.2504 6.63194 11.2516 6.61899 11.2523L11.117 7.17027C11.4237 6.89186 11.4462 6.41739 11.1678 6.1107C10.8895 5.80424 10.4159 5.78094 10.1092 6.05895L5.57504 10.1752C4.47499 11.1738 4.47499 12.8259 5.57504 13.8246L10.1092 17.9408C10.4158 18.2188 10.8894 18.1961 11.1678 17.89C11.4462 17.5834 11.4236 17.1089 11.117 16.8304L6.61996 12.7484C6.63259 12.749 6.64526 12.7503 6.65805 12.7504H18.4998C18.9139 12.7504 19.2497 12.4144 19.2498 12.0004C19.2498 11.5861 18.9141 11.2504 18.4998 11.2504Z" fill="currentColor"></path>
</svg>