<svg viewBox="0 0 19.6007 18.8416" fill="none" xmlns="http://www.w3.org/2000/svg">
<g id="Vector">
<path d="M3.68115 2.60188C7.44811 -0.988348 13.4079 -0.845421 16.9985 2.92121C20.5893 6.68821 20.4462 12.6488 16.6792 16.2396C12.9122 19.8299 6.95244 19.6871 3.36182 15.9202C3.07608 15.6204 3.08741 15.1455 3.38721 14.8597C3.68702 14.5741 4.16201 14.5854 4.44775 14.8851C7.4669 18.0524 12.4777 18.1727 15.645 15.1536C18.8122 12.1345 18.9317 7.12368 15.9126 3.95637C12.8934 0.789213 7.88262 0.668724 4.71533 3.68781C4.05835 4.31407 3.5516 4.98468 3.14697 5.66438C3.17259 5.66391 3.19974 5.66447 3.22705 5.6634C3.71396 5.64424 4.35299 5.53426 5.30225 5.36848L5.59814 5.3177C6.00602 5.24649 6.39484 5.51832 6.46631 5.9261C6.53755 6.33403 6.26382 6.72285 5.85596 6.79426L5.55908 6.84602C4.65192 7.00445 3.89753 7.13833 3.28662 7.16242C2.65378 7.18728 2.06261 7.10191 1.53564 6.73176C1.00863 6.36145 0.727772 5.83467 0.536621 5.23078C0.352092 4.64776 0.222466 3.89226 0.0639646 2.98469L0.0112302 2.68781C-0.0598202 2.27992 0.21369 1.8919 0.621582 1.82063C1.02946 1.74945 1.41734 2.02221 1.48877 2.43L1.54053 2.72688C1.70131 3.6475 1.81485 4.27489 1.95557 4.73567C2.40559 4.00739 2.96669 3.28292 3.68115 2.60188Z" fill="currentColor"/>
<path d="M10.5933 4.84406C11.0073 4.84431 11.3433 5.18 11.3433 5.59406V5.87922C11.4574 5.90743 11.5698 5.9414 11.6782 5.98078C12.1236 6.14272 12.5777 6.4223 12.8706 6.8509C13.1038 7.19282 13.016 7.65932 12.6743 7.89289C12.3325 8.12639 11.8661 8.03821 11.6323 7.6966C11.5709 7.60698 11.4224 7.48409 11.1665 7.39094C10.9178 7.30061 10.6262 7.2617 10.3589 7.28645C10.0879 7.31168 9.89544 7.39598 9.78369 7.49348C9.69248 7.57312 9.60992 7.69758 9.60986 7.9466C9.60998 8.03007 9.62897 8.0675 9.64502 8.09113C9.66794 8.12451 9.72008 8.17859 9.83545 8.24543C10.0967 8.39649 10.4629 8.49885 10.9761 8.6507C11.4243 8.78332 12.0186 8.96376 12.4741 9.305C12.7168 9.48703 12.9424 9.72928 13.0894 10.0511C13.2371 10.375 13.2851 10.734 13.2456 11.1136C13.1226 12.2917 12.2412 12.9001 11.3433 13.1048V13.2484C11.3427 13.6619 11.0069 13.9981 10.5933 13.9984C10.1795 13.9982 9.84385 13.662 9.84326 13.2484V13.1038C9.07879 12.9394 8.3323 12.5242 7.89697 11.8109C7.68174 11.4574 7.79375 10.9963 8.14697 10.7806C8.50047 10.5651 8.96248 10.6763 9.17822 11.0296C9.42463 11.433 10.053 11.7232 10.73 11.6829C11.3982 11.643 11.714 11.3335 11.7534 10.9583C11.7695 10.8036 11.7447 10.7195 11.7241 10.6741C11.7026 10.6272 11.6619 10.5707 11.5747 10.5052C11.3691 10.3512 11.039 10.2338 10.5503 10.0892C10.1266 9.96381 9.54021 9.8078 9.08447 9.54426C8.84245 9.40413 8.59328 9.20997 8.40576 8.93488C8.21187 8.65008 8.11001 8.31629 8.10986 7.9466C8.10993 7.28703 8.36268 6.74247 8.79639 6.3636C9.1045 6.0946 9.47338 5.93379 9.84326 5.8509V5.59406C9.84326 5.17993 10.1792 4.8442 10.5933 4.84406Z" fill="currentColor"/>
</g>
</svg>
