<svg viewBox="0 0 19.0367 17.5005" fill="none" xmlns="http://www.w3.org/2000/svg">
<path id="Vector" d="M16.1883 10.595C17.13 10.3776 18.0705 10.9648 18.2879 11.9065L19.0174 15.0657C19.1105 15.4693 18.8584 15.8719 18.4549 15.9651C18.0513 16.0583 17.6487 15.8071 17.5555 15.4036L17.0476 13.2044C16.2424 14.5656 15.0841 15.6845 13.6932 16.4397C12.2751 17.2097 10.6717 17.5729 9.06034 17.4885C7.44894 17.4041 5.89214 16.8751 4.56229 15.9612C3.23241 15.0472 2.18056 13.783 1.52421 12.3089C1.35596 11.9305 1.52677 11.4871 1.90507 11.3186C2.28336 11.1505 2.72592 11.3212 2.89433 11.6995C3.43816 12.9209 4.31006 13.9676 5.4119 14.7249C6.51375 15.4821 7.80333 15.9205 9.13847 15.9905C10.4737 16.0605 11.8023 15.7593 12.9773 15.1214C14.1523 14.4834 15.1281 13.5331 15.7967 12.3753C15.8387 12.3024 15.8931 12.2413 15.9529 12.1887L13.367 12.7864C12.9634 12.8796 12.5608 12.6275 12.4676 12.2239C12.3744 11.8203 12.6256 11.4177 13.0291 11.3245L16.1883 10.595ZM5.34257 1.06081C6.76071 0.290822 8.36487 -0.0724724 9.97636 0.011982C11.5877 0.0965077 13.1446 0.625399 14.4744 1.53933C15.8041 2.45332 16.8552 3.71761 17.5115 5.19167C17.6798 5.56999 17.5099 6.01345 17.1316 6.1819C16.7532 6.35038 16.3099 6.17945 16.1414 5.80104C15.5976 4.57983 14.7264 3.5329 13.6248 2.77565C12.5229 2.01833 11.2325 1.58001 9.89725 1.51003C8.56208 1.44009 7.23337 1.7412 6.05839 2.37917C4.88348 3.01716 3.90753 3.96743 3.23905 5.12526C3.19707 5.19794 3.14251 5.25828 3.0828 5.31081L5.66972 4.71413C6.07318 4.62122 6.47599 4.87317 6.56913 5.27663C6.66217 5.68016 6.41016 6.08289 6.00663 6.17604L2.84745 6.90554C1.90579 7.12293 0.96632 6.53561 0.748817 5.59401L0.019325 2.43386C-0.073589 2.03043 0.177459 1.62765 0.580848 1.53444C0.984431 1.44127 1.38707 1.69337 1.48026 2.09694L1.9871 4.29519C2.79232 2.93403 3.95174 1.81604 5.34257 1.06081Z" fill="currentColor"/>
</svg>
