<svg viewBox="0 0 18.6648 18.6628" fill="none" xmlns="http://www.w3.org/2000/svg">
<g id="Vector">
<path d="M0 12.4128V6.31319C2.57711e-07 2.86141 2.79822 0.0631927 6.25 0.0631927H9.2998C9.71402 0.0631927 10.0498 0.398979 10.0498 0.813193C10.0498 1.22741 9.71402 1.56319 9.2998 1.56319H6.25C3.62665 1.56319 1.5 3.68984 1.5 6.31319V12.4128C1.5 15.0362 3.62665 17.1628 6.25 17.1628H12.3496C14.973 17.1628 17.0996 15.0362 17.0996 12.4128V9.363C17.0997 8.949 17.4356 8.61321 17.8496 8.613C18.2638 8.613 18.5995 8.94887 18.5996 9.363V12.4128C18.5996 15.8646 15.8014 18.6628 12.3496 18.6628H6.25C2.79822 18.6628 0 15.8646 0 12.4128Z" fill="currentColor"/>
<path d="M9.82113 7.78301L16.1043 1.49984H13.6722C13.2581 1.49978 12.9224 1.16405 12.9223 0.74992C12.9223 0.335742 13.2581 5.80046e-05 13.6722 5.26835e-08L16.915 0C17.8815 0 18.6648 0.783315 18.6648 1.74981V4.99256C18.6647 5.40673 18.3291 5.74248 17.9149 5.74248C17.5007 5.74242 17.165 5.40669 17.165 4.99256V2.5605L10.8818 8.84367C10.5889 9.13656 10.114 9.13656 9.82113 8.84367C9.52823 8.55077 9.52823 8.0759 9.82113 7.78301Z" fill="currentColor"/>
</g>
</svg>
