<svg viewBox="0 0 21.5254 17.8389" fill="none" xmlns="http://www.w3.org/2000/svg">
<g id="Vector">
<path d="M12.4658 0.245117C12.8699 0.275511 13.2561 0.42371 13.5771 0.670898C13.5846 0.676631 13.5924 0.682467 13.5996 0.688477L20.7383 6.62891C20.7442 6.63383 20.7501 6.63943 20.7559 6.64453C20.9978 6.85912 21.1916 7.12303 21.3242 7.41797C21.4568 7.7129 21.5254 8.03306 21.5254 8.35645C21.5253 8.67964 21.4568 8.99918 21.3242 9.29395C21.1915 9.58886 20.9978 9.85282 20.7559 10.0674C20.7501 10.0725 20.7442 10.0781 20.7383 10.083L13.5996 16.0234C13.5923 16.0295 13.5846 16.0353 13.5771 16.041C13.2561 16.2881 12.8699 16.4364 12.4658 16.4668C12.0618 16.4972 11.6572 16.4083 11.3027 16.2119C10.9486 16.0155 10.6591 15.7198 10.4707 15.3613C10.2937 15.0244 10.2148 14.6456 10.2383 14.2666V13.0088C10.2382 12.9362 10.2089 12.8871 10.1846 12.8643C10.1735 12.854 10.1652 12.8499 10.1611 12.8486C10.1586 12.8479 10.1507 12.8455 10.1338 12.8486C9.22672 13.019 8.20357 13.4106 7.49512 13.8965C6.46085 14.606 5.65454 15.6009 5.1748 16.7598C5.01777 17.1474 4.7251 17.4647 4.35156 17.6533C3.97497 17.8434 3.54181 17.8894 3.13379 17.7822C2.72599 17.6751 2.37127 17.4226 2.13672 17.0723C1.91677 16.7435 1.81841 16.3495 1.85352 15.957V14.1221C1.85354 12.5511 2.18446 11.0554 2.77637 9.7207C3.25923 9.8798 3.77113 9.9736 4.30273 9.99219C3.7002 11.2103 3.35354 12.6151 3.35352 14.1221V15.9795C3.35351 16.0131 3.35118 16.0468 3.34668 16.0801C3.33925 16.1352 3.35187 16.192 3.38281 16.2383C3.41375 16.2844 3.46094 16.3179 3.51465 16.332C3.5685 16.3462 3.62606 16.3395 3.67578 16.3145C3.72544 16.2894 3.76453 16.247 3.78516 16.1953L3.78906 16.1855C4.37993 14.7585 5.37281 13.5339 6.64648 12.6602C7.55762 12.0352 8.78517 11.5764 9.85742 11.375C10.9477 11.1704 11.7381 12.0788 11.7383 13.0088V14.2666C11.7383 14.2907 11.7377 14.3149 11.7354 14.3389C11.7245 14.4509 11.7465 14.5644 11.7988 14.6641C11.8512 14.7636 11.9319 14.8459 12.0303 14.9004C12.1288 14.9549 12.2412 14.9791 12.3535 14.9707C12.4657 14.9622 12.5729 14.9211 12.6621 14.8525L19.7666 8.93848C19.8469 8.86572 19.9125 8.77755 19.957 8.67871C20.0025 8.57747 20.0253 8.46742 20.0254 8.35645C20.0254 8.24528 20.0026 8.13461 19.957 8.0332C19.9125 7.93411 19.8471 7.84534 19.7666 7.77246L12.6621 1.85938L12.5918 1.8125C12.5188 1.77175 12.4375 1.74756 12.3535 1.74121C12.2411 1.73278 12.1279 1.75684 12.0293 1.81152C11.9309 1.8662 11.8511 1.94913 11.7988 2.04883C11.7465 2.14862 11.7243 2.26191 11.7354 2.37402C11.7377 2.39829 11.7383 2.42289 11.7383 2.44727V4.02344C11.738 4.89683 11.0396 5.52924 10.2686 5.61035C10.1358 5.62428 10.004 5.64249 9.87305 5.66406C9.95424 5.28817 9.99802 4.89822 9.99805 4.49805C9.99805 4.37641 9.99215 4.25541 9.98438 4.13574C10.0267 4.13065 10.0688 4.1236 10.1113 4.11914C10.1552 4.11454 10.1929 4.09391 10.2158 4.07031C10.2359 4.04952 10.2382 4.03371 10.2383 4.02344V2.44727C10.2144 2.06819 10.2929 1.68879 10.4697 1.35156C10.658 0.992705 10.9474 0.696644 11.3018 0.5C11.6563 0.303313 12.0615 0.214798 12.4658 0.245117Z" fill="currentColor"/>
<path fill-rule="evenodd" clip-rule="evenodd" d="M4.49805 0C6.98205 0 8.99609 2.01405 8.99609 4.49805C8.9959 6.98188 6.98193 8.99512 4.49805 8.99512C2.01422 8.99505 0.00019788 6.98184 0 4.49805C0 2.01409 2.0141 6.59709e-05 4.49805 0ZM4.54883 1.14551C4.21764 1.14563 3.94935 1.41393 3.94922 1.74512V1.88281C3.69098 1.9468 3.43417 2.0632 3.2168 2.25293C2.89092 2.53755 2.70215 2.9464 2.70215 3.4375C2.70222 3.71489 2.77825 3.96724 2.9248 4.18262C3.06622 4.39003 3.25361 4.53497 3.43262 4.63867C3.76829 4.83287 4.19973 4.94798 4.50098 5.03711C4.85399 5.14158 5.08099 5.22296 5.21875 5.32617C5.27524 5.3686 5.29724 5.4021 5.30762 5.4248C5.31736 5.44644 5.33383 5.49602 5.32324 5.59766C5.29917 5.82573 5.10868 6.03665 4.64355 6.06445C4.17163 6.09251 3.74523 5.88897 3.58301 5.62402C3.41044 5.34124 3.04066 5.25137 2.75781 5.42383C2.47508 5.59641 2.38517 5.9662 2.55762 6.24902C2.87215 6.76433 3.40272 7.06672 3.94922 7.19434V7.25C3.94937 7.58116 4.21766 7.84949 4.54883 7.84961C4.87997 7.84945 5.14828 7.58114 5.14844 7.25V7.19531C5.79542 7.03359 6.42672 6.58287 6.5166 5.72168C6.54596 5.43976 6.51063 5.1709 6.39941 4.92676C6.28867 4.68411 6.11931 4.50187 5.93848 4.36621C5.6007 4.11304 5.16164 3.98067 4.84082 3.88574C4.46841 3.77555 4.21411 3.70461 4.03418 3.60059C3.95694 3.55585 3.92714 3.5224 3.91699 3.50781C3.91255 3.50129 3.9024 3.48603 3.90234 3.4375C3.90234 3.27512 3.95416 3.20245 4.00586 3.15723C4.07402 3.09771 4.19964 3.0408 4.38574 3.02344C4.56897 3.00647 4.76982 3.03276 4.94043 3.09473C5.11677 3.15891 5.21121 3.24116 5.24609 3.29199C5.43308 3.56521 5.80662 3.63592 6.08008 3.44922C6.35335 3.26235 6.42377 2.88873 6.2373 2.61523C6.01736 2.29335 5.67843 2.08607 5.35059 1.9668C5.28509 1.943 5.21685 1.92354 5.14844 1.90527V1.74512C5.14831 1.41395 4.87999 1.14566 4.54883 1.14551Z" fill="currentColor"/>
</g>
</svg>
