<svg viewBox="0 0 16.4998 19.0861" fill="none" xmlns="http://www.w3.org/2000/svg">
<g id="Group 242">
<path id="Vector (Stroke)" d="M11.9999 18.3361V2.14661L10.2802 3.86633C9.9873 4.15913 9.51251 4.15913 9.21963 3.86633C8.92676 3.57347 8.92681 3.09869 9.21963 2.80579L11.5126 0.512817C12.196 -0.170599 13.3038 -0.1706 13.9872 0.512817L16.2802 2.80579C16.573 3.09869 16.573 3.57346 16.2802 3.86633C15.9873 4.15912 15.5125 4.15913 15.2196 3.86633L13.4999 2.14661V18.3361C13.4998 18.7502 13.1641 19.0861 12.7499 19.0861C12.3357 19.0861 12 18.7502 11.9999 18.3361Z" fill="currentColor"/>
<path id="Vector (Stroke)_2" d="M2.99991 0.75V16.9395L1.28018 15.2197C0.987305 14.9269 0.512506 14.9269 0.219632 15.2197C-0.0732359 15.5126 -0.0731854 15.9874 0.219632 16.2803L2.5126 18.5732C3.19602 19.2567 4.30379 19.2567 4.98721 18.5732L7.28018 16.2803C7.573 15.9874 7.57305 15.5126 7.28018 15.2197C6.98731 14.9269 6.51251 14.9269 6.21963 15.2197L4.49991 16.9395V0.75C4.49982 0.335857 4.16407 0 3.74991 0C3.33574 2.57621e-07 2.99999 0.335857 2.99991 0.75Z" fill="currentColor"/>
</g>
</svg>
