<svg viewBox="0 0 16.695 22.1231" fill="none" xmlns="http://www.w3.org/2000/svg">
<g id="Vector">
<path d="M15.8775 9.21001C15.426 9.21001 15.0675 9.57828 15.0675 10.02V16.6125C15.0675 17.2047 14.5872 17.685 13.995 17.685H2.76963L4.20857 16.2461C4.36388 16.0908 4.4475 15.8877 4.4475 15.675C4.4475 15.4657 4.36617 15.2531 4.20698 15.1024C4.05188 14.9481 3.84951 14.865 3.6375 14.865C3.42827 14.865 3.21575 14.9463 3.06499 15.1054L0.238934 17.9239C0.0836247 18.0793 0 18.2823 0 18.495C0 18.7043 0.0813041 18.9168 0.240455 19.0676L3.06643 21.8936C3.37337 22.2005 3.90217 22.1983 4.21448 21.8952L4.21607 21.8936C4.37138 21.7383 4.455 21.5352 4.455 21.3225C4.455 21.1132 4.3737 20.9007 4.21455 20.7499L2.77713 19.3125H14.0025C15.4878 19.3125 16.695 18.1054 16.695 16.62V10.02C16.695 9.56856 16.3267 9.21001 15.885 9.21001H15.8775Z" fill="currentColor"/>
<path d="M13.4411 0.246434C13.1125 -0.0821447 12.545 -0.0821447 12.2164 0.246434C12.0537 0.409123 11.9625 0.627098 11.9625 0.855C11.9625 1.0829 12.0537 1.30088 12.2164 1.46357L13.7304 2.9775H2.8575C1.28216 2.9775 0 4.25966 0 5.835V12.8175C0 13.2968 0.388638 13.6875 0.8625 13.6875C1.33636 13.6875 1.725 13.2968 1.725 12.8175V5.8425C1.725 5.22149 2.2342 4.7175 2.8575 4.7175H13.7304L12.2164 6.23143C12.0537 6.39412 11.9625 6.6121 11.9625 6.84C11.9625 7.07457 12.0532 7.29278 12.2164 7.45607C12.545 7.78465 13.1125 7.78465 13.4411 7.45607L16.4336 4.46357C16.5963 4.30088 16.6875 4.0829 16.6875 3.855C16.6875 3.63039 16.5985 3.4031 16.4322 3.24509L13.4411 0.246434Z" fill="currentColor"/>
</g>
</svg>
