<svg viewBox="0 0 13 17.9145" fill="none" xmlns="http://www.w3.org/2000/svg">
<g id="Vector">
<path d="M0 0.800001C0 1.24183 0.358172 1.6 0.8 1.6H12.2C12.6418 1.6 13 1.24183 13 0.800001C13 0.358173 12.6418 0 12.2 0H0.799999C0.358172 0 0 0.358173 0 0.800001Z" fill="currentColor"/>
<path d="M5.74951 17.1645V5.89492C5.74952 5.86654 5.75132 5.8385 5.75439 5.81094C5.73242 5.82982 5.71077 5.84968 5.68994 5.87051L1.34326 10.2162C1.05037 10.5091 0.575608 10.5091 0.282715 10.2162C-0.00998923 9.9233 -0.0101154 9.44849 0.282715 9.15566L4.62939 4.80898C5.66252 3.77624 7.33751 3.77619 8.37061 4.80898L12.7173 9.15566C13.0101 9.44847 13.0099 9.9233 12.7173 10.2162C12.4244 10.5091 11.9496 10.5091 11.6567 10.2162L7.31006 5.87051C7.28875 5.8492 7.26616 5.82924 7.24365 5.80996C7.24681 5.8379 7.24951 5.86614 7.24951 5.89492V17.1645C7.24951 17.5787 6.91373 17.9145 6.49951 17.9145C6.08549 17.9142 5.74951 17.5785 5.74951 17.1645Z" fill="currentColor"/>
</g>
</svg>
