<svg viewBox="0 0 19.6003 18.8418" fill="none" xmlns="http://www.w3.org/2000/svg">
<g id="Vector">
<path d="M3.68023 2.60189C7.44716 -0.988395 13.407 -0.845379 16.9976 2.92122C20.5883 6.6882 20.4462 12.6488 16.6793 16.2396C12.9122 19.8303 6.95163 19.6872 3.36089 15.9202C3.07521 15.6204 3.0865 15.1455 3.38628 14.8597C3.68607 14.5741 4.16106 14.5854 4.44683 14.8851C7.46598 18.0524 12.4767 18.1728 15.6441 15.1536C18.8114 12.1345 18.9308 7.12371 15.9117 3.95638C12.8925 0.789277 7.88168 0.66874 4.71441 3.68782C4.05767 4.31386 3.5506 4.98396 3.14605 5.66341C3.17181 5.66294 3.19864 5.66449 3.22613 5.66341C3.71302 5.64427 4.35113 5.53426 5.30035 5.36849L5.59722 5.31673C6.00524 5.2455 6.39413 5.51906 6.46538 5.92708C6.53634 6.33494 6.2629 6.72303 5.85503 6.79427L5.55913 6.84603C4.65149 7.00454 3.89582 7.13842 3.28472 7.16243C2.652 7.18724 2.06159 7.10189 1.53472 6.73177C1.00775 6.3615 0.727824 5.8346 0.536674 5.23079C0.352134 4.64775 0.22155 3.89231 0.0630412 2.9847L0.0112834 2.68782C-0.0598564 2.27992 0.212788 1.89198 0.620658 1.82064C1.02866 1.74943 1.41757 2.02201 1.48882 2.43001L1.54058 2.72689C1.70139 3.64768 1.81389 4.27488 1.95464 4.73568C2.40468 4.00737 2.96573 3.28297 3.68023 2.60189Z" fill="currentColor"/>
<path d="M10.1851 5.81282C10.3822 5.81305 10.5721 5.89219 10.7115 6.03157C10.8505 6.17108 10.9293 6.36095 10.9293 6.55794V9.66243C10.9295 9.94405 11.0692 10.2075 11.3023 10.3656L13.2252 11.6702C13.3859 11.7803 13.4989 11.9496 13.5367 12.1409C13.5743 12.3324 13.5356 12.5317 13.4283 12.6947C13.3209 12.8576 13.1532 12.972 12.9625 13.013C12.7719 13.0539 12.5724 13.0177 12.4078 12.9134L12.4048 12.9115L12.4009 12.9095L9.94488 11.2445C9.62939 11.0306 9.44016 10.6735 9.43999 10.2923V6.55794C9.43999 6.36055 9.51917 6.17116 9.65874 6.03157C9.79833 5.89199 9.98771 5.81282 10.1851 5.81282Z" fill="currentColor"/>
</g>
</svg>
