<svg viewBox="0 0 19.68 17.5394" fill="none" xmlns="http://www.w3.org/2000/svg">
<path id="Vector" d="M10.6212 0.00514437C10.936 0.0288165 11.2388 0.133065 11.5012 0.306065L11.6119 0.384607L11.6261 0.395963L18.9845 6.52036C19.203 6.71422 19.3785 6.95228 19.4983 7.21872C19.6181 7.48517 19.68 7.77446 19.68 8.0666C19.68 8.35874 19.6181 8.64804 19.4983 8.91448C19.3785 9.18089 19.203 9.419 18.9845 9.61284C18.9807 9.61618 18.977 9.62004 18.9731 9.62325L11.6261 15.7372C11.6215 15.7411 11.6167 15.7449 11.6119 15.7486C11.3259 15.9687 10.9811 16.101 10.6212 16.1281C10.2614 16.1551 9.90153 16.0757 9.58591 15.9009C9.27021 15.726 9.01194 15.4624 8.84402 15.143C8.68345 14.8374 8.61306 14.4931 8.63773 14.1494V12.7952C8.6376 12.5056 8.42156 12.3662 8.24502 12.3978C7.26739 12.5731 6.14775 12.9951 5.36451 13.5324C4.25415 14.2941 3.3889 15.3618 2.87387 16.6059L2.87292 16.605C2.73766 16.9406 2.4854 17.2159 2.16226 17.3791C1.83743 17.543 1.46382 17.583 1.11187 17.4907C0.759872 17.3983 0.453183 17.18 0.250749 16.8775C0.0561892 16.5867 -0.0285594 16.2366 0.00849842 15.8896V14.0008C0.00868916 8.79465 3.6147 4.44879 8.30085 3.98619C8.50915 3.96548 8.63759 3.80434 8.63773 3.65499V1.98573C8.61269 1.64209 8.68287 1.29787 8.84307 0.992126C9.01071 0.672449 9.26845 0.408428 9.58402 0.233201C9.89988 0.0579746 10.261 -0.0218664 10.6212 0.00514437Z" fill="currentColor"/>
</svg>
