<svg width="24" height="24" viewBox="0 0 24 24" fill="none" xmlns="http://www.w3.org/2000/svg">
<path d="M11.2502 5.50009V17.3419C11.2502 17.355 11.2515 17.368 11.2522 17.381L7.17015 12.8829C6.89173 12.5762 6.41727 12.5537 6.11058 12.8321C5.80412 13.1104 5.78082 13.5841 6.05882 13.8907L10.175 18.4249C11.1737 19.525 12.8258 19.525 13.8244 18.4249L17.9407 13.8907C18.2187 13.5842 18.196 13.1105 17.8899 12.8321C17.5832 12.5538 17.1087 12.5764 16.8303 12.8829L12.7483 17.38C12.7489 17.3674 12.7502 17.3547 12.7502 17.3419V5.50009C12.7502 5.086 12.4143 4.75028 12.0002 4.75009C11.586 4.75009 11.2502 5.08588 11.2502 5.50009Z" fill="currentColor"></path>
</svg>