<svg width="24" height="24" viewBox="0 0 24 24" fill="none" xmlns="http://www.w3.org/2000/svg">
<path d="M11.2502 18.5V6.65817C11.2502 6.64505 11.2515 6.63207 11.2522 6.61911L7.17015 11.1172C6.89173 11.4238 6.41727 11.4464 6.11058 11.1679C5.80412 10.8896 5.78082 10.416 6.05882 10.1093L10.175 5.57516C11.1737 4.47511 12.8258 4.47511 13.8244 5.57516L17.9407 10.1093C18.2187 10.4159 18.196 10.8895 17.8899 11.1679C17.5832 11.4463 17.1087 11.4237 16.8303 11.1172L12.7483 6.62008C12.7489 6.63271 12.7502 6.64539 12.7502 6.65817V18.5C12.7502 18.9141 12.4143 19.2498 12.0002 19.25C11.586 19.25 11.2502 18.9142 11.2502 18.5Z" fill="currentColor"></path>
</svg>