<svg viewBox="0 0 18.5996 18.5996" fill="none" xmlns="http://www.w3.org/2000/svg">
<g id="Vector">
<path d="M18.5996 6.25V12.3496C18.5996 15.8014 15.8014 18.5996 12.3496 18.5996H9.2998C8.88559 18.5996 8.5498 18.2638 8.5498 17.8496C8.5498 17.4354 8.88559 17.0996 9.2998 17.0996H12.3496C14.973 17.0996 17.0996 14.973 17.0996 12.3496V6.25C17.0996 3.62665 14.973 1.5 12.3496 1.5H6.25C3.62665 1.5 1.5 3.62665 1.5 6.25V9.2998C1.49989 9.7138 1.16397 10.0496 0.75 10.0498C0.335852 10.0498 0.000105692 9.71393 0 9.2998V6.25C0 2.79822 2.79822 0 6.25 0H12.3496C15.8014 2.57727e-07 18.5996 2.79822 18.5996 6.25Z" fill="currentColor"/>
<path d="M0.447311 17.0895L6.73048 10.8064L4.29842 10.8064C3.88429 10.8063 3.54856 10.4706 3.5485 10.0564C3.5485 9.64226 3.88425 9.30658 4.29842 9.30652H7.54117C8.50766 9.30652 9.29098 10.0898 9.29098 11.0563V14.2991C9.29092 14.7132 8.95524 15.049 8.54106 15.049C8.12693 15.0489 7.7912 14.7132 7.79114 14.2991V11.867L1.50797 18.1502C1.21508 18.4431 0.740205 18.4431 0.447311 18.1502C0.154418 17.8573 0.154419 17.3824 0.447311 17.0895Z" fill="currentColor"/>
</g>
</svg>
