<svg viewBox="0 0 18.5996 18.5996" fill="none" xmlns="http://www.w3.org/2000/svg">
<g id="Vector">
<path d="M0 12.3496V6.25C2.57711e-07 2.79822 2.79822 0 6.25 0H9.2998C9.71402 0 10.0498 0.335786 10.0498 0.75C10.0498 1.16421 9.71402 1.5 9.2998 1.5H6.25C3.62665 1.5 1.5 3.62665 1.5 6.25V12.3496C1.5 14.973 3.62665 17.0996 6.25 17.0996H12.3496C14.973 17.0996 17.0996 14.973 17.0996 12.3496V9.2998C17.0997 8.88581 17.4356 8.55002 17.8496 8.5498C18.2638 8.5498 18.5995 8.88568 18.5996 9.2998V12.3496C18.5996 15.8014 15.8014 18.5996 12.3496 18.5996H6.25C2.79822 18.5996 0 15.8014 0 12.3496Z" fill="currentColor"/>
<path d="M18.1524 1.51009L11.8692 7.79326L14.3013 7.79326C14.7154 7.79332 15.0511 8.12905 15.0512 8.54318C15.0512 8.95736 14.7154 9.29305 14.3013 9.2931H11.0585C10.092 9.2931 9.30869 8.50979 9.30869 7.54329V4.30054C9.30875 3.88638 9.64444 3.55062 10.0586 3.55062C10.4727 3.55068 10.8085 3.88641 10.8085 4.30054V6.7326L17.0917 0.449435C17.3846 0.156542 17.8595 0.156541 18.1524 0.449435C18.4453 0.742328 18.4453 1.2172 18.1524 1.51009Z" fill="currentColor"/>
</g>
</svg>
