<svg width="24" height="24" viewBox="0 0 24 24" fill="none" xmlns="http://www.w3.org/2000/svg">
<path d="M5.50003 11.2504H17.3418C17.355 11.2504 17.3679 11.2516 17.3809 11.2523L12.8828 7.17027C12.5762 6.89186 12.5536 6.41739 12.8321 6.1107C13.1104 5.80424 13.584 5.78094 13.8907 6.05895L18.4248 10.1752C19.5249 11.1738 19.5249 12.8259 18.4248 13.8246L13.8907 17.9408C13.5841 18.2188 13.1105 18.1961 12.8321 17.89C12.5537 17.5834 12.5763 17.1089 12.8828 16.8304L17.3799 12.7484C17.3673 12.749 17.3546 12.7503 17.3418 12.7504H5.50003C5.08594 12.7504 4.75022 12.4144 4.75003 12.0004C4.75003 11.5861 5.08582 11.2504 5.50003 11.2504Z" fill="currentColor"></path>
</svg>