<svg viewBox="0 0 19.6788 17.5996" fill="none" xmlns="http://www.w3.org/2000/svg">
<path id="Vector" d="M8.39174 2.20797C8.36788 1.82883 8.44632 1.44954 8.62318 1.11227C8.81145 0.753372 9.10084 0.457355 9.45521 0.260707C9.80977 0.0640148 10.2149 -0.0244953 10.6193 0.0058244C11.0234 0.0362174 11.4095 0.184411 11.7306 0.431606C11.7381 0.437363 11.7458 0.443148 11.7531 0.449184L18.8917 6.38961C18.8977 6.39456 18.9035 6.40011 18.9093 6.40524C19.1513 6.61985 19.345 6.88369 19.4777 7.17868C19.6103 7.47366 19.6788 7.7937 19.6788 8.11715C19.6788 8.44042 19.6103 8.75982 19.4777 9.05465C19.345 9.34964 19.1513 9.61348 18.9093 9.82809C18.9035 9.83324 18.8977 9.83875 18.8917 9.84371L11.7531 15.7841C11.7458 15.7902 11.7381 15.7959 11.7306 15.8017C11.4095 16.0489 11.0234 16.1971 10.6193 16.2275C10.2152 16.2579 9.81063 16.169 9.45619 15.9726C9.10196 15.7762 8.81256 15.4806 8.62416 15.122C8.44712 14.785 8.36824 14.4063 8.39174 14.0273V12.7695C8.39164 12.6968 8.36241 12.6477 8.33802 12.625C8.32691 12.6146 8.31861 12.6106 8.31459 12.6093C8.31209 12.6086 8.30419 12.6062 8.28724 12.6093C7.38015 12.7797 6.35704 13.1713 5.64857 13.6572C4.61425 14.3667 3.80801 15.3616 3.32826 16.5205C3.17124 16.9082 2.87861 17.2254 2.50502 17.414C2.12839 17.6041 1.6953 17.6501 1.28724 17.5429C0.87939 17.4357 0.524721 17.1834 0.290173 16.833C0.0701803 16.5041 -0.028186 16.1103 0.00696957 15.7177V13.8828C0.00703589 8.72167 3.57235 4.37229 8.26478 3.87985C8.30872 3.87524 8.34636 3.85467 8.36927 3.83102C8.38946 3.81009 8.39167 3.79441 8.39174 3.78414V2.20797ZM9.89174 3.78414C9.89154 4.65764 9.19314 5.28994 8.42201 5.37106C4.606 5.77137 1.50704 9.37025 1.50697 13.8828V15.7402C1.50697 15.7738 1.50464 15.8075 1.50013 15.8408C1.49265 15.896 1.50528 15.9527 1.53627 15.999C1.5672 16.0452 1.61434 16.0785 1.6681 16.0927C1.722 16.1069 1.77949 16.1003 1.82924 16.0752C1.87896 16.05 1.918 16.0078 1.93861 15.956L1.94252 15.9463C2.5334 14.5191 3.52621 13.2946 4.79994 12.4209C5.71109 11.7959 6.93861 11.3371 8.01088 11.1357C9.10113 10.931 9.89153 11.8395 9.89174 12.7695V14.0273C9.89172 14.0514 9.89114 14.0756 9.88881 14.0996C9.87787 14.2117 9.89987 14.325 9.95228 14.4248C10.0047 14.5244 10.0853 14.6065 10.1837 14.6611C10.2822 14.7157 10.3947 14.7399 10.507 14.7314C10.6192 14.723 10.7263 14.6819 10.8156 14.6132L17.9201 8.69918C18.0004 8.62638 18.066 8.53833 18.1105 8.43942C18.156 8.33812 18.1788 8.2282 18.1788 8.11715C18.1788 8.00592 18.1561 7.89537 18.1105 7.79391C18.0659 7.69477 18.0006 7.60607 17.9201 7.53317L10.8156 1.62008L10.7453 1.57321C10.6723 1.53245 10.591 1.50827 10.507 1.50192C10.3946 1.49349 10.2813 1.51754 10.1828 1.57223C10.0843 1.62691 10.0046 1.70979 9.95228 1.80954C9.89993 1.90937 9.87774 2.02255 9.88881 2.13473C9.89119 2.15907 9.89173 2.18352 9.89174 2.20797V3.78414Z" fill="currentColor"/>
</svg>
