<svg viewBox="0 0 18.2313 18.5996" fill="none" xmlns="http://www.w3.org/2000/svg">
<g id="Vector">
<path d="M13.4813 0C16.1046 6.88077e-05 18.2313 2.12669 18.2313 4.75V13.8496C18.2312 16.4728 16.1045 18.5995 13.4813 18.5996H9.43151C7.63664 18.5996 6.1816 17.1445 6.18151 15.3496V14.3027C6.18151 13.8885 6.51729 13.5527 6.93151 13.5527C7.34566 13.5528 7.68151 13.8886 7.68151 14.3027V15.3496C7.6816 16.316 8.46507 17.0996 9.43151 17.0996H13.4813C15.2761 17.0995 16.7312 15.6444 16.7313 13.8496V4.75C16.7313 2.95512 15.2762 1.50007 13.4813 1.5H9.43151C8.46501 1.5 7.68151 2.2835 7.68151 3.25V4.34668C7.6813 4.76067 7.34553 5.09661 6.93151 5.09668C6.51742 5.09668 6.18171 4.76072 6.18151 4.34668V3.25C6.18151 1.45507 7.63658 0 9.43151 0H13.4813Z" fill="currentColor"/>
<path d="M2.80553 5.76953C3.09843 5.47671 3.57321 5.47666 3.86608 5.76953C4.15885 6.06241 4.15886 6.53721 3.86608 6.83008L2.14635 8.5498H11.0321C11.4463 8.54981 11.7821 8.8856 11.7821 9.2998C11.7821 9.714 11.4463 10.0498 11.0321 10.0498H2.14635L3.86608 11.7695C4.15885 12.0624 4.15886 12.5372 3.86608 12.8301C3.57321 13.1229 3.09843 13.1229 2.80553 12.8301L0.51256 10.5371C-0.170855 9.85369 -0.170852 8.74592 0.51256 8.0625L2.80553 5.76953Z" fill="currentColor"/>
</g>
</svg>
