<svg viewBox="0 0 13 17.9145" fill="none" xmlns="http://www.w3.org/2000/svg">
<g id="Vector">
<path d="M0 17.1145C0 16.6726 0.358172 16.3145 0.8 16.3145H12.2C12.6418 16.3145 13 16.6726 13 17.1145C13 17.5563 12.6418 17.9145 12.2 17.9145H0.799999C0.358172 17.9145 0 17.5563 0 17.1145Z" fill="currentColor"/>
<path d="M5.74951 0.75V12.0195C5.74952 12.0479 5.75132 12.076 5.75439 12.1035C5.73242 12.0846 5.71077 12.0648 5.68994 12.0439L1.34326 7.69824C1.05037 7.40535 0.575608 7.40535 0.282715 7.69824C-0.00998923 7.99115 -0.0101154 8.46596 0.282715 8.75879L4.62939 13.1055C5.66252 14.1382 7.33751 14.1383 8.37061 13.1055L12.7173 8.75879C13.0101 8.46598 13.0099 7.99116 12.7173 7.69824C12.4244 7.40535 11.9496 7.40535 11.6567 7.69824L7.31006 12.0439C7.28875 12.0653 7.26616 12.0852 7.24365 12.1045C7.24681 12.0766 7.24951 12.0483 7.24951 12.0195V0.75C7.24951 0.335787 6.91373 0 6.49951 0C6.08549 0.000231098 5.74951 0.335929 5.74951 0.75Z" fill="currentColor"/>
</g>
</svg>
