<svg viewBox="0 0 18.8378 20.1993" fill="none" xmlns="http://www.w3.org/2000/svg">
<g id="Vector">
<path d="M12.2094 4.65043C12.6499 4.65043 13.0072 5.00786 13.0073 5.44828V7.30863C13.0073 9.29043 11.4002 10.8975 9.41842 10.8975C7.43697 10.8971 5.83053 9.2902 5.83053 7.30863V5.44828C5.83067 5.00794 6.18816 4.65064 6.62839 4.65043C7.06872 4.65058 7.4261 5.00795 7.42624 5.44828V7.30863C7.42624 8.40908 8.31803 9.3014 9.41842 9.3018C10.5191 9.3018 11.4116 8.40935 11.4116 7.30863V5.44828C11.4117 5.00794 11.7692 4.65065 12.2094 4.65043Z" fill="currentColor"/>
<path fill-rule="evenodd" clip-rule="evenodd" d="M9.41842 3.73573e-05C11.5232 3.73573e-05 12.7762 -0.0112272 13.8305 0.357459C15.4411 0.920744 16.7592 2.10559 17.4897 3.6475C17.9678 4.65697 18.0896 5.90498 18.312 7.99808L18.5317 10.0674C18.6812 11.4748 18.7984 12.5719 18.8296 13.4571C18.8609 14.3484 18.8083 15.0911 18.5854 15.7813C18.0281 17.5064 16.7625 18.9131 15.1059 19.6495C14.4433 19.9439 13.7112 20.0747 12.8217 20.1377C11.9382 20.2003 10.8339 20.1993 9.41842 20.1993C8.00314 20.1993 6.89955 20.2003 6.01608 20.1377C5.12654 20.0747 4.3936 19.944 3.73093 19.6495C2.07465 18.913 0.80968 17.5062 0.252409 15.7813C0.0295444 15.0911 -0.0230361 14.3484 0.00826877 13.4571C0.0393855 12.5719 0.156584 11.4748 0.30612 10.0674L0.525847 7.99808C0.748238 5.90499 0.870041 4.65697 1.34811 3.6475C2.0786 2.10563 3.39684 0.920769 5.00729 0.357459C6.0615 -0.0111919 7.31398 3.54474e-05 9.41842 3.73573e-05ZM9.41842 1.59476C7.18505 1.59477 6.2686 1.60632 5.53366 1.86332C4.32592 2.28585 3.33723 3.1747 2.78952 4.33109C2.45628 5.03481 2.34876 5.94488 2.11276 8.16605L1.89303 10.2354C1.74105 11.6658 1.63165 12.6981 1.603 13.5137C1.5746 14.3227 1.6299 14.8541 1.77096 15.2911C2.18894 16.5845 3.13731 17.6392 4.37936 18.1914C4.79902 18.378 5.32173 18.4887 6.12936 18.5459C6.94327 18.6036 7.98038 18.6045 9.41842 18.6045C10.8567 18.6045 11.8944 18.6036 12.7085 18.5459C13.5161 18.4887 14.0388 18.3779 14.4585 18.1914C15.7005 17.6392 16.6489 16.5845 17.0669 15.2911C17.208 14.8541 17.2632 14.3227 17.2348 13.5137C17.2062 12.6981 17.0968 11.6658 16.9448 10.2354L16.7251 8.16605C16.4891 5.94483 16.3816 5.03481 16.0483 4.33109C15.5006 3.17471 14.5119 2.28585 13.3042 1.86332C12.5692 1.60636 11.652 1.59476 9.41842 1.59476Z" fill="currentColor"/>
</g>
</svg>
