<svg viewBox="0 0 18.6376 20" fill="none" xmlns="http://www.w3.org/2000/svg">
<path id="Vector" fill-rule="evenodd" clip-rule="evenodd" d="M9.31876 2.13065e-05C11.4313 2.13065e-05 12.6633 -0.00914148 13.6977 0.35256C15.2831 0.907061 16.5812 2.07296 17.3002 3.59084C17.7692 4.58121 17.8895 5.80834 18.1127 7.9092L18.3324 9.97854C18.4821 11.3874 18.5984 12.4805 18.6293 13.3613C18.6604 14.2476 18.6088 14.977 18.391 15.6514C17.8424 17.3494 16.5968 18.7341 14.9662 19.459C14.3188 19.7467 13.5995 19.8758 12.7152 19.9385C11.836 20.0008 10.7357 20 9.31876 20C7.90198 20 6.80239 20.0008 5.92325 19.9385C5.03896 19.8758 4.3197 19.7468 3.67228 19.459C2.04171 18.7341 0.79606 17.3494 0.247473 15.6514C0.0296669 14.977 -0.022904 14.2476 0.00821477 13.3613C0.0391647 12.4805 0.156375 11.3874 0.306066 9.97854L0.525793 7.9092C0.74901 5.80834 0.869255 4.58121 1.33829 3.59084C2.0573 2.07298 3.35545 0.907073 4.94083 0.35256C5.97509 -0.00910309 7.20653 1.97904e-05 9.31876 2.13065e-05ZM12.1098 4.5508C11.6696 4.55105 11.3121 4.90834 11.3119 5.34865V7.20901C11.3119 8.30972 10.4195 9.20217 9.31876 9.20217C8.21838 9.20175 7.32657 8.30944 7.32657 7.20901V5.34865C7.32642 4.90834 6.96905 4.55095 6.52872 4.5508C6.08852 4.55104 5.73102 4.90833 5.73087 5.34865V7.20901C5.73087 9.19056 7.33733 10.7975 9.31876 10.7979C11.3006 10.7979 12.9076 9.19081 12.9076 7.20901V5.34865C12.9075 4.90824 12.5502 4.5508 12.1098 4.5508Z" fill="currentColor"/>
</svg>
