<svg viewBox="0 0 22.5 17.3799" fill="none" xmlns="http://www.w3.org/2000/svg">
<path id="Vector" fill-rule="evenodd" clip-rule="evenodd" d="M14.5194 0.00512848C14.7824 -0.0240886 15.0613 0.0713649 15.2334 0.295775L19.4314 5.61274H21.7371C21.7371 5.61274 21.9208 5.63519 22.0756 5.71406C22.2305 5.79292 22.3213 5.88399 22.3983 6.01689L22.3995 6.01913C22.5331 6.25548 22.5335 6.55044 22.4006 6.78711C22.2634 7.03867 22.0023 7.18148 21.7279 7.18148H20.7525L19.4668 14.9842L19.4666 14.9856C19.352 15.6577 19.008 16.2622 18.495 16.6987C17.9823 17.1348 17.3243 17.3799 16.6496 17.3799L5.86157 17.3799C5.18413 17.3723 4.52641 17.1363 4.01196 16.6987C3.49922 16.2624 3.15515 15.6582 3.04047 14.993L3.04019 14.9914L1.74756 7.18662L1.74567 7.1745H0.772146C0.491858 7.1745 0.234855 7.01984 0.100465 6.78207C-0.0334884 6.54508 -0.0334884 6.24915 0.100465 6.01215L0.102161 6.0092C0.243312 5.76723 0.491797 5.61973 0.772146 5.61973H3.34033L7.53748 0.304718C7.70763 0.074331 7.98767 -0.0261753 8.25178 0.0127921C8.52648 0.0463106 8.76075 0.234298 8.86266 0.489058C8.96532 0.745714 8.9249 1.03646 8.74927 1.25455L5.32406 5.61274H17.4616L14.0244 1.24913L14.0233 1.24769C13.8475 1.02958 13.8071 0.738777 13.9098 0.482073L13.9111 0.478766C14.013 0.234346 14.2373 0.0483051 14.509 0.0065065L14.5194 0.00512848ZM19.19 7.17741L19.1898 7.1786L17.9537 14.7137C17.9007 15.0253 17.7426 15.2998 17.5029 15.4985C17.2597 15.7002 16.9595 15.8112 16.6496 15.8112H5.8574C5.54752 15.8112 5.24727 15.7002 5.00412 15.4985C4.76538 15.3005 4.60624 15.0185 4.55301 14.7123L3.30896 7.16053H19.1927L19.19 7.17741Z" fill="currentColor"/>
</svg>
