<svg viewBox="0 0 22.5 17.3799" fill="none" xmlns="http://www.w3.org/2000/svg">
<path id="Vector" fill-rule="evenodd" clip-rule="evenodd" d="M15.2334 0.295775C15.0613 0.0713649 14.7824 -0.0240886 14.5194 0.00512848L14.509 0.0065065C14.2373 0.0483051 14.013 0.234346 13.9111 0.478766L13.9098 0.482073C13.8071 0.738777 13.8475 1.02958 14.0233 1.24769L14.0244 1.24913L17.4616 5.61274H5.32406L8.74927 1.25455C8.9249 1.03646 8.96532 0.745714 8.86266 0.489058C8.76075 0.234298 8.52648 0.0463106 8.25178 0.0127921C7.98767 -0.0261753 7.70763 0.074331 7.53748 0.304718L3.34033 5.61973H0.772146C0.491797 5.61973 0.243312 5.76723 0.102161 6.0092L0.100465 6.01215C-0.0334884 6.24915 -0.0334884 6.54508 0.100465 6.78207C0.234855 7.01984 0.491858 7.1745 0.772146 7.1745H1.74567L1.74756 7.18662L3.04019 14.9914L3.04047 14.993C3.15515 15.6582 3.49922 16.2624 4.01196 16.6987C4.52641 17.1363 5.18413 17.3723 5.86157 17.3799L16.6496 17.3799C17.3243 17.3799 17.9823 17.1348 18.495 16.6987C19.008 16.2622 19.352 15.6577 19.4666 14.9856L19.4668 14.9842L20.7525 7.18148H21.7279C22.0023 7.18148 22.2634 7.03867 22.4006 6.78711C22.5335 6.55044 22.5331 6.25548 22.3995 6.01913L22.3983 6.01689C22.3213 5.88399 22.207 5.75386 22.0586 5.68745C21.9102 5.62105 21.7371 5.61274 21.7371 5.61274H19.4314L15.2334 0.295775Z" fill="currentColor"/>
</svg>
