<svg viewBox="0 0 17.3154 20.1055" fill="none" xmlns="http://www.w3.org/2000/svg">
<path id="Vector" fill-rule="evenodd" clip-rule="evenodd" d="M8.65767 0C12.2604 0 15.3621 2.54352 16.0688 6.07617L17.2358 11.9072C17.6153 13.8045 16.6078 15.7112 14.8491 16.4932C14.2202 16.7726 13.5748 17.0066 12.9184 17.1963L12.8315 17.3926C12.0984 19.0418 10.4625 20.1055 8.65767 20.1055C6.85297 20.1053 5.2178 19.0418 4.48482 17.3926L4.39693 17.1963C3.74069 17.0066 3.09496 16.7726 2.46627 16.4932C0.707811 15.7111 -0.299874 13.8043 0.079549 11.9072L1.24654 6.07617C1.95322 2.54358 5.05509 0.000181751 8.65767 0ZM10.894 17.6338C9.41195 17.851 7.9024 17.8512 6.42037 17.6338C6.99039 18.2421 7.7947 18.6054 8.65767 18.6055C9.52043 18.6055 10.324 18.2418 10.894 17.6338Z" fill="currentColor"/>
</svg>
