<svg viewBox="0 0 16.5 20" fill="none" xmlns="http://www.w3.org/2000/svg">
<g id="Icon">
<path d="M15.6132 5.10725C15.1527 5.10725 14.7793 5.46853 14.7793 5.9142V14.9438C14.7793 16.8449 13.1865 18.3861 11.2217 18.3861H5.22553C3.26073 18.3861 1.66795 16.8449 1.66795 14.9438V5.9142C1.66795 5.46853 1.29456 5.10725 0.833973 5.10725C0.373382 5.10725 1.37267e-08 5.46853 0 5.9142V14.9438C0.0289464 17.7445 2.38367 20.0001 5.27831 20H11.2745C14.1485 19.9723 16.4714 17.7247 16.5 14.9438V5.9142C16.5005 5.69103 16.4054 5.47765 16.2374 5.32476C16.0694 5.17187 15.8434 5.09313 15.6132 5.10725Z" fill="white"/>
<path fill-rule="evenodd" clip-rule="evenodd" d="M15.6132 3.65679H0.833973C0.373382 3.65679 0 3.29551 0 2.84985C0 2.40418 0.373382 2.0429 0.833973 2.0429H3.63148L4.87716 0.735444C5.35334 0.267018 6.00329 0.00222254 6.68234 1.87322e-10H9.76487C10.434 -8.01483e-06 11.0758 0.257191 11.5489 0.715015L12.8157 2.0429H15.6132C16.0738 2.0429 16.4472 2.40418 16.4472 2.84985C16.4472 3.29551 16.0738 3.65679 15.6132 3.65679ZM9.76487 1.61389H6.68234C6.4713 1.61396 6.26793 1.69049 6.11228 1.8284L5.91171 2.03269H10.5355L10.3349 1.8284C10.1804 1.68873 9.97631 1.61192 9.76487 1.61389Z" fill="white"/>
<path d="M4.26487 6.93565V10C4.26487 10.4231 4.61935 10.7661 5.05662 10.7661C5.49389 10.7661 5.84837 10.4231 5.84837 10V6.93565C5.84837 6.51255 5.49389 6.16956 5.05662 6.16956C4.61935 6.16956 4.26487 6.51255 4.26487 6.93565Z" fill="white"/>
<path d="M7.43186 6.93565V15.1073C7.43186 15.5304 7.78634 15.8733 8.22361 15.8733C8.66088 15.8733 9.01535 15.5304 9.01535 15.1073V6.93565C9.01535 6.51255 8.66088 6.16956 8.22361 6.16956C7.78634 6.16956 7.43186 6.51255 7.43186 6.93565Z" fill="white"/>
<path d="M10.5988 6.93565V10C10.5988 10.4231 10.9533 10.7661 11.3906 10.7661C11.8279 10.7661 12.1823 10.4231 12.1823 10V6.93565C12.1823 6.51255 11.8279 6.16956 11.3906 6.16956C10.9533 6.16956 10.5988 6.51255 10.5988 6.93565Z" fill="white"/>
</g>
</svg>
