<svg viewBox="0 0 16.5 20" fill="none" xmlns="http://www.w3.org/2000/svg">
<g id="Icon">
<path fill-rule="evenodd" clip-rule="evenodd" d="M15.7016 2.16685H12.8594L11.5713 0.736728C11.0999 0.264992 10.4653 0.000444619 9.80419 0H6.69581C6.02321 0.00572703 5.3802 0.282299 4.90742 0.769231L3.64065 2.16685H0.798387C0.35745 2.16685 0 2.53065 0 2.97941C0 3.42818 0.35745 3.79198 0.798387 3.79198H15.7016C16.1426 3.79198 16.5 3.42818 16.5 2.97941C16.5 2.53065 16.1426 2.16685 15.7016 2.16685ZM6.0571 1.88516C6.22699 1.71331 6.45629 1.61607 6.69581 1.6143H9.80419C10.0338 1.61361 10.2549 1.70283 10.4216 1.86349L10.6877 2.15601H5.81226L6.0571 1.88516Z" fill="white"/>
<path fill-rule="evenodd" clip-rule="evenodd" d="M0.244838 7.06392V15.1679C0.244838 17.8366 2.37047 20 4.99258 20H11.5074C14.1295 20 16.2552 17.8366 16.2552 15.1679V7.06392C16.2552 5.86721 15.302 4.89707 14.1261 4.89707H2.41645C1.84446 4.88543 1.29192 5.10857 0.883396 5.5162C0.474867 5.92383 0.244723 6.48165 0.244838 7.06392ZM5.85484 10.8884C5.85484 11.3372 5.49739 11.701 5.05645 11.701C4.61551 11.701 4.25806 11.3372 4.25806 10.8884V8.32069C4.25806 7.87192 4.61551 7.50813 5.05645 7.50813C5.49739 7.50813 5.85484 7.87192 5.85484 8.32069V10.8884ZM8.25 15.9805C8.69094 15.9805 9.04839 15.6167 9.04839 15.1679V8.32069C9.04839 7.87192 8.69094 7.50813 8.25 7.50813C7.80906 7.50813 7.45161 7.87192 7.45161 8.32069V15.1679C7.45161 15.6167 7.80906 15.9805 8.25 15.9805ZM12.2419 10.8884C12.2419 11.3372 11.8845 11.701 11.4435 11.701C11.0026 11.701 10.6452 11.3372 10.6452 10.8884V8.32069C10.6452 7.87192 11.0026 7.50813 11.4435 7.50813C11.8845 7.50813 12.2419 7.87192 12.2419 8.32069V10.8884Z" fill="white"/>
</g>
</svg>
