<svg width="24" height="24" viewBox="0 0 24 24" fill="none" xmlns="http://www.w3.org/2000/svg">
<path fill-rule="evenodd" clip-rule="evenodd" d="M14.8172 1.86408C15.434 1.93019 16.0051 2.22199 16.4197 2.68342C16.8342 3.14482 17.0633 3.74387 17.0633 4.36408V5.02619C17.4107 4.8516 17.7951 4.75919 18.1863 4.75959C18.5162 4.75965 18.8434 4.82378 19.1482 4.95002C19.4531 5.07634 19.7303 5.26159 19.9637 5.49494C20.197 5.72829 20.3823 6.00552 20.5086 6.31037C20.6348 6.61514 20.699 6.94242 20.699 7.27229V14.1815C20.6965 16.2938 19.8567 18.3196 18.3631 19.8133C16.8694 21.3069 14.8436 22.1478 12.7312 22.1502C10.4476 22.1501 8.87807 21.5234 7.52323 20.1238C6.18077 18.737 5.05401 16.595 3.6287 13.5887C3.30227 13.0129 3.21538 12.3305 3.38846 11.6912C3.56285 11.0479 3.98609 10.4995 4.56425 10.1678C5.14249 9.83625 5.8291 9.74833 6.47245 9.92268C7.11404 10.0966 7.66009 10.5178 7.99198 11.0936L8.39921 11.7469V5.81819C8.39939 5.36178 8.52421 4.91332 8.75956 4.52229C8.99493 4.13141 9.33301 3.8122 9.73612 3.59846C10.1395 3.38472 10.5938 3.28469 11.0496 3.3094C11.4355 3.33036 11.8101 3.4402 12.1453 3.62873C12.305 3.10611 12.6318 2.64718 13.0779 2.32502C13.5807 1.96201 14.2005 1.7981 14.8172 1.86408ZM14.5496 3.24104C14.2519 3.2411 13.9661 3.35964 13.7557 3.57014C13.5454 3.78064 13.4265 4.06654 13.4265 4.36408V11.2723C13.4265 11.4566 13.3537 11.6341 13.2234 11.7645C13.093 11.8947 12.9156 11.9686 12.7312 11.9686C12.5471 11.9685 12.3703 11.8946 12.24 11.7645C12.1097 11.6341 12.036 11.4566 12.0359 11.2723V5.81819C12.0359 5.52046 11.9173 5.23478 11.7068 5.02424C11.4963 4.81381 11.2106 4.69514 10.9129 4.69514C10.6153 4.69529 10.3293 4.81383 10.1189 5.02424C9.90867 5.23474 9.79081 5.52064 9.79081 5.81819V14.1815C9.79097 14.3327 9.74116 14.4806 9.65018 14.6014C9.55918 14.7219 9.43113 14.8099 9.28592 14.8514C9.14056 14.8928 8.98551 14.8854 8.84452 14.8309C8.70346 14.7763 8.5834 14.6772 8.5037 14.5487L6.80546 11.8221L6.8035 11.8192L6.79471 11.8035C6.64583 11.5457 6.39972 11.3562 6.1121 11.2791C5.82462 11.2022 5.51826 11.2426 5.26053 11.3914C5.00287 11.5403 4.81413 11.7856 4.7371 12.0731C4.66025 12.3604 4.70076 12.667 4.8494 12.9246L4.85233 12.9295L4.87284 12.9686L4.87675 12.9744C6.28235 15.9395 7.38719 18.0061 8.58768 19.2166L8.58866 19.2176C9.66738 20.3102 10.854 20.7586 12.7312 20.7586L13.0574 20.7508C14.6822 20.6683 16.2238 19.9857 17.3797 18.8299C18.6126 17.597 19.3062 15.9251 19.3084 14.1815V7.27229C19.3083 6.97471 19.1897 6.68976 18.9793 6.47932C18.7688 6.26888 18.4839 6.15034 18.1863 6.15022C17.8886 6.15028 17.6029 6.26882 17.3924 6.47932C17.1821 6.68973 17.0634 6.97484 17.0633 7.27229V11.2723C17.0632 11.4566 16.9895 11.6341 16.8592 11.7645C16.7288 11.8946 16.5521 11.9685 16.368 11.9686C16.1836 11.9685 16.0061 11.8948 15.8758 11.7645C15.7455 11.6341 15.6727 11.4566 15.6726 11.2723V4.36408C15.6726 4.06646 15.5539 3.78066 15.3435 3.57014C15.133 3.3596 14.8473 3.24105 14.5496 3.24104Z" fill="currentColor"></path>
</svg>