<svg viewBox="0 0 19.1748 20.1055" fill="none" xmlns="http://www.w3.org/2000/svg">
<g id="Vector">
<path d="M5.86622 13.5957C6.37997 13.5957 6.79688 14.0126 6.79688 14.5264C6.79667 15.0399 6.37984 15.4561 5.86622 15.4561C5.35278 15.4558 4.93674 15.0398 4.93653 14.5264C4.93653 14.0127 5.35265 13.5959 5.86622 13.5957Z" fill="currentColor"/>
<path d="M9.5879 13.5957C10.1015 13.5959 10.5176 14.0127 10.5176 14.5264C10.5174 15.0398 10.1014 15.4559 9.5879 15.4561C9.07428 15.4561 8.65745 15.0399 8.65724 14.5264C8.65724 14.0126 9.07415 13.5957 9.5879 13.5957Z" fill="currentColor"/>
<path d="M13.3086 13.5957C13.8223 13.5958 14.2383 14.0127 14.2383 14.5264C14.2381 15.0399 13.8222 15.456 13.3086 15.4561C12.795 15.4561 12.3781 15.0399 12.3779 14.5264C12.3779 14.0126 12.7948 13.5957 13.3086 13.5957Z" fill="currentColor"/>
<path d="M5.86622 9.19727C6.37995 9.19727 6.79685 9.6142 6.79688 10.1279C6.79688 10.6417 6.37997 11.0586 5.86622 11.0586C5.35268 11.0583 4.93653 10.6415 4.93653 10.1279C4.93656 9.61436 5.3527 9.19752 5.86622 9.19727Z" fill="currentColor"/>
<path d="M9.5879 9.19727C10.1015 9.19746 10.5176 9.61432 10.5176 10.1279C10.5176 10.6416 10.1015 11.0584 9.5879 11.0586C9.07415 11.0586 8.65724 10.6417 8.65724 10.1279C8.65726 9.6142 9.07416 9.19727 9.5879 9.19727Z" fill="currentColor"/>
<path d="M13.3086 9.19727C13.8223 9.19733 14.2383 9.61424 14.2383 10.1279C14.2383 10.6416 13.8223 11.0585 13.3086 11.0586C12.7948 11.0586 12.3779 10.6417 12.3779 10.1279C12.378 9.6142 12.7949 9.19727 13.3086 9.19727Z" fill="currentColor"/>
<path fill-rule="evenodd" clip-rule="evenodd" d="M13.3086 0C13.7226 3.78469e-05 14.0584 0.335996 14.0586 0.75V1.39258C16.562 2.2966 18.4556 4.43972 19.0107 7.09473C19.1787 7.89838 19.1748 8.8483 19.1748 10.5176C19.1748 12.1873 19.1788 13.1376 19.0107 13.9414C18.3804 16.9556 16.025 19.3111 13.0108 19.9414C12.2071 20.1094 11.2564 20.1055 9.58692 20.1055C7.9179 20.1055 6.96766 20.1094 6.16407 19.9414C3.15002 19.311 0.794365 16.9555 0.164071 13.9414C-0.003989 13.1376 8.20887e-06 12.1872 8.24705e-06 10.5176C7.78595e-06 8.84832 -0.00390729 7.89837 0.164071 7.09473C0.7192 4.43992 2.61317 2.29674 5.11622 1.39258V0.75C5.11644 0.336132 5.45236 0.000255305 5.86622 0C6.2803 -1.80999e-08 6.616 0.335974 6.61622 0.75V1.02051C7.33352 0.928853 8.21837 0.930663 9.58692 0.930664C10.9556 0.930664 11.8412 0.928914 12.5586 1.02051V0.75C12.5588 0.335972 12.8945 1.81e-08 13.3086 0ZM9.58692 2.43066C7.97673 2.43066 7.20757 2.43483 6.61622 2.53613V3.54102C6.61605 3.95508 6.28033 4.29102 5.86622 4.29102C5.45233 4.29076 5.11639 3.95492 5.11622 3.54102V3.01172C3.3523 3.83135 2.04105 5.4444 1.63184 7.40137C1.50357 8.01494 1.50001 8.77265 1.50001 10.5176C1.50001 12.2628 1.50354 13.0211 1.63184 13.6348C2.14022 16.0653 4.04019 17.9642 6.47071 18.4727C7.08426 18.601 7.84215 18.6055 9.58692 18.6055C11.3318 18.6055 12.0905 18.6009 12.7041 18.4727C15.1346 17.9642 17.0336 16.0652 17.542 13.6348C17.6703 13.0211 17.6748 12.2628 17.6748 10.5176C17.6748 8.77252 17.6703 8.01497 17.542 7.40137C17.1327 5.44435 15.8225 3.83133 14.0586 3.01172V3.54102C14.0584 3.95506 13.7227 4.29098 13.3086 4.29102C12.8945 4.29102 12.5588 3.95508 12.5586 3.54102V2.53613C11.9672 2.43494 11.1969 2.43066 9.58692 2.43066Z" fill="currentColor"/>
</g>
</svg>
