<svg viewBox="0 0 19.1406 20.2803" fill="none" xmlns="http://www.w3.org/2000/svg">
<path id="Vector" fill-rule="evenodd" clip-rule="evenodd" d="M13.2793 0C13.6933 0.000193981 14.0293 0.335908 14.0293 0.75V1.39648C14.2211 1.44384 14.4062 1.49979 14.5869 1.56738C16.4156 2.25172 17.8585 3.69482 18.543 5.52344C18.7063 5.9598 18.8042 6.42156 18.8652 6.94336C18.8881 7.02247 18.9095 7.10235 18.9297 7.18262C19.1409 8.02294 19.1406 9.04384 19.1406 11.085C19.1406 13.1261 19.141 14.147 18.9297 14.9873C18.3009 17.4878 16.3482 19.4406 13.8477 20.0693C13.0074 20.2806 11.9863 20.2803 9.94531 20.2803C7.90423 20.2803 6.88329 20.2806 6.04297 20.0693C5.96166 20.0489 5.8809 20.0271 5.80078 20.0039C5.28031 19.9429 4.81925 19.8456 4.38379 19.6826C2.55525 18.9982 1.11207 17.5552 0.427735 15.7266C0.200637 15.1196 0.0985577 14.4636 0.0488284 13.665C-0.00052283 12.8723 1.78687e-07 11.8893 2.28337e-07 10.625C1.78643e-07 9.36073 -0.00051865 8.37763 0.0488284 7.58496C0.0985648 6.78653 0.200646 6.13035 0.427735 5.52344C1.1121 3.69488 2.55526 2.25182 4.38379 1.56738C4.63603 1.47299 4.89697 1.40015 5.17285 1.34375V0.75C5.17285 0.335786 5.50864 1.81059e-08 5.92285 0C6.33695 0.000131912 6.67285 0.335868 6.67285 0.75V1.17773C7.4244 1.14104 8.3392 1.13965 9.48535 1.13965C10.7497 1.13965 11.7327 1.13913 12.5254 1.18848H12.5293V0.75C12.5293 0.335788 12.8651 1.81058e-08 13.2793 0ZM5.92188 13.7832C5.41435 13.7835 5.00301 14.1946 5.00293 14.7021C5.00303 15.2097 5.41436 15.6217 5.92188 15.6221C6.42966 15.6221 6.8417 15.2099 6.8418 14.7021C6.84172 14.1944 6.42967 13.7832 5.92188 13.7832ZM9.60059 13.7832C9.09288 13.7833 8.68075 14.1944 8.68066 14.7021C8.68076 15.2098 9.09289 15.622 9.60059 15.6221C10.1083 15.622 10.5194 15.2099 10.5195 14.7021C10.5195 14.1944 10.1083 13.7833 9.60059 13.7832ZM13.2783 13.7832C12.7707 13.7835 12.3595 14.1945 12.3594 14.7021C12.3595 15.2098 12.7708 15.6218 13.2783 15.6221C13.7861 15.6221 14.1981 15.2099 14.1982 14.7021C14.1982 14.1944 13.7861 13.7832 13.2783 13.7832ZM5.92285 9.43555C5.41522 9.43566 5.00312 9.84688 5.00293 10.3545C5.00303 10.8622 5.41516 11.2743 5.92285 11.2744C6.43042 11.2742 6.8417 10.8621 6.8418 10.3545C6.8416 9.84697 6.43036 9.43581 5.92285 9.43555ZM9.60059 9.43555C9.09295 9.43566 8.68086 9.84688 8.68066 10.3545C8.68076 10.8622 9.09289 11.2743 9.60059 11.2744C10.1083 11.2743 10.5194 10.8622 10.5195 10.3545C10.5193 9.84686 10.1082 9.43563 9.60059 9.43555ZM13.2783 9.43555C12.7708 9.4358 12.3596 9.84697 12.3594 10.3545C12.3595 10.8621 12.7708 11.2742 13.2783 11.2744C13.7861 11.2744 14.1981 10.8623 14.1982 10.3545C14.198 9.84681 13.786 9.43555 13.2783 9.43555Z" fill="currentColor"/>
</svg>
