<svg viewBox="0 0 20.9287 18.5" fill="none" xmlns="http://www.w3.org/2000/svg">
<g id="Vector">
<path d="M19.4287 7.99316C19.4286 6.28483 18.0433 4.90039 16.335 4.90039C15.42 4.90031 14.5928 4.35464 14.2324 3.51367L13.9541 2.86328C13.5995 2.0362 12.7857 1.5 11.8857 1.5H9.04199C8.14227 1.50019 7.32919 2.03638 6.97461 2.86328L6.69629 3.51367C6.33589 4.35459 5.50863 4.90026 4.59375 4.90039C2.88539 4.90039 1.50013 6.28483 1.5 7.99316V12.75C1.5 15.0972 3.40279 17 5.75 17H15.1787C17.5259 16.9999 19.4287 15.0972 19.4287 12.75V7.99316ZM20.9287 12.75C20.9287 15.9256 18.3543 18.4999 15.1787 18.5H5.75C2.57436 18.5 0 15.9256 0 12.75V7.99316C0.000132196 5.45641 2.05696 3.40039 4.59375 3.40039C4.90858 3.40026 5.19336 3.21225 5.31738 2.92285L5.5957 2.27246C6.18663 0.893963 7.54219 0.000191305 9.04199 0H11.8857C13.3858 0 14.742 0.893787 15.333 2.27246L15.6113 2.92285C15.7354 3.21229 16.0201 3.40031 16.335 3.40039C18.8717 3.40039 20.9286 5.45641 20.9287 7.99316V12.75Z" fill="currentColor"/>
<path d="M9.07553 7.05818C9.55469 6.84267 10.0691 6.73142 10.5892 6.73142C11.1093 6.73142 11.6238 6.84267 12.1029 7.05818C12.582 7.27366 13.0159 7.58885 13.3803 7.98466C13.602 8.22549 13.6017 8.60795 13.3797 8.84849C13.1468 9.10068 12.7606 9.10034 12.5281 8.84784C12.2717 8.56927 11.9682 8.34947 11.6357 8.19992C11.3033 8.05041 10.9477 7.97377 10.5892 7.97377C10.2307 7.97377 9.87519 8.05041 9.54275 8.19992C9.21025 8.34947 8.90681 8.56927 8.65036 8.84784L8.64966 8.8486L8.33077 9.19348H8.75659C9.1024 9.19348 9.34879 9.49111 9.34879 9.81465C9.34879 10.1382 9.1024 10.4358 8.75659 10.4358H6.93155C6.7445 10.4358 6.58654 10.3487 6.48092 10.2176C6.39136 10.1076 6.3443 9.97262 6.33973 9.83636C6.33948 9.82914 6.33936 9.8219 6.33936 9.81465V7.83505C6.33936 7.51151 6.58574 7.21388 6.93155 7.21388C7.27736 7.21388 7.52375 7.51151 7.52375 7.83505V8.28149L7.79823 7.98464C8.16249 7.58909 8.59661 7.27358 9.07553 7.05818Z" fill="currentColor"/>
<path d="M11.8532 14.1547C11.374 14.3702 10.8596 14.4814 10.3395 14.4814C9.81937 14.4814 9.30493 14.3702 8.82577 14.1547C8.34667 13.9392 7.91282 13.624 7.54845 13.2282C7.32674 12.9874 7.32697 12.6049 7.54905 12.3644C7.78189 12.1122 8.16815 12.1125 8.4006 12.365C8.65704 12.6436 8.96049 12.8634 9.29299 13.0129C9.62543 13.1624 9.98097 13.2391 10.3395 13.2391C10.698 13.2391 11.0535 13.1624 11.386 13.0129C11.7185 12.8634 12.0219 12.6436 12.2783 12.365L12.279 12.3642L12.5979 12.0194H12.1721C11.8263 12.0194 11.5799 11.7217 11.5799 11.3982C11.5799 11.0747 11.8263 10.777 12.1721 10.777H13.9972C14.1842 10.777 14.3422 10.8641 14.4478 10.9953C14.5374 11.1052 14.5844 11.2402 14.589 11.3765C14.5892 11.3837 14.5894 11.3909 14.5894 11.3982V13.3778C14.5894 13.7013 14.343 13.999 13.9972 13.999C13.6514 13.999 13.405 13.7013 13.405 13.3778V12.9314L13.1305 13.2282C12.7662 13.6238 12.3321 13.9393 11.8532 14.1547Z" fill="currentColor"/>
</g>
</svg>
