<svg viewBox="0 0 21.1426 18.5" fill="none" xmlns="http://www.w3.org/2000/svg">
<path id="Vector" fill-rule="evenodd" clip-rule="evenodd" d="M12.1797 0C13.4482 0 14.5949 0.755993 15.0947 1.92188L15.4229 2.68555C15.6865 3.30061 16.2908 3.7001 16.96 3.7002C19.2699 3.7002 21.1426 5.57286 21.1426 7.88281V13.2139C21.1426 16.133 18.7765 18.4998 15.8574 18.5H5.28516C2.36614 18.4998 0 16.1329 0 13.2139V7.88281C0 5.57286 1.87267 3.7002 4.18262 3.7002C4.85179 3.70011 5.45612 3.30062 5.71973 2.68555L6.04785 1.92188C6.54768 0.755986 7.69435 0 8.96289 0H12.1797ZM12.2793 10.7773C11.9335 10.7773 11.6865 11.0749 11.6865 11.3984C11.6867 11.7219 11.9336 12.0195 12.2793 12.0195H12.7051L12.3857 12.3643C12.1294 12.6427 11.8255 12.8632 11.4932 13.0127C11.1607 13.1622 10.8048 13.2393 10.4463 13.2393C10.0879 13.2392 9.7327 13.1621 9.40039 13.0127C9.06799 12.8632 8.7642 12.6437 8.50781 12.3652C8.27542 12.1128 7.88911 12.1122 7.65625 12.3643C7.43417 12.6048 7.43356 12.9877 7.65527 13.2285C8.01957 13.6242 8.45365 13.9388 8.93262 14.1543C9.41174 14.3698 9.92623 14.4814 10.4463 14.4814C10.9664 14.4814 11.4808 14.3698 11.96 14.1543C12.4388 13.9389 12.8731 13.624 13.2373 13.2285L13.5117 12.9316V13.3779C13.5118 13.7014 13.7587 13.999 14.1045 13.999C14.45 13.9988 14.6962 13.7013 14.6963 13.3779V11.377C14.6917 11.2407 14.6442 11.1051 14.5547 10.9951C14.4491 10.8641 14.2913 10.7775 14.1045 10.7773H12.2793ZM10.6963 6.73145C10.1762 6.73145 9.66178 6.84309 9.18262 7.05859C8.70379 7.27396 8.26949 7.58892 7.90527 7.98438L7.63086 8.28125V7.83496C7.63082 7.51145 7.38386 7.21387 7.03809 7.21387C6.69252 7.2141 6.44633 7.51157 6.44629 7.83496V9.83594C6.45086 9.9722 6.49833 10.1078 6.58789 10.2178C6.69343 10.3488 6.85128 10.4354 7.03809 10.4355H8.86328C9.20909 10.4355 9.45605 10.138 9.45605 9.81445C9.45596 9.49098 9.20902 9.19336 8.86328 9.19336H8.4375L8.75684 8.84863C9.01319 8.57016 9.31704 8.34974 9.64941 8.2002C9.98185 8.05068 10.3378 7.97363 10.6963 7.97363C11.0547 7.97365 11.4099 8.05078 11.7422 8.2002C12.0746 8.3497 12.3784 8.5692 12.6348 8.84766C12.8671 9.10008 13.2535 9.10061 13.4863 8.84863C13.7084 8.6081 13.709 8.22521 13.4873 7.98438C13.123 7.58868 12.6889 7.27405 12.21 7.05859C11.7308 6.8431 11.2163 6.73146 10.6963 6.73145Z" fill="currentColor"/>
</svg>
