<svg viewBox="0 0 20.9287 18.5" fill="none" xmlns="http://www.w3.org/2000/svg">
<g id="Vector">
<path d="M19.4287 7.99316C19.4286 6.28483 18.0433 4.90039 16.335 4.90039C15.42 4.90031 14.5928 4.35464 14.2324 3.51367L13.9541 2.86328C13.5995 2.0362 12.7857 1.5 11.8857 1.5H9.04199C8.14227 1.50019 7.32919 2.03638 6.97461 2.86328L6.69629 3.51367C6.33589 4.35459 5.50863 4.90026 4.59375 4.90039C2.88539 4.90039 1.50013 6.28483 1.5 7.99316V12.75C1.5 15.0972 3.40279 17 5.75 17H15.1787C17.5259 16.9999 19.4287 15.0972 19.4287 12.75V7.99316ZM20.9287 12.75C20.9287 15.9256 18.3543 18.4999 15.1787 18.5H5.75C2.57436 18.5 0 15.9256 0 12.75V7.99316C0.000132196 5.45641 2.05696 3.40039 4.59375 3.40039C4.90858 3.40026 5.19336 3.21225 5.31738 2.92285L5.5957 2.27246C6.18663 0.893963 7.54219 0.000191305 9.04199 0H11.8857C13.3858 0 14.742 0.893787 15.333 2.27246L15.6113 2.92285C15.7354 3.21229 16.0201 3.40031 16.335 3.40039C18.8717 3.40039 20.9286 5.45641 20.9287 7.99316V12.75Z" fill="currentColor"/>
<path d="M8.30045 9.97835C8.30057 8.78315 9.26928 7.81429 10.4645 7.81429C11.6596 7.81441 12.6285 8.78322 12.6286 9.97835C12.6286 11.1736 11.6597 12.1423 10.4645 12.1424C9.26921 12.1424 8.30045 11.1736 8.30045 9.97835ZM6.80045 9.97835C6.80045 12.0021 8.44078 13.6424 10.4645 13.6424C12.4881 13.6423 14.1286 12.002 14.1286 9.97835C14.1285 7.9548 12.4881 6.31441 10.4645 6.31429C8.44085 6.31429 6.80057 7.95472 6.80045 9.97835Z" fill="currentColor"/>
</g>
</svg>
