<svg viewBox="0 0 21.1426 18.5" fill="none" xmlns="http://www.w3.org/2000/svg">
<g id="Vector">
<path d="M10.5713 7.62109C11.9084 7.62126 12.993 8.70591 12.9932 10.043C12.9929 11.38 11.9083 12.4637 10.5713 12.4639C9.23433 12.4636 8.15063 11.3799 8.15039 10.043C8.15057 8.70595 9.23429 7.62133 10.5713 7.62109Z" fill="currentColor"/>
<path fill-rule="evenodd" clip-rule="evenodd" d="M12.1807 0C13.449 0.000184058 14.5949 0.75616 15.0947 1.92188L15.4229 2.68555C15.6864 3.30058 16.2909 3.70005 16.96 3.7002C19.2699 3.7002 21.1426 5.57286 21.1426 7.88281V13.2139C21.1426 16.133 18.7765 18.4998 15.8574 18.5H5.28613C2.36691 18.5 0 16.1331 0 13.2139V7.88281C0 5.57286 1.87267 3.7002 4.18262 3.7002C4.85184 3.70016 5.45708 3.30066 5.7207 2.68555L6.04785 1.92188C6.54767 0.755961 7.69434 0 8.96289 0H12.1807ZM10.5713 6.12109C8.40586 6.12133 6.65057 7.87753 6.65039 10.043C6.65063 12.2084 8.4059 13.9636 10.5713 13.9639C12.7367 13.9637 14.4929 12.2084 14.4932 10.043C14.493 7.87748 12.7368 6.12126 10.5713 6.12109Z" fill="currentColor"/>
</g>
</svg>
