<svg viewBox="0 0 21.5 21.5" fill="none" xmlns="http://www.w3.org/2000/svg">
<path id="Vector" fill-rule="evenodd" clip-rule="evenodd" d="M10.75 0C16.6871 0 21.5 4.81294 21.5 10.75C21.5 16.6871 16.6871 21.5 10.75 21.5C9.53602 21.5 8.47205 21.3269 7.47363 20.9697C6.58033 20.6502 6.21398 20.5201 6.10352 20.4941C5.5715 20.3691 5.21588 20.4749 4.79102 20.6768C4.38444 20.87 3.73496 21.2733 2.94336 21.4053C1.8189 21.5926 0.817865 20.6723 0.911133 19.5361C0.945893 19.1129 1.10523 18.7343 1.23145 18.4551C1.37585 18.1356 1.47563 17.944 1.53418 17.7402C1.76942 16.9211 1.48361 16.3256 0.991211 15.2627C0.355164 13.8897 0 12.3602 0 10.75C0 4.81294 4.81294 0 10.75 0ZM14.2803 8.21973C13.9874 7.92685 13.5126 7.92684 13.2197 8.21973L9.73926 11.6992L8.26953 10.2891C7.97074 10.0022 7.49584 10.0118 7.20898 10.3105C6.92216 10.6093 6.93172 11.0842 7.23047 11.3711L9.23047 13.291C9.52497 13.5737 9.9916 13.5689 10.2803 13.2803L14.2803 9.28027C14.5732 8.98738 14.5732 8.51262 14.2803 8.21973Z" fill="currentColor"/>
</svg>
