<svg viewBox="0 0 20.1045 20.1045" fill="none" xmlns="http://www.w3.org/2000/svg">
<path id="Vector" fill-rule="evenodd" clip-rule="evenodd" d="M10.0527 0C15.6042 0.000221101 20.1043 4.50131 20.1045 10.0527C20.1043 15.6042 15.6042 20.1043 10.0527 20.1045C8.91856 20.1045 7.92221 19.9428 6.9873 19.6084C6.15538 19.3108 5.81826 19.1915 5.71875 19.168C5.23969 19.0554 4.92052 19.149 4.53125 19.334C4.16024 19.5104 3.5446 19.8913 2.79883 20.0156C1.71931 20.1953 0.75807 19.3115 0.847656 18.2207C0.880925 17.8176 1.03287 17.4582 1.15039 17.1982C1.28606 16.8982 1.37563 16.7256 1.42871 16.541C1.64131 15.8009 1.38657 15.265 0.926758 14.2725C0.332158 12.9887 6.00934e-05 11.558 0 10.0527C0.000220914 4.50131 4.50131 0.000220919 10.0527 0ZM6.33105 11.1631C5.91728 11.1634 5.58128 11.4993 5.58105 11.9131C5.58122 12.3269 5.91725 12.6627 6.33105 12.6631H10.0518C10.4659 12.6631 10.8016 12.3272 10.8018 11.9131C10.8015 11.4991 10.4658 11.1631 10.0518 11.1631H6.33105ZM6.33105 7.44141C5.91744 7.44177 5.58152 7.77781 5.58105 8.19141C5.58105 8.6054 5.91715 8.94104 6.33105 8.94141H13.7725C14.1867 8.94141 14.5225 8.60562 14.5225 8.19141C14.522 7.77759 14.1864 7.44141 13.7725 7.44141H6.33105Z" fill="currentColor"/>
</svg>
