<svg viewBox="0 0 20 19.0752" fill="none" xmlns="http://www.w3.org/2000/svg">
<g id="Vector">
<path d="M11.5421 0.0381343C10.3433 -0.0210643 9.14188 -0.011399 7.94388 0.0675479L7.5468 0.103498C3.61263 0.551915 0.512603 3.7041 0.0732992 7.67504L0.0381663 8.07457L0.00956979 8.67919C-0.00319482 9.08409 -0.00318503 9.49249 0.00956979 9.8974L0.0381663 10.502C0.314043 14.7741 3.65749 18.1942 7.88342 18.5041C7.90306 18.507 7.92292 18.5102 7.94306 18.5115L8.4529 18.5401C9.64784 18.5985 10.875 18.5894 12.0569 18.5115H12.0585C12.5852 18.476 13.1597 18.3505 13.6665 18.1414C13.868 18.0587 14.0097 18.0028 14.115 17.9633C14.1855 18.0127 14.2785 18.0794 14.4075 18.1749L14.4091 18.1757C15.1058 18.6892 15.9735 19.0575 17.1724 19.0752L17.4167 19.0736C17.6799 19.0673 17.9738 19.0627 18.2125 19.0164C18.4863 18.9634 18.8347 18.8294 19.0516 18.4576C19.2874 18.0538 19.1905 17.6464 19.1022 17.3995C19.015 17.1557 18.8618 16.8684 18.7117 16.5833L18.7109 16.5824L18.5622 16.2801C18.2561 15.6022 18.2018 15.0642 18.3947 14.7008C19.1646 13.5366 19.8585 12.0986 19.9618 10.5028C20.0127 9.69531 20.0127 8.88454 19.9618 8.07703V8.07539L19.9266 7.67586C19.4727 3.57184 16.1779 0.341518 12.0569 0.0675479L11.5421 0.0381343ZM8.04356 1.56927C9.34664 1.48343 10.6541 1.4834 11.9572 1.56927L11.9564 1.57009C15.4402 1.80157 18.2288 4.61816 18.4584 8.17262C18.5053 8.91622 18.5053 9.662 18.4584 10.4056L18.438 10.6385C18.3254 11.6433 17.9128 12.6122 17.3726 13.5014L17.1152 13.9058L17.0825 13.9597C16.4489 15.1066 16.9164 16.407 17.3791 17.2843L17.3783 17.2851C17.4339 17.3908 17.4818 17.4822 17.5237 17.5637C17.4797 17.5649 17.4323 17.5674 17.3807 17.5686L17.2018 17.5694C16.3294 17.558 15.7617 17.3013 15.3038 16.964L15.0652 16.7892C14.9905 16.7353 14.9209 16.6863 14.8577 16.6454C14.7526 16.5773 14.5508 16.4511 14.3037 16.4207L14.2073 16.4141C13.9844 16.4103 13.7809 16.4823 13.6795 16.5179C13.523 16.5729 13.3233 16.6556 13.0953 16.7491H13.0929L12.9613 16.8006C12.6469 16.9135 12.2886 16.9858 11.9572 17.0081C10.6777 17.0925 9.34031 17.0927 8.05745 17.0089C8.05268 17.0085 8.04754 17.0076 8.04274 17.0073L7.71838 16.9787C4.3876 16.6004 1.7639 13.8484 1.54153 10.4048C1.49462 9.66964 1.4946 8.90693 1.54153 8.1718L1.57012 7.8409C1.94569 4.44495 4.66827 1.79435 8.04356 1.56927Z" fill="currentColor"/>
<path d="M13.6907 8.70125L13.6049 8.70533C13.183 8.74821 12.854 9.10473 12.854 9.5379C12.854 9.97107 13.183 10.3276 13.6049 10.3705L13.6907 10.3746H13.6988C14.1609 10.3746 14.5355 9.99997 14.5355 9.5379C14.5355 9.07583 14.1609 8.70125 13.6988 8.70125H13.6907ZM9.99519 8.70125L9.91021 8.70533C9.48814 8.74799 9.15853 9.10457 9.15853 9.5379C9.15853 9.97123 9.48814 10.3278 9.91021 10.3705L9.99519 10.3746H10.005C10.4669 10.3744 10.8416 9.99985 10.8416 9.5379C10.8416 9.07595 10.4669 8.70144 10.005 8.70125H9.99519ZM6.30133 8.70125L6.21554 8.70533C5.79368 8.7482 5.46468 9.10472 5.46468 9.5379C5.46468 9.97107 5.79368 10.3276 6.21554 10.3705L6.30133 10.3746H6.3095C6.77156 10.3745 7.14616 9.99996 7.14616 9.5379C7.14616 9.07584 6.77156 8.70126 6.3095 8.70125H6.30133Z" fill="currentColor"/>
</g>
</svg>
