<svg viewBox="0 0 20.1045 20.1045" fill="none" xmlns="http://www.w3.org/2000/svg">
<g id="Vector">
<path d="M10.0527 0C15.6042 0.000221101 20.1043 4.50131 20.1045 10.0527C20.1043 15.6042 15.6042 20.1043 10.0527 20.1045C8.91856 20.1045 7.92221 19.9428 6.9873 19.6084C6.15538 19.3108 5.81826 19.1915 5.71875 19.168C5.23969 19.0554 4.92052 19.149 4.53125 19.334C4.16024 19.5104 3.5446 19.8913 2.79883 20.0156C1.71931 20.1953 0.75807 19.3115 0.847656 18.2207C0.880925 17.8176 1.03287 17.4582 1.15039 17.1982C1.28606 16.8982 1.37563 16.7256 1.42871 16.541C1.64131 15.8009 1.38657 15.265 0.926758 14.2725C0.332158 12.9887 6.00934e-05 11.558 0 10.0527C0.000220914 4.50131 4.50131 0.000220919 10.0527 0ZM10.0527 1.5C5.32974 1.50022 1.50022 5.32974 1.5 10.0527C1.50006 11.3356 1.78308 12.5513 2.28809 13.6416C2.69671 14.5237 3.26307 15.5873 2.87012 16.9551C2.7775 17.2773 2.61168 17.6083 2.51758 17.8164C2.40548 18.0644 2.35311 18.2192 2.34277 18.3438C2.33318 18.4606 2.43616 18.5551 2.55176 18.5361C3.02249 18.4577 3.30875 18.2546 3.8877 17.9795C4.44831 17.7131 5.12914 17.4889 6.06152 17.708C6.26855 17.7567 6.7307 17.9229 7.49219 18.1953C8.24488 18.4646 9.06769 18.6045 10.0527 18.6045C14.7757 18.6043 18.6043 14.7757 18.6045 10.0527C18.6043 5.32974 14.7757 1.50022 10.0527 1.5Z" fill="currentColor"/>
<path d="M12.522 7.52198C12.8149 7.22908 13.2897 7.22908 13.5826 7.52198C13.8754 7.81487 13.8754 8.28963 13.5826 8.58252L9.58255 12.5825C9.29387 12.8712 8.82725 12.876 8.53275 12.5933L6.53275 10.6733C6.23398 10.3865 6.22442 9.91159 6.51126 9.6128C6.79812 9.31403 7.27301 9.30447 7.57181 9.59131L9.04154 11.0015L12.522 7.52198Z" fill="currentColor"/>
</g>
</svg>
