<svg viewBox="0 0 22 16.9441" fill="none" xmlns="http://www.w3.org/2000/svg">
<path id="Vector" d="M15.7021 5.45605C16.7656 4.83347 18.2002 4.74614 19.4922 5.32422L19.748 5.44824C20.3607 5.76998 20.6828 6.08933 20.8604 6.46582C21.0462 6.86006 21.1297 7.43539 21.0195 8.37793C20.9328 9.11996 20.3659 10.0876 19.4443 11.1035C18.6598 11.9683 17.6972 12.7826 16.792 13.4062L16.4082 13.6611C15.435 14.2856 12.7616 15.9848 8.31934 16.1357C4.09341 16.2791 1.70811 14.5294 1.33594 14.1943C1.29737 14.1596 1.26311 14.1235 1.22852 14.0908C2.23887 14.0359 3.61084 13.9504 4.63965 13.6504C5.47607 13.4065 6.34395 13.1854 7.28516 12.7334C8.24054 12.2746 9.25205 11.591 10.4756 10.4346C11.6784 9.29772 12.4753 8.3202 13.1934 7.53711C13.9142 6.75106 14.6086 6.09603 15.7021 5.45605ZM21.1807 3.04102C21.1657 3.29363 21.1461 3.53291 21.1162 3.75098C20.9981 3.68752 20.8708 3.62301 20.7246 3.55566C20.9006 3.41834 21.057 3.24922 21.1807 3.04102Z" stroke="currentColor" stroke-width="1.6"/>
</svg>
