<svg viewBox="0 0 22 16.9441" fill="none" xmlns="http://www.w3.org/2000/svg">
<g id="Vector">
<path d="M21.0901 0.583622C21.6038 0.944778 22.0332 1.67039 21.9979 2.76432C21.9726 3.52627 21.8805 4.26951 21.7091 4.78151C21.6716 4.89602 21.5211 4.93566 21.4114 4.86464C20.9567 4.569 20.686 4.39503 20.0185 4.11976C19.5006 3.90519 19.095 3.82366 18.8013 3.76464C18.7446 3.75325 18.6921 3.74269 18.6437 3.73218C18.4613 3.69254 18.4696 3.44259 18.7248 3.40625C19.6508 3.27357 20.3702 3.07813 20.5879 2.43069C20.799 1.80252 20.4016 1.1738 19.7545 0.932116C19.0158 0.655192 18.3202 0.943676 18.0402 1.28446C17.7667 1.61754 17.7276 1.9352 17.8186 2.29251C17.8643 2.47088 17.635 2.71752 17.4013 2.33214C17.2188 2.03045 17.0932 1.55093 17.2706 1.09948C17.5016 0.513703 18.2055 0.0622575 18.9838 0.00775385C19.7539 -0.0456488 20.5157 0.180075 21.0901 0.583622Z" fill="currentColor"/>
<path d="M11.9934 7.67819C12.9838 6.56047 13.7948 5.64522 15.2979 4.76554C16.6831 3.95459 18.5335 3.90725 20.12 4.74022C21.5289 5.48015 22.0503 6.448 21.8139 8.47069C21.5802 10.4714 18.9674 12.9708 16.8402 14.3345C15.8166 14.9913 12.9982 16.7773 8.3464 16.9353C3.8848 17.0867 1.30398 15.2424 0.800709 14.7893C-0.0966811 13.9811 -0.348039 13.3821 0.611089 13.3248C0.7441 13.3169 0.885781 13.3092 1.03409 13.3011C2.06955 13.2447 3.42816 13.1707 4.41563 12.8827C4.52814 12.8499 4.63937 12.818 4.74965 12.7863C6.33653 12.3304 7.72801 11.9307 9.9262 9.85311C10.7877 9.03888 11.4205 8.32467 11.9934 7.67819Z" fill="currentColor"/>
</g>
</svg>
