<svg viewBox="0 0 20 20" fill="none" xmlns="http://www.w3.org/2000/svg">
<g id="Vector">
<path d="M10.0869 4.54785C10.5008 4.54821 10.8368 4.88393 10.8369 5.29785V5.78613C11.0165 5.8242 11.1928 5.87334 11.3613 5.93457C11.8869 6.12566 12.4097 6.45063 12.7432 6.93848C12.9766 7.28035 12.8885 7.74772 12.5469 7.98145C12.205 8.21477 11.7386 8.12673 11.5049 7.78516C11.403 7.63621 11.1853 7.46617 10.8486 7.34375C10.5199 7.22443 10.137 7.17334 9.7832 7.20605C9.42562 7.23931 9.15035 7.3522 8.97852 7.50195C8.82732 7.63402 8.70613 7.83564 8.70605 8.18848C8.70613 8.32395 8.73937 8.40305 8.7793 8.46191C8.82605 8.53049 8.91238 8.61317 9.06934 8.7041C9.41253 8.90268 9.88731 9.03418 10.5078 9.21777C11.0633 9.38215 11.7636 9.59697 12.2949 9.99512C12.5755 10.2055 12.8308 10.4816 12.9971 10.8457C13.1642 11.2119 13.2197 11.6207 13.1738 12.0615C13.0273 13.4684 11.9382 14.1793 10.8369 14.3877V14.7021C10.8368 15.116 10.5007 15.4518 10.0869 15.4521C9.6728 15.4521 9.33707 15.1162 9.33691 14.7021V14.3838C8.38744 14.2112 7.45038 13.7172 6.91992 12.8477C6.7045 12.4941 6.81656 12.0321 7.16992 11.8164C7.52338 11.6011 7.98548 11.7132 8.20117 12.0664C8.5469 12.6328 9.39132 13.0031 10.2646 12.9512C11.1296 12.8995 11.6222 12.4859 11.6826 11.9062C11.7051 11.6901 11.6726 11.5562 11.6328 11.4688C11.5921 11.3796 11.5207 11.2893 11.3955 11.1953C11.1142 10.9846 10.6781 10.8326 10.082 10.6562C9.55105 10.4992 8.85603 10.314 8.31836 10.0029C8.03526 9.83901 7.75162 9.61719 7.54004 9.30664C7.32201 8.98642 7.20614 8.61029 7.20605 8.18848C7.20614 7.42488 7.4983 6.80338 7.99219 6.37207C8.38142 6.03249 8.86002 5.8435 9.33691 5.75684V5.29785C9.337 4.88371 9.67275 4.54785 10.0869 4.54785Z" fill="currentColor"/>
<path fill-rule="evenodd" clip-rule="evenodd" d="M10 0C15.5228 0 20 4.47715 20 10C20 15.5228 15.5228 20 10 20C4.47715 20 0 15.5228 0 10C0 4.47715 4.47715 0 10 0ZM10 1.5C5.30558 1.5 1.5 5.30558 1.5 10C1.5 14.6944 5.30558 18.5 10 18.5C14.6944 18.5 18.5 14.6944 18.5 10C18.5 5.30558 14.6944 1.5 10 1.5Z" fill="currentColor"/>
</g>
</svg>
