<svg viewBox="0 0 21.5996 21.5273" fill="none" xmlns="http://www.w3.org/2000/svg">
<path id="Vector" fill-rule="evenodd" clip-rule="evenodd" d="M13.5996 0C18.0179 0 21.5996 3.58172 21.5996 8C21.5995 11.6938 19.0951 14.7995 15.6924 15.7197C14.7388 19.0716 11.6576 21.5273 8 21.5273C3.58182 21.5273 0.000164928 17.9455 0 13.5273C0 9.82976 2.50893 6.71948 5.91699 5.80273C5.91341 5.8037 5.90983 5.80469 5.90625 5.80566C6.86018 2.45439 9.94237 0 13.5996 0ZM8.06934 9.01562C7.65523 9.01576 7.31934 9.35149 7.31934 9.76562V10.0088C6.95736 10.0912 6.59594 10.249 6.29395 10.5127C5.86488 10.8877 5.61426 11.4264 5.61426 12.0781C5.61432 12.4442 5.71493 12.7753 5.90723 13.0576C6.09283 13.3301 6.33922 13.5208 6.57812 13.6592C7.02771 13.9194 7.60644 14.0732 8.02246 14.1963C8.50328 14.3386 8.82529 14.4538 9.02539 14.6035C9.11027 14.6671 9.14887 14.7207 9.16895 14.7646C9.18815 14.8067 9.212 14.8863 9.19629 15.0371C9.15863 15.3974 8.85626 15.6993 8.20215 15.7383C7.53985 15.7775 6.92733 15.4938 6.68848 15.1025C6.47275 14.749 6.01079 14.6369 5.65723 14.8525C5.30408 15.0684 5.19174 15.5304 5.40723 15.8838C5.83545 16.5858 6.56836 16.9936 7.31934 17.1572V17.2891C7.31956 17.703 7.65537 18.0389 8.06934 18.0391C8.48319 18.0388 8.81911 17.7029 8.81934 17.2891V17.1582C9.70189 16.9537 10.5664 16.3533 10.6875 15.1924C10.7266 14.8171 10.6797 14.4625 10.5332 14.1416C10.3876 13.8228 10.1658 13.5833 9.92578 13.4033C9.47565 13.066 8.88863 12.8881 8.44824 12.7578C7.94288 12.6083 7.58515 12.509 7.33008 12.3613C7.21718 12.2959 7.16843 12.2436 7.14746 12.2129C7.13314 12.1918 7.11431 12.1581 7.11426 12.0781C7.11426 11.8375 7.19384 11.7184 7.28027 11.6426C7.38751 11.5489 7.57532 11.4661 7.83984 11.4414C8.10054 11.4173 8.38434 11.4559 8.62695 11.5439C8.87739 11.635 9.02064 11.7545 9.0791 11.8398C9.3126 12.1816 9.77914 12.2692 10.1211 12.0361C10.4631 11.8025 10.551 11.3362 10.3174 10.9941C10.0274 10.5697 9.57921 10.2935 9.13965 10.1338C9.03576 10.0961 8.92854 10.0634 8.81934 10.0361V9.76562C8.81934 9.35157 8.48333 9.01589 8.06934 9.01562ZM13.5996 1.5C10.8814 1.5 8.55354 3.16845 7.58301 5.53711C7.49335 5.54171 7.40427 5.54999 7.31543 5.55762C7.54112 5.53849 7.76936 5.52734 8 5.52734C12.4183 5.52734 16 9.10907 16 13.5273C16 13.7019 15.9915 13.8751 15.9805 14.0469C18.3919 13.0967 20.0995 10.7489 20.0996 8C20.0996 4.41015 17.1895 1.5 13.5996 1.5Z" fill="currentColor"/>
</svg>
