<svg viewBox="0 0 21.5996 21.5273" fill="none" xmlns="http://www.w3.org/2000/svg">
<g id="Vector">
<path d="M8.06934 9.01562C8.48333 9.01589 8.81934 9.35157 8.81934 9.76562V10.0361C8.9286 10.0634 9.0357 10.096 9.13965 10.1338C9.57922 10.2935 10.0274 10.5697 10.3174 10.9941C10.551 11.3362 10.4631 11.8025 10.1211 12.0361C9.77912 12.2694 9.31265 12.1817 9.0791 11.8398C9.02065 11.7545 8.87742 11.635 8.62695 11.5439C8.3843 11.4559 8.1006 11.4173 7.83984 11.4414C7.57519 11.466 7.38754 11.5489 7.28027 11.6426C7.19376 11.7184 7.11426 11.8373 7.11426 12.0781C7.11429 12.1583 7.13313 12.1918 7.14746 12.2129C7.16844 12.2436 7.21709 12.2959 7.33008 12.3613C7.58519 12.509 7.94278 12.6083 8.44824 12.7578C8.88866 12.8881 9.47563 13.0659 9.92578 13.4033C10.1658 13.5833 10.3876 13.8228 10.5332 14.1416C10.6797 14.4625 10.7266 14.8171 10.6875 15.1924C10.5665 16.3534 9.70192 16.9537 8.81934 17.1582V17.2891C8.81918 17.703 8.48323 18.0388 8.06934 18.0391C7.65522 18.0391 7.31949 17.7031 7.31934 17.2891V17.1572C6.56829 16.9936 5.83549 16.5859 5.40723 15.8838C5.19167 15.5303 5.30389 15.0683 5.65723 14.8525C6.0108 14.6369 6.47275 14.749 6.68848 15.1025C6.92736 15.4939 7.53976 15.7776 8.20215 15.7383C8.85635 15.6993 9.1587 15.3974 9.19629 15.0371C9.212 14.8862 9.18815 14.8067 9.16895 14.7646C9.14887 14.7207 9.11027 14.6671 9.02539 14.6035C8.8253 14.4537 8.50336 14.3386 8.02246 14.1963C7.60642 14.0732 7.02778 13.9195 6.57812 13.6592C6.33918 13.5208 6.09287 13.3301 5.90723 13.0576C5.7149 12.7752 5.6143 12.4443 5.61426 12.0781C5.61426 11.4263 5.86476 10.8877 6.29395 10.5127C6.59601 10.2489 6.95727 10.0912 7.31934 10.0088V9.76562C7.31934 9.35141 7.65512 9.01562 8.06934 9.01562Z" fill="currentColor"/>
<path fill-rule="evenodd" clip-rule="evenodd" d="M13.5996 0C18.0177 0.000131937 21.5995 3.58186 21.5996 8C21.5995 11.6938 19.0951 14.8005 15.6924 15.7207C14.7386 19.0721 11.6572 21.5272 8 21.5273C3.58178 21.5273 9.89615e-05 17.9455 0 13.5273C0 9.83349 2.50344 6.72494 5.90625 5.80469C6.86054 2.45397 9.94276 0 13.5996 0ZM8 7.02734C4.41015 7.02734 1.5 9.93749 1.5 13.5273C1.5001 17.1171 4.41021 20.0273 8 20.0273C11.5897 20.0272 14.4999 17.117 14.5 13.5273C14.5 9.93757 11.5897 7.02748 8 7.02734ZM13.5996 1.5C10.8815 1.5 8.55358 3.16855 7.58301 5.53711C7.53508 5.53957 7.48715 5.54452 7.43945 5.54785C7.62459 5.53504 7.81161 5.52734 8 5.52734C12.4182 5.52748 16 9.10915 16 13.5273C16 13.7019 15.9915 13.8751 15.9805 14.0469C18.3918 13.0966 20.0995 10.7488 20.0996 8C20.0995 4.41029 17.1893 1.50013 13.5996 1.5Z" fill="currentColor"/>
</g>
</svg>
