<svg viewBox="0 0 20 20" fill="none" xmlns="http://www.w3.org/2000/svg">
<path id="Vector" fill-rule="evenodd" clip-rule="evenodd" d="M10 0C15.5226 0.000263881 20 4.47732 20 10C19.9999 15.5226 15.5226 19.9997 10 20C4.47719 20 6.59763e-05 15.5228 0 10C0 4.47715 4.47715 0 10 0ZM10.0859 4.54785C9.67181 4.54795 9.33594 4.8837 9.33594 5.29785V5.75684C8.85897 5.84354 8.38045 6.03234 7.99121 6.37207C7.49735 6.8034 7.20512 7.42486 7.20508 8.18848C7.20516 8.61025 7.32107 8.98644 7.53906 9.30664C7.75062 9.6172 8.0343 9.839 8.31738 10.0029C8.85503 10.314 9.55 10.4991 10.0811 10.6562C10.6773 10.8327 11.1132 10.9846 11.3945 11.1953C11.5198 11.2893 11.5911 11.3796 11.6318 11.4688C11.6717 11.5562 11.7041 11.69 11.6816 11.9062C11.6212 12.486 11.1289 12.8996 10.2637 12.9512C9.39036 13.003 8.54586 12.6328 8.2002 12.0664C7.9844 11.7131 7.52243 11.6008 7.16895 11.8164C6.81572 12.0321 6.70362 12.4942 6.91895 12.8477C7.44936 13.7172 8.38649 14.2111 9.33594 14.3838V14.7021C9.33608 15.1162 9.6719 15.452 10.0859 15.4521C10.5 15.4521 10.8358 15.1162 10.8359 14.7021V14.3877C11.9374 14.1794 13.0263 13.4686 13.1729 12.0615C13.2187 11.6206 13.1632 11.212 12.9961 10.8457C12.8298 10.4815 12.5746 10.2055 12.2939 9.99512C11.7626 9.59694 11.0624 9.38215 10.5068 9.21777C9.88624 9.03415 9.41154 8.90275 9.06836 8.7041C8.91141 8.61315 8.82504 8.5305 8.77832 8.46191C8.73842 8.40306 8.70515 8.32388 8.70508 8.18848C8.70512 7.83563 8.82637 7.63404 8.97754 7.50195C9.14932 7.35207 9.4245 7.23935 9.78223 7.20605C10.1361 7.17326 10.5188 7.22442 10.8477 7.34375C11.1845 7.46615 11.402 7.63618 11.5039 7.78516C11.7375 8.12679 12.204 8.21468 12.5459 7.98145C12.8879 7.74778 12.9758 7.28049 12.7422 6.93848C12.4086 6.45057 11.8861 6.12563 11.3604 5.93457C11.1917 5.87332 11.0156 5.8242 10.8359 5.78613V5.29785C10.8359 4.88368 10.5001 4.54792 10.0859 4.54785Z" fill="currentColor"/>
</svg>
