<svg width="24" height="24" viewBox="0 0 24 24" fill="none" xmlns="http://www.w3.org/2000/svg">
<path d="M11.9947 14.8879C12.5452 14.8883 12.9908 15.3461 12.9908 15.885C12.9787 16.4352 12.5449 16.869 11.9947 16.8694C11.456 16.8694 11.0108 16.4354 11.0104 15.885C11.0104 15.3459 11.4557 14.8879 11.9947 14.8879Z" fill="currentColor"></path>
<path d="M11.9947 8.58521C12.544 8.58546 12.9102 8.95971 12.8971 9.50708L12.7926 13.3274C12.7793 13.781 12.4523 14.1015 11.9947 14.1018C11.537 14.1018 11.2229 13.7812 11.2096 13.3274L11.1051 9.50708C11.092 8.95952 11.4453 8.58521 11.9947 8.58521Z" fill="currentColor"></path>
<path fill-rule="evenodd" clip-rule="evenodd" d="M9.11289 3.1897C10.8979 2.1534 13.1013 2.1535 14.8863 3.1897C15.6307 3.62187 16.2438 4.3387 16.8863 5.30298C17.532 6.27203 18.2659 7.58292 19.2154 9.27857C20.128 10.9081 20.8342 12.1683 21.3063 13.1887C21.7767 14.2057 22.0601 15.076 22.0484 15.9182C22.0202 17.942 20.9294 19.8023 19.1773 20.8157C18.4482 21.2374 17.5505 21.4157 16.4332 21.5022C15.3121 21.5889 13.8674 21.5881 11.9996 21.5881C10.1319 21.5881 8.68706 21.5889 7.56602 21.5022C6.4488 21.4157 5.55101 21.2374 4.82188 20.8157C3.07002 19.8022 1.98 17.9419 1.95176 15.9182C1.94012 15.076 2.22352 14.2057 2.69395 13.1887C3.16601 12.1682 3.87224 10.9081 4.78477 9.27857C5.73434 7.5829 6.46721 6.27204 7.11289 5.30298C7.75548 4.33861 8.36852 3.62191 9.11289 3.1897ZM14.1334 4.48657C12.814 3.72074 11.1852 3.72063 9.86582 4.48657C9.42689 4.74146 8.96971 5.22136 8.36094 6.13501C7.75516 7.04421 7.05493 8.2939 6.09336 10.011C5.16873 11.6621 4.4972 12.8633 4.05528 13.8186C3.61186 14.7772 3.44481 15.3983 3.45176 15.8977C3.47266 17.3935 4.27795 18.7688 5.57285 19.5178C6.0052 19.7679 6.62916 19.9256 7.68223 20.0071C8.73166 20.0883 10.1074 20.0881 11.9996 20.0881C13.8921 20.0881 15.2685 20.0883 16.318 20.0071C17.3707 19.9256 17.9941 19.7678 18.4264 19.5178C19.7213 18.7688 20.5275 17.3935 20.5484 15.8977C20.5554 15.3983 20.3883 14.7772 19.9449 13.8186C19.503 12.8633 18.8315 11.6621 17.9068 10.011C16.9452 8.29375 16.2441 7.04425 15.6383 6.13501C15.0295 5.2214 14.5723 4.74144 14.1334 4.48657Z" fill="currentColor"></path>
</svg>