<svg width="24" height="24" viewBox="0 0 24 24" fill="none" xmlns="http://www.w3.org/2000/svg">
<path fill-rule="evenodd" clip-rule="evenodd" d="M16.7178 2C18.41 2.00006 19.7897 2.33401 20.7275 3.27148C21.6654 4.20934 22 5.58963 22 7.28223V11.168C21.9999 12.8605 21.6654 14.2399 20.7275 15.1777C19.7897 16.1155 18.4102 16.4501 16.7178 16.4502H16.4502V16.7178C16.4501 18.4102 16.1155 19.7897 15.1777 20.7275C14.2399 21.6654 12.8605 21.9999 11.168 22H7.28223C5.58963 22 4.20934 21.6654 3.27148 20.7275C2.33404 19.7897 2.00006 18.41 2 16.7178V12.832C2.00006 11.1395 2.33367 9.75911 3.27148 8.82129C4.20934 7.88351 5.58969 7.54984 7.28223 7.5498H7.5498V7.28223C7.54984 5.58967 7.88348 4.20934 8.82129 3.27148C9.75912 2.33365 11.1395 2.00005 12.832 2H16.7178ZM7.28223 9.0498C5.73772 9.04984 4.85098 9.36296 4.33203 9.88184C3.81312 10.4008 3.50007 11.2876 3.5 12.832V16.7178C3.50006 18.2618 3.81341 19.148 4.33203 19.667C4.85097 20.1859 5.73762 20.5 7.28223 20.5H11.168C12.7125 20.4999 13.5983 20.1859 14.1172 19.667C14.636 19.1481 14.9501 18.2622 14.9502 16.7178V12.832C14.9501 11.6368 14.7601 10.8367 14.4346 10.2949C14.3395 10.1369 14.2344 10 14.1172 9.88281C14.0524 9.81806 13.982 9.7564 13.9053 9.69824C13.5975 9.46512 13.1889 9.28675 12.6426 9.17676C12.2331 9.09418 11.7463 9.0498 11.167 9.0498H7.28223ZM12.832 3.5C11.2875 3.50005 10.4008 3.81311 9.88184 4.33203C9.36293 4.85098 9.04984 5.73768 9.0498 7.28223V7.5498H11.168C12.8602 7.54987 14.2399 7.88385 15.1777 8.82129C15.4853 9.12883 15.7268 9.48471 15.9141 9.88281C16.1195 10.3193 16.2591 10.807 16.3438 11.3408C16.3879 11.6191 16.4181 11.9097 16.4346 12.2119C16.4456 12.4135 16.4502 12.6204 16.4502 12.832V14.9502H16.7178C18.2622 14.9501 19.1481 14.6361 19.667 14.1172C20.1859 13.5983 20.4999 12.7125 20.5 11.168V7.28223C20.5 5.73762 20.1859 4.85097 19.667 4.33203C19.148 3.81338 18.2618 3.50006 16.7178 3.5H12.832Z" fill="currentColor"></path>
</svg>