<svg viewBox="0 0 20 16.2998" fill="none" xmlns="http://www.w3.org/2000/svg">
<g id="Vector">
<path d="M4.59277 10.0693C5.05855 10.0693 5.29185 10.0694 5.47559 10.1455C5.72041 10.247 5.91511 10.4417 6.0166 10.6865C6.09271 10.8703 6.09277 11.1036 6.09277 11.5693C6.09277 12.0351 6.09265 12.2684 6.0166 12.4521C5.91517 12.697 5.72042 12.8916 5.47559 12.9932C5.29185 13.0693 5.05855 13.0693 4.59277 13.0693C4.12683 13.0693 3.89373 13.0693 3.70996 12.9932C3.46494 12.8917 3.27044 12.6972 3.16895 12.4521C3.09283 12.2684 3.09277 12.0353 3.09277 11.5693C3.09277 11.1036 3.09284 10.8703 3.16895 10.6865C3.27049 10.4417 3.46507 10.2469 3.70996 10.1455C3.89371 10.0695 4.12697 10.0693 4.59277 10.0693Z" fill="currentColor"/>
<path fill-rule="evenodd" clip-rule="evenodd" d="M11.8496 3.93225e-07C13.4275 3.93197e-07 14.6753 -0.00109472 15.6621 0.112305C16.6643 0.227487 17.4921 0.469211 18.1904 1.01953C18.4837 1.25069 18.7493 1.51636 18.9805 1.80957C19.5308 2.50783 19.7725 3.33576 19.8877 4.33789C20.0011 5.32458 20 6.57271 20 8.15039C20 9.72777 20.001 10.9753 19.8877 11.9619C19.7725 12.9641 19.5307 13.792 18.9805 14.4902C18.7493 14.7835 18.4837 15.0491 18.1904 15.2803C17.4921 15.8307 16.6644 16.0723 15.6621 16.1875C14.6753 16.3009 13.4275 16.2998 11.8496 16.2998H8.15039C6.57251 16.2998 5.32466 16.3009 4.33789 16.1875C3.33556 16.0723 2.50793 15.8307 1.80957 15.2803C1.51634 15.0491 1.25071 14.7835 1.01953 14.4902C0.469306 13.792 0.227477 12.9641 0.112305 11.9619C-0.00102172 10.9753 2.08377e-07 9.72777 3.99107e-07 8.15039C2.0134e-07 6.57271 -0.00109008 5.32458 0.112305 4.33789C0.227518 3.33576 0.469172 2.50783 1.01953 1.80957C1.25071 1.51636 1.51634 1.25069 1.80957 1.01953C2.50789 0.469211 3.33567 0.227487 4.33789 0.112305C5.32466 -0.00109476 6.57254 3.93225e-07 8.15039 3.93225e-07H11.8496ZM1.5127 6.11914C1.50103 6.70273 1.5 7.37229 1.5 8.15039C1.5 9.76343 1.50132 10.9099 1.60254 11.791C1.702 12.6563 1.88927 13.1717 2.19727 13.5625C2.35541 13.7631 2.53769 13.9444 2.73828 14.1025C3.12905 14.4105 3.64374 14.5978 4.50879 14.6973C5.39003 14.7985 6.53689 14.7998 8.15039 14.7998H11.8496C13.4631 14.7998 14.61 14.7985 15.4912 14.6973C16.3563 14.5978 16.8709 14.4105 17.2617 14.1025C17.4623 13.9444 17.6446 13.7631 17.8027 13.5625C18.1107 13.1717 18.298 12.6563 18.3975 11.791C18.4987 10.9099 18.5 9.76343 18.5 8.15039C18.5 7.37748 18.4978 6.7117 18.4863 6.13086L1.5127 6.11914ZM8.15039 1.5C6.53691 1.5 5.39003 1.50127 4.50879 1.60254C3.64392 1.70197 3.12903 1.88946 2.73828 2.19727C2.53768 2.35541 2.35543 2.5377 2.19727 2.73828C1.88942 3.12899 1.702 3.64402 1.60254 4.50879C1.59839 4.54494 1.59562 4.58209 1.5918 4.61914L18.4092 4.63086C18.405 4.5898 18.4021 4.54874 18.3975 4.50879C18.298 3.64402 18.1106 3.12899 17.8027 2.73828C17.6446 2.5377 17.4623 2.35541 17.2617 2.19727C16.871 1.88946 16.3561 1.70197 15.4912 1.60254C14.61 1.50127 13.4631 1.5 11.8496 1.5H8.15039Z" fill="currentColor"/>
</g>
</svg>
