<svg viewBox="0 0 20 16.2998" fill="none" xmlns="http://www.w3.org/2000/svg">
<g id="Vector">
<path fill-rule="evenodd" clip-rule="evenodd" d="M19.9873 6.13281C19.9989 6.73694 20 7.40708 20 8.15039C20 9.72776 20.001 10.9753 19.8877 11.9619C19.7725 12.9641 19.5307 13.792 18.9805 14.4902C18.7493 14.7835 18.4837 15.0491 18.1904 15.2803C17.4921 15.8307 16.6644 16.0723 15.6621 16.1875C14.6753 16.3009 13.4275 16.2998 11.8496 16.2998H8.15039C6.57251 16.2998 5.32466 16.3009 4.33789 16.1875C3.33556 16.0723 2.50793 15.8307 1.80957 15.2803C1.51634 15.0491 1.25071 14.7835 1.01953 14.4902C0.469307 13.792 0.227476 12.9641 0.112305 11.9619C-0.00102158 10.9753 1.3978e-07 9.72776 3.3051e-07 8.15039C2.36358e-07 7.40148 -0.000152014 6.72682 0.0117191 6.11914L19.9873 6.13281ZM4.59277 10.0693C4.12697 10.0693 3.89371 10.0695 3.70996 10.1455C3.46507 10.2469 3.27049 10.4417 3.16895 10.6865C3.09284 10.8703 3.09277 11.1036 3.09277 11.5693C3.09277 12.0353 3.09283 12.2684 3.16895 12.4521C3.27044 12.6972 3.46494 12.8917 3.70996 12.9932C3.89373 13.0693 4.12683 13.0693 4.59277 13.0693C5.05855 13.0693 5.29185 13.0693 5.47559 12.9932C5.72042 12.8916 5.91517 12.697 6.0166 12.4521C6.09265 12.2684 6.09277 12.0351 6.09277 11.5693C6.09277 11.1036 6.09271 10.8703 6.0166 10.6865C5.91511 10.4417 5.72041 10.247 5.47559 10.1455C5.29185 10.0694 5.05855 10.0693 4.59277 10.0693Z" fill="currentColor"/>
<path d="M11.8496 3.93221e-07C13.4275 3.93221e-07 14.6753 -0.00109453 15.6621 0.112305C16.6643 0.227487 17.4921 0.469212 18.1904 1.01953C18.4837 1.25069 18.7493 1.51636 18.9805 1.80957C19.5308 2.50783 19.7725 3.33576 19.8877 4.33789C19.8987 4.43367 19.9071 4.53205 19.916 4.63281L0.0849613 4.61914C0.0935959 4.52315 0.101796 4.42934 0.112305 4.33789C0.227518 3.33576 0.469173 2.50783 1.01953 1.80957C1.25071 1.51636 1.51634 1.25069 1.80957 1.01953C2.50789 0.469211 3.33567 0.227487 4.33789 0.112305C5.32466 -0.00109472 6.57254 3.92571e-07 8.15039 3.93221e-07H11.8496Z" fill="currentColor"/>
</g>
</svg>
