<svg viewBox="0 0 20 20" fill="none" xmlns="http://www.w3.org/2000/svg">
<path id="Vector" fill-rule="evenodd" clip-rule="evenodd" d="M20 10C20 15.5228 15.5228 20 10 20C4.47715 20 0 15.5228 0 10C0 4.47715 4.47715 0 10 0C15.5228 0 20 4.47715 20 10ZM18.4 10C18.4 14.6392 14.6392 18.4 10 18.4C8.00466 18.4 6.1718 17.7043 4.73079 16.5422L16.5422 4.73079C17.7043 6.17181 18.4 8.00466 18.4 10ZM3.45798 15.2694L15.2694 3.45798C13.8284 2.29578 11.9954 1.6 10 1.6C5.36081 1.6 1.6 5.36081 1.6 10C1.6 11.9954 2.29578 13.8284 3.45798 15.2694Z" fill="currentColor"/>
</svg>
