<svg viewBox="0 0 20.0001 20" fill="none" xmlns="http://www.w3.org/2000/svg">
<g id="Union">
<path d="M12.0509 6.81836C12.3633 6.50595 12.8693 6.50597 13.1817 6.81836C13.4942 7.13078 13.4942 7.6368 13.1817 7.94922L11.131 10L13.1817 12.0508C13.4942 12.3632 13.4941 12.8692 13.1817 13.1816C12.8693 13.4941 12.3633 13.4941 12.0509 13.1816L10.0001 11.1309L7.94932 13.1816C7.6369 13.4941 7.13088 13.4941 6.81846 13.1816C6.50607 12.8692 6.50605 12.3632 6.81846 12.0508L8.86924 10L6.81846 7.94922C6.50604 7.6368 6.50604 7.13078 6.81846 6.81836C7.13088 6.50595 7.6369 6.50594 7.94932 6.81836L10.0001 8.86914L12.0509 6.81836Z" fill="currentColor"/>
<path fill-rule="evenodd" clip-rule="evenodd" d="M10.004 0C16.7516 5.03232e-05 19.9834 3.19838 20.0001 10.0605C20.0093 16.9539 16.822 20 10.004 20C3.136 19.9944 -0.0201966 16.8613 9.72217e-05 10.0605C0.0149475 3.13366 3.17856 9.11957e-05 10.004 0ZM10.004 1.36328C6.77273 1.36333 4.69879 2.10749 3.41318 3.39551C2.12648 4.68501 1.3714 6.77891 1.36436 10.0635C1.35477 13.2786 2.09822 15.3379 3.37998 16.6113C4.66465 17.8874 6.74915 18.6329 10.004 18.6357C13.2409 18.6357 15.3202 17.9096 16.6056 16.6436C17.8862 15.382 18.641 13.3263 18.6368 10.0635L18.6261 9.46875C18.5304 6.56217 17.7792 4.64121 16.5606 3.41992C15.2622 2.11866 13.1855 1.36331 10.004 1.36328Z" fill="currentColor"/>
</g>
</svg>
