<svg viewBox="0 0 20.0001 20" fill="none" xmlns="http://www.w3.org/2000/svg">
<path id="Subtract" fill-rule="evenodd" clip-rule="evenodd" d="M10.004 0C16.7516 5.03232e-05 19.9834 3.19838 20.0001 10.0605C20.0093 16.9539 16.822 20 10.004 20C3.136 19.9944 -0.0201966 16.8613 9.72217e-05 10.0605C0.0149475 3.13366 3.17856 9.11923e-05 10.004 0ZM13.1817 6.81836C12.8693 6.50597 12.3633 6.50595 12.0509 6.81836L10.0001 8.86914L7.94932 6.81836C7.6369 6.50594 7.13088 6.50595 6.81846 6.81836C6.50604 7.13078 6.50604 7.6368 6.81846 7.94922L8.86924 10L6.81846 12.0508C6.50605 12.3632 6.50607 12.8692 6.81846 13.1816C7.13088 13.4941 7.6369 13.4941 7.94932 13.1816L10.0001 11.1309L12.0509 13.1816C12.3633 13.4941 12.8693 13.4941 13.1817 13.1816C13.4941 12.8692 13.4942 12.3632 13.1817 12.0508L11.131 10L13.1817 7.94922C13.4942 7.6368 13.4942 7.13078 13.1817 6.81836Z" fill="currentColor"/>
</svg>
