<svg viewBox="0 0 9.07107 9.07107" fill="none" xmlns="http://www.w3.org/2000/svg">
<path id="Vector" d="M0.292893 0.292893C0.683417 -0.0976311 1.31658 -0.097631 1.70711 0.292893L4.53553 3.12132L7.36396 0.292893C7.75449 -0.0976311 8.38765 -0.0976311 8.77817 0.292893C9.1687 0.683417 9.1687 1.31658 8.77817 1.70711L5.94975 4.53553L8.77817 7.36396C9.1687 7.75449 9.1687 8.38765 8.77817 8.77817C8.38765 9.1687 7.75449 9.1687 7.36396 8.77817L4.53553 5.94975L1.70711 8.77817C1.31658 9.1687 0.683417 9.1687 0.292893 8.77817C-0.0976311 8.38765 -0.097631 7.75449 0.292893 7.36396L3.12132 4.53553L0.292893 1.70711C-0.0976311 1.31658 -0.0976311 0.683417 0.292893 0.292893Z" fill="currentColor"/>
</svg>
