<svg viewBox="0 0 20.9404 19.18" fill="none" xmlns="http://www.w3.org/2000/svg">
<g id="Icon">
<path d="M11.8975 6.89452e-05C13.0292 6.87374e-05 13.7865 -0.00938705 14.417 0.196155C15.4958 0.548049 16.3439 1.34008 16.7207 2.34763C16.9409 2.93655 16.9307 3.64351 16.9307 4.70066V6.03404C16.9307 6.63164 16.9315 6.98822 16.8945 7.29629C16.5953 9.78818 14.4895 11.7548 11.8213 12.0343C11.6458 12.0526 11.4556 12.0606 11.2197 12.0644V14.2231H11.7393C13.5551 14.2233 15.0273 15.5981 15.0273 17.2939C15.0271 18.335 14.1235 19.1797 13.0088 19.18H7.93262C6.81764 19.18 5.9133 18.3352 5.91309 17.2939C5.91314 15.598 7.38524 14.2232 9.20117 14.2231H9.71973V12.0644C9.48396 12.0605 9.29356 12.0526 9.11816 12.0343C6.45006 11.7547 4.34412 9.78811 4.04492 7.29629C4.00794 6.98823 4.00879 6.63162 4.00879 6.03404V4.70066C4.00879 3.64357 3.9986 2.93653 4.21875 2.34763C4.59551 1.34012 5.4437 0.548093 6.52246 0.196155C7.153 -0.00946102 7.91021 6.72497e-05 9.04199 6.89452e-05H11.8975Z" fill="currentColor"/>
<path d="M1.90332 3.36727C2.42899 3.36727 2.85547 3.76556 2.85547 4.2565V8.16727C2.85547 8.46183 2.59958 8.70081 2.28418 8.70081C1.02272 8.70071 0.000123811 7.74567 0 6.56758V5.14481C0.000161416 4.16317 0.852216 3.36743 1.90332 3.36727Z" fill="currentColor"/>
<path d="M19.0361 3.36727C20.0874 3.36727 20.9403 4.16307 20.9404 5.14481V6.56758C20.9403 7.74572 19.9168 8.70081 18.6553 8.70081C18.34 8.70062 18.085 8.46172 18.085 8.16727V4.2565C18.085 3.76564 18.5106 3.36739 19.0361 3.36727Z" fill="currentColor"/>
</g>
</svg>
