<svg viewBox="0 0 20.9434 19.1758" fill="none" xmlns="http://www.w3.org/2000/svg">
<path id="Icon" fill-rule="evenodd" clip-rule="evenodd" d="M12.6807 4.56793e-05C13.5418 4.56793e-05 14.1165 -0.00591169 14.6064 0.122116C15.8676 0.451906 16.8613 1.41221 17.2412 2.65141H18.4258C19.8161 2.65149 20.9433 3.77867 20.9434 5.16899C20.9433 7.53554 19.0247 9.45408 16.6582 9.45415C16.6077 9.45415 16.5585 9.44804 16.5107 9.43852C15.6738 10.7552 14.3181 11.7052 12.7236 12.0059C12.3196 12.0821 11.8647 12.0994 11.2217 12.1036V14.1407H11.6504C13.3659 14.1409 14.7567 15.5316 14.7568 17.2471C14.7568 18.3121 13.8931 19.1758 12.8281 19.1758H8.11523C7.05024 19.1758 6.18655 18.3121 6.18652 17.2471C6.18668 15.5315 7.5774 14.1408 9.29297 14.1407H9.72168V12.1036C9.07875 12.0994 8.62373 12.0821 8.21973 12.0059C6.62503 11.7052 5.26856 10.7555 4.43164 9.43852C4.38422 9.44792 4.33533 9.45414 4.28516 9.45415C1.91862 9.45408 1.15963e-05 7.53554 0 5.16899C4.36768e-05 3.77866 1.12726 2.65148 2.51758 2.65141H3.70215C4.08191 1.41236 5.07507 0.452045 6.33594 0.122116C6.82588 -0.00600664 7.40066 4.29934e-05 8.26172 4.56793e-05H12.6807ZM9.29297 15.6407C8.40583 15.6408 7.68668 16.36 7.68652 17.2471C7.68655 17.4837 7.87867 17.6758 8.11523 17.6758H12.8281C13.0647 17.6758 13.2568 17.4837 13.2568 17.2471C13.2567 16.36 12.5375 15.6409 11.6504 15.6407H9.29297ZM8.26172 1.50005C7.3065 1.50005 6.97217 1.50625 6.71582 1.57329C5.9289 1.77914 5.31425 2.39378 5.1084 3.18071C5.04136 3.43706 5.03516 3.77138 5.03516 4.72661V5.16899C5.03516 6.30508 5.03816 6.76976 5.1084 7.14262C5.43263 8.86217 6.77852 10.208 8.49805 10.5323C8.8709 10.6025 9.33566 10.6055 10.4717 10.6055C11.6078 10.6055 12.0724 10.6025 12.4453 10.5323C14.1649 10.208 15.5097 8.86222 15.834 7.14262C15.9043 6.76973 15.9082 6.30528 15.9082 5.16899V4.72661C15.9082 3.77138 15.902 3.43706 15.835 3.18071C15.6291 2.39381 15.0144 1.77916 14.2275 1.57329C13.9712 1.50627 13.6361 1.50005 12.6807 1.50005H8.26172ZM2.51758 4.15141C1.95568 4.15148 1.50004 4.60709 1.5 5.16899C1.50001 6.52291 2.46662 7.64956 3.74707 7.90044C3.70328 7.74327 3.66539 7.58334 3.63477 7.42094C3.53195 6.87557 3.53516 6.23726 3.53516 5.16899V4.72661C3.53516 4.5192 3.53488 4.32841 3.53613 4.15141H2.51758ZM17.4082 4.72661V5.16899C17.4082 6.23729 17.4114 6.87556 17.3086 7.42094C17.2779 7.58345 17.2391 7.74317 17.1953 7.90044C18.4762 7.64992 19.4433 6.52324 19.4434 5.16899C19.4433 4.6071 18.9877 4.15149 18.4258 4.15141H17.4072C17.4085 4.32841 17.4082 4.5192 17.4082 4.72661Z" fill="currentColor"/>
</svg>
