<svg width="24" height="24" viewBox="0 0 24 24" fill="none" xmlns="http://www.w3.org/2000/svg">
<path d="M19.3632 7.10725C18.9027 7.10725 18.5293 7.46853 18.5293 7.9142V16.9438C18.5293 18.8449 16.9365 20.3861 14.9717 20.3861H8.97553C7.01073 20.3861 5.41795 18.8449 5.41795 16.9438V7.9142C5.41795 7.46853 5.04456 7.10725 4.58397 7.10725C4.12338 7.10725 3.75 7.46853 3.75 7.9142V16.9438C3.77895 19.7445 6.13367 22.0001 9.02831 22H15.0245C17.8985 21.9723 20.2214 19.7247 20.25 16.9438V7.9142C20.2505 7.69103 20.1554 7.47765 19.9874 7.32476C19.8194 7.17187 19.5934 7.09313 19.3632 7.10725Z" fill="currentColor"></path>
<path fill-rule="evenodd" clip-rule="evenodd" d="M19.3632 5.65679H4.58397C4.12338 5.65679 3.75 5.29551 3.75 4.84985C3.75 4.40418 4.12338 4.0429 4.58397 4.0429H7.38148L8.62716 2.73544C9.10334 2.26702 9.75329 2.00222 10.4323 2H13.5149C14.184 1.99999 14.8258 2.25719 15.2989 2.71502L16.5657 4.0429H19.3632C19.8238 4.0429 20.1972 4.40418 20.1972 4.84985C20.1972 5.29551 19.8238 5.65679 19.3632 5.65679ZM13.5149 3.61389H10.4323C10.2213 3.61396 10.0179 3.69049 9.86228 3.8284L9.66171 4.03269H14.2855L14.0849 3.8284C13.9304 3.68873 13.7263 3.61192 13.5149 3.61389Z" fill="currentColor"></path>
<path d="M8.01487 8.93565V12C8.01487 12.4231 8.36935 12.7661 8.80662 12.7661C9.24389 12.7661 9.59837 12.4231 9.59837 12V8.93565C9.59837 8.51255 9.24389 8.16956 8.80662 8.16956C8.36935 8.16956 8.01487 8.51255 8.01487 8.93565Z" fill="currentColor"></path>
<path d="M11.1819 8.93565V17.1073C11.1819 17.5304 11.5363 17.8733 11.9736 17.8733C12.4109 17.8733 12.7654 17.5304 12.7654 17.1073V8.93565C12.7654 8.51255 12.4109 8.16956 11.9736 8.16956C11.5363 8.16956 11.1819 8.51255 11.1819 8.93565Z" fill="currentColor"></path>
<path d="M14.3488 8.93565V12C14.3488 12.4231 14.7033 12.7661 15.1406 12.7661C15.5779 12.7661 15.9323 12.4231 15.9323 12V8.93565C15.9323 8.51255 15.5779 8.16956 15.1406 8.16956C14.7033 8.16956 14.3488 8.51255 14.3488 8.93565Z" fill="currentColor"></path>
</svg>