<svg viewBox="0 0 15.0229 3.00459" fill="none" xmlns="http://www.w3.org/2000/svg">
<g id="Vector">
<path d="M1.5023 0C2.33199 3.62671e-08 3.00459 0.6726 3.00459 1.5023C3.00459 2.33199 2.33199 3.00459 1.50229 3.00459C0.6726 3.00459 -3.62671e-08 2.33199 0 1.50229C3.62671e-08 0.6726 0.6726 -3.62671e-08 1.5023 0Z" fill="currentColor"/>
<path d="M7.60532 0C8.43502 3.62671e-08 9.10762 0.6726 9.10762 1.5023C9.10762 2.33199 8.43502 3.00459 7.60532 3.00459C6.77563 3.00459 6.10303 2.33199 6.10303 1.50229C6.10303 0.6726 6.77563 -3.62671e-08 7.60532 0Z" fill="currentColor"/>
<path d="M13.5206 0C14.3503 3.62671e-08 15.0229 0.6726 15.0229 1.5023C15.0229 2.33199 14.3503 3.00459 13.5206 3.00459C12.6909 3.00459 12.0183 2.33199 12.0183 1.50229C12.0183 0.6726 12.6909 -3.62671e-08 13.5206 0Z" fill="currentColor"/>
</g>
</svg>
