<svg width="24" height="24" viewBox="0 0 24 24" fill="none" xmlns="http://www.w3.org/2000/svg">
<path d="M11.5498 3.64976C11.9639 3.64976 12.2997 3.98565 12.2998 4.39976C12.2998 4.81397 11.964 5.14976 11.5498 5.14976H8.5C5.87673 5.14976 3.75013 7.27652 3.75 9.89976V15.9994C3.75 18.6227 5.87665 20.7494 8.5 20.7494H14.5996C17.223 20.7494 19.3496 18.6227 19.3496 15.9994V12.9496C19.3498 12.5357 19.6857 12.1998 20.0996 12.1996C20.5137 12.1996 20.8494 12.5356 20.8496 12.9496V15.9994C20.8496 19.4511 18.0514 22.2494 14.5996 22.2494H8.5C5.04822 22.2494 2.25 19.4511 2.25 15.9994V9.89976C2.25013 6.44809 5.0483 3.64976 8.5 3.64976H11.5498Z" fill="currentColor"></path>
<path fill-rule="evenodd" clip-rule="evenodd" d="M15.8682 3.18491C16.7838 2.27177 18.2691 2.27161 19.1855 3.18394L21.3125 5.3021C22.2208 6.20696 22.2298 7.671 21.333 8.58726L14.3076 15.7884C13.7056 16.4034 12.8797 16.7504 12.0176 16.7503H9.66895C8.5776 16.7501 7.7063 15.8438 7.75195 14.7572L7.85254 12.3695C7.88629 11.5716 8.2197 10.8153 8.78613 10.2503L15.8682 3.18491ZM9.69043 11.1517C9.35069 11.4906 9.1511 11.9445 9.13086 12.4232L9.03027 14.8099C9.01497 15.1721 9.30523 15.4747 9.66895 15.475H12.0176C12.5348 15.475 13.0304 15.2668 13.3916 14.8978L18.1133 10.0521L14.4502 6.40366L9.69043 11.1517ZM18.2812 4.08628C17.8647 3.67154 17.1897 3.67129 16.7734 4.08628L15.3545 5.5023L19.0068 9.13902L20.418 7.69761C20.8256 7.2811 20.8211 6.61474 20.4082 6.20347L18.2812 4.08628Z" fill="currentColor"></path>
</svg>