<svg viewBox="0 0 20 15" fill="none" xmlns="http://www.w3.org/2000/svg">
<g id="Vector">
<path d="M14.2822 3.56445C14.6059 3.30607 15.0775 3.35902 15.3359 3.68262C15.5942 4.00626 15.5413 4.47791 15.2178 4.73633L12.2441 7.11133L12.2432 7.1123C10.9914 8.10844 8.9988 8.10855 7.74707 7.1123L7.74512 7.11035L4.78125 4.73535C4.45809 4.4764 4.40623 4.00487 4.66504 3.68164C4.92405 3.35841 5.39551 3.30642 5.71875 3.56543L8.68066 5.93848C9.38573 6.49967 10.6045 6.49965 11.3096 5.93848L14.2822 3.56445Z" fill="currentColor"/>
<path fill-rule="evenodd" clip-rule="evenodd" d="M15.2568 0.00683594C17.8989 0.140529 20 2.32472 20 5V9C20 12.2102 17.4789 14.8316 14.3086 14.9922L14 15H6C2.78979 15 0.168429 12.4789 0.0078125 9.30859L0 9V5C0 2.32472 2.10111 0.140529 4.74316 0.00683594L5 0H15L15.2568 0.00683594ZM5 1.5C3.067 1.5 1.5 3.067 1.5 5V9C1.5 11.4853 3.51472 13.5 6 13.5H14C16.4853 13.5 18.5 11.4853 18.5 9V5C18.5 3.067 16.933 1.5 15 1.5H5Z" fill="currentColor"/>
</g>
</svg>
