<svg viewBox="0 0 20 15" fill="none" xmlns="http://www.w3.org/2000/svg">
<path id="Vector" fill-rule="evenodd" clip-rule="evenodd" d="M15 0C17.7614 0 20 2.23858 20 5V9C20 12.3137 17.3137 15 14 15H6C2.68629 15 4.83208e-08 12.3137 0 9V5C0 2.23858 2.23858 0 5 0H15ZM15.3359 3.68262C15.0775 3.35902 14.6059 3.30607 14.2822 3.56445L11.3096 5.93848C10.6045 6.49967 9.38575 6.49967 8.68066 5.93848L5.71875 3.56543C5.39551 3.30642 4.92405 3.35841 4.66504 3.68164C4.4062 4.00487 4.45808 4.47639 4.78125 4.73535L7.74512 7.11035L7.74707 7.1123C8.99881 8.10854 10.9914 8.10846 12.2432 7.1123L12.2441 7.11133L15.2178 4.73633C15.5413 4.47791 15.5941 4.00626 15.3359 3.68262Z" fill="currentColor"/>
</svg>
