<svg viewBox="0 0 20.0974 19.1756" fill="none" xmlns="http://www.w3.org/2000/svg">
<g id="Vector">
<path d="M10.0433 12.4754C10.5938 12.4758 11.0394 12.9336 11.0394 13.4725C11.0273 14.0227 10.5935 14.4565 10.0433 14.4569C9.50459 14.4569 9.0594 14.0229 9.05894 13.4725C9.05894 12.9334 9.50431 12.4754 10.0433 12.4754Z" fill="currentColor"/>
<path d="M10.0433 6.17269C10.5926 6.17295 10.9588 6.5472 10.9457 7.09457L10.8412 10.9149C10.8279 11.3685 10.5009 11.689 10.0433 11.6893C9.58557 11.6893 9.27145 11.3687 9.25816 10.9149L9.15367 7.09457C9.1406 6.54701 9.49384 6.17269 10.0433 6.17269Z" fill="currentColor"/>
<path fill-rule="evenodd" clip-rule="evenodd" d="M7.16148 0.777185C8.9465 -0.259113 11.1499 -0.259011 12.9349 0.777185C13.6793 1.20935 14.2924 1.92618 14.9349 2.89047C15.5806 3.85952 16.3145 5.17041 17.264 6.86605C18.1765 8.49556 18.8828 9.75575 19.3548 10.7762C19.8253 11.7932 20.1087 12.6635 20.097 13.5057C20.0688 15.5295 18.978 17.3898 17.2259 18.4032C16.4967 18.8249 15.5991 19.0032 14.4818 19.0897C13.3607 19.1764 11.9159 19.1756 10.0482 19.1756C8.18047 19.1756 6.73564 19.1764 5.6146 19.0897C4.49738 19.0032 3.5996 18.8249 2.87046 18.4032C1.1186 17.3897 0.02858 15.5294 0.000345223 13.5057C-0.0112943 12.6635 0.272105 11.7932 0.742533 10.7762C1.21459 9.75573 1.92082 8.49558 2.83335 6.86605C3.78292 5.17039 4.5158 3.85952 5.16148 2.89047C5.80407 1.92609 6.41711 1.2094 7.16148 0.777185ZM12.182 2.07406C10.8626 1.30823 9.23374 1.30812 7.91441 2.07406C7.47547 2.32895 7.0183 2.80885 6.40952 3.7225C5.80375 4.63169 5.10351 5.88139 4.14195 7.59847C3.21731 9.24961 2.54578 10.4507 2.10386 11.4061C1.66044 12.3647 1.4934 12.9858 1.50035 13.4852C1.52124 14.981 2.32654 16.3563 3.62144 17.1053C4.05378 17.3553 4.67774 17.5131 5.73081 17.5946C6.78024 17.6758 8.15594 17.6756 10.0482 17.6756C11.9407 17.6756 13.3171 17.6758 14.3666 17.5946C15.4193 17.5131 16.0427 17.3552 16.475 17.1053C17.7699 16.3563 18.5761 14.981 18.597 13.4852C18.604 12.9858 18.4369 12.3647 17.9935 11.4061C17.5516 10.4507 16.8801 9.24964 15.9554 7.59847C14.9938 5.88123 14.2927 4.63173 13.6869 3.7225C13.0781 2.80888 12.6209 2.32893 12.182 2.07406Z" fill="currentColor"/>
</g>
</svg>
