<svg viewBox="0 0 20.0974 19.1756" fill="none" xmlns="http://www.w3.org/2000/svg">
<path id="Vector" fill-rule="evenodd" clip-rule="evenodd" d="M7.16148 0.77718C8.9465 -0.259107 11.1499 -0.259013 12.9349 0.77718C13.6792 1.20935 14.2924 1.9262 14.9349 2.89046C15.5806 3.85951 16.3145 5.17043 17.264 6.86605C18.1765 8.49553 18.8828 9.75576 19.3548 10.7762C19.8252 11.7932 20.1087 12.6635 20.097 13.5057C20.0688 15.5295 18.9779 17.3898 17.2259 18.4032C16.4968 18.8249 15.5991 19.0032 14.4818 19.0897C13.3607 19.1764 11.9159 19.1756 10.0482 19.1756C8.1805 19.1756 6.73564 19.1764 5.6146 19.0897C4.49741 19.0032 3.59959 18.8248 2.87046 18.4032C1.11861 17.3897 0.0285921 15.5294 0.000345217 13.5057C-0.0112942 12.6635 0.272108 11.7932 0.742533 10.7762C1.21459 9.75573 1.92082 8.49557 2.83335 6.86605C3.78292 5.17039 4.5158 3.85952 5.16148 2.89046C5.80407 1.92609 6.41711 1.20939 7.16148 0.77718ZM10.0433 12.4754C9.50431 12.4754 9.05894 12.9334 9.05894 13.4725C9.05941 14.0229 9.5046 14.4569 10.0433 14.4569C10.5935 14.4565 11.0273 14.0227 11.0394 13.4725C11.0394 12.9336 10.5938 12.4758 10.0433 12.4754ZM10.0433 6.17269C9.49384 6.17269 9.1406 6.547 9.15367 7.09456L9.25816 10.9149C9.27146 11.3687 9.58558 11.6893 10.0433 11.6893C10.5009 11.689 10.8279 11.3685 10.8412 10.9149L10.9457 7.09456C10.9588 6.54719 10.5926 6.17295 10.0433 6.17269Z" fill="currentColor"/>
</svg>
