<svg viewBox="0 0 21.5 17.5" fill="none" xmlns="http://www.w3.org/2000/svg">
<path id="Vector" d="M10.75 0C14.4654 0 17.157 1.46645 18.915 3.29199C20.6433 5.08668 21.5 7.26504 21.5 8.75C21.5 10.235 20.6433 12.4133 18.915 14.208C17.157 16.0335 14.4654 17.5 10.75 17.5C7.03463 17.5 4.343 16.0335 2.58496 14.208C0.856746 12.4133 0 10.235 0 8.75C0 7.26504 0.856746 5.08668 2.58496 3.29199C4.343 1.46645 7.03463 0 10.75 0ZM10.75 1.5C7.46554 1.5 5.157 2.78366 3.66504 4.33301C2.14342 5.91327 1.5 7.73501 1.5 8.75C1.5 9.76499 2.14342 11.5867 3.66504 13.167C5.157 14.7163 7.46554 16 10.75 16C14.0345 16 16.343 14.7163 17.835 13.167C19.3566 11.5867 20 9.76499 20 8.75C20 7.73501 19.3566 5.91327 17.835 4.33301C16.343 2.78366 14.0345 1.5 10.75 1.5ZM10.75 5C12.821 5.00005 14.5 6.67896 14.5 8.75C14.5 10.821 12.821 12.5 10.75 12.5C8.67893 12.5 7 10.8211 7 8.75C7 6.67893 8.67893 5 10.75 5ZM10.75 6.5C9.50736 6.5 8.5 7.50736 8.5 8.75C8.5 9.99264 9.50736 11 10.75 11C11.9926 11 13 9.99261 13 8.75C13 7.50739 11.9926 6.50005 10.75 6.5Z" fill="currentColor"/>
</svg>
