<svg viewBox="0 0 21.5 19.4999" fill="none" xmlns="http://www.w3.org/2000/svg">
<g id="Vector">
<path fill-rule="evenodd" clip-rule="evenodd" d="M1.21973 0.21967C1.51262 -0.0732233 1.98738 -0.0732233 2.28027 0.21967L20.2803 18.2197C20.5732 18.5126 20.5732 18.9873 20.2803 19.2802C19.9874 19.5731 19.5126 19.5731 19.2197 19.2802L16.8223 16.8828C15.2269 17.8545 13.2109 18.4999 10.75 18.4999C7.03463 18.4999 4.343 17.0335 2.58496 15.208C0.856746 13.4133 0 11.2349 0 9.74994C2.61895e-08 8.05967 1.11403 5.42915 3.43848 3.49897L1.21973 1.28022C0.926833 0.987323 0.926833 0.512563 1.21973 0.21967ZM4.50488 4.56537C2.40169 6.25566 1.5 8.54382 1.5 9.74994C1.5 10.7649 2.14342 12.5867 3.66504 14.1669C5.157 15.7163 7.46554 16.9999 10.75 16.9999C12.7685 16.9999 14.4131 16.514 15.7256 15.7861L12.8174 12.8779C12.2247 13.2702 11.5139 13.4999 10.75 13.4999C8.67893 13.4999 7 11.821 7 9.74994C7 8.98588 7.22864 8.27432 7.62109 7.68158L4.50488 4.56537ZM8.7207 8.78119C8.58026 9.07477 8.5 9.40252 8.5 9.74994C8.5 10.9926 9.50736 11.9999 10.75 11.9999C11.0972 11.9999 11.4243 11.9186 11.7178 11.7783L8.7207 8.78119Z" fill="currentColor"/>
<path d="M10.75 0.999943C14.4654 0.999943 17.157 2.4664 18.915 4.29194C20.6433 6.08662 21.5 8.26499 21.5 9.74994C21.5 10.8399 21.0394 12.282 20.1465 13.6581C20.0295 13.8385 19.9044 14.0185 19.7715 14.1972C19.5243 14.5296 19.054 14.5987 18.7217 14.3515C18.3897 14.1042 18.3213 13.6349 18.5684 13.3027C18.6821 13.1497 18.7889 12.9956 18.8887 12.8417C19.6709 11.6361 20 10.4741 20 9.74994C20 8.73495 19.3566 6.91321 17.835 5.33295C16.343 3.7836 14.0345 2.49994 10.75 2.49994C9.71519 2.49994 8.78054 2.62705 7.94043 2.8476C7.78254 2.88905 7.62798 2.9345 7.47656 2.98237C7.08167 3.10721 6.66008 2.88796 6.53516 2.49311C6.41033 2.09829 6.62874 1.67672 7.02344 1.5517C7.19855 1.49634 7.37765 1.44517 7.55957 1.3974C8.52814 1.14312 9.5909 0.999943 10.75 0.999943Z" fill="currentColor"/>
</g>
</svg>
