<svg viewBox="0 0 24.5498 20.8782" fill="none" xmlns="http://www.w3.org/2000/svg">
<path id="Vector" d="M23.0498 7.10153C23.0498 5.33076 22.5358 4.02802 21.7852 3.13571C21.0324 2.2409 20.0033 1.71207 18.8906 1.55172C16.6581 1.23002 14.1089 2.39766 12.9648 5.08297C12.847 5.35952 12.575 5.53903 12.2744 5.53903C11.9739 5.5389 11.7027 5.35942 11.585 5.08297C10.4409 2.39769 7.89165 1.23015 5.65918 1.55172C4.54656 1.71205 3.5174 2.24099 2.76465 3.13571C2.01403 4.02802 1.5 5.33076 1.5 7.10153C1.50011 9.3558 2.60326 11.5541 4.19629 13.542C5.78288 15.5217 7.79555 17.2174 9.47266 18.4502C11.1571 19.6881 13.3927 19.6882 15.0771 18.4502C16.7543 17.2174 18.7669 15.5217 20.3535 13.542C21.9465 11.5542 23.0497 9.35573 23.0498 7.10153ZM24.5498 7.10153C24.5497 9.84136 23.2172 12.3669 21.5234 14.4804C19.8232 16.6019 17.697 18.3857 15.9658 19.6582C13.7528 21.2848 10.797 21.2848 8.58398 19.6582C6.85268 18.3856 4.72572 16.6021 3.02539 14.4804C1.33158 12.3669 0.000105838 9.84136 0 7.10153C0 5.03096 0.606342 3.3716 1.61621 2.17086C2.62416 0.972644 3.99699 0.276049 5.44531 0.0673458C7.93334 -0.291056 10.6598 0.785676 12.2744 3.21481C13.889 0.785372 16.6163 -0.291204 19.1045 0.0673458C20.5528 0.276055 21.9247 0.972654 22.9326 2.17086C23.9426 3.37163 24.5498 5.03078 24.5498 7.10153Z" fill="currentColor"/>
</svg>
