<svg viewBox="0 0 18 15.4286" fill="none" xmlns="http://www.w3.org/2000/svg">
<path id="Vector" d="M13.0179 1.76652e-05C12.3633 -0.00173108 11.715 0.126373 11.1103 0.376917C10.5056 0.627461 9.95656 0.99547 9.495 1.45965L9 1.95476L8.505 1.45965C7.80823 0.762737 6.92051 0.288139 5.95408 0.0958649C4.98766 -0.096409 3.98593 0.00227712 3.07557 0.379444C2.16522 0.756611 1.38712 1.39532 0.839674 2.2148C0.292228 3.03429 1.97206e-05 3.99774 0 4.98333C0 10.6097 8.34027 15.1646 8.69545 15.3518C8.78906 15.4022 8.8937 15.4286 9 15.4286C9.1063 15.4286 9.21094 15.4022 9.30455 15.3518C9.65973 15.1646 18 10.6097 18 4.98333C17.9985 3.66213 17.4731 2.39547 16.5391 1.46124C15.6051 0.527011 14.3387 0.00150682 13.0179 1.76652e-05ZM9 14.0497C7.53268 13.1945 1.28571 9.29872 1.28571 4.98333C1.28562 4.252 1.50235 3.53707 1.90852 2.92896C2.31468 2.32085 2.89202 1.84689 3.56751 1.56701C4.24301 1.28712 4.98631 1.2139 5.70342 1.35661C6.42052 1.49931 7.0792 1.85152 7.59616 2.3687L8.09116 2.86381L7.25946 3.69731C7.139 3.81789 7.07132 3.98138 7.07132 4.15184C7.07132 4.3223 7.139 4.48579 7.25946 4.60637L9.23062 6.57799L7.90232 7.9058C7.78169 8.02646 7.71393 8.1901 7.71393 8.36073C7.71393 8.53136 7.78169 8.695 7.90232 8.81566C8.02295 8.93631 8.18655 9.0041 8.35714 9.0041C8.52773 9.0041 8.69134 8.93631 8.81196 8.81566L10.5943 7.03211C10.7148 6.91154 10.7824 6.74805 10.7824 6.57759C10.7824 6.40712 10.7148 6.24364 10.5943 6.12306L8.62312 4.14983L10.4038 2.3687C10.9208 1.85152 11.5795 1.49931 12.2966 1.35661C13.0137 1.2139 13.757 1.28712 14.4325 1.56701C15.108 1.84689 15.6853 2.32085 16.0915 2.92896C16.4976 3.53707 16.7144 4.252 16.7143 4.98333C16.7143 9.29229 10.4657 13.1937 9 14.0497Z" fill="currentColor"/>
</svg>
