<svg viewBox="0 0 23.5723 19.1582" fill="none" xmlns="http://www.w3.org/2000/svg">
<g id="Vector">
<path fill-rule="evenodd" clip-rule="evenodd" d="M11.7852 5.51758C14.0277 5.51758 15.8463 7.33563 15.8467 9.57812C15.8467 11.8209 14.0279 13.6396 11.7852 13.6396C9.54272 13.6393 7.72461 11.8207 7.72461 9.57812C7.72494 7.33587 9.54292 5.51797 11.7852 5.51758ZM11.7852 7.01758C10.3713 7.01797 9.22494 8.1643 9.22461 9.57812C9.22461 10.9922 10.3711 12.1393 11.7852 12.1396C13.1995 12.1396 14.3467 10.9925 14.3467 9.57812C14.3463 8.16406 13.1993 7.01758 11.7852 7.01758Z" fill="currentColor"/>
<path fill-rule="evenodd" clip-rule="evenodd" d="M11.7861 0C15.8642 9.6357e-05 18.8158 1.6089 20.7422 3.60938C22.6386 5.57887 23.5723 7.96471 23.5723 9.5791C23.5721 11.1936 22.6387 13.5794 20.7422 15.5488C18.8158 17.5493 15.8642 19.1581 11.7861 19.1582C7.70839 19.1581 4.75748 17.5491 2.83105 15.5488C0.934569 13.5794 0.000135204 11.1936 0 9.5791C0 7.9646 0.934432 5.57895 2.83105 3.60938C4.75747 1.60898 7.70814 5.89471e-05 11.7861 0ZM11.7861 1.5C8.13907 1.50006 5.57147 2.9262 3.91113 4.65039C2.22112 6.40553 1.5 8.43457 1.5 9.5791C1.50015 10.7237 2.22128 12.7528 3.91113 14.5078C5.57148 16.2318 8.13932 17.6581 11.7861 17.6582C15.4331 17.6581 18.0008 16.232 19.6611 14.5078C21.3511 12.7528 22.0721 10.7237 22.0723 9.5791C22.0723 8.4346 21.3511 6.4055 19.6611 4.65039C18.0008 2.92622 15.4331 1.5001 11.7861 1.5Z" fill="currentColor"/>
</g>
</svg>
