<svg viewBox="0 0 20.3096 18.1005" fill="none" xmlns="http://www.w3.org/2000/svg">
<path id="Vector" d="M10.9609 0.00530191C11.2858 0.0297245 11.5984 0.137372 11.8691 0.315849L11.9834 0.396903L11.998 0.408622L19.5918 6.72893C19.8174 6.92897 19.9984 7.17471 20.1221 7.44964C20.2457 7.72459 20.3095 8.02315 20.3096 8.32464C20.3096 8.62615 20.2457 8.92465 20.1221 9.19964C19.9984 9.47463 19.8174 9.72026 19.5918 9.92034C19.5879 9.92379 19.5841 9.92775 19.5801 9.93108L11.998 16.2407C11.9933 16.2446 11.9883 16.2486 11.9834 16.2524C11.6882 16.4796 11.3324 16.616 10.9609 16.644C10.5896 16.6718 10.2183 16.59 9.89258 16.4096C9.56678 16.229 9.30022 15.9571 9.12695 15.6274C8.96128 15.312 8.88856 14.9567 8.91406 14.602V13.2045C8.91381 12.9058 8.69093 12.7618 8.50879 12.7944C7.49991 12.9753 6.34444 13.4109 5.53613 13.9653C4.39025 14.7513 3.49735 15.8533 2.96582 17.1371L2.96484 17.1362C2.82528 17.4826 2.56497 17.7666 2.23144 17.935C1.89618 18.1042 1.51072 18.1455 1.14746 18.0502C0.784178 17.9548 0.467673 17.7296 0.258787 17.4174C0.058048 17.1172 -0.0295153 16.756 0.00878714 16.3979V14.4487C0.00909362 9.07609 3.73043 4.5911 8.5664 4.1137C8.78149 4.09231 8.91406 3.9261 8.91406 3.7719V2.04925C8.88826 1.69462 8.96061 1.33936 9.12597 1.02386C9.299 0.693989 9.56496 0.421457 9.89062 0.240653C10.2166 0.0598556 10.5893 -0.0225536 10.9609 0.00530191Z" fill="currentColor"/>
</svg>
