<svg viewBox="0 0 25.7608 26.8067" fill="none" xmlns="http://www.w3.org/2000/svg">
<g id="Group 1">
<path id="Body" d="M1.29953 24.1326C1.2802 24.082 1.25164 23.9761 1.24843 23.9222C1.14013 22.1016 3.26991 21.4014 4.49561 20.5726C5.5893 19.833 6.63812 19.231 7.72574 18.5005C7.90356 18.381 8.5698 17.997 8.668 17.8759C8.55374 17.8013 8.08008 17.8497 7.89268 17.8028C7.36206 17.6699 6.89819 17.3554 6.61406 16.8851C6.42908 16.5772 6.34182 16.2204 6.36374 15.8619C6.43145 14.5629 7.52116 14.3257 7.61572 13.9499C7.52092 13.8955 7.15066 14.0006 6.74606 13.8726C6.25313 13.7124 5.84476 13.3617 5.61203 12.8986C5.39287 12.4668 5.38134 11.9974 5.53922 11.5438C5.81612 10.7481 6.42368 10.3319 7.13282 9.97405C5.65582 10.1428 4.30277 8.78598 5.1572 7.37763C5.63357 6.59249 7.2154 5.77545 8.01879 5.29368L10.6715 3.69311C11.3745 3.2777 12.0315 2.78258 12.751 2.41004C13.403 2.06634 14.0893 1.79206 14.7986 1.59187C22.4351 -0.485627 25.8887 7.13862 24.0172 14.0173C23.5196 15.8461 22.3672 17.4309 21.4707 19.0692L19.9619 21.8024C19.5036 22.6434 19.0387 23.9089 18.0882 24.2675C17.6447 24.4347 17.2738 24.3875 16.8435 24.209C16.114 23.9064 15.8146 23.0849 15.8838 22.3456C15.9872 21.3917 16.3909 20.4596 16.7015 19.5495C16.9716 18.7579 17.2091 17.9023 17.5609 17.1412C17.1525 17.3045 16.7243 17.5998 16.3428 17.8304L14.2548 19.1034L8.08687 22.8816L5.82436 24.2862C4.94367 24.8409 3.70757 25.8575 2.63468 25.4799C1.97681 25.2483 1.59673 24.7283 1.29953 24.1326Z" fill="url(#paint0_linear_5260_65)"/>
<path id="Stroke" d="M0.0613109 24.3324C0.0477193 24.2785 0.0152293 24.1451 0.00636046 23.9963L0.000719249 23.8556C-0.0283624 22.4182 0.832364 21.4774 1.6233 20.8817C2.02908 20.5761 2.46845 20.3198 2.84083 20.108C3.24035 19.8807 3.5438 19.7143 3.79869 19.5419C4.36665 19.1578 4.92034 18.8113 5.45356 18.4781C5.64333 18.3595 5.83003 18.242 6.01567 18.125C5.84093 17.9492 5.68313 17.7506 5.54888 17.5284L5.54751 17.5259C5.23486 17.0055 5.08666 16.403 5.12143 15.7972C5.14679 15.311 5.26612 14.9072 5.43164 14.5717C5.04457 14.2805 4.72474 13.9026 4.50239 13.4619C4.11331 12.6953 4.10788 11.8711 4.36403 11.1349C4.45335 10.8783 4.56527 10.6489 4.69271 10.4426C4.55772 10.3287 4.43252 10.2037 4.31889 10.0687C3.57861 9.18956 3.37378 7.91831 4.09336 6.73224C4.49442 6.07123 5.23754 5.53761 5.78506 5.18015C6.36133 4.80392 7.04556 4.42637 7.37875 4.22657L10.0287 2.62772L10.0387 2.62188C10.3602 2.43187 10.6656 2.22711 11.0272 1.99211C11.372 1.7681 11.7565 1.52471 12.1709 1.30957C12.8999 0.925239 13.6674 0.61824 14.4607 0.39435C14.4644 0.393305 14.4681 0.392344 14.4718 0.391332C16.5956 -0.18644 18.5196 -0.11116 20.1733 0.529441C21.8245 1.16912 23.1115 2.33588 24.0251 3.78134C25.8329 6.64149 26.2251 10.6416 25.2179 14.3438C24.9305 15.4001 24.4626 16.3552 23.9804 17.2205C23.7393 17.6531 23.4861 18.0779 23.2469 18.481C23.0042 18.8899 22.7745 19.2785 22.5622 19.6664C22.5615 19.6677 22.5607 19.6692 22.56 19.6706L21.0545 22.3979C20.9087 22.6655 20.5703 23.3882 20.264 23.8769C19.9261 24.4158 19.3889 25.1066 18.5274 25.4316C17.7111 25.7395 17.0035 25.6226 16.3667 25.3585C14.9503 24.7709 14.5461 23.2852 14.6449 22.2298C14.6454 22.2237 14.646 22.2175 14.6467 22.2115C14.7317 21.4281 14.9917 20.6358 15.2312 19.9656L14.9048 20.1645L8.74315 23.9387L6.48756 25.339L6.18471 25.5381C5.82698 25.7769 5.32461 26.1127 4.85752 26.346C4.21703 26.6658 3.2469 27.0144 2.22162 26.6535C1.10535 26.2607 0.533385 25.3841 0.18611 24.688L0.160511 24.6332C0.152364 24.6146 0.144592 24.5959 0.137357 24.577C0.104533 24.4911 0.0787145 24.4015 0.0613109 24.3324ZM1.29963 24.1324C1.59682 24.7282 1.97673 25.2485 2.63459 25.48C3.70744 25.8576 4.94362 24.841 5.82431 24.2863L8.08685 22.8817L14.2548 19.1033L16.3428 17.8305C16.7243 17.5999 17.1525 17.3046 17.5609 17.1413C17.2531 17.8072 17.0328 18.5454 16.8015 19.2499L16.7016 19.5496C16.4104 20.4028 16.0373 21.2753 15.9065 22.167L15.8839 22.3457C15.8147 23.085 16.1142 23.9063 16.8436 24.209L16.9236 24.2408C17.3205 24.3925 17.6725 24.4242 18.0883 24.2674C19.0387 23.9088 19.5036 22.6434 19.9618 21.8025L21.4708 19.069C22.3673 17.4308 23.5198 15.846 24.0173 14.0172C25.8888 7.13863 22.435 -0.485445 14.7985 1.59205C14.0893 1.79223 13.403 2.06632 12.7511 2.41C12.1215 2.73597 11.5397 3.1559 10.9332 3.53406L10.6716 3.6932L8.01869 5.29358C7.24041 5.7603 5.73159 6.54171 5.20495 7.30389L5.1573 7.37777C4.30294 8.78605 5.65571 10.1426 7.13264 9.97398C6.42354 10.3318 5.81607 10.7483 5.53919 11.5439C5.38136 11.9976 5.39288 12.4669 5.61201 12.8986C5.84474 13.3617 6.25312 13.7124 6.74604 13.8726C7.15064 14.0006 7.52104 13.8956 7.61584 13.95L7.60401 13.9846C7.45907 14.33 6.49454 14.5864 6.37301 15.7432L6.36385 15.862C6.34195 16.2205 6.42901 16.5773 6.61398 16.8852C6.89811 17.3555 7.36225 17.67 7.89286 17.8029C8.08038 17.8497 8.5539 17.8012 8.66812 17.8759C8.56992 17.9969 7.90338 18.381 7.72557 18.5004C6.77387 19.1396 5.85203 19.6806 4.9037 20.3014L4.49559 20.5725C3.26989 21.4014 1.14016 22.1017 1.24846 23.9223C1.25168 23.9761 1.2803 24.0818 1.29963 24.1324Z" fill="white"/>
</g>
<defs>
<linearGradient id="paint0_linear_5260_65" x1="1.24445" y1="1.24414" x2="29.474" y2="10.5923" gradientUnits="userSpaceOnUse">
<stop stop-color="#31F1F0" stop-opacity="0.7"/>
<stop offset="1" stop-color="#31F1F0" stop-opacity="0.3"/>
</linearGradient>
</defs>
</svg>
