<svg viewBox="0 0 11.6667 10.9172" fill="none" xmlns="http://www.w3.org/2000/svg">
<g id="Vector">
<path d="M8.45833 5.83463C7.01458 4.2503 5.25 5.4193 5.25 7.06663C5.25 8.55997 6.30817 9.42038 7.20883 10.1536L7.48358 10.3788C7.81667 10.6559 8.1375 10.9172 8.45833 10.9172C8.77917 10.9172 9.1 10.6559 9.43308 10.3788C10.3769 9.59305 11.6667 8.71455 11.6667 7.06663C11.6667 6.52588 11.4765 6.03588 11.1691 5.6783C10.542 4.94855 9.42783 4.77063 8.45833 5.83463Z" fill="currentColor"/>
<path d="M3.56183 8.72797C1.92383 7.46563 0 5.98338 0 3.4138C0 0.577048 3.20833 -1.43487 5.83333 1.2928C8.45833 -1.43487 11.6667 0.577048 11.6667 3.4138C11.6667 3.9003 11.5978 4.34713 11.4748 4.7613C11.0431 4.40877 10.5043 4.21391 9.947 4.20888C9.42783 4.20597 8.9215 4.36872 8.45775 4.68138C7.64692 4.13713 6.73342 4.06422 5.93192 4.45097C4.97817 4.9118 4.375 5.94197 4.375 7.06663C4.375 8.4118 5.04525 9.35505 5.74117 10.0387C5.18817 9.99438 4.63458 9.56738 4.06117 9.1153C3.899 8.98774 3.73256 8.85863 3.56183 8.72797Z" fill="currentColor"/>
</g>
</svg>
