<svg viewBox="0 0 24 24" fill="none" xmlns="http://www.w3.org/2000/svg">
<g id="Dollar">
<g id="Ellipse ">
<circle cx="12" cy="12" r="12" fill="white" fill-opacity="0.2"/>
<circle cx="12" cy="12" r="11.5" stroke="url(#paint0_linear_18742_2144)" stroke-opacity="0.4"/>
</g>
<path id="$" d="M11.9007 18.0845C10.9737 18.0845 10.0854 17.9612 9.23565 17.7147C8.38594 17.457 7.70175 17.1264 7.18309 16.723L8.0935 14.6725C8.59009 15.031 9.17496 15.328 9.84811 15.5633C10.5323 15.7874 11.222 15.8994 11.9172 15.8994C12.4469 15.8994 12.8718 15.849 13.1918 15.7482C13.5229 15.6361 13.7657 15.4849 13.9201 15.2944C14.0746 15.1039 14.1519 14.8854 14.1519 14.6388C14.1519 14.3251 14.0305 14.0786 13.7877 13.8993C13.5449 13.7088 13.2249 13.5575 12.8276 13.4455C12.4304 13.3222 11.989 13.2102 11.5034 13.1093C11.0289 12.9973 10.5489 12.8628 10.0633 12.7059C9.58878 12.5491 9.15289 12.3474 8.75562 12.1008C8.35835 11.8543 8.03281 11.5294 7.77899 11.126C7.53622 10.7226 7.41483 10.2072 7.41483 9.57965C7.41483 8.90734 7.59139 8.29665 7.94452 7.74759C8.30869 7.18732 8.84942 6.74471 9.56671 6.41976C10.295 6.0836 11.2055 5.91552 12.298 5.91552C13.0263 5.91552 13.7436 6.00516 14.4498 6.18445C15.1561 6.35253 15.7796 6.61025 16.3203 6.95761L15.4927 9.02499C14.9519 8.71124 14.4112 8.48153 13.8705 8.33587C13.3298 8.17899 12.8001 8.10055 12.2814 8.10055C11.7627 8.10055 11.3379 8.16218 11.0068 8.28544C10.6758 8.4087 10.4385 8.57118 10.295 8.77287C10.1516 8.96336 10.0799 9.18747 10.0799 9.44519C10.0799 9.74773 10.2012 9.99425 10.444 10.1847C10.6868 10.364 11.0068 10.5097 11.4041 10.6217C11.8014 10.7338 12.2373 10.8459 12.7118 10.9579C13.1973 11.07 13.6774 11.1988 14.1519 11.3445C14.6374 11.4902 15.0789 11.6863 15.4761 11.9328C15.8734 12.1793 16.1934 12.5042 16.4362 12.9076C16.69 13.311 16.8169 13.8209 16.8169 14.4372C16.8169 15.0983 16.6348 15.7034 16.2707 16.2524C15.9065 16.8015 15.3603 17.2441 14.6319 17.5802C13.9146 17.9164 13.0042 18.0845 11.9007 18.0845ZM11.2717 19.8997V4.10026H12.927V19.8997H11.2717Z" fill="white"/>
</g>
<defs>
<linearGradient id="paint0_linear_18742_2144" x1="24" y1="24" x2="-4.83638" y2="9.87017" gradientUnits="userSpaceOnUse">
<stop stop-color="white" stop-opacity="0.7"/>
<stop offset="0.5" stop-color="white" stop-opacity="0.1"/>
<stop offset="1" stop-color="white" stop-opacity="0.9"/>
</linearGradient>
</defs>
</svg>
