<svg viewBox="0 0 24.5566 22.3604" fill="none" xmlns="http://www.w3.org/2000/svg">
<g id="Vector">
<path fill-rule="evenodd" clip-rule="evenodd" d="M17.2188 7.68555C21.2707 7.68577 24.5564 10.9705 24.5566 15.0225C24.5566 16.1208 24.314 17.1652 23.8799 18.1025C23.5468 18.8216 23.412 19.1242 23.5361 19.5566C23.568 19.6674 23.6204 19.767 23.7227 19.9932C23.8067 20.1791 23.9283 20.4638 23.9551 20.79C24.0299 21.7041 23.225 22.4451 22.3203 22.2949C21.7522 22.2003 21.2677 21.9036 21.0352 21.793C20.7845 21.6739 20.6109 21.6273 20.3379 21.6914C20.3341 21.6924 20.3169 21.6972 20.2803 21.709C20.238 21.7225 20.1804 21.7416 20.1055 21.7676C19.955 21.8198 19.7474 21.8947 19.4639 21.9961C18.7752 22.2425 18.0438 22.3603 17.2188 22.3604C13.1666 22.3601 9.88184 19.0746 9.88184 15.0225C9.88211 10.9705 13.1668 7.68577 17.2188 7.68555ZM17.2188 9.18555C13.9952 9.18577 11.3821 11.799 11.3818 15.0225C11.3818 18.2462 13.9951 20.8601 17.2188 20.8604C17.8943 20.8603 18.4517 20.7641 18.958 20.583C19.4868 20.3938 19.8327 20.2687 19.9951 20.2305C20.7214 20.0599 21.2568 20.2379 21.6787 20.4385C22.042 20.6112 22.2112 20.7204 22.4238 20.7812C22.4079 20.7376 22.3873 20.6818 22.3555 20.6113C22.2949 20.4775 22.1661 20.2199 22.0947 19.9717C21.7901 18.9115 22.2367 18.0811 22.5186 17.4727C22.8632 16.7287 23.0566 15.8986 23.0566 15.0225C23.0564 11.799 20.4423 9.18577 17.2188 9.18555Z" fill="currentColor"/>
<path d="M10.082 0C13.6907 0 16.8564 1.89711 18.6367 4.74414C18.856 5.09522 18.7493 5.55773 18.3984 5.77734C18.0472 5.99683 17.5838 5.89023 17.3643 5.53906C15.8465 3.11216 13.1521 1.5 10.082 1.5C5.34264 1.50024 1.50022 5.34264 1.5 10.082C1.5 11.3695 1.78329 12.5894 2.29004 13.6836C2.70003 14.5686 3.2688 15.6347 2.875 17.0059C2.78216 17.3289 2.61498 17.6611 2.52051 17.8701C2.4081 18.1188 2.35607 18.2751 2.3457 18.4004C2.33625 18.519 2.44117 18.615 2.55859 18.5957C3.03101 18.5169 3.31819 18.3119 3.89844 18.0361C4.46059 17.769 5.14344 17.545 6.07812 17.7646C6.28568 17.8135 6.74877 17.9806 7.5127 18.2539C7.84302 18.3721 8.18564 18.465 8.54688 18.5322C8.95399 18.6079 9.22295 18.9991 9.14746 19.4062C9.07176 19.8134 8.68054 20.0823 8.27344 20.0068C7.83441 19.9252 7.41421 19.8114 7.00781 19.666C6.17217 19.3671 5.83383 19.248 5.73438 19.2246C5.25324 19.1116 4.93269 19.205 4.54199 19.3906C4.16941 19.5678 3.55251 19.9506 2.80469 20.0752C1.72334 20.2551 0.760986 19.3699 0.850586 18.2773C0.883854 17.8732 1.03637 17.5128 1.1543 17.252C1.29039 16.9509 1.38028 16.7773 1.43359 16.5918C1.6471 15.8483 1.39088 15.31 0.929688 14.3145C0.33328 13.0268 0 11.5919 0 10.082C0.000222246 4.51421 4.51422 0.000239516 10.082 0Z" fill="currentColor"/>
</g>
</svg>
