<svg viewBox="0 0 13.3333 13.3333" fill="none" xmlns="http://www.w3.org/2000/svg">
<g id="Vector">
<path d="M2.42865 0.650874C2.8454 0.234126 3.41063 6.8646e-08 4 6.8646e-08C4.53678 -0.000112678 5.06446 0.13866 5.53174 0.402828C5.99901 0.666996 6.38999 1.04757 6.66667 1.50756C7.21067 0.604445 8.20178 6.8646e-08 9.33333 6.8646e-08C9.9227 6.8646e-08 10.4879 0.234126 10.9047 0.650874C11.3214 1.06762 11.5556 1.63285 11.5556 2.22222V2.47644C11.5556 2.87467 11.4373 3.24533 11.2338 3.55556H12C12.3536 3.55556 12.6928 3.69603 12.9428 3.94608C13.1929 4.19613 13.3333 4.53527 13.3333 4.88889V5.77778C13.3333 6.1314 13.1929 6.47054 12.9428 6.72059C12.6928 6.97064 12.3536 7.11111 12 7.11111H7.11111V3.55556H9.58756C10.1831 3.55556 10.6667 3.072 10.6667 2.47644V2.22222C10.6667 1.8686 10.5262 1.52946 10.2761 1.27941C10.0261 1.02936 9.68696 0.888889 9.33333 0.888889C8.74396 0.888889 8.17873 1.12302 7.76198 1.53976C7.34524 1.95651 7.11111 2.52174 7.11111 3.11111V3.55556H6.22222V3.11111C6.22222 2.81928 6.16474 2.53032 6.05307 2.2607C5.94139 1.99109 5.7777 1.74612 5.57135 1.53976C5.365 1.33341 5.12002 1.16972 4.85041 1.05805C4.5808 0.946369 4.29183 0.888889 4 0.888889C3.64638 0.888889 3.30724 1.02936 3.05719 1.27941C2.80714 1.52946 2.66667 1.8686 2.66667 2.22222V2.47644C2.66667 3.072 3.15022 3.55556 3.74578 3.55556H6.22222V7.11111H1.33333C0.979711 7.11111 0.640573 6.97064 0.390524 6.72059C0.140476 6.47054 0 6.1314 0 5.77778V4.88889C0 4.53527 0.140476 4.19613 0.390524 3.94608C0.640573 3.69603 0.979711 3.55556 1.33333 3.55556H2.09956C1.896 3.24533 1.77778 2.87467 1.77778 2.47644V2.22222C1.77778 1.63285 2.0119 1.06762 2.42865 0.650874Z" fill="currentColor"/>
<path d="M0.888889 8H6.22222V13.3333H3.11111C2.52174 13.3333 1.95651 13.0992 1.53976 12.6825C1.12302 12.2657 0.888889 11.7005 0.888889 11.1111V8Z" fill="currentColor"/>
<path d="M10.2222 13.3333H7.11111V8H12.4444V11.1111C12.4444 11.7005 12.2103 12.2657 11.7936 12.6825C11.3768 13.0992 10.8116 13.3333 10.2222 13.3333Z" fill="currentColor"/>
</g>
</svg>
