<svg viewBox="0 0 16.8461 17.677" fill="none" xmlns="http://www.w3.org/2000/svg">
<g id="Vector">
<path d="M1.5942 0.0117369C1.42143 -0.0212027 1.24265 0.015838 1.0972 0.11471C0.951743 0.213582 0.851522 0.366186 0.818582 0.538952L0.00968378 4.78157C-0.0463438 5.07543 0.146458 5.35907 0.440319 5.4151L4.68293 6.22399C4.8557 6.25693 5.03447 6.21989 5.17993 6.12102C5.32538 6.02215 5.42561 5.86955 5.45855 5.69678C5.49149 5.52401 5.45444 5.34524 5.35557 5.19978C5.2567 5.05433 5.1041 4.95411 4.93133 4.92117L2.24727 4.40942C3.15775 3.23074 4.40351 2.35249 5.82305 1.89167C7.3057 1.41037 8.90238 1.40896 10.3859 1.88764C11.8694 2.36632 13.1641 3.3007 14.0858 4.55782C15.0075 5.81494 15.5093 7.33074 15.5196 8.88952C15.53 10.4483 15.0484 11.9706 14.1435 13.2399C13.2386 14.5091 11.9564 15.4606 10.4794 15.959C9.00235 16.4573 7.40579 16.4771 5.91688 16.0156C4.42799 15.554 3.12261 14.6346 2.18648 13.3882C2.13421 13.3185 2.06872 13.2597 1.99373 13.2152C1.91873 13.1708 1.8357 13.1415 1.74938 13.1291C1.66307 13.1167 1.57516 13.1215 1.49067 13.1431C1.40618 13.1646 1.32678 13.2027 1.25699 13.2549C1.1872 13.3072 1.12839 13.3727 1.08391 13.4477C1.03944 13.5227 1.01018 13.6058 0.997795 13.6921C0.985412 13.7784 0.99015 13.8663 1.01174 13.9508C1.03333 14.0353 1.07142 14.1148 1.12369 14.1846C1.97557 15.3198 3.09124 16.2304 4.37417 16.8375C5.6571 17.4447 7.06865 17.73 8.48667 17.6689C9.90469 17.6079 11.2865 17.2022 12.5124 16.487C13.7384 15.7718 14.7716 14.7686 15.5227 13.5643C16.2738 12.36 16.7202 10.9908 16.8231 9.5752C16.926 8.15961 16.6825 6.74025 16.1135 5.43994C15.5446 4.13964 14.6673 2.99756 13.5577 2.11252C12.4481 1.22749 11.1392 0.626087 9.74489 0.360499C8.21191 0.0737809 6.63024 0.200376 5.16239 0.727278C3.83905 1.2023 2.65124 1.98725 1.69693 3.01374L2.12141 0.78735C2.15435 0.614584 2.11731 0.435809 2.01844 0.290354C1.91957 0.144898 1.76696 0.0446765 1.5942 0.0117369Z" fill="currentColor"/>
<path d="M8.10955 4.41972C7.93367 4.41972 7.76499 4.48958 7.64063 4.61395C7.51627 4.73831 7.4464 4.90699 7.4464 5.08287V9.84179L10.6763 12.0316L10.6795 12.0336C10.8263 12.1269 11.0039 12.1587 11.174 12.1223C11.3442 12.0858 11.4931 11.9839 11.5888 11.8386C11.6845 11.6933 11.7193 11.5163 11.6856 11.3456C11.652 11.1749 11.5523 11.024 11.4086 10.9259L8.7727 9.13881V5.08287C8.7727 4.90699 8.70283 4.73831 8.57846 4.61395C8.4541 4.48958 8.28543 4.41972 8.10955 4.41972Z" fill="currentColor"/>
</g>
</svg>
