<svg viewBox="0 0 16.1549 3.70269" fill="none" xmlns="http://www.w3.org/2000/svg">
<path id="Vector" d="M1.85547 3.70269C1.51461 3.70269 1.20399 3.62023 0.923611 3.4553C0.643229 3.28487 0.417824 3.05946 0.247396 2.77908C0.0824653 2.4987 0 2.19083 0 1.85547C0 1.51461 0.0824653 1.20399 0.247396 0.923611C0.417824 0.643229 0.643229 0.420573 0.923611 0.255642C1.20399 0.0852141 1.51461 0 1.85547 0C2.19083 0 2.4987 0.0852141 2.77908 0.255642C3.05946 0.420573 3.28212 0.643229 3.44705 0.923611C3.61748 1.20399 3.70269 1.51461 3.70269 1.85547C3.70269 2.19083 3.61748 2.4987 3.44705 2.77908C3.28212 3.05946 3.05946 3.28487 2.77908 3.4553C2.4987 3.62023 2.19083 3.70269 1.85547 3.70269ZM8.0816 3.70269C7.74074 3.70269 7.43012 3.62023 7.14974 3.4553C6.86936 3.28487 6.64395 3.05946 6.47352 2.77908C6.30859 2.4987 6.22613 2.19083 6.22613 1.85547C6.22613 1.51461 6.30859 1.20399 6.47352 0.923611C6.64395 0.643229 6.86936 0.420573 7.14974 0.255642C7.43012 0.0852141 7.74074 0 8.0816 0C8.41696 0 8.72483 0.0852141 9.00521 0.255642C9.28559 0.420573 9.50825 0.643229 9.67318 0.923611C9.84361 1.20399 9.92882 1.51461 9.92882 1.85547C9.92882 2.19083 9.84361 2.4987 9.67318 2.77908C9.50825 3.05946 9.28559 3.28487 9.00521 3.4553C8.72483 3.62023 8.41696 3.70269 8.0816 3.70269ZM14.3077 3.70269C13.9669 3.70269 13.6563 3.62023 13.3759 3.4553C13.0955 3.28487 12.8701 3.05946 12.6997 2.77908C12.5347 2.4987 12.4523 2.19083 12.4523 1.85547C12.4523 1.51461 12.5347 1.20399 12.6997 0.923611C12.8701 0.643229 13.0955 0.420573 13.3759 0.255642C13.6563 0.0852141 13.9669 0 14.3077 0C14.6486 0 14.9565 0.0852141 15.2313 0.255642C15.5117 0.420573 15.7344 0.643229 15.8993 0.923611C16.0697 1.20399 16.1549 1.51461 16.1549 1.85547C16.1549 2.19083 16.0697 2.4987 15.8993 2.77908C15.7344 3.05946 15.5117 3.28487 15.2313 3.4553C14.9565 3.62023 14.6486 3.70269 14.3077 3.70269Z" fill="currentColor"/>
</svg>
