<svg viewBox="0 0 20.8086 18.6" fill="none" xmlns="http://www.w3.org/2000/svg">
<path id="Vector" d="M8.91308 2.30876C8.88561 1.91042 8.96757 1.51178 9.15331 1.15739C9.34903 0.78418 9.65008 0.476153 10.0185 0.271652C10.3872 0.0671536 10.8081 -0.0254957 11.2285 0.00602744C11.5962 0.0336395 11.9495 0.155504 12.2559 0.35759L12.3848 0.44841L12.4072 0.466965L19.9883 6.77654L20.0068 6.79216C20.2587 7.01561 20.4605 7.28979 20.5986 7.59685C20.7368 7.90412 20.8086 8.23747 20.8086 8.57439C20.8086 8.91134 20.7368 9.24462 20.5986 9.55193C20.4604 9.85919 20.2589 10.134 20.0068 10.3576C20.001 10.3628 19.9943 10.3672 19.9883 10.3722L12.4072 16.6828C12.3999 16.6888 12.3923 16.6946 12.3848 16.7004C12.0509 16.9574 11.6486 17.1112 11.2285 17.1427C10.8085 17.1743 10.388 17.0822 10.0195 16.8781C9.65113 16.6739 9.35021 16.3662 9.15429 15.9933C8.96803 15.6388 8.88575 15.2397 8.91308 14.841V13.4543C8.91301 13.3817 8.88391 13.3317 8.85839 13.3078C8.84671 13.2969 8.83725 13.2929 8.83202 13.2912C8.82825 13.29 8.81937 13.287 8.80175 13.2902C7.82119 13.4661 6.69983 13.8901 5.92577 14.4211C4.81995 15.1797 3.95824 16.2435 3.4453 17.4826L3.44433 17.4816C3.28188 17.8831 2.98056 18.213 2.59374 18.4084C2.20395 18.6052 1.75534 18.652 1.333 18.5412C0.910568 18.4302 0.542638 18.1689 0.299796 17.8058C0.0709964 17.4637 -0.030175 17.054 0.00780379 16.6457V14.6984C0.00800081 9.2173 3.8079 4.6073 8.79101 4.1154C8.83305 4.11115 8.86846 4.09134 8.89062 4.06853C8.91061 4.04791 8.91308 4.03207 8.91308 4.02165V2.30876ZM10.4131 4.02165C10.4131 4.89481 9.7138 5.53096 8.93749 5.60759C4.83678 6.01262 1.508 9.86799 1.5078 14.6984V16.6711C1.5078 16.7048 1.5055 16.7392 1.50097 16.7726C1.49157 16.8425 1.50768 16.9133 1.54687 16.9718C1.5861 17.0305 1.64562 17.0731 1.71386 17.091C1.78187 17.1088 1.85417 17.1011 1.91698 17.0695C1.97996 17.0377 2.02955 16.9837 2.05566 16.9181L2.05956 16.9084C2.68371 15.4008 3.73257 14.1067 5.07812 13.1838C6.05755 12.512 7.38641 12.021 8.5371 11.8146C9.62263 11.6199 10.4129 12.5223 10.4131 13.4543V14.8517C10.4131 14.876 10.4125 14.9008 10.4101 14.925C10.3977 15.053 10.4226 15.1822 10.4824 15.2961C10.5423 15.4099 10.6346 15.5032 10.7471 15.5656C10.8596 15.628 10.9879 15.6563 11.1162 15.6467C11.242 15.6372 11.3621 15.5915 11.4629 15.5158L19.0117 9.23357C19.1046 9.15093 19.1794 9.0501 19.2305 8.93669C19.2817 8.82284 19.3086 8.69922 19.3086 8.57439C19.3086 8.44959 19.2817 8.3259 19.2305 8.21208C19.1804 8.10102 19.1079 8.00176 19.0176 7.92009L11.4629 1.632C11.3622 1.55649 11.2418 1.51156 11.1162 1.50212C10.9877 1.49249 10.8587 1.52068 10.7461 1.58318C10.6337 1.64564 10.5422 1.73979 10.4824 1.85368C10.4226 1.96769 10.3976 2.09667 10.4101 2.22478C10.4126 2.24925 10.4131 2.2744 10.4131 2.299V4.02165Z" fill="currentColor"/>
</svg>
