<svg viewBox="0 0 18.1274 11.8758" fill="none" xmlns="http://www.w3.org/2000/svg">
<path id="Vector" d="M18.1274 0.9375V5.9375C18.1274 6.18614 18.0286 6.4246 17.8528 6.60041C17.677 6.77623 17.4385 6.875 17.1899 6.875C16.9413 6.875 16.7028 6.77623 16.527 6.60041C16.3512 6.4246 16.2524 6.18614 16.2524 5.9375V3.20312L10.3532 9.10313C10.2661 9.19053 10.1626 9.25987 10.0486 9.30719C9.93469 9.35451 9.81251 9.37886 9.68913 9.37886C9.56574 9.37886 9.44356 9.35451 9.32961 9.30719C9.21565 9.25987 9.11216 9.19053 9.02506 9.10313L6.56491 6.64062L1.60319 11.6008C1.42707 11.7769 1.1882 11.8758 0.939126 11.8758C0.690054 11.8758 0.451184 11.7769 0.275064 11.6008C0.0989434 11.4247 3.71146e-09 11.1858 0 10.9367C-3.71146e-09 10.6876 0.0989433 10.4488 0.275064 10.2727L5.90006 4.64766C5.98716 4.56026 6.09065 4.49091 6.20461 4.44359C6.31856 4.39627 6.44074 4.37192 6.56413 4.37192C6.68751 4.37192 6.80969 4.39627 6.92364 4.44359C7.0376 4.49091 7.14109 4.56026 7.22819 4.64766L9.68991 7.10937L14.9243 1.875H12.1899C11.9413 1.875 11.7028 1.77623 11.527 1.60041C11.3512 1.4246 11.2524 1.18614 11.2524 0.9375C11.2524 0.68886 11.3512 0.450403 11.527 0.274587C11.7028 0.0987719 11.9413 5.23971e-09 12.1899 0H17.1899C17.4385 0 17.677 0.0987719 17.8528 0.274587C18.0286 0.450403 18.1274 0.68886 18.1274 0.9375Z" fill="#FD4B03"/>
</svg>
