<svg viewBox="0 0 24.55 20.8025" fill="none" xmlns="http://www.w3.org/2000/svg">
<path id="Vector" d="M12.2745 3.50628C13.8332 0.870668 16.6547 -0.301911 19.2097 0.0660736C20.6308 0.270905 21.9736 0.953435 22.959 2.12462C23.9459 3.29781 24.5499 4.9317 24.55 6.99434C24.5499 9.70837 23.2292 12.2312 21.5175 14.3672C19.8013 16.5088 17.6492 18.3145 15.8912 19.6068C13.7221 21.2011 10.828 21.2011 8.65884 19.6068C6.90077 18.3145 4.74886 16.5089 3.03249 14.3672C1.32064 12.2311 0.000108139 9.7085 0 6.99434C8.67025e-05 4.9317 0.60312 3.29781 1.59001 2.12462C2.57545 0.9534 3.91813 0.270886 5.33925 0.0660736C7.89438 -0.301968 10.7158 0.870629 12.2745 3.50628Z" fill="currentColor"/>
</svg>
