<svg viewBox="0 0 7.19784 10" fill="none" xmlns="http://www.w3.org/2000/svg">
<path id="Vector" fill-rule="evenodd" clip-rule="evenodd" d="M5.75333 6.80983C6.11446 6.88722 7.19784 5.82963 7.19784 4.41092C7.19784 2.9922 5.72753 1.9862 4.74733 1.39292C4.05087 0.954409 4.05087 0.515896 4.05087 0.515896C4.05087 0.232153 3.81872 0 3.53497 0C3.25123 0 3.01908 0.232153 3.01908 0.515896V6.9904C2.63215 6.86142 2.16785 6.83563 1.70354 6.93881C0.594364 7.17096 -0.153685 8.04799 0.0268784 8.87342C0.207442 9.69885 1.26503 10.189 2.34841 9.93101C3.27703 9.72465 3.97349 9.07978 4.05087 8.38332C4.05087 8.38332 4.05087 8.30593 4.05087 8.22855V3.17276C4.72153 3.27594 5.80492 4.02399 5.98548 4.72045C6.21763 5.82963 5.08266 6.65506 5.75333 6.80983Z" fill="currentColor"/>
</svg>
