<svg viewBox="0 0 23.2724 24.3178" fill="none" xmlns="http://www.w3.org/2000/svg">
<path id="Body" d="M0.0550783 22.8884C0.035745 22.8379 0.00718791 22.732 0.00397643 22.6781C-0.104328 20.8575 2.02546 20.1573 3.25116 19.3284C4.34485 18.5888 5.39366 17.9868 6.48129 17.2563C6.65911 17.1369 7.32534 16.7529 7.42355 16.6318C7.30929 16.5572 6.83562 16.6055 6.64823 16.5586C6.11761 16.4257 5.65374 16.1113 5.36961 15.6409C5.18463 15.333 5.09737 14.9763 5.11928 14.6177C5.187 13.3188 6.27671 13.0815 6.37127 12.7057C6.27647 12.6514 5.9062 12.7564 5.5016 12.6285C5.00867 12.4683 4.6003 12.1176 4.36757 11.6544C4.14842 11.2226 4.13689 10.7533 4.29477 10.2996C4.57167 9.50396 5.17923 9.08775 5.88837 8.72991C4.41136 8.89869 3.05831 7.54184 3.91275 6.13349C4.38912 5.34835 5.97095 4.53131 6.77433 4.04953L9.42705 2.44897C10.1301 2.03356 10.787 1.53844 11.5066 1.1659C12.1585 0.822196 12.8448 0.547923 13.5541 0.347731C21.1906 -1.72977 24.6442 5.89448 22.7728 12.7731C22.2752 14.602 21.1228 16.1867 20.2263 17.825L18.7174 20.5583C18.2592 21.3993 17.7942 22.6647 16.8437 23.0233C16.4003 23.1906 16.0293 23.1434 15.5991 22.9649C14.8696 22.6623 14.5701 21.8408 14.6393 21.1015C14.7428 20.1476 15.1464 19.2154 15.457 18.3053C15.7272 17.5138 15.9647 16.6582 16.3165 15.8971C15.9081 16.0604 15.4799 16.3556 15.0984 16.5862L13.0104 17.8592L6.84242 21.6375L4.57991 23.042C3.69922 23.5967 2.46311 24.6133 1.39023 24.2357C0.732355 24.0042 0.352278 23.4842 0.0550783 22.8884Z" fill="url(#paint0_linear_5260_69)"/>
<defs>
<linearGradient id="paint0_linear_5260_69" x1="11.6362" y1="1.63104e-08" x2="11.6362" y2="24.3178" gradientUnits="userSpaceOnUse">
<stop offset="0.1" stop-color="white" stop-opacity="0.1"/>
<stop offset="1" stop-color="white" stop-opacity="0.3"/>
</linearGradient>
</defs>
</svg>
