<svg viewBox="0 0 8 8" fill="none" xmlns="http://www.w3.org/2000/svg">
<g id="Icon" clip-path="url(#clip0_18742_2051)">
<path id="Vector" fill-rule="evenodd" clip-rule="evenodd" d="M4 0.363636C4.50208 0.363636 4.90909 0.77065 4.90909 1.27273V3.09091H6.72727C7.22935 3.09091 7.63636 3.49792 7.63636 4C7.63636 4.50208 7.22935 4.90909 6.72727 4.90909H4.90909V6.72727C4.90909 7.22935 4.50208 7.63636 4 7.63636C3.49792 7.63636 3.09091 7.22935 3.09091 6.72727V4.90909H1.27273C0.77065 4.90909 0.363636 4.50208 0.363636 4C0.363636 3.49792 0.77065 3.09091 1.27273 3.09091H3.09091L3.09091 1.27273C3.09091 0.77065 3.49792 0.363636 4 0.363636Z" fill="var(--fill-0, black)"/>
</g>
<defs>
<clipPath id="clip0_18742_2051">
<rect width="8" height="8" fill="white"/>
</clipPath>
</defs>
</svg>
