<svg viewBox="0 0 24.56 22.2458" fill="none" xmlns="http://www.w3.org/2000/svg">
<g id="Vector">
<path d="M17.2021 7.52798C21.2658 7.52801 24.5598 10.8229 24.56 14.8869C24.56 15.9886 24.3167 17.0363 23.8812 17.9765C23.5479 18.6963 23.4239 18.9809 23.5418 19.392C23.5723 19.498 23.6219 19.5922 23.725 19.8204C23.8089 20.006 23.9334 20.2957 23.9609 20.6295C24.0382 21.5714 23.2089 22.3349 22.2764 22.1795C21.7013 22.0836 21.2079 21.7836 20.983 21.6767C20.7388 21.5606 20.5785 21.5178 20.3208 21.5784C20.3166 21.5795 20.2998 21.5841 20.2659 21.5949C20.2244 21.6083 20.1683 21.6271 20.0942 21.6529C19.9445 21.7048 19.7375 21.7793 19.4547 21.8805C18.7627 22.1281 18.0289 22.2458 17.2021 22.2458C13.1385 22.2456 9.84428 18.951 9.84428 14.8869C9.84443 10.8229 13.1386 7.52811 17.2021 7.52798Z" fill="currentColor"/>
<path d="M7.41891 0.420521C11.4103 -0.723196 16.1115 0.393675 18.6642 4.66389C18.8162 4.91882 18.8134 5.23726 18.6569 5.48959C18.5004 5.74198 18.2163 5.88608 17.9202 5.86312C12.7466 5.45788 8.1528 9.68131 8.15252 14.8869C8.15254 16.2719 8.46314 17.583 9.01754 18.7546C9.14604 19.0265 9.10991 19.3478 8.92442 19.5845C8.73896 19.8211 8.43576 19.9328 8.14114 19.8732C7.7518 19.794 7.37695 19.6887 7.0133 19.5586C6.61336 19.4155 6.31872 19.31 6.10482 19.2358C5.99807 19.1987 5.91498 19.171 5.85235 19.1509C5.82148 19.141 5.79718 19.1335 5.77888 19.1282C5.77027 19.1257 5.7632 19.1243 5.75819 19.123C5.7558 19.1224 5.75198 19.1209 5.75198 19.1209H5.74991C5.2848 19.0116 4.9779 19.101 4.59414 19.2834C4.22957 19.4567 3.60364 19.8437 2.84961 19.9694C1.74139 20.154 0.755585 19.246 0.847432 18.1266C0.881252 17.7152 1.03604 17.3501 1.15371 17.0898C1.29065 16.7868 1.37809 16.6185 1.42998 16.4379C1.6371 15.7167 1.39138 15.1966 0.930209 14.2009C0.33316 12.9116 1.98104e-05 11.4753 0 9.9637C0.000152828 5.00537 3.42991 1.56366 7.41891 0.420521Z" fill="currentColor"/>
</g>
</svg>
