<svg viewBox="0 0 14.5289 20.5996" fill="none" xmlns="http://www.w3.org/2000/svg">
<path id="Vector" d="M10.4534 2.74414C10.4534 2.22286 10.0479 1.7998 9.54523 1.7998C9.31847 1.80359 9.12908 1.87823 8.97882 2.00195C8.94885 2.02644 8.9308 2.04165 8.91534 2.05859L2.08527 8.76367C1.87671 8.96862 1.77318 9.26396 1.80597 9.55957C1.8388 9.85508 2.00561 10.1174 2.25323 10.2676L5.38605 12.1514C5.80684 12.4044 5.98221 12.9262 5.79913 13.3818L4.14679 17.4932L4.09796 17.6494C4.01707 18.0199 4.15984 18.4123 4.46905 18.6338C4.58721 18.7173 4.71882 18.7684 4.85284 18.7891L4.98761 18.7998C5.21329 18.7997 5.43885 18.7118 5.61359 18.541L12.4437 11.834C12.626 11.6548 12.7281 11.4065 12.7288 11.1494L12.723 11.0381C12.6892 10.7426 12.5223 10.4802 12.2747 10.3311L9.14288 8.44824C8.72209 8.19524 8.54682 7.67437 8.7298 7.21875L10.3597 3.16406C10.4047 3.0692 10.4343 2.96479 10.4466 2.85547L10.4534 2.74414ZM12.2532 2.74414C12.2532 3.12649 12.1729 3.4959 12.0286 3.83398L12.0296 3.83496L10.6536 7.25684L13.2015 8.78809L13.2034 8.78906C13.8975 9.2072 14.3556 9.90565 14.4886 10.6787L14.511 10.835L14.512 10.8398C14.6042 11.6708 14.3174 12.5158 13.7054 13.1172V13.1182L6.8753 19.8252L6.87237 19.8281C6.35974 20.3293 5.68147 20.5995 4.98761 20.5996C4.44054 20.5996 3.89503 20.4323 3.42999 20.1035L3.4212 20.0967C2.37663 19.3484 2.00653 17.982 2.47784 16.8174L3.87335 13.3428L1.3255 11.8105L1.32062 11.8066C0.584942 11.3607 0.110024 10.5974 0.0169058 9.75781C-0.0752528 8.92686 0.211575 8.08186 0.823546 7.48047V7.47949L7.65362 0.774414L7.65558 0.777344C7.73958 0.693897 7.81273 0.630563 7.83429 0.613281C8.30231 0.227931 8.88582 0.0105491 9.51495 0H9.54523C11.1101 0 12.2532 1.2982 12.2532 2.74414Z" fill="currentColor"/>
</svg>
