<svg viewBox="0 0 13.1285 19.2" fill="none" xmlns="http://www.w3.org/2000/svg">
<path id="Vector" d="M8.8451 0.550195C9.67232 0.550195 10.303 1.24052 10.3031 2.04434C10.3031 2.26505 10.2539 2.47613 10.1683 2.66738L10.1693 2.66836L8.54041 6.72402C8.45805 6.92908 8.53655 7.16389 8.72596 7.27773L11.8578 9.15957H11.8588C12.2568 9.39942 12.5161 9.81581 12.5687 10.2758V10.2777C12.6133 10.6796 12.4976 11.0845 12.2455 11.3979L12.1293 11.5258L5.2992 18.2338L5.29822 18.2348C5.02024 18.5065 4.6562 18.6497 4.28748 18.6498C3.99582 18.6498 3.70299 18.5609 3.45154 18.3832L3.44861 18.3813C2.88405 17.9768 2.67713 17.2281 2.93689 16.5863L4.58826 12.477C4.67066 12.2719 4.59207 12.0371 4.40271 11.9232L1.2699 10.0395L1.26795 10.0385C0.871161 9.79794 0.610206 9.38209 0.558963 8.92031C0.508036 8.46112 0.667575 7.99835 0.999393 7.67227L7.82947 0.966211L7.83045 0.968164C7.87055 0.927438 7.90902 0.894661 7.92908 0.87832V0.877344C8.17645 0.673707 8.4866 0.556021 8.83631 0.550195H8.8451Z" fill="currentColor" stroke="currentColor" stroke-width="1.1"/>
</svg>
