<svg viewBox="0 0 20.0001 20" fill="none" xmlns="http://www.w3.org/2000/svg">
<g id="Vector">
<path d="M13.5851 4.36328C14.8431 4.36349 15.8631 5.38359 15.8634 6.6416C15.8634 7.89984 14.8432 8.91971 13.5851 8.91992C12.3268 8.91983 11.3067 7.89992 11.3067 6.6416C11.307 5.38351 12.3269 4.36337 13.5851 4.36328Z" fill="currentColor"/>
<path fill-rule="evenodd" clip-rule="evenodd" d="M10.004 0C16.7515 6.59935e-05 19.9834 3.1984 20.0001 10.0605C20.0093 16.9539 16.822 19.9999 10.004 20C3.136 19.9944 -0.0201966 16.8613 9.72217e-05 10.0605C0.0149475 3.13366 3.17856 9.11957e-05 10.004 0ZM7.75498 10.9502C7.50569 10.8721 7.23747 10.8733 6.98936 10.9551C6.89354 10.9867 6.76822 11.0544 6.55186 11.2383C6.32865 11.428 6.05961 11.6954 5.66025 12.0947L2.55478 15.2012C2.51213 15.2438 2.46439 15.2784 2.41514 15.3086C2.68951 15.8133 3.01155 16.2453 3.37998 16.6113C4.66465 17.8874 6.74918 18.6329 10.004 18.6357C12.0779 18.6357 13.6755 18.3353 14.8946 17.7881L11.7159 14.6094L9.09971 12.0693C8.69463 11.6761 8.42232 11.4119 8.19639 11.2256C7.97779 11.0454 7.85116 10.9804 7.75498 10.9502ZM15.5831 12.7529C15.3321 12.6715 15.0606 12.6714 14.8097 12.7529C14.7131 12.7844 14.5864 12.8521 14.3673 13.0381C14.1409 13.2303 13.8688 13.5024 13.464 13.9072C13.4066 13.9646 13.351 14.0192 13.2989 14.0713L16.2149 16.9873C16.3518 16.8768 16.4833 16.7639 16.6056 16.6436C17.098 16.1585 17.5104 15.555 17.8341 14.8115L16.9288 13.9062C16.5243 13.5017 16.2517 13.2301 16.0255 13.0381C15.8065 12.8522 15.6796 12.7844 15.5831 12.7529ZM10.004 1.36328C6.77275 1.36333 4.69879 2.10751 3.41318 3.39551C2.12648 4.68501 1.3714 6.77891 1.36436 10.0635C1.35992 11.5502 1.51816 12.7893 1.81455 13.8184L4.59971 11.0342C4.98171 10.6522 5.2998 10.333 5.58018 10.0947C5.86728 9.85077 6.16402 9.64854 6.51963 9.53125C7.06566 9.3512 7.65458 9.34665 8.20322 9.51855C8.56038 9.63053 8.85992 9.8288 9.15049 10.0684C9.4343 10.3024 9.75711 10.6169 10.1446 10.9932L12.2306 13.0186C12.285 12.9642 12.3432 12.9069 12.4034 12.8467C12.7907 12.4594 13.1127 12.1355 13.3966 11.8945C13.687 11.648 13.987 11.4431 14.3468 11.3262C14.8988 11.1469 15.4939 11.1469 16.046 11.3262C16.4057 11.4431 16.7058 11.6481 16.9962 11.8945C17.2799 12.1354 17.6023 12.4586 17.9894 12.8457L18.3419 13.1982C18.5347 12.3032 18.6383 11.2655 18.6368 10.0635L18.6261 9.46875C18.5304 6.56219 17.7792 4.64121 16.5606 3.41992C15.2622 2.11867 13.1855 1.36331 10.004 1.36328Z" fill="currentColor"/>
</g>
</svg>
