<svg viewBox="0 0 19.5 20.4795" fill="none" xmlns="http://www.w3.org/2000/svg">
<path id="Vector" fill-rule="evenodd" clip-rule="evenodd" d="M9.75001 0C10.6185 9.08324e-08 11.4628 0.108345 12.2695 0.3125C12.9278 0.479145 13.2676 1.04789 13.377 1.52051C13.5065 2.08024 13.8581 2.58431 14.3936 2.89355C14.8861 3.17791 15.4435 3.24511 15.957 3.12402C16.4289 3.01288 17.0874 3.06577 17.5283 3.58008C18.3483 4.53697 18.9955 5.64767 19.4199 6.86328C19.6733 7.5891 19.2807 8.24344 18.8662 8.58496C18.388 8.97909 18.0851 9.57337 18.085 10.2393C18.085 10.9053 18.3878 11.5003 18.8662 11.8945C19.2807 12.2361 19.6733 12.8904 19.4199 13.6162C18.9956 14.8315 18.3489 15.9417 17.5293 16.8984C17.0883 17.4131 16.4291 17.4667 15.957 17.3555C15.4435 17.2343 14.8861 17.3006 14.3936 17.585C13.8578 17.8943 13.5065 18.399 13.377 18.959C13.2676 19.4316 12.9278 20.0003 12.2695 20.167C11.4628 20.3711 10.6184 20.4795 9.75001 20.4795C8.88162 20.4795 8.03714 20.3711 7.23048 20.167C6.57224 20.0003 6.23236 19.4316 6.12305 18.959C5.99353 18.3991 5.64217 17.8943 5.10645 17.585C4.61392 17.3007 4.05653 17.2343 3.54298 17.3555C3.07096 17.4667 2.41167 17.4131 1.97071 16.8984C1.15109 15.9417 0.504397 14.8315 0.0800855 13.6162C-0.173301 12.8904 0.219284 12.2361 0.633796 11.8945C1.11217 11.5003 1.41505 10.9053 1.41505 10.2393C1.4149 9.57337 1.11205 8.97909 0.633796 8.58496C0.219284 8.24343 -0.173301 7.5891 0.0800855 6.86328C0.504511 5.64766 1.15175 4.53697 1.97169 3.58008C2.41274 3.06559 3.07202 3.01274 3.54395 3.12402C4.0574 3.24497 4.61408 3.17783 5.10645 2.89355C5.64201 2.58432 5.99347 2.08026 6.12305 1.52051C6.2324 1.04792 6.57227 0.479193 7.23048 0.3125C8.03717 0.108373 8.88159 0 9.75001 0ZM9.75001 7.38184C8.17196 7.38184 6.89284 8.66127 6.89259 10.2393C6.89259 11.8175 8.1718 13.0977 9.75001 13.0977C11.3282 13.0976 12.6074 11.8175 12.6074 10.2393C12.6072 8.66127 11.328 7.38185 9.75001 7.38184Z" fill="currentColor"/>
</svg>
