<svg viewBox="0 0 19.5026 20.5" fill="none" xmlns="http://www.w3.org/2000/svg">
<g id="Vector">
<path fill-rule="evenodd" clip-rule="evenodd" d="M9.75136 6.65039C11.7393 6.6506 13.3508 8.26208 13.351 10.25C13.3508 12.2379 11.7393 13.8504 9.75136 13.8506C7.76339 13.8504 6.15099 12.238 6.15078 10.25C6.15099 8.26204 7.76339 6.65053 9.75136 6.65039ZM9.75136 8.15039C8.59182 8.15053 7.65099 9.09047 7.65078 10.25C7.65099 11.4095 8.59182 12.3504 9.75136 12.3506C10.9108 12.3504 11.8508 11.4095 11.851 10.25C11.8508 9.09051 10.9109 8.1506 9.75136 8.15039Z" fill="currentColor"/>
<path fill-rule="evenodd" clip-rule="evenodd" d="M9.75136 0C10.6113 3.44428e-05 11.4479 0.106492 12.2475 0.306641C12.9406 0.480358 13.2949 1.07857 13.4125 1.56641C13.5429 2.10754 13.8836 2.59295 14.4008 2.8916C14.8748 3.16525 15.4101 3.23147 15.9076 3.11914C16.3663 3.01549 17.0034 3.05542 17.4623 3.50781L17.5521 3.60352L17.8461 3.96582C18.5139 4.82537 19.0474 5.79439 19.4164 6.8418C19.6851 7.60442 19.2707 8.28881 18.8471 8.64648C18.3895 9.03276 18.101 9.60714 18.101 10.25C18.101 10.8925 18.3894 11.4663 18.8471 11.8525C19.2708 12.2102 19.686 12.8947 19.4174 13.6572C18.9956 14.8546 18.3586 15.9495 17.5521 16.8955C17.0897 17.438 16.3977 17.4901 15.9086 17.3799C15.4111 17.2677 14.8753 17.3345 14.4008 17.6084C13.8836 17.907 13.5429 18.3918 13.4125 18.9326C13.2948 19.4205 12.9405 20.0186 12.2475 20.1924C11.448 20.3928 10.6118 20.5 9.75136 20.5C8.89071 20.5 8.05407 20.3929 7.25429 20.1924C6.56116 20.0186 6.20689 19.4205 6.08925 18.9326C5.95887 18.3918 5.61815 17.907 5.10097 17.6084C4.62632 17.3344 4.09045 17.2677 3.59316 17.3799C3.10408 17.4901 2.4121 17.437 1.94961 16.8945C1.14346 15.9487 0.507056 14.8542 0.0853476 13.6572C-0.183296 12.8946 0.230889 12.2102 0.654684 11.8525C1.11221 11.4665 1.40078 10.8927 1.40078 10.25C1.40078 9.60697 1.11214 9.03263 0.654684 8.64648C0.231019 8.28882 -0.183383 7.6045 0.0853476 6.8418L0.253316 6.39746C0.668718 5.37333 1.24427 4.43199 1.94961 3.60449L2.03945 3.50781C2.49842 3.05542 3.13551 3.01548 3.59414 3.11914C4.09151 3.23145 4.62671 3.16531 5.10097 2.8916C5.61818 2.59297 5.95891 2.10756 6.08925 1.56641C6.20685 1.07855 6.56114 0.480315 7.25429 0.306641C8.05424 0.106428 8.89124 0 9.75136 0ZM9.75136 1.5C9.01735 1.5 8.30518 1.59019 7.62539 1.75977C7.6228 1.76201 7.61837 1.76656 7.61269 1.77344C7.59155 1.79921 7.56405 1.84828 7.54726 1.91797C7.33898 2.78262 6.81205 3.57241 6.01406 4.09082L5.85097 4.19043C5.03539 4.66119 4.112 4.77389 3.26308 4.58203C3.1932 4.56624 3.1372 4.56957 3.10488 4.57715C3.08425 4.58199 3.08135 4.58594 3.08535 4.58301C2.40123 5.38709 1.8611 6.31637 1.50234 7.33105C1.50287 7.33458 1.50374 7.34204 1.5082 7.35352C1.52284 7.39108 1.5598 7.44709 1.62246 7.5C2.40274 8.15864 2.90078 9.14607 2.90078 10.25C2.90078 11.354 2.40254 12.3407 1.62246 12.999C1.55982 13.0519 1.52282 13.108 1.5082 13.1455C1.49809 13.1716 1.50275 13.1751 1.50136 13.166C1.85997 14.1812 2.40093 15.1104 3.08535 15.915C3.08212 15.9128 3.0852 15.9172 3.10488 15.9219C3.13721 15.9295 3.19325 15.9327 3.26308 15.917C4.11222 15.7254 5.03575 15.839 5.85097 16.3096L6.01406 16.4092C6.81178 16.9274 7.33885 17.7166 7.54726 18.5811C7.56407 18.6508 7.59152 18.6998 7.61269 18.7256C7.61804 18.7321 7.62276 18.7359 7.62539 18.7383C8.30555 18.9082 9.01746 19 9.75136 19L10.0258 18.9961C10.6623 18.9764 11.2809 18.8868 11.8754 18.7383C11.878 18.736 11.8833 18.7325 11.8891 18.7256C11.9102 18.6998 11.9377 18.6508 11.9545 18.5811C12.1768 17.6591 12.7619 16.8229 13.6508 16.3096L13.8051 16.2256C14.5814 15.826 15.4427 15.7374 16.2387 15.917C16.3085 15.9327 16.3646 15.9295 16.3969 15.9219C16.4073 15.9194 16.4127 15.9163 16.4154 15.915C17.0999 15.1105 17.6398 14.1812 17.9984 13.166C17.9977 13.1621 17.9973 13.1551 17.9936 13.1455C17.979 13.108 17.9419 13.0519 17.8793 12.999C17.0993 12.3407 16.601 11.354 16.601 10.25C16.601 9.14605 17.0991 8.15862 17.8793 7.5C17.942 7.44707 17.9789 7.39107 17.9936 7.35352C17.9977 7.34293 17.9988 7.33578 17.9994 7.33203C17.6406 6.31678 17.0999 5.38742 16.4154 4.58301C16.4126 4.5817 16.4068 4.57949 16.3969 4.57715C16.3646 4.56957 16.3085 4.56626 16.2387 4.58203C15.4429 4.76186 14.5817 4.67407 13.8051 4.27441L13.6508 4.19043C12.7615 3.67694 12.1767 2.84019 11.9545 1.91797C11.9377 1.84828 11.9102 1.79924 11.8891 1.77344C11.883 1.76605 11.8779 1.76191 11.8754 1.75977C11.2815 1.61166 10.663 1.52359 10.0268 1.50391L9.75136 1.5Z" fill="currentColor"/>
</g>
</svg>
