<svg viewBox="0 0 18.9951 18.9999" fill="none" xmlns="http://www.w3.org/2000/svg">
<path id="Vector" fill-rule="evenodd" clip-rule="evenodd" d="M9.49805 0C14.7312 0.000164479 18.9951 4.35379 18.9951 9.66016V16.7588C18.9951 17.3751 18.8152 18.011 18.2686 18.2637C17.7086 18.5222 17.1199 18.2211 16.6836 17.8047L15.793 16.9941L15.791 16.9922C15.6494 16.862 15.4033 16.862 15.2617 16.9922L15.2607 16.9932L13.4609 18.6396C12.937 19.12 12.105 19.12 11.5811 18.6396L9.78125 16.9932L9.78027 16.9922C9.63865 16.862 9.3926 16.862 9.25098 16.9922L9.25 16.9932L7.45117 18.6396L7.4502 18.6387C6.92627 19.1194 6.09433 19.1202 5.57031 18.6396L3.77051 16.9932L3.76953 16.9922C3.62789 16.8622 3.38182 16.8621 3.24023 16.9922L3.23926 16.9941L2.33887 17.8125C1.88644 18.2253 1.29287 18.5183 0.734375 18.2646C0.18082 18.013 0 17.3756 0 16.7588V9.66016C0 4.35369 4.2648 0 9.49805 0ZM12.6729 10.1797C12.3771 9.88976 11.9023 9.89383 11.6123 10.1895C10.9506 10.8644 10.205 11.1659 9.49805 11.166C8.79103 11.166 8.04458 10.8645 7.38281 10.1895C7.0928 9.89404 6.61792 9.88983 6.32227 10.1797C6.02689 10.4697 6.02265 10.9446 6.3125 11.2402C7.22084 12.1666 8.34022 12.666 9.49805 12.666C10.6559 12.6659 11.7753 12.1667 12.6836 11.2402C12.9735 10.9445 12.9685 10.4697 12.6729 10.1797Z" fill="currentColor"/>
</svg>
