<svg viewBox="0 0 19.4951 19.5" fill="none" xmlns="http://www.w3.org/2000/svg">
<g id="Vector">
<path d="M11.8623 10.4395C12.1523 10.1439 12.6272 10.1398 12.9229 10.4297C13.2183 10.7197 13.2234 11.1945 12.9336 11.4902C12.0253 12.4166 10.9058 12.9159 9.74805 12.916C8.59026 12.916 7.47083 12.4165 6.5625 11.4902C6.27264 11.1946 6.27685 10.7197 6.57227 10.4297C6.86793 10.1399 7.34283 10.1441 7.63281 10.4395C8.29456 11.1144 9.04107 11.416 9.74805 11.416C10.4549 11.4159 11.2007 11.1143 11.8623 10.4395Z" fill="currentColor"/>
<path fill-rule="evenodd" clip-rule="evenodd" d="M9.74805 0C15.1234 0.000164399 19.4951 4.46992 19.4951 9.91016V17.0088C19.4951 17.6498 19.31 18.4231 18.624 18.7402C17.9177 19.0667 17.2174 18.6712 16.7607 18.2354L15.874 17.4287L15.8721 17.4258C15.8556 17.4106 15.8228 17.3946 15.7764 17.3945C15.7299 17.3945 15.6972 17.4106 15.6807 17.4258L15.6797 17.4277L13.8799 19.0742C13.2604 19.642 12.2815 19.642 11.6621 19.0742L9.8623 17.4277L9.86133 17.4258C9.8448 17.4107 9.81208 17.3945 9.76562 17.3945C9.71912 17.3946 9.6864 17.4106 9.66992 17.4258L9.66895 17.4277L7.87012 19.0723C7.25071 19.6414 6.27126 19.6425 5.65137 19.0742L3.85156 17.4277L3.85059 17.4258C3.83402 17.4107 3.80121 17.3945 3.75488 17.3945C3.70887 17.3946 3.67672 17.4108 3.66016 17.4258L3.65723 17.4287L2.75781 18.2461C2.2859 18.677 1.58302 19.0612 0.880859 18.7422C0.186615 18.4266 0 17.6506 0 17.0088V9.91016C0 4.46982 4.37256 0 9.74805 0ZM9.74805 1.5C5.22601 1.5 1.5 5.27301 1.5 9.91016V17.0088C1.5 17.1391 1.51257 17.2356 1.52734 17.3037C1.58347 17.2704 1.65828 17.2197 1.74707 17.1387L1.74805 17.1377L2.64453 16.3213C3.26391 15.7521 4.24433 15.752 4.86426 16.3203L6.66406 17.9668L6.66504 17.9688C6.68159 17.9839 6.71437 18 6.76074 18C6.80674 17.9999 6.83887 17.9838 6.85547 17.9688L6.85742 17.9668L8.65625 16.3203C9.27574 15.7522 10.2555 15.7523 10.875 16.3203L12.6748 17.9668L12.6758 17.9688C12.6924 17.9838 12.7252 18 12.7715 18C12.8175 17.9999 12.8497 17.9838 12.8662 17.9688L12.8672 17.9668L14.667 16.3203C15.2869 15.7519 16.2673 15.7522 16.8867 16.3213L17.7832 17.1377C17.7876 17.1417 17.7926 17.1463 17.7969 17.1504C17.8647 17.2152 17.9229 17.2603 17.9697 17.292C17.9834 17.2243 17.9951 17.1315 17.9951 17.0088V9.91016C17.9951 5.27311 14.27 1.50016 9.74805 1.5Z" fill="currentColor"/>
</g>
</svg>
