<svg viewBox="0 0 20 20" fill="none" xmlns="http://www.w3.org/2000/svg">
<g id="Vector">
<path d="M3.64298 0.976311C4.2681 0.35119 5.11595 1.02969e-07 6 1.02969e-07C6.80517 -0.000169017 7.59669 0.20799 8.29761 0.604242C8.99852 1.00049 9.58499 1.57136 10 2.26133C10.816 0.906667 12.3027 1.02969e-07 14 1.02969e-07C14.8841 1.02969e-07 15.7319 0.35119 16.357 0.976311C16.9821 1.60143 17.3333 2.44928 17.3333 3.33333V3.71467C17.3333 4.312 17.156 4.868 16.8507 5.33333H18C18.5304 5.33333 19.0391 5.54405 19.4142 5.91912C19.7893 6.29419 20 6.8029 20 7.33333V8.66667C20 9.1971 19.7893 9.70581 19.4142 10.0809C19.0391 10.456 18.5304 10.6667 18 10.6667H10.6667V5.33333H14.3813C15.2747 5.33333 16 4.608 16 3.71467V3.33333C16 2.8029 15.7893 2.29419 15.4142 1.91912C15.0391 1.54405 14.5304 1.33333 14 1.33333C13.1159 1.33333 12.2681 1.68452 11.643 2.30964C11.0179 2.93477 10.6667 3.78261 10.6667 4.66667V5.33333H9.33333V4.66667C9.33333 4.22893 9.24712 3.79547 9.0796 3.39106C8.91208 2.98664 8.66655 2.61917 8.35702 2.30964C8.04749 2.00012 7.68003 1.75458 7.27561 1.58707C6.87119 1.41955 6.43774 1.33333 6 1.33333C5.46957 1.33333 4.96086 1.54405 4.58579 1.91912C4.21071 2.29419 4 2.8029 4 3.33333V3.71467C4 4.608 4.72533 5.33333 5.61867 5.33333H9.33333V10.6667H2C1.46957 10.6667 0.960859 10.456 0.585786 10.0809C0.210714 9.70581 0 9.1971 0 8.66667V7.33333C0 6.8029 0.210714 6.29419 0.585786 5.91912C0.960859 5.54405 1.46957 5.33333 2 5.33333H3.14933C2.844 4.868 2.66667 4.312 2.66667 3.71467V3.33333C2.66667 2.44928 3.01786 1.60143 3.64298 0.976311Z" fill="currentColor"/>
<path d="M1.33333 12H9.33333V20H4.66667C3.78261 20 2.93477 19.6488 2.30964 19.0237C1.68452 18.3986 1.33333 17.5507 1.33333 16.6667V12Z" fill="currentColor"/>
<path d="M15.3333 20H10.6667V12H18.6667V16.6667C18.6667 17.5507 18.3155 18.3986 17.6904 19.0237C17.0652 19.6488 16.2174 20 15.3333 20Z" fill="currentColor"/>
</g>
</svg>
