<svg viewBox="0 0 19.6 19.6" fill="none" xmlns="http://www.w3.org/2000/svg">
<path id="Vector" fill-rule="evenodd" clip-rule="evenodd" d="M5.94286 1.6C5.47305 1.6 5.02248 1.78663 4.69027 2.11884C4.35806 2.45105 4.17143 2.90162 4.17143 3.37143V3.73914C4.17143 4.11143 4.31932 4.46847 4.58257 4.73172C4.71291 4.86207 4.86766 4.96546 5.03796 5.03601C5.20827 5.10655 5.3908 5.14286 5.57514 5.14286H9V4.65714C9 3.84634 8.67791 3.06874 8.10458 2.49542C7.53126 1.92209 6.75366 1.6 5.94286 1.6ZM9.8 2.04724C9.6353 1.80382 9.44678 1.57487 9.23595 1.36405C8.36257 0.490662 7.17801 0 5.94286 0C5.0487 0 4.19116 0.355203 3.5589 0.987469C2.92663 1.61973 2.57143 2.47727 2.57143 3.37143V3.73914C2.57143 4.23292 2.69301 4.71417 2.9196 5.14286H2.08571C1.53255 5.14286 1.00204 5.3626 0.610892 5.75375C0.219744 6.1449 0 6.67541 0 7.22857V8.51429C0 9.06745 0.219744 9.59796 0.610892 9.98911C0.805989 10.1842 1.03576 10.3367 1.28571 10.4405V16.2286C1.28571 17.1227 1.64092 17.9803 2.27318 18.6125C2.90545 19.2448 3.76298 19.6 4.65714 19.6H14.9429C15.837 19.6 16.6946 19.2448 17.3268 18.6125C17.9591 17.9803 18.3143 17.1227 18.3143 16.2286V10.4405C18.5642 10.3367 18.794 10.1842 18.9891 9.98911C19.3803 9.59796 19.6 9.06745 19.6 8.51429V7.22857C19.6 6.67541 19.3803 6.1449 18.9891 5.75375C18.598 5.3626 18.0675 5.14286 17.5143 5.14286H16.681C16.9029 4.72382 17.0286 4.24606 17.0286 3.73914V3.37143C17.0286 2.47727 16.6734 1.61973 16.0411 0.987469C15.4088 0.355203 14.5513 0 13.6571 0C12.422 0 11.2374 0.490662 10.364 1.36405C10.1532 1.57487 9.96471 1.80382 9.8 2.04724ZM10.6 6.74286V9H17.5143C17.6431 9 17.7666 8.94883 17.8577 8.85774C17.9488 8.76665 18 8.6431 18 8.51429V7.22857C18 7.09975 17.9488 6.97621 17.8577 6.88512C17.7666 6.79403 17.6431 6.74286 17.5143 6.74286H10.6ZM9 9V6.74286H2.08571C1.9569 6.74286 1.83335 6.79403 1.74226 6.88512C1.65117 6.97621 1.6 7.09975 1.6 7.22857V8.51429C1.6 8.64311 1.65117 8.76665 1.74226 8.85774C1.83335 8.94883 1.9569 9 2.08571 9H9ZM9 10.6V18H4.65714C4.18733 18 3.73676 17.8134 3.40455 17.4812C3.07235 17.149 2.88571 16.6984 2.88571 16.2286V10.6H9ZM10.6 18V10.6H16.7143V16.2286C16.7143 16.6984 16.5277 17.149 16.1954 17.4812C15.8632 17.8134 15.4127 18 14.9429 18H10.6ZM10.6 5.14286H14.0249C14.8003 5.14286 15.4286 4.5139 15.4286 3.73914V3.37143C15.4286 2.90162 15.2419 2.45105 14.9097 2.11884C14.5775 1.78663 14.127 1.6 13.6571 1.6C12.8463 1.6 12.0687 1.92209 11.4954 2.49542C10.9221 3.06874 10.6 3.84634 10.6 4.65714V5.14286Z" fill="currentColor"/>
</svg>
