<svg viewBox="0 0 17.3984 20.3" fill="none" xmlns="http://www.w3.org/2000/svg">
<path id="Vector" d="M17.3984 4.35137V12.5913C17.3984 16.7779 14.0591 20.2531 9.87707 20.2993C8.86206 20.313 7.85462 20.1229 6.91445 19.7401C5.97428 19.3574 5.1205 18.7898 4.40372 18.071C2.42733 15.9804 0.194489 10.8759 0.194489 10.8759C0.096273 10.7059 0.0336011 10.5177 0.0102728 10.3228C-0.0130555 10.1279 0.00344594 9.93025 0.0587765 9.74189C0.114107 9.55353 0.207114 9.37837 0.332159 9.22703C0.457204 9.07568 0.611682 8.95131 0.786227 8.86144C1.48036 8.49897 2.3358 8.78533 2.72546 9.46134L4.62845 12.7635C4.68138 12.8586 4.76123 12.9359 4.85797 12.9857C4.95471 13.0355 5.06402 13.0556 5.17216 13.0435H5.18303C5.35717 13.0135 5.5149 12.9224 5.62786 12.7865C5.74081 12.6506 5.80159 12.4789 5.79924 12.3022V2.90147C5.79901 2.70505 5.8387 2.51063 5.91588 2.33002C5.99307 2.1494 6.10616 1.98635 6.24827 1.85076C6.39038 1.71517 6.55857 1.60987 6.74261 1.54125C6.92665 1.47263 7.12272 1.44212 7.31891 1.45158C8.09914 1.48782 8.69903 2.16021 8.69903 2.94044V8.70105C8.69881 8.80043 8.71903 8.8988 8.75843 8.99003C8.79783 9.08127 8.85556 9.16344 8.92805 9.23142C9.00054 9.29941 9.08623 9.35176 9.17981 9.38523C9.27338 9.41871 9.37284 9.43258 9.47201 9.426C9.65842 9.40998 9.83186 9.32398 9.95745 9.18528C10.083 9.04659 10.1514 8.86548 10.1489 8.6784V1.45158C10.1487 1.25516 10.1884 1.06074 10.2656 0.880121C10.3428 0.699503 10.4558 0.536453 10.598 0.400864C10.7401 0.265275 10.9083 0.159976 11.0923 0.0913562C11.2763 0.0227364 11.4724 -0.00777273 11.6686 0.00168009C12.4488 0.0379275 13.0487 0.710316 13.0487 1.49054V9.426C13.0485 9.52538 13.0687 9.62374 13.1081 9.71498C13.1475 9.80622 13.2052 9.88838 13.2777 9.95637C13.3502 10.0244 13.4359 10.0767 13.5295 10.1102C13.6231 10.1437 13.7225 10.1575 13.8217 10.1509C14.0081 10.1349 14.1816 10.0489 14.3071 9.91023C14.4327 9.77153 14.5011 9.59043 14.4986 9.40334V4.39214C14.4986 3.61192 15.0985 2.94225 15.8787 2.90328C16.0748 2.89384 16.2707 2.92429 16.4546 2.9928C16.6385 3.06131 16.8066 3.16645 16.9487 3.30184C17.0908 3.43724 17.2039 3.60007 17.2812 3.78047C17.3585 3.96088 17.3984 4.1551 17.3984 4.35137Z" fill="currentColor"/>
</svg>
