<svg viewBox="0 0 17.3977 20.3004" fill="none" xmlns="http://www.w3.org/2000/svg">
<path id="Union" fill-rule="evenodd" clip-rule="evenodd" d="M11.5159 0.0142961C12.1327 0.0804013 12.7039 0.372203 13.1184 0.833632C13.5329 1.29503 13.7621 1.89408 13.762 2.5143V3.17641C14.1094 3.00181 14.4938 2.9094 14.885 2.9098C15.215 2.90986 15.5422 2.97399 15.847 3.10023C16.1518 3.22655 16.429 3.4118 16.6624 3.64516C16.8957 3.8785 17.081 4.15573 17.2073 4.46059C17.3335 4.76535 17.3977 5.09263 17.3977 5.4225V12.3317C17.3952 14.444 16.5554 16.4699 15.0618 17.9635C13.5681 19.4571 11.5423 20.298 9.42997 20.3004C7.14631 20.3004 5.5768 19.6736 4.22196 18.2741C2.8795 16.8872 1.75274 14.7452 0.327429 11.7389C0.00100466 11.1631 -0.0858899 10.4807 0.0871943 9.84144C0.261578 9.19811 0.684816 8.64968 1.26298 8.31801C1.84122 7.98646 2.52783 7.89854 3.17118 8.07289C3.81277 8.24686 4.35882 8.66797 4.69071 9.24379L5.09794 9.89711V3.9684C5.09812 3.512 5.22294 3.06353 5.45829 2.6725C5.69366 2.28162 6.03174 1.96242 6.43485 1.74867C6.83818 1.53493 7.29253 1.4349 7.74833 1.45961C8.13418 1.48057 8.50885 1.59041 8.84403 1.77894C9.00372 1.25632 9.33055 0.797393 9.77665 0.475234C10.2795 0.112226 10.8993 -0.0516878 11.5159 0.0142961ZM11.2483 1.39125C10.9506 1.39131 10.6649 1.50985 10.4544 1.72035C10.2441 1.93086 10.1253 2.21675 10.1253 2.5143V9.4225C10.1252 9.60677 10.0524 9.78436 9.92216 9.91469C9.79176 10.0449 9.61428 10.1188 9.42997 10.1188C9.24579 10.1187 9.06907 10.0449 8.93876 9.91469C8.80841 9.78434 8.73474 9.60682 8.73466 9.4225V3.9684C8.73465 3.67067 8.61606 3.38499 8.40555 3.17445C8.19502 2.96402 7.90928 2.84535 7.61161 2.84535C7.31405 2.8455 7.02808 2.96404 6.81766 3.17445C6.6074 3.38496 6.48954 3.67085 6.48954 3.9684V12.3317C6.4897 12.4829 6.43989 12.6308 6.34891 12.7516C6.25791 12.8721 6.12986 12.9601 5.98466 13.0016C5.83929 13.043 5.68424 13.0356 5.54325 12.9811C5.40219 12.9265 5.28213 12.8274 5.20243 12.6989L3.50419 9.9723L3.50223 9.96937L3.49344 9.95375C3.34456 9.69587 3.09845 9.50641 2.81083 9.42934C2.52335 9.35245 2.21699 9.39285 1.95926 9.54164C1.7016 9.69055 1.51286 9.93581 1.43583 10.2233C1.35898 10.5106 1.39949 10.8172 1.54813 11.0748L1.55106 11.0797L1.57157 11.1188L1.57548 11.1246C2.98108 14.0897 4.08592 16.1564 5.28641 17.3668L5.28739 17.3678C6.36611 18.4604 7.55277 18.9088 9.42997 18.9088L9.75614 18.901C11.381 18.8185 12.9225 18.1359 14.0784 16.9801C15.3113 15.7472 16.0049 14.0753 16.0071 12.3317V5.4225C16.007 5.12493 15.8884 4.83997 15.678 4.62953C15.4676 4.41909 15.1826 4.30055 14.885 4.30043C14.5874 4.30049 14.3016 4.41903 14.0911 4.62953C13.8809 4.83994 13.7621 5.12505 13.762 5.4225V9.4225C13.7619 9.60682 13.6882 9.78434 13.5579 9.91469C13.4276 10.0448 13.2508 10.1187 13.0667 10.1188C12.8823 10.1187 12.7049 10.045 12.5745 9.91469C12.4442 9.78435 12.3715 9.60679 12.3714 9.4225V2.5143C12.3714 2.21667 12.2526 1.93087 12.0423 1.72035C11.8317 1.50981 11.5461 1.39126 11.2483 1.39125Z" fill="currentColor"/>
</svg>
