<svg viewBox="0 0 19.6406 21.0003" fill="none" xmlns="http://www.w3.org/2000/svg">
<path id="Vector" fill-rule="evenodd" clip-rule="evenodd" d="M13.5655 0.719062C12.375 0.234622 11.1005 -0.00964842 9.8152 0.000291608C8.5309 -0.00829837 7.25743 0.236962 6.06809 0.722002C4.87695 1.20778 3.79371 1.92448 2.8808 2.83078C1.96788 3.73709 1.24334 4.81509 0.74892 6.00267C0.25449 7.19026 -3.00381e-05 8.4639 2.65895e-09 9.7503V15.0003C2.65895e-09 15.597 0.23705 16.1693 0.65901 16.5913C1.08097 17.0133 1.65326 17.2503 2.25 17.2503H3.75C4.34674 17.2503 4.91903 17.0133 5.34099 16.5913C5.76295 16.1693 6 15.597 6 15.0003V11.2503C6 10.6536 5.76295 10.0813 5.34099 9.6593C4.91903 9.2374 4.34674 9.0003 3.75 9.0003H1.53414C1.61 8.169 1.81174 7.35252 2.1337 6.5792C2.55206 5.57432 3.16513 4.66216 3.9376 3.89529C4.71006 3.12842 5.62665 2.52198 6.63454 2.11094C7.64243 1.69989 8.7217 1.49236 9.8102 1.50029H9.8219C10.9111 1.49121 11.9912 1.6979 13.0001 2.10844C14.009 2.51897 14.9266 3.12523 15.7 3.89221C16.4734 4.6592 17.0872 5.57174 17.5061 6.57719C17.8286 7.35111 18.0306 8.1683 18.1065 9.0003H15.8906C15.2939 9.0003 14.7216 9.2374 14.2996 9.6593C13.8777 10.0813 13.6406 10.6536 13.6406 11.2503V15.0003C13.6406 15.597 13.8777 16.1693 14.2996 16.5913C14.7216 17.0133 15.2939 17.2503 15.8906 17.2503H17.3906C17.6486 17.2503 17.902 17.206 18.1406 17.1217V17.2503C18.1406 17.8471 17.9036 18.4194 17.4816 18.8413C17.0597 19.2633 16.4874 19.5003 15.8906 19.5003H10.5C10.0858 19.5003 9.75 19.8361 9.75 20.2503C9.75 20.6645 10.0858 21.0003 10.5 21.0003H15.8906C16.8852 21.0003 17.839 20.6052 18.5423 19.902C19.2455 19.1987 19.6406 18.2449 19.6406 17.2503V9.7503C19.6407 8.4631 19.3858 7.18856 18.8908 6.00031C18.3957 4.81206 17.6702 3.7336 16.7563 2.82716C15.8423 1.92072 14.7578 1.20424 13.5655 0.719062ZM1.5 15.0003V10.5003H3.75C3.94891 10.5003 4.13968 10.5793 4.28033 10.72C4.42098 10.8606 4.5 11.0514 4.5 11.2503V15.0003C4.5 15.1992 4.42098 15.39 4.28033 15.5306C4.13968 15.6713 3.94891 15.7503 3.75 15.7503H2.25C2.05109 15.7503 1.86032 15.6713 1.71967 15.5306C1.57902 15.39 1.5 15.1992 1.5 15.0003ZM15.8906 10.5003H18.1406V15.0003C18.1406 15.1992 18.0616 15.39 17.921 15.5306C17.7803 15.6713 17.5895 15.7503 17.3906 15.7503H15.8906C15.6917 15.7503 15.5009 15.6713 15.3603 15.5306C15.2196 15.39 15.1406 15.1992 15.1406 15.0003V11.2503C15.1406 11.0514 15.2196 10.8606 15.3603 10.72C15.5009 10.5793 15.6917 10.5003 15.8906 10.5003Z" fill="currentColor"/>
</svg>
