<svg viewBox="0 0 19.6406 21.0003" fill="none" xmlns="http://www.w3.org/2000/svg">
<path id="Vector" d="M9.8152 0.000291607C11.1005 -0.00964839 12.375 0.234622 13.5655 0.719062C14.7578 1.20424 15.8423 1.92072 16.7563 2.82716C17.6702 3.7336 18.3957 4.81206 18.8908 6.00031C19.3858 7.18856 19.6407 8.4631 19.6406 9.7503V17.2503C19.6406 18.2449 19.2455 19.1987 18.5423 19.902C17.839 20.6052 16.8852 21.0003 15.8906 21.0003H10.5C10.0858 21.0003 9.75 20.6645 9.75 20.2503C9.75 19.8361 10.0858 19.5003 10.5 19.5003H15.8906C16.4874 19.5003 17.0597 19.2633 17.4816 18.8413C17.9036 18.4194 18.1406 17.8471 18.1406 17.2503V17.1216C17.902 17.206 17.6486 17.2503 17.3906 17.2503H15.8906C15.2939 17.2503 14.7216 17.0133 14.2996 16.5913C13.8777 16.1693 13.6406 15.597 13.6406 15.0003V11.2503C13.6406 10.6536 13.8777 10.0813 14.2996 9.6593C14.7216 9.2374 15.2939 9.0003 15.8906 9.0003H18.1065C18.0306 8.1683 17.8286 7.35111 17.5061 6.57719C17.0872 5.57174 16.4734 4.6592 15.7 3.89221C14.9266 3.12523 14.009 2.51897 13.0001 2.10844C11.9912 1.6979 10.9111 1.49121 9.8219 1.50029H9.8102C8.7217 1.49236 7.64243 1.69989 6.63454 2.11094C5.62665 2.52198 4.71006 3.12842 3.9376 3.89529C3.16513 4.66216 2.55206 5.57432 2.1337 6.5792C1.81174 7.35252 1.61 8.169 1.53414 9.0003H3.75C4.34674 9.0003 4.91903 9.2374 5.34099 9.6593C5.76295 10.0813 6 10.6536 6 11.2503V15.0003C6 15.597 5.76295 16.1693 5.34099 16.5913C4.91903 17.0133 4.34674 17.2503 3.75 17.2503H2.25C1.65326 17.2503 1.08097 17.0133 0.65901 16.5913C0.23705 16.1693 2.65174e-09 15.597 2.65174e-09 15.0003V9.7503C-2.99973e-05 8.4639 0.25449 7.19026 0.74892 6.00267C1.24334 4.81509 1.96788 3.73709 2.8808 2.83078C3.79371 1.92448 4.87695 1.20778 6.06809 0.722002C7.25743 0.236962 8.5309 -0.00829839 9.8152 0.000291607Z" fill="currentColor"/>
</svg>
