<svg viewBox="0 0 22.7137 20.4453" fill="none" xmlns="http://www.w3.org/2000/svg">
<g id="Group 257">
<path id="Vector" opacity="0.5" d="M12.6947 3.33819C10.4682 -1.62996 2.67566 -1.10081 2.67566 5.24906C2.67566 9.23958 6.63256 12.8122 9.573 14.9161C11.4544 16.2623 13.9351 16.2623 15.8164 14.9161C18.7568 12.8122 22.7137 9.23958 22.7137 5.24906C22.7137 -1.10081 14.9212 -1.62996 12.6947 3.33819Z" fill="currentColor"/>
<path id="Vector_2" d="M10.019 6.89285C7.79259 1.92469 0 2.45385 0 8.80372C0 12.7942 3.9569 16.3668 6.89735 18.4708C8.77869 19.817 11.2594 19.817 13.1407 18.4708C16.0812 16.3668 20.0381 12.7942 20.0381 8.80372C20.0381 2.45385 12.2455 1.92469 10.019 6.89285Z" fill="currentColor"/>
</g>
</svg>
