<svg viewBox="0 0 20.5 17.2844" fill="none" xmlns="http://www.w3.org/2000/svg">
<path id="Vector" fill-rule="evenodd" clip-rule="evenodd" d="M10.25 2.54803C11.6209 0.616175 13.8534 -0.237778 15.8984 0.0568232C17.1218 0.233115 18.2834 0.821776 19.1367 1.83612C19.992 2.85301 20.5 4.2523 20.5 5.98553C20.4999 8.14243 19.5174 10.131 18.2412 11.8117C16.9607 13.4981 15.3344 14.9408 13.9287 16.0226C11.7425 17.705 8.75751 17.705 6.57129 16.0226C5.1656 14.9408 3.53934 13.4981 2.25879 11.8117C0.982593 10.131 8.36922e-05 8.14243 0 5.98553C1.25795e-05 4.2523 0.50796 2.85301 1.36328 1.83612C2.21655 0.821776 3.37822 0.233115 4.60156 0.0568232C6.64661 -0.237778 8.87913 0.616175 10.25 2.54803ZM15.6846 1.54217C14.0366 1.30472 12.1672 2.08292 11.168 3.90643L11.1582 3.94354L10.9512 4.34784C10.9476 4.35619 10.944 4.36484 10.9404 4.37323C10.9249 4.40957 10.9063 4.44395 10.8857 4.47675L10.5547 5.12616L13.3428 6.92499C13.5131 7.03422 13.6317 7.20542 13.6729 7.40155C13.7139 7.59791 13.674 7.80339 13.5615 7.97186L10.8975 11.464C10.7849 11.6324 10.6092 11.7502 10.4092 11.7922C10.2088 11.8341 9.99984 11.7961 9.8291 11.6867C9.65846 11.5773 9.53911 11.4056 9.49805 11.2092C9.45702 11.0127 9.49774 10.8074 9.61035 10.6389L11.8506 7.78339L9.06055 5.99628C8.89003 5.88697 8.77152 5.71507 8.73047 5.51874C8.68945 5.32248 8.72946 5.11782 8.8418 4.9494L9.40137 4.03827C8.42137 2.12059 6.50259 1.29908 4.81543 1.54217C3.92773 1.6701 3.10981 2.091 2.51172 2.80194C1.91585 3.51038 1.50001 4.55237 1.5 5.98553C1.50008 7.68528 2.27913 9.35831 3.45312 10.9045C4.62285 12.4449 6.13597 13.7957 7.48535 14.8342C9.13233 16.1016 11.3677 16.1016 13.0146 14.8342C14.364 13.7957 15.8772 12.4449 17.0469 10.9045C18.2209 9.35831 18.9999 7.68528 19 5.98553C19 4.55237 18.5842 3.51038 17.9883 2.80194C17.3902 2.091 16.5723 1.6701 15.6846 1.54217Z" fill="currentColor"/>
</svg>
