<svg viewBox="0 0 20.5 17.2845" fill="none" xmlns="http://www.w3.org/2000/svg">
<path id="Vector (Stroke)" d="M19 5.98553C19 4.55226 18.5842 3.51038 17.9883 2.80194C17.3902 2.09099 16.5723 1.67009 15.6846 1.54217C13.9021 1.28536 11.8596 2.21629 10.9404 4.37323C10.8226 4.64978 10.5506 4.82928 10.25 4.82928C9.94939 4.82928 9.67739 4.64978 9.55957 4.37323C8.64037 2.21629 6.59786 1.28536 4.81543 1.54217C3.92772 1.67009 3.10982 2.09099 2.51172 2.80194C1.91577 3.51038 1.50001 4.55226 1.5 5.98553C1.5 7.68537 2.27906 9.35822 3.45312 10.9045C4.62287 12.445 6.13592 13.7956 7.48535 14.8342C9.13239 16.1017 11.3676 16.1017 13.0146 14.8342C14.3641 13.7956 15.8771 12.445 17.0469 10.9045C18.2209 9.35823 19 7.68537 19 5.98553ZM20.5 5.98553C20.5 8.14253 19.5175 10.1309 18.2412 11.8117C16.9606 13.4982 15.3344 14.9408 13.9287 16.0226C11.7424 17.7051 8.75756 17.7051 6.57129 16.0226C5.16555 14.9408 3.53936 13.4982 2.25879 11.8117C0.982539 10.1309 0 8.14253 0 5.98553C1.25801e-05 4.25221 0.507878 2.85302 1.36328 1.83612C2.21656 0.821766 3.37821 0.233108 4.60156 0.0568232C6.64661 -0.237778 8.87913 0.616175 10.25 2.54803C11.6209 0.616175 13.8534 -0.237778 15.8984 0.0568232C17.1218 0.233108 18.2834 0.821766 19.1367 1.83612C19.9921 2.85302 20.5 4.25221 20.5 5.98553Z" fill="currentColor"/>
</svg>
