<svg viewBox="0 0 20.8066 17.9939" fill="none" xmlns="http://www.w3.org/2000/svg">
<g id="Vector">
<path d="M14.9482 11.0381C16.2502 8.133 20.8066 8.44225 20.8066 12.1553C20.8066 13.9677 19.4104 15.6327 17.9814 16.8623C16.228 18.3711 13.6675 18.3711 11.9141 16.8623C10.4851 15.6327 9.08887 13.9677 9.08887 12.1553C9.08895 8.44224 13.6463 8.13296 14.9482 11.0381Z" fill="currentColor"/>
<path d="M0 5.37015C0 -1.12609 7.97222 -1.6676 10.25 3.41508C12.5278 -1.6676 20.5 -1.12609 20.5 5.37015C20.4999 6.45306 20.213 7.50518 19.7383 8.50785C19.3471 8.3098 18.927 8.18341 18.501 8.12504C17.263 7.95551 15.917 8.35798 14.9473 9.31351C13.9776 8.35825 12.6323 7.95555 11.3945 8.12504C10.533 8.24314 9.69501 8.64009 9.07227 9.34379C8.44398 10.0542 8.08889 11.0152 8.08887 12.1563C8.08913 13.3218 8.53728 14.3826 9.13184 15.2803C9.37003 15.6399 9.63832 15.9818 9.92188 16.3047C8.94231 16.2442 7.97475 15.9129 7.12695 15.3096C4.11204 13.1642 0.000349226 9.48436 0 5.37015Z" fill="currentColor"/>
</g>
</svg>
