<svg viewBox="0 0 15.6 14.2" fill="none" xmlns="http://www.w3.org/2000/svg">
<g id="Vector">
<path d="M0 13.1C0 12.4925 0.492487 12 1.1 12H14.5C15.1075 12 15.6 12.4925 15.6 13.1C15.6 13.7075 15.1075 14.2 14.5 14.2H1.1C0.492487 14.2 0 13.7075 0 13.1Z" fill="currentColor"/>
<path d="M0 7.1C0 6.49249 0.492487 6 1.1 6H14.5C15.1075 6 15.6 6.49249 15.6 7.1C15.6 7.70751 15.1075 8.2 14.5 8.2H1.1C0.492487 8.2 0 7.70751 0 7.1Z" fill="currentColor"/>
<path d="M0 1.1C0 0.492487 0.492487 0 1.1 0H14.5C15.1075 0 15.6 0.492487 15.6 1.1C15.6 1.70751 15.1075 2.2 14.5 2.2H1.1C0.492487 2.2 0 1.70751 0 1.1Z" fill="currentColor"/>
</g>
</svg>
