<svg viewBox="0 0 17.3322 19.9999" fill="none" xmlns="http://www.w3.org/2000/svg">
<path id="Vector" fill-rule="evenodd" clip-rule="evenodd" d="M14.4269 19.6504L14.4226 19.651C13.1828 19.8397 10.5652 20.0238 8.60518 19.9974L8.60193 19.9973C7.19923 19.9713 4.16574 19.8413 2.91465 19.6518C1.65364 19.4789 0.651442 18.9827 0.189026 17.8461C-0.0650879 17.2277 -0.0327781 16.4962 0.108937 15.8231C0.254085 15.1336 0.532262 14.4189 0.866298 13.7787C1.23322 13.0754 1.78826 12.4885 2.37376 12.0567C2.95426 11.6286 3.60871 11.3208 4.20443 11.2215L4.20859 11.2208C4.59867 11.1584 5.50436 11.1475 6.36813 11.1475C6.81587 11.1475 7.27527 11.1507 7.68648 11.154L7.84794 11.1553C8.19349 11.1581 8.49499 11.1605 8.71827 11.1605C8.96587 11.1605 9.28624 11.1579 9.64475 11.155L9.77408 11.154C10.1831 11.1507 10.632 11.1475 11.0652 11.1475C11.4976 11.1475 11.9187 11.1507 12.2717 11.1608C12.6073 11.1703 12.9251 11.1867 13.1285 11.2216C13.7372 11.3211 14.3917 11.6288 14.9698 12.0579C15.5537 12.4912 16.1005 13.0782 16.4659 13.7787C16.8008 14.4205 17.0786 15.1418 17.2234 15.8335C17.364 16.5045 17.3988 17.2395 17.142 17.8492C16.6754 18.9922 15.6635 19.4536 14.4269 19.6504ZM1.69937 17.2309C1.78282 17.4363 1.90707 17.5965 2.1134 17.7253C2.32855 17.8596 2.64935 17.9697 3.14 18.0366L3.15505 18.0386C4.28083 18.21 7.21527 18.3404 8.62975 18.3667C10.5116 18.392 13.034 18.2123 14.174 18.0392C14.6805 17.9584 15.0073 17.8458 15.2247 17.7119C15.4316 17.5845 15.5517 17.4307 15.6329 17.2309L15.6385 17.2169C15.7057 17.0586 15.7418 16.7148 15.6272 16.1678C15.5187 15.6495 15.2999 15.0695 15.0201 14.5331C14.7864 14.0851 14.4172 13.6787 13.9979 13.3675C13.5716 13.0511 13.1546 12.878 12.864 12.8308L12.8529 12.829C12.7833 12.817 12.5789 12.801 12.2254 12.7909C11.8953 12.7815 11.4922 12.7783 11.0652 12.7783C10.6392 12.7783 10.1962 12.7815 9.78707 12.7848L9.65724 12.7858C9.30104 12.7887 8.97295 12.7913 8.71827 12.7913C8.48813 12.7913 8.17972 12.7888 7.83663 12.7861L7.67355 12.7848C7.26259 12.7815 6.80883 12.7783 6.36813 12.7783C5.44342 12.7783 4.70271 12.7943 4.46925 12.8307C4.1902 12.878 3.77255 13.0515 3.34172 13.3692C2.91664 13.6827 2.5437 14.0893 2.31217 14.5331C2.03108 15.0718 1.81291 15.6454 1.70479 16.159C1.59167 16.6964 1.62391 17.0476 1.69759 17.2265C1.69759 17.2266 1.69758 17.2265 1.69759 17.2265L1.69937 17.2309ZM8.71822 1.63083C7.12825 1.63083 5.83933 2.91976 5.83933 4.50973C5.83933 6.0997 7.12825 7.38863 8.71822 7.38863C10.3082 7.38863 11.5971 6.0997 11.5971 4.50973C11.5971 2.91976 10.3082 1.63083 8.71822 1.63083ZM8.71822 0C6.22757 0 4.2085 2.01907 4.2085 4.50973C4.2085 7.00038 6.22757 9.01946 8.71822 9.01946C11.2089 9.01946 13.228 7.00039 13.228 4.50973C13.228 2.01907 11.2089 0 8.71822 0Z" fill="currentColor"/>
</svg>
