<svg viewBox="0 0 14.582 20.5" fill="none" xmlns="http://www.w3.org/2000/svg">
<g id="Union">
<path fill-rule="evenodd" clip-rule="evenodd" d="M7.29785 10.7305C9.15171 10.7305 11.0443 11.1955 12.5078 12.1729C13.8247 13.0491 14.582 14.2802 14.582 15.6084C14.5818 16.9359 13.8244 18.1691 12.5088 19.0498C11.0408 20.0319 9.1458 20.5 7.29102 20.5C5.43627 20.5 3.54118 20.0319 2.07324 19.0498C0.75788 18.1738 0.000162572 16.9425 0 15.6152C7.78064e-05 14.2877 0.757766 13.0546 2.07324 12.1738L2.07617 12.1719C3.54805 11.196 5.44378 10.7305 7.29785 10.7305ZM7.29785 12.2305C5.67069 12.2306 4.08029 12.6428 2.90527 13.4219C1.90232 14.0943 1.50008 14.9033 1.5 15.6152C1.50015 16.2828 1.85348 17.0343 2.72461 17.6758L2.90625 17.8027L2.9082 17.8037C4.07768 18.586 5.6646 19 7.29102 19C8.91739 19 10.5043 18.5859 11.6738 17.8037L11.8555 17.6758C12.7278 17.0299 13.0818 16.2764 13.082 15.6084C13.082 14.8962 12.6796 14.0888 11.6758 13.4209C10.5114 12.6432 8.92544 12.2305 7.29785 12.2305Z" fill="currentColor"/>
<path fill-rule="evenodd" clip-rule="evenodd" d="M7.29199 0C10.0557 0.000445005 12.2998 2.24503 12.2998 5.00879V5.01172C12.2885 7.71362 10.1587 9.91602 7.4707 10.0068C7.43755 10.008 7.40313 10.0072 7.37012 10.0039C7.32609 9.99953 7.25868 9.99827 7.19629 10.0039C7.1656 10.0067 7.13431 10.0078 7.10352 10.0068C4.41573 9.91649 2.28338 7.71388 2.2832 5.00879C2.2832 2.24585 4.51726 0 7.29199 0ZM7.29199 1.5C5.34789 1.5 3.7832 3.07208 3.7832 5.00879C3.78338 6.90235 5.26894 8.43649 7.13965 8.50684C7.23695 8.50116 7.33836 8.50005 7.43555 8.50586C9.30375 8.43456 10.7901 6.90321 10.7998 5.00879L10.7959 4.82812C10.7019 2.97636 9.16676 1.50043 7.29199 1.5Z" fill="currentColor"/>
</g>
</svg>
