<svg viewBox="0 0 20.0001 20" fill="none" xmlns="http://www.w3.org/2000/svg">
<g id="Vector">
<path fill-rule="evenodd" clip-rule="evenodd" d="M10.0001 4.72124C12.0219 4.72137 13.6629 6.36332 13.6631 8.38512V8.38867C13.652 10.3598 12.1019 11.972 10.1324 12.0392C10.0925 12.0406 10.052 12.0378 10.0125 12.0321L10.0143 12.033C10.012 12.0329 10.0081 12.033 10.0036 12.033C9.99259 12.033 9.98162 12.0331 9.97524 12.0339C9.9397 12.0383 9.90361 12.0404 9.86782 12.0392C7.90184 11.972 6.33634 10.3626 6.33621 8.38512C6.33636 6.3647 7.96788 4.72141 10.0001 4.72124ZM10.0001 6.08487C8.72371 6.08504 7.7 7.1151 7.69985 8.38512C7.69998 9.6209 8.67341 10.6257 9.90067 10.6747C9.97175 10.6702 10.0463 10.6674 10.1191 10.6729C11.3323 10.6142 12.2904 9.61885 12.2995 8.38512L12.2879 8.14986C12.1698 6.9913 11.1894 6.085 10.0001 6.08487Z" fill="currentColor"/>
<path fill-rule="evenodd" clip-rule="evenodd" d="M10.0036 0C16.7513 0 19.9834 3.19815 20.0001 10.0604C20.0093 16.9539 16.8218 20 10.0036 20C3.13565 19.9943 -0.0202514 16.8613 9.77598e-05 10.0604C0.0149479 3.13349 3.17827 0.000103501 10.0036 0ZM10.0063 14.4531C8.47263 14.4533 6.97115 14.8409 5.86125 15.5771L5.86214 15.5779C5.01034 16.1512 4.61522 16.8256 4.55088 17.4299C4.54877 17.4497 4.54485 17.4692 4.54111 17.4885C5.81874 18.2216 7.58867 18.6334 10.0036 18.6355C12.4156 18.6355 14.184 18.231 15.4609 17.5018C15.4558 17.4784 15.4519 17.4542 15.4493 17.4299C15.3849 16.8256 14.9892 16.1513 14.1372 15.5779C13.0371 14.8428 11.5408 14.4531 10.0063 14.4531ZM10.0036 1.36364C6.7722 1.36369 4.69832 2.1076 3.41274 3.39577C2.12607 4.68528 1.37078 6.7785 1.36373 10.063C1.35415 13.2546 2.08797 15.3064 3.35237 16.582C3.63453 15.7596 4.24582 15.0226 5.10131 14.4469L5.10486 14.4442C6.48511 13.5275 8.26478 13.0896 10.0063 13.0895C11.7477 13.0895 13.5247 13.5271 14.8971 14.4451L14.8989 14.4469C15.7585 15.0254 16.3713 15.7671 16.6514 16.5945C17.9032 15.329 18.6406 13.2855 18.6365 10.063L18.6258 9.46911C18.5302 6.56233 17.7794 4.64108 16.5608 3.41974C15.2624 2.1184 13.1853 1.36364 10.0036 1.36364Z" fill="currentColor"/>
</g>
</svg>
