<svg viewBox="0 0 14.08 20" fill="none" xmlns="http://www.w3.org/2000/svg">
<g id="Vector">
<path d="M7.04004 0C4.42004 0 2.29004 2.13 2.29004 4.75C2.29004 7.32 4.30004 9.4 6.92004 9.49C7.00004 9.48 7.08004 9.48 7.14004 9.49C7.16004 9.49 7.17004 9.49 7.19004 9.49C7.20004 9.49 7.20004 9.49 7.21004 9.49C9.77004 9.4 11.78 7.32 11.79 4.75C11.79 2.13 9.66004 0 7.04004 0Z" fill="white"/>
<path d="M12.12 12.15C9.33 10.29 4.78 10.29 1.97 12.15C0.7 13 0 14.15 0 15.38C0 16.61 0.7 17.75 1.96 18.59C3.36 19.53 5.2 20 7.04 20C8.88 20 10.72 19.53 12.12 18.59C13.38 17.74 14.08 16.6 14.08 15.36C14.07 14.13 13.38 12.99 12.12 12.15Z" fill="white"/>
</g>
</svg>
