<svg viewBox="0 0 20.0001 20" fill="none" xmlns="http://www.w3.org/2000/svg">
<path id="Vector" fill-rule="evenodd" clip-rule="evenodd" d="M10.0036 0C10.4254 0 10.8336 0.0121859 11.2279 0.0372869C11.6221 0.0623823 12.0026 0.100518 12.3696 0.150923C13.1038 0.251765 13.7836 0.403721 14.4097 0.607244C15.6618 1.01425 16.6991 1.62795 17.5258 2.4565C17.6293 2.56016 17.7291 2.66749 17.8259 2.77788C17.9227 2.88816 18.0162 3.00176 18.1065 3.11879C18.1967 3.23586 18.2837 3.35627 18.3675 3.48011C18.4512 3.60397 18.5317 3.7312 18.6089 3.86186C18.8405 4.25367 19.0429 4.6761 19.2162 5.12962C19.5051 5.8856 19.714 6.72774 19.843 7.65803C19.9461 8.40216 19.998 9.20267 20.0001 10.0604C20.0004 10.2757 19.9972 10.4873 19.9912 10.6951C19.9554 11.9428 19.8073 13.0561 19.5429 14.0403C19.4548 14.3683 19.3532 14.6818 19.2393 14.9814C18.8404 16.0298 18.2833 16.9052 17.5622 17.6154C17.4594 17.7167 17.3531 17.8146 17.2435 17.9093C17.0789 18.0515 16.9066 18.186 16.7268 18.3132C16.607 18.398 16.4841 18.48 16.3575 18.5582C15.7883 18.91 15.1507 19.1955 14.4435 19.4167C13.9718 19.5642 13.469 19.6825 12.9351 19.7736C12.0455 19.9254 11.0689 20 10.0036 20C8.71574 19.9989 7.55833 19.8881 6.52797 19.6635C2.06365 18.6905 -0.0164357 15.586 9.77668e-05 10.0604C0.0130917 3.99939 2.43652 0.842809 7.61462 0.14826C7.98462 0.0986284 8.36871 0.0619373 8.76697 0.0372869C9.16498 0.0126535 9.57717 5.69857e-06 10.0036 0ZM10.0072 13.0895C8.26575 13.0896 6.48604 13.5277 5.10574 14.4442L5.10219 14.4469C4.2463 15.0228 3.63442 15.76 3.35237 16.5829C3.36166 16.5923 3.37055 16.602 3.37989 16.6113C4.66455 17.8874 6.74884 18.6326 10.0036 18.6355C13.2406 18.6355 15.3198 17.9094 16.6052 16.6433C16.6213 16.6275 16.6355 16.6097 16.6514 16.5936C16.3711 15.7666 15.759 15.0252 14.8998 14.4469L14.898 14.4451C13.5257 13.527 11.7486 13.0896 10.0072 13.0895ZM10.0001 4.94851C8.09385 4.94868 6.56364 6.48976 6.56349 8.38512C6.56362 10.2396 8.03118 11.7488 9.87492 11.812C9.89872 11.8128 9.92319 11.8113 9.94683 11.8084C9.9846 11.8037 10.0257 11.8049 10.0445 11.8075C10.0708 11.8113 10.0979 11.8129 10.1244 11.812C11.9707 11.749 13.4252 10.2381 13.4358 8.38778V8.38512C13.4357 6.48885 11.8964 4.94866 10.0001 4.94851Z" fill="currentColor"/>
</svg>
