<svg viewBox="0 0 17.3322 19.9999" fill="none" xmlns="http://www.w3.org/2000/svg">
<g id="Vector">
<path d="M8.7182 8.36902C10.8496 8.36902 12.5775 6.64114 12.5775 4.5097C12.5775 2.37826 10.8496 0.650391 8.7182 0.650391C6.58676 0.650391 4.85889 2.37826 4.85889 4.5097C4.85889 6.64114 6.58676 8.36902 8.7182 8.36902Z" fill="currentColor"/>
<path fill-rule="evenodd" clip-rule="evenodd" d="M8.71822 1.30083C6.946 1.30083 5.50933 2.7375 5.50933 4.50973C5.50933 6.28196 6.946 7.71863 8.71822 7.71863C10.4905 7.71863 11.9271 6.28196 11.9271 4.50973C11.9271 2.7375 10.4905 1.30083 8.71822 1.30083ZM4.2085 4.50973C4.2085 2.01907 6.22757 0 8.71822 0C11.2089 0 13.228 2.01907 13.228 4.50973C13.228 7.00039 11.2089 9.01946 8.71822 9.01946C6.22757 9.01946 4.2085 7.00038 4.2085 4.50973Z" fill="currentColor"/>
<path d="M8.71825 11.8114C9.83954 11.8114 12.4211 11.7592 13.0209 11.8635C13.9857 12.02 15.2634 12.8805 15.8893 14.08C16.5151 15.2795 16.9063 16.7398 16.5412 17.6003C16.2022 18.4348 15.472 18.8259 14.3247 19.0085C13.1252 19.191 10.5436 19.3735 8.61395 19.3475C7.20582 19.3214 4.20703 19.191 3.00751 19.0085C1.86015 18.852 1.13001 18.4348 0.791012 17.6003C0.425942 16.7137 0.817088 15.2795 1.44292 14.08C2.06876 12.8805 3.37258 12.02 4.31133 11.8635C4.96324 11.7592 7.67519 11.8114 8.71825 11.8114Z" fill="currentColor"/>
<path fill-rule="evenodd" clip-rule="evenodd" d="M4.41612 12.505C4.07329 12.5626 3.60744 12.7632 3.14586 13.1036C2.68829 13.4411 2.27851 13.8842 2.01959 14.3804C1.7278 14.9397 1.49748 15.5419 1.38187 16.0911C1.26292 16.656 1.28214 17.0843 1.39246 17.3522L1.39363 17.3551C1.60885 17.8848 2.06458 18.223 3.09541 18.3636L3.10539 18.3649C4.25599 18.54 7.21208 18.6705 8.62441 18.6967C10.5224 18.7222 13.0648 18.5416 14.2248 18.3653C15.2796 18.1972 15.7265 17.8773 15.9386 17.3551L15.9424 17.3458C16.0484 17.096 16.0701 16.6726 15.9502 16.1002C15.8343 15.5468 15.6036 14.9382 15.3126 14.3804C15.0523 13.8814 14.6472 13.4384 14.1946 13.1025C13.7373 12.7631 13.2719 12.5627 12.9168 12.5051L12.9094 12.5039C12.8128 12.4871 12.5849 12.471 12.2348 12.4611C11.9001 12.4515 11.4933 12.4483 11.0652 12.4483C10.6378 12.4483 10.1935 12.4515 9.78444 12.4548C9.74076 12.4551 9.69745 12.4555 9.65458 12.4558C9.29761 12.4587 8.9715 12.4613 8.71827 12.4613C8.48928 12.4613 8.1816 12.4589 7.83709 12.4561C7.78427 12.4557 7.73058 12.4552 7.67617 12.4548C7.26516 12.4515 6.81026 12.4483 6.36813 12.4483C5.45453 12.4483 4.6799 12.4633 4.41612 12.505ZM7.84794 11.1553C8.19349 11.1581 8.49499 11.1605 8.71827 11.1605C8.96587 11.1605 9.28624 11.1579 9.64475 11.155C9.68734 11.1547 9.73047 11.1543 9.77408 11.154C10.1831 11.1507 10.632 11.1475 11.0652 11.1475C11.4976 11.1475 11.9187 11.1507 12.2717 11.1608C12.6073 11.1703 12.9251 11.1867 13.1285 11.2216C13.7372 11.3211 14.3917 11.6288 14.9698 12.0579C15.5537 12.4912 16.1005 13.0782 16.4659 13.7787C16.8008 14.4205 17.0786 15.1418 17.2234 15.8335C17.364 16.5045 17.3988 17.2395 17.142 17.8492C16.6754 18.9922 15.6635 19.4536 14.4269 19.6504L14.4226 19.651C13.1828 19.8397 10.5652 20.0239 8.60518 19.9974L8.60193 19.9973C7.19923 19.9713 4.16574 19.8413 2.91465 19.6518C1.65364 19.4789 0.651442 18.9827 0.189026 17.8461C-0.0650879 17.2277 -0.0327781 16.4962 0.108937 15.8231C0.254085 15.1336 0.532262 14.4189 0.866298 13.7787C1.23322 13.0754 1.78826 12.4885 2.37376 12.0567C2.95426 11.6286 3.60871 11.3208 4.20443 11.2215L4.20859 11.2208C4.59867 11.1584 5.50436 11.1475 6.36813 11.1475C6.81587 11.1475 7.27527 11.1507 7.68648 11.154C7.74125 11.1544 7.79511 11.1549 7.84794 11.1553Z" fill="currentColor"/>
</g>
</svg>
