<svg viewBox="0 0 20.0001 20" fill="none" xmlns="http://www.w3.org/2000/svg">
<path id="Vector" fill-rule="evenodd" clip-rule="evenodd" d="M10.004 0C16.7516 5.03232e-05 19.9834 3.19838 20.0001 10.0605C20.0093 16.9539 16.822 20 10.004 20C3.136 19.9944 -0.0201966 16.8613 9.72217e-05 10.0605C0.0149475 3.13366 3.17856 9.11923e-05 10.004 0ZM9.21103 8.8916C9.002 8.8917 8.80124 8.97427 8.65342 9.12207C8.50561 9.26988 8.42307 9.47067 8.42295 9.67969C8.42295 9.88887 8.5055 10.0904 8.65342 10.2383C8.80124 10.3861 9.00202 10.4687 9.21103 10.4688H10.0001V14.2012C10.0001 14.4104 10.0836 14.6109 10.2315 14.7588C10.3794 14.9066 10.58 14.9902 10.7892 14.9902C10.9982 14.9902 11.1989 14.9066 11.3468 14.7588C11.4946 14.6109 11.5772 14.4103 11.5772 14.2012V10.4688C11.5772 10.0504 11.4111 9.64932 11.1153 9.35352C10.8195 9.05774 10.4184 8.8916 10.0001 8.8916H9.21103ZM10.0001 5.59961C9.68634 5.59962 9.38505 5.72443 9.16318 5.94629C8.94136 6.16816 8.81748 6.46946 8.81748 6.7832C8.81751 7.09694 8.94133 7.39827 9.16318 7.62012C9.38504 7.84196 9.68635 7.96581 10.0001 7.96582C10.3138 7.96582 10.6151 7.84195 10.837 7.62012C11.0589 7.39827 11.1837 7.09694 11.1837 6.7832C11.1837 6.46944 11.0589 6.16816 10.837 5.94629C10.6151 5.72442 10.3139 5.59961 10.0001 5.59961Z" fill="currentColor"/>
</svg>
