<svg viewBox="0 0 20.0001 20" fill="none" xmlns="http://www.w3.org/2000/svg">
<g id="Vector">
<path d="M11.183 6.7831C11.183 7.09687 11.0584 7.3978 10.8365 7.61967C10.6147 7.84155 10.3137 7.96619 9.99995 7.96619C9.68617 7.96619 9.38525 7.84155 9.16337 7.61967C8.9415 7.3978 8.81685 7.09687 8.81685 6.7831C8.81685 6.46932 8.9415 6.16839 9.16337 5.94652C9.38525 5.72465 9.68617 5.6 9.99995 5.6C10.3137 5.6 10.6147 5.72465 10.8365 5.94652C11.0584 6.16839 11.183 6.46932 11.183 6.7831ZM11.5774 14.2013V10.4689C11.5774 10.0505 11.4112 9.64926 11.1154 9.35343C10.8196 9.0576 10.4183 8.8914 9.99995 8.8914H9.21122C9.00203 8.8914 8.80142 8.9745 8.6535 9.12242C8.50558 9.27033 8.42249 9.47095 8.42249 9.68013C8.42249 9.88932 8.50558 10.0899 8.6535 10.2378C8.80142 10.3858 9.00203 10.4689 9.21122 10.4689H9.99995V14.2013C9.99995 14.4104 10.083 14.6111 10.231 14.759C10.3789 14.9069 10.5795 14.99 10.7887 14.99C10.9979 14.99 11.1985 14.9069 11.3464 14.759C11.4943 14.6111 11.5774 14.4104 11.5774 14.2013Z" fill="currentColor"/>
<path fill-rule="evenodd" clip-rule="evenodd" d="M10.0036 0C16.7513 0 19.9834 3.19815 20.0001 10.0604C20.0093 16.9539 16.8218 20 10.0036 20C3.13559 19.9944 -0.0202516 16.8613 9.77643e-05 10.0604C0.014948 3.13348 3.1782 9.11957e-05 10.0036 0ZM10.0036 1.36364C6.77216 1.36368 4.69833 2.1076 3.41274 3.39577C2.12604 4.68527 1.37078 6.77846 1.36373 10.063C1.35408 13.2785 2.09804 15.3379 3.37989 16.6113C4.66456 17.8874 6.7488 18.6326 10.0036 18.6355C13.2407 18.6355 15.3198 17.9094 16.6052 16.6433C17.8859 15.3817 18.6407 13.3261 18.6365 10.063L18.6258 9.46911C18.5302 6.56233 17.7794 4.64108 16.5608 3.41974C15.2624 2.1184 13.1853 1.36364 10.0036 1.36364Z" fill="white"/>
</g>
</svg>
