<svg viewBox="0 0 20.0001 20" fill="none" xmlns="http://www.w3.org/2000/svg">
<g id="Subtract">
<path d="M10.2218 10.3438C11.1786 10.3438 11.7451 10.7872 11.7452 11.5439C11.7452 12.3356 11.1442 12.71 9.86533 12.71H8.57822V10.3438H10.2218Z" fill="currentColor"/>
<path d="M10.0919 7.14258C10.892 7.14262 11.3876 7.54214 11.3878 8.19434C11.3878 8.89902 10.8137 9.29102 9.77842 9.29102H8.57822V7.14258H10.0919Z" fill="currentColor"/>
<path fill-rule="evenodd" clip-rule="evenodd" d="M10.004 0C16.7516 5.03232e-05 19.9834 3.19838 20.0001 10.0605C20.0093 16.9539 16.822 20 10.004 20C3.136 19.9944 -0.0201966 16.8613 9.72217e-05 10.0605C0.0149475 3.13366 3.17856 9.11923e-05 10.004 0ZM7.92588 5.99414C7.32559 5.99414 6.98545 6.33339 6.98545 6.94238V12.9365C6.98557 13.5366 7.3257 13.8848 7.92588 13.8848H10.5177C12.2576 13.8848 13.3975 13.0145 13.3976 11.6748C13.3976 10.6135 12.6932 9.87365 11.5362 9.73438V9.67383C12.4148 9.48235 12.963 8.80358 12.963 7.94238C12.9629 6.75937 12.0059 5.99428 10.5011 5.99414H7.92588Z" fill="currentColor"/>
</g>
</svg>
