<svg viewBox="0 0 20.0001 20" fill="none" xmlns="http://www.w3.org/2000/svg">
<g id="Union">
<path fill-rule="evenodd" clip-rule="evenodd" d="M10.5011 5.99414C12.0059 5.99428 12.9629 6.75937 12.963 7.94238C12.963 8.80358 12.4148 9.48235 11.5362 9.67383V9.73438C12.6932 9.87365 13.3976 10.6135 13.3976 11.6748C13.3975 13.0145 12.2576 13.8848 10.5177 13.8848H7.92588C7.3257 13.8848 6.98557 13.5366 6.98545 12.9365V6.94238C6.98545 6.33339 7.32559 5.99414 7.92588 5.99414H10.5011ZM8.57822 10.3438V12.71H9.86533C11.1442 12.71 11.7452 12.3356 11.7452 11.5439C11.7451 10.7872 11.1786 10.3438 10.2218 10.3438H8.57822ZM8.57822 7.14258V9.29102H9.77842C10.8137 9.29102 11.3878 8.89902 11.3878 8.19434C11.3876 7.54214 10.892 7.14262 10.0919 7.14258H8.57822Z" fill="currentColor"/>
<path fill-rule="evenodd" clip-rule="evenodd" d="M10.004 0C16.7516 5.03232e-05 19.9834 3.19838 20.0001 10.0605C20.0093 16.9539 16.822 20 10.004 20C3.136 19.9944 -0.0201966 16.8613 9.72217e-05 10.0605C0.0149475 3.13366 3.17856 9.11957e-05 10.004 0ZM10.004 1.36328C6.77273 1.36333 4.69879 2.10749 3.41318 3.39551C2.12648 4.68501 1.3714 6.77891 1.36436 10.0635C1.35477 13.2786 2.09822 15.3379 3.37998 16.6113C4.66465 17.8874 6.74915 18.6329 10.004 18.6357C13.2409 18.6357 15.3202 17.9096 16.6056 16.6436C17.8862 15.382 18.641 13.3263 18.6368 10.0635L18.6261 9.46875C18.5304 6.56217 17.7792 4.64121 16.5606 3.41992C15.2622 2.11866 13.1855 1.36331 10.004 1.36328Z" fill="currentColor"/>
</g>
</svg>
