<svg viewBox="0 0 20.1045 20.1045" fill="none" xmlns="http://www.w3.org/2000/svg">
<path id="Icon" fill-rule="evenodd" clip-rule="evenodd" d="M10.0527 0C12.828 0.000110628 15.342 1.12642 17.1602 2.94434C18.9784 4.76254 20.1044 7.27723 20.1045 10.0527C20.1044 12.8282 18.9784 15.342 17.1602 17.1602C15.342 18.9784 12.8282 20.1044 10.0527 20.1045C7.27723 20.1044 4.76254 18.9784 2.94434 17.1602C1.12642 15.342 0.000110627 12.828 0 10.0527C0.000110544 7.27723 1.12613 4.76254 2.94434 2.94434C4.76254 1.12613 7.27723 0.000110544 10.0527 0ZM16.165 3.94141C15.8722 3.64856 15.3974 3.64866 15.1045 3.94141L12.6755 6.36885C12.42 6.62413 12.2923 6.75176 12.1479 6.78265C12.0035 6.81353 11.7938 6.7337 11.3744 6.57405C10.9637 6.41773 10.5183 6.33203 10.0527 6.33203C9.58702 6.33203 9.14137 6.41761 8.73054 6.57389C8.31079 6.73356 8.10092 6.81339 7.9565 6.78246C7.81208 6.75154 7.68435 6.6238 7.42889 6.36834L5.00195 3.94141C4.70906 3.64851 4.2343 3.64851 3.94141 3.94141C3.64851 4.2343 3.64851 4.70906 3.94141 5.00195L6.36834 7.42889C6.6238 7.68435 6.75154 7.81208 6.78246 7.9565C6.81339 8.10092 6.73356 8.31079 6.57389 8.73054C6.41761 9.14137 6.33203 9.58702 6.33203 10.0527C6.33203 10.5185 6.41763 10.9642 6.57394 11.3751C6.73359 11.7947 6.81342 12.0046 6.78251 12.149C6.75161 12.2934 6.62391 12.4211 6.36853 12.6766L3.94141 15.1045C3.64866 15.3974 3.64856 15.8722 3.94141 16.165C4.23429 16.4574 4.70921 16.4576 5.00195 16.165L7.42889 13.7373C7.68434 13.4818 7.81207 13.354 7.95651 13.3231C8.10094 13.2921 8.31085 13.372 8.73066 13.5316C9.14146 13.6879 9.58707 13.7734 10.0527 13.7734C10.5183 13.7734 10.9636 13.6875 11.3742 13.5309C11.7935 13.371 12.0032 13.2911 12.1478 13.322C12.2923 13.3528 12.4201 13.4806 12.6756 13.7361L15.1045 16.165C15.3974 16.4573 15.8724 16.4577 16.165 16.165C16.4577 15.8724 16.4573 15.3974 16.165 15.1045L13.7361 12.6756C13.4806 12.4201 13.3528 12.2923 13.322 12.1478C13.2911 12.0032 13.371 11.7935 13.5309 11.3742C13.6875 10.9636 13.7734 10.5183 13.7734 10.0527C13.7734 9.58707 13.6879 9.14146 13.5316 8.73066C13.372 8.31085 13.2921 8.10094 13.3231 7.95651C13.354 7.81207 13.4818 7.68434 13.7373 7.42889L16.165 5.00195C16.4576 4.70921 16.4574 4.23429 16.165 3.94141Z" fill="currentColor"/>
</svg>
