<svg viewBox="0 0 20.1045 20.1045" fill="none" xmlns="http://www.w3.org/2000/svg">
<path id="Icon" fill-rule="evenodd" clip-rule="evenodd" d="M10.0527 0C12.828 0.000110628 15.342 1.12642 17.1602 2.94434C18.9784 4.76254 20.1044 7.27723 20.1045 10.0527C20.1044 12.8282 18.9784 15.342 17.1602 17.1602C15.342 18.9784 12.8282 20.1044 10.0527 20.1045C7.27723 20.1044 4.76254 18.9784 2.94434 17.1602C1.12642 15.342 0.000110627 12.828 0 10.0527C0.000110544 7.27723 1.12613 4.76254 2.94434 2.94434C4.76254 1.12613 7.27723 0.000110544 10.0527 0ZM12.6377 13.6982C11.9077 14.2168 11.0164 14.5234 10.0527 14.5234C9.08861 14.5234 8.19605 14.2173 7.46582 13.6982L4.55859 16.6055C6.04504 17.8531 7.96069 18.6044 10.0527 18.6045C12.1444 18.6044 14.0586 17.8528 15.5449 16.6055L12.6377 13.6982ZM3.49805 4.55859C2.25069 6.04496 1.5001 7.96095 1.5 10.0527C1.5001 12.144 2.25124 14.0587 3.49805 15.5449L6.40625 12.6367C5.88806 11.9069 5.58208 11.016 5.58203 10.0527C5.58208 9.08902 5.88759 8.19685 6.40625 7.4668L3.49805 4.55859ZM13.6982 7.46582C14.2173 8.19605 14.5234 9.08861 14.5234 10.0527C14.5234 11.0164 14.2168 11.9077 13.6982 12.6377L16.6055 15.5449C17.8528 14.0586 18.6044 12.1444 18.6045 10.0527C18.6044 7.96069 17.8531 6.04504 16.6055 4.55859L13.6982 7.46582ZM10.0527 7.08203C8.41211 7.08215 7.08215 8.41211 7.08203 10.0527C7.08215 11.6934 8.41211 13.0233 10.0527 13.0234C11.6934 13.0233 13.0233 11.6934 13.0234 10.0527C13.0233 8.41211 11.6934 7.08215 10.0527 7.08203ZM10.0527 1.5C7.96095 1.5001 6.04496 2.25069 4.55859 3.49805L7.4668 6.40625C8.19685 5.88759 9.08902 5.58208 10.0527 5.58203C11.016 5.58208 11.9069 5.88806 12.6367 6.40625L15.5449 3.49805C14.0587 2.25124 12.144 1.5001 10.0527 1.5Z" fill="currentColor"/>
</svg>
