<svg viewBox="0 0 18.9324 18.9324" fill="none" xmlns="http://www.w3.org/2000/svg">
<path id="Vector" d="M1.70079 17.2323C0.612154 16.1436 -8.42937e-08 14.6666 0 13.1271C1.68587e-07 11.5875 0.612154 10.1105 1.70079 9.02183L3.52794 7.19467C3.87941 6.84321 4.44981 6.8432 4.80128 7.19467C5.15275 7.54614 5.15275 8.11655 4.80128 8.46802L2.97413 10.2952C2.22306 11.0462 1.80091 12.0649 1.80091 13.1271C1.80091 14.1892 2.22306 15.2079 2.97413 15.9589C3.72513 16.7098 4.74334 17.1314 5.80532 17.1315C6.86749 17.1315 7.88682 16.71 8.63789 15.9589L10.465 14.1318C10.8165 13.7804 11.3862 13.7798 11.7377 14.1311C12.0892 14.4826 12.0892 15.053 11.7377 15.4044L9.91054 17.2316C8.82191 18.3202 7.34488 18.9324 5.80532 18.9324C4.26595 18.9323 2.78935 18.3207 1.70079 17.2323ZM15.9596 2.97344C15.5877 2.60155 15.1459 2.30601 14.66 2.10475C14.1743 1.90355 13.6535 1.80026 13.1277 1.80022C12.6018 1.80022 12.0807 1.90417 11.5948 2.10544C11.109 2.30669 10.6677 2.60162 10.2959 2.97344L8.46871 4.80059C8.11724 5.15206 7.54684 5.15206 7.19536 4.80059C6.84389 4.44912 6.84389 3.87872 7.19536 3.52725L9.02252 1.70009C9.56154 1.16108 10.202 0.733659 10.9063 0.441942C11.6104 0.150349 12.365 5.15877e-05 13.1271 0C13.8894 9.69378e-07 14.6449 0.150217 15.3492 0.441942C16.0534 0.733663 16.6933 1.16181 17.2323 1.70079C17.7711 2.23966 18.1988 2.87918 18.4904 3.58318C18.7822 4.28746 18.9324 5.04301 18.9324 5.80532C18.9323 6.56742 18.782 7.32197 18.4904 8.02608C18.1987 8.73034 17.7713 9.37083 17.2323 9.90985L15.4051 11.737C15.0537 12.0885 14.4832 12.0885 14.1318 11.737C13.7805 11.3855 13.7811 10.8158 14.1325 10.4644L15.9596 8.6372C16.3315 8.26535 16.6257 7.82345 16.8269 7.33761C17.0282 6.85172 17.1321 6.33056 17.1321 5.80463C17.1321 5.27886 17.0288 4.75809 16.8276 4.27233C16.6264 3.78658 16.3314 3.34525 15.9596 2.97344ZM12.4966 5.16312C12.8481 4.81182 13.4178 4.8124 13.7692 5.16381C14.1204 5.51525 14.1205 6.08438 13.7692 6.43578L6.43647 13.7686C6.08508 14.1199 5.51531 14.1205 5.16381 13.7692C4.81234 13.4178 4.81234 12.8474 5.16381 12.4959L12.4966 5.16312Z" fill="currentColor"/>
</svg>
