<svg viewBox="0 0 16.4258 20.9375" fill="none" xmlns="http://www.w3.org/2000/svg">
<path id="Vector" d="M4.39453 5.51758C4.0332 5.51758 3.76953 5.23438 3.76953 4.88281C3.76953 4.54102 4.0332 4.27734 4.39453 4.27734H12.041C12.3926 4.27734 12.6562 4.54102 12.6562 4.88281C12.6562 5.23438 12.3926 5.51758 12.041 5.51758H4.39453ZM4.39453 9.0332C4.0332 9.0332 3.76953 8.75 3.76953 8.39844C3.76953 8.05664 4.0332 7.79297 4.39453 7.79297H12.041C12.3926 7.79297 12.6562 8.05664 12.6562 8.39844C12.6562 8.75 12.3926 9.0332 12.041 9.0332H4.39453ZM4.39453 12.5488C4.0332 12.5488 3.76953 12.2754 3.76953 11.9336C3.76953 11.582 4.0332 11.3086 4.39453 11.3086H8.00781C8.37891 11.3086 8.63281 11.582 8.63281 11.9336C8.63281 12.2754 8.37891 12.5488 8.00781 12.5488H4.39453ZM0 17.8809C0 19.9219 1.00586 20.9375 3.02734 20.9375H13.3984C15.4199 20.9375 16.4258 19.9219 16.4258 17.8809V3.06641C16.4258 1.03516 15.4199 0 13.3984 0H3.02734C1.00586 0 0 1.03516 0 3.06641V17.8809Z" fill="currentColor"/>
</svg>
