<svg viewBox="0 0 21.3457 21.5454" fill="none" xmlns="http://www.w3.org/2000/svg">
<g id="Vector">
<path d="M4.19824 8.96235C4.74537 8.96243 5.18931 9.40547 5.18945 9.95259V14.8588C5.18964 14.969 5.27851 15.0579 5.38867 15.0581H5.63086C6.05186 15.0581 6.39354 15.3998 6.39355 15.8208C6.39355 16.2418 6.05187 16.5834 5.63086 16.5834H4.20703C3.65492 16.5834 3.20722 16.1355 3.20703 15.5834V9.95259C3.20717 9.40542 3.65105 8.96235 4.19824 8.96235Z" fill="currentColor"/>
<path d="M7.86914 8.96235C8.41634 8.96235 8.86021 9.40542 8.86035 9.95259V15.5922C8.8603 16.1395 8.41639 16.5834 7.86914 16.5834C7.32196 16.5834 6.87798 16.1394 6.87793 15.5922V9.95259C6.87807 9.40548 7.32202 8.96244 7.86914 8.96235Z" fill="currentColor"/>
<path d="M10.4023 8.96235C10.9104 8.96235 11.3377 9.34313 11.3936 9.84809C11.5422 11.1928 11.6604 12.3919 11.7471 13.4448C11.7534 13.5188 11.8675 13.518 11.873 13.4438C11.9578 12.3169 12.0459 11.2952 12.1367 10.3793L12.1865 9.86567C12.2361 9.35311 12.6667 8.9624 13.1816 8.96235H13.2227C13.8269 8.96247 14.2931 9.49415 14.2139 10.0932L13.5547 15.0786C13.4409 15.9393 12.7071 16.5833 11.8389 16.5834C10.9821 16.5834 10.2541 15.9561 10.127 15.1088L9.37695 10.1108C9.28624 9.50629 9.75403 8.96258 10.3652 8.96235H10.4023Z" fill="currentColor"/>
<path d="M17.2441 8.96235C17.6654 8.96235 18.0068 9.30378 18.0068 9.72505C18.0066 10.1461 17.6653 10.4877 17.2441 10.4877H16.8838C16.7735 10.4878 16.6838 10.5767 16.6836 10.687V11.7329C16.6836 11.8433 16.7734 11.933 16.8838 11.9331H17.1973C17.5974 11.9331 17.9219 12.2575 17.9219 12.6577C17.9218 13.0578 17.5974 13.3823 17.1973 13.3823H16.8838C16.7734 13.3823 16.6836 13.472 16.6836 13.5825V14.8588C16.6838 14.9691 16.7735 15.058 16.8838 15.0581H17.376C17.797 15.0581 18.1387 15.3998 18.1387 15.8208C18.1387 16.2418 17.797 16.5834 17.376 16.5834H15.7031C15.151 16.5834 14.7033 16.1356 14.7031 15.5834V9.96235C14.7031 9.41007 15.1508 8.96235 15.7031 8.96235H17.2441Z" fill="currentColor"/>
<path fill-rule="evenodd" clip-rule="evenodd" d="M13.4063 0.238719C13.7341 -0.0714083 14.2393 -0.077794 14.5742 0.210398L14.6387 0.271922L14.6973 0.339305C14.9672 0.689324 14.9335 1.19444 14.6055 1.50532L12.5889 3.4145C14.3055 3.41508 15.2039 3.42522 15.9531 3.602C18.5341 4.21106 20.5492 6.22613 21.1582 8.80708C21.3452 9.59994 21.3457 10.5602 21.3457 12.4799L21.3428 13.7524C21.334 14.8694 21.2985 15.5581 21.1582 16.1528C20.5491 18.7336 18.534 20.7488 15.9531 21.3579C15.3585 21.4982 14.6698 21.5337 13.5527 21.5424L12.2803 21.5454H9.06543L7.79297 21.5424C6.8621 21.5351 6.22861 21.5099 5.69922 21.4204L5.39258 21.3579C2.89227 20.7678 0.922402 18.8583 0.248047 16.393L0.1875 16.1528C0.0471904 15.5581 0.0117051 14.8694 0.00292969 13.7524L5.0541e-09 12.4799C5.0541e-09 10.8002 -0.00027144 9.85487 0.125 9.11372L0.1875 8.80708C0.777531 6.30668 2.68695 4.33683 5.15234 3.66255L5.39258 3.602C5.98726 3.46169 6.67584 3.4262 7.79297 3.41743L8.75391 3.4145L6.81738 1.57954C6.46824 1.24815 6.45399 0.696667 6.78418 0.347117L6.84863 0.285594C7.18338 -0.00293276 7.6893 0.00237512 8.01758 0.312937L10.6719 2.82759L13.4063 0.238719ZM9.06543 4.9145C7.06059 4.9145 6.31745 4.92513 5.7373 5.06196C3.70943 5.54051 2.12599 7.12392 1.64746 9.1518C1.51069 9.73191 1.5 10.4754 1.5 12.4799C1.5 14.4846 1.51062 15.2279 1.64746 15.8081C2.12607 17.8358 3.70949 19.4194 5.7373 19.8979C6.31744 20.0347 7.06069 20.0454 9.06543 20.0454H12.2803C14.285 20.0454 15.0283 20.0347 15.6084 19.8979C17.6362 19.4194 19.2196 17.8358 19.6982 15.8081C19.8351 15.2279 19.8457 14.4846 19.8457 12.4799C19.8457 10.4754 19.835 9.73191 19.6982 9.1518C19.2197 7.12392 17.6363 5.54051 15.6084 5.06196C15.0283 4.92513 14.2851 4.9145 12.2803 4.9145H9.06543Z" fill="currentColor"/>
</g>
</svg>
