<svg viewBox="0 0 21.3457 21.5444" fill="none" xmlns="http://www.w3.org/2000/svg">
<path id="Vector" fill-rule="evenodd" clip-rule="evenodd" d="M13.4062 0.238719C13.7341 -0.0714083 14.2393 -0.077794 14.5742 0.210398L14.6387 0.271922L14.6973 0.339305C14.9672 0.689324 14.9335 1.19444 14.6055 1.50532L12.5898 3.41352C14.3057 3.41411 15.204 3.42431 15.9531 3.60102C18.5339 4.21003 20.549 6.22538 21.1582 8.8061C21.3453 9.59896 21.3457 10.5593 21.3457 12.479C21.3457 14.3988 21.3453 15.3599 21.1582 16.1528C20.549 18.7335 18.5339 20.7488 15.9531 21.3579C15.1602 21.5449 14.2001 21.5444 12.2803 21.5444H9.06543C7.1456 21.5444 6.18547 21.5449 5.39258 21.3579C2.8118 20.7488 0.796672 18.7335 0.1875 16.1528C0.000448555 15.3599 0 14.3988 0 12.479C4.0333e-08 10.5593 0.00040634 9.59896 0.1875 8.8061C0.796688 6.22538 2.81178 4.21003 5.39258 3.60102C6.14123 3.42442 7.039 3.41412 8.75293 3.41352L6.81738 1.57954C6.46824 1.24815 6.45399 0.696667 6.78418 0.347117L6.84863 0.285594C7.18338 -0.00293276 7.6893 0.00237512 8.01758 0.312937L10.6719 2.82759L13.4062 0.238719ZM4.19824 8.96138C3.65105 8.96138 3.20718 9.40543 3.20703 9.95259V15.5825C3.20703 16.1347 3.6548 16.5824 4.20703 16.5825H5.63086C6.05178 16.5825 6.39342 16.2416 6.39355 15.8208C6.3934 15.3999 6.05177 15.0581 5.63086 15.0581H5.38867C5.27839 15.0579 5.18945 14.9682 5.18945 14.8579V9.95259C5.1893 9.40548 4.74537 8.96145 4.19824 8.96138ZM7.86914 8.96138C7.32202 8.96146 6.87808 9.40548 6.87793 9.95259V15.5922C6.87813 16.1393 7.32205 16.5824 7.86914 16.5825C8.4163 16.5825 8.86015 16.1393 8.86035 15.5922V9.95259C8.8602 9.40543 8.41633 8.96138 7.86914 8.96138ZM10.3652 8.96138C9.75418 8.96161 9.28654 9.5055 9.37695 10.1098L10.127 15.1088C10.2542 15.9561 10.9821 16.5825 11.8389 16.5825C12.7071 16.5824 13.4409 15.9393 13.5547 15.0786L14.2139 10.0922C14.2926 9.49346 13.8267 8.96149 13.2227 8.96138H13.1816C12.6668 8.96142 12.2362 9.35325 12.1865 9.86567L12.1367 10.3784C12.0459 11.2944 11.9578 12.3167 11.873 13.4438C11.8675 13.5181 11.7532 13.5181 11.7471 13.4438C11.6604 12.3912 11.5422 11.1924 11.3936 9.84809C11.3376 9.34326 10.9103 8.96138 10.4023 8.96138H10.3652ZM15.7031 8.96138C15.151 8.96138 14.7034 9.40933 14.7031 9.96138V15.5825C14.7031 16.1348 15.1508 16.5825 15.7031 16.5825H17.376C17.7969 16.5825 18.1385 16.2416 18.1387 15.8208C18.1385 15.3999 17.7969 15.0581 17.376 15.0581H16.8838C16.7734 15.058 16.6836 14.9683 16.6836 14.8579V13.5815C16.6839 13.4713 16.7736 13.3813 16.8838 13.3813H17.1973C17.5973 13.3813 17.9216 13.0576 17.9219 12.6577C17.9217 12.2576 17.5973 11.9331 17.1973 11.9331H16.8838C16.7734 11.933 16.6837 11.8432 16.6836 11.7329V10.687C16.6838 10.5767 16.7735 10.4868 16.8838 10.4868H17.2441C17.6654 10.4868 18.0068 10.1453 18.0068 9.72407C18.0065 9.30308 17.6652 8.96138 17.2441 8.96138H15.7031Z" fill="currentColor"/>
</svg>
