<svg viewBox="0 0 18.2499 18.2499" fill="none" xmlns="http://www.w3.org/2000/svg">
<path id="Vector" fill-rule="evenodd" clip-rule="evenodd" d="M7.5 0C11.6421 0 15 3.35786 15 7.5C15 9.11967 14.4843 10.6178 13.6113 11.8438L17.8838 16.1162C18.3719 16.6043 18.3719 17.3956 17.8838 17.8838C17.3956 18.3719 16.6044 18.3719 16.1162 17.8838L11.8438 13.6113C10.6178 14.4843 9.11967 15 7.5 15C3.35786 15 0 11.6421 0 7.5C0 3.35786 3.35786 0 7.5 0ZM7.5 2C4.46243 2 2 4.46243 2 7.5C2 10.5376 4.46243 13 7.5 13C10.5376 13 13 10.5376 13 7.5C13 4.46243 10.5376 2 7.5 2Z" fill="currentColor"/>
</svg>
