<svg viewBox="0 0 20 19.3333" fill="none" xmlns="http://www.w3.org/2000/svg">
<path id="Rectangle 74" d="M0 2.16216C0 0.968035 0.968033 0 2.16216 0H17.8378C19.032 0 20 0.968033 20 2.16216V2.72163C20 3.54312 19.6883 4.334 19.1277 4.93456L13.5815 10.877C13.2078 11.2773 13 11.8046 13 12.3522V16.3319C13 16.7413 12.7686 17.1157 12.4024 17.2988L8.56455 19.2177C7.84574 19.5771 7 19.0544 7 18.2508V12.3522C7 11.8046 6.79218 11.2773 6.4185 10.877L0.872252 4.93456C0.311735 4.334 0 3.54312 0 2.72163V2.16216Z" fill="currentColor"/>
</svg>
