<svg viewBox="0 0 20 19.3843" fill="none" xmlns="http://www.w3.org/2000/svg">
<g id="Filter">
<path id="Rectangle 74 (Stroke)" d="M12.0254 15.8574V12.1758C12.0254 11.4793 12.2895 10.809 12.7646 10.2998L17.8945 4.80273C18.2834 4.38612 18.5 3.83746 18.5 3.26758V2.75C18.5 2.05964 17.9404 1.5 17.25 1.5H2.75C2.05965 1.5 1.5 2.05964 1.5 2.75V3.26758C1.50002 3.83746 1.71663 4.38612 2.10547 4.80273L7.23535 10.2998C7.71052 10.809 7.9746 11.4793 7.97461 12.1758V17.6318C7.97461 17.8177 8.17069 17.9386 8.33691 17.8555L11.8867 16.0811C11.9713 16.0388 12.0252 15.9519 12.0254 15.8574ZM20 3.26758C20 4.2174 19.6393 5.1318 18.9912 5.82617L13.8613 11.3232C13.6454 11.5547 13.5254 11.8592 13.5254 12.1758V15.8574C13.5252 16.52 13.1503 17.1255 12.5576 17.4219L9.00781 19.1973C7.84423 19.7791 6.47461 18.9328 6.47461 17.6318V12.1758C6.4746 11.8592 6.35464 11.5547 6.13867 11.3232L1.00879 5.82617C0.360707 5.1318 1.71294e-05 4.2174 0 3.26758V2.75C7.73119e-07 1.23122 1.23122 0 2.75 0H17.25C18.7688 0 20 1.23122 20 2.75V3.26758Z" fill="currentColor"/>
</g>
</svg>
