<svg viewBox="0 0 18.5098 21.5274" fill="none" xmlns="http://www.w3.org/2000/svg">
<path id="Union" fill-rule="evenodd" clip-rule="evenodd" d="M9.08887 0.469819C9.79431 -0.0380245 10.7139 -0.131172 11.626 0.175874L11.627 0.174897L16.0469 1.6456L16.0488 1.64658C16.7584 1.88532 17.3666 2.38831 17.7939 2.97861C18.2211 3.5688 18.5097 4.30437 18.5098 5.05673V6.22665C18.5098 7.1877 18.1331 8.03007 17.4277 8.53915C16.7227 9.04798 15.8053 9.14035 14.8945 8.83896L10.4727 7.36826H10.4707C10.1188 7.24983 9.79225 7.06593 9.5 6.83896V16.7774L9.49414 17.0216C9.36691 19.5313 7.29136 21.5274 4.75 21.5274C2.12676 21.5274 0.000181413 19.4006 0 16.7774C0 14.1541 2.12665 12.0274 4.75 12.0274C6.0076 12.0274 7.15027 12.5167 8 13.3145V2.77744C8 2.73223 8.00405 2.68763 8.01172 2.64462C8.04077 1.7415 8.41633 0.954198 9.08887 0.469819ZM4.75 13.5274C2.95507 13.5274 1.5 14.9825 1.5 16.7774C1.50018 18.5722 2.95519 20.0274 4.75 20.0274C6.54481 20.0274 7.99982 18.5722 8 16.7774C8 14.9825 6.54493 13.5274 4.75 13.5274ZM11.1494 1.59775C10.6133 1.41673 10.2143 1.50792 9.96582 1.68662C9.71767 1.86532 9.50624 2.21265 9.50977 2.77158V3.95712C9.50981 4.3344 9.66134 4.7693 9.94141 5.15634C10.2208 5.54219 10.587 5.82368 10.9463 5.9454L15.3662 7.41513C15.9052 7.59355 16.3025 7.50083 16.5498 7.32236C16.7969 7.1439 17.0098 6.79545 17.0098 6.22665V5.05673C17.0097 4.67942 16.8583 4.24455 16.5781 3.85751C16.2987 3.47168 15.9325 3.19007 15.5732 3.06845L11.1533 1.59873L11.1494 1.59775Z" fill="currentColor"/>
</svg>
