<svg viewBox="0 0 18.5 21.5261" fill="none" xmlns="http://www.w3.org/2000/svg">
<path id="Vector" d="M18.5 5.05613V6.22613C18.5 7.20613 18.11 8.04613 17.42 8.53613C16.99 8.85613 16.46 9.00613 15.91 9.00613C15.57 9.00613 15.23 8.95613 14.88 8.83613L9.5 7.04613V16.7761C9.5 19.3961 7.37 21.5261 4.75 21.5261C2.13 21.5261 0 19.3961 0 16.7761C0 14.1561 2.13 12.0261 4.75 12.0261C6.01 12.0261 7.15 12.5261 8 13.3261V2.77613C8 1.80613 8.4 0.966134 9.09 0.466134C9.78 -0.0238664 10.7 -0.133867 11.62 0.166134L16.04 1.64613C17.4 2.09613 18.5 3.62613 18.5 5.05613Z" fill="currentColor"/>
</svg>
