<svg viewBox="0 0 22.3735 22.5" fill="none" xmlns="http://www.w3.org/2000/svg">
<g id="Union">
<path d="M10.3584 3.63674C8.83227 5.04165 9.30546 8.00345 11.7783 8.4424C12.2906 8.53789 12.7635 8.78188 13.1387 9.14358L7.17969 10.8399V18.9092C7.17969 20.8892 5.55984 22.5 3.58984 22.5C1.60992 22.4999 0 20.8892 0 18.9092C0.000241196 16.9395 1.61006 15.3292 3.58984 15.3291C4.41983 15.3291 5.17028 15.6199 5.78027 16.0899V7.25002C5.78029 5.78004 6.67009 4.63978 8.08008 4.25979L10.3584 3.63674Z" fill="currentColor"/>
<path d="M17.7803 16.9795C17.7803 18.9594 16.1702 20.5691 14.1904 20.5694C12.2204 20.5694 10.5996 18.9595 10.5996 16.9795C10.5997 15.0096 12.2205 13.3994 14.1904 13.3994C15.0302 13.3995 15.7798 13.6901 16.3896 14.1699V12.8789C16.8606 12.924 17.3416 12.8562 17.7803 12.6748V16.9795Z" fill="currentColor"/>
<path d="M15.3975 1.0303C15.6931 -0.338244 17.6302 -0.345666 17.9365 1.02151L17.9746 1.19729C18.1512 2.00535 18.5626 2.74351 19.1572 3.31838C19.7518 3.89318 20.503 4.27961 21.3164 4.42873C22.7258 4.67861 22.7258 6.71498 21.3164 6.96487C20.5034 7.11427 19.7525 7.5005 19.1582 8.07522C18.5639 8.65009 18.1521 9.38843 17.9756 10.1963L17.9365 10.374C17.8949 10.5586 17.8224 10.7172 17.7295 10.8516C17.7259 10.8569 17.7235 10.863 17.7197 10.8682C17.7229 10.8637 17.7245 10.8581 17.7275 10.8535C17.1313 11.7118 15.6527 11.5438 15.3975 10.3623L15.3662 10.21C15.197 9.39973 14.7897 8.65808 14.1973 8.0801C13.6049 7.50228 12.854 7.11388 12.04 6.96487C10.6322 6.71498 10.6322 4.68154 12.04 4.43166C12.8542 4.28213 13.6051 3.89299 14.1973 3.31448C14.7895 2.73585 15.1957 1.99335 15.3643 1.18264H15.3662L15.3975 1.0303Z" fill="currentColor"/>
</g>
</svg>
