<svg viewBox="0 0 18.3887 20.4756" fill="none" xmlns="http://www.w3.org/2000/svg">
<path id="Vector" fill-rule="evenodd" clip-rule="evenodd" d="M9.19434 0C11.8177 0 13.9443 2.12665 13.9443 4.75V6.72363C16.537 7.66577 18.3887 10.1521 18.3887 13.0703V13.7256C18.3885 17.4533 15.3664 20.4755 11.6387 20.4756H6.75C3.02218 20.4756 0.000166219 17.4534 0 13.7256V13.0703C8.06946e-07 10.1521 1.85167 7.66574 4.44434 6.72363V4.75C4.44434 2.12665 6.57098 0 9.19434 0ZM9.19434 11.6484C8.78022 11.6484 8.4445 11.9844 8.44434 12.3984V14.3965C8.44439 14.8106 8.78016 15.1465 9.19434 15.1465C9.60851 15.1465 9.94428 14.8106 9.94434 14.3965V12.3984C9.94417 11.9844 9.60845 11.6484 9.19434 11.6484ZM9.19434 1.5C7.39941 1.5 5.94434 2.95507 5.94434 4.75V6.37012C6.2086 6.33868 6.47727 6.32031 6.75 6.32031H11.6387C11.9114 6.32032 12.1801 6.33867 12.4443 6.37012V4.75C12.4443 2.95507 10.9893 1.5 9.19434 1.5Z" fill="currentColor"/>
</svg>
