<svg viewBox="0 0 18.3887 20.5" fill="none" xmlns="http://www.w3.org/2000/svg">
<g id="Vector">
<path d="M9.19434 11.6113C9.60855 11.6113 9.94434 11.9471 9.94434 12.3613V14.4727C9.9441 14.8867 9.60841 15.2227 9.19434 15.2227C8.78032 15.2226 8.44457 14.8866 8.44434 14.4727V12.3613C8.44434 11.9472 8.78018 11.6114 9.19434 11.6113Z" fill="white"/>
<path fill-rule="evenodd" clip-rule="evenodd" d="M9.19531 0.00390625C9.75882 0.00401113 10.322 0.0962019 10.8594 0.287109C11.8366 0.634485 12.6815 1.27892 13.2744 2.12988C13.5109 2.46961 13.4274 2.93703 13.0879 3.17383C12.7481 3.41054 12.2808 3.32699 12.0439 2.9873C11.6299 2.39306 11.0398 1.9428 10.3574 1.7002C9.92823 1.5477 9.47524 1.48199 9.02539 1.50391C8.94339 1.50785 8.86166 1.51488 8.78125 1.52441C8.59827 1.54637 8.41611 1.58349 8.2373 1.63477L7.97949 1.71973C7.63707 1.84768 7.31764 2.02866 7.0332 2.25488C6.97094 2.30448 6.91023 2.35648 6.85156 2.41016C6.84299 2.418 6.83466 2.42663 6.82617 2.43457C6.77341 2.48384 6.72149 2.53447 6.67188 2.58691C6.66025 2.59921 6.64818 2.61155 6.63672 2.62402C6.06902 3.24215 5.72266 4.06724 5.72266 4.97266V6.41016C6.0576 6.35902 6.40077 6.33301 6.75 6.33301H11.6387C15.3665 6.33301 18.3885 9.35523 18.3887 13.083V13.75C18.3885 17.4778 15.3665 20.5 11.6387 20.5H6.75C3.02219 20.5 0.000175489 17.4778 0 13.75V13.083C0.000133213 10.2491 1.74728 7.82471 4.22266 6.82422V4.97266C4.22266 3.8179 4.61692 2.75514 5.27734 1.91113C5.28418 1.90164 5.29149 1.89207 5.29883 1.88281C5.31098 1.8675 5.32362 1.85207 5.33594 1.83691C5.35366 1.81514 5.37254 1.79393 5.39062 1.77246C5.42358 1.73328 5.45713 1.69431 5.49121 1.65625C5.59306 1.54259 5.69974 1.43297 5.81152 1.3291C5.81801 1.32306 5.82453 1.31654 5.83105 1.31055C5.91511 1.2333 6.00257 1.15927 6.0918 1.08789C6.11038 1.07306 6.12965 1.05851 6.14844 1.04395C6.23586 0.976059 6.32506 0.909694 6.41699 0.847656C6.43014 0.83881 6.44381 0.830013 6.45703 0.821289C6.5475 0.761508 6.64087 0.705263 6.73535 0.651367C6.74752 0.644453 6.76024 0.637678 6.77246 0.630859C6.87636 0.572773 6.9825 0.517471 7.09082 0.466797C7.09743 0.463738 7.10471 0.461062 7.11133 0.458008C7.55971 0.250758 8.04418 0.108568 8.55273 0.0429688C8.56916 0.0408378 8.5861 0.0390823 8.60254 0.0371094C8.71495 0.0237659 8.82877 0.0125455 8.94336 0.00683594C8.97247 0.00538326 9.00213 0.00584196 9.03125 0.00488281C9.08544 0.00312187 9.1407 0 9.19531 0V0.00390625ZM6.75 7.83301C3.85061 7.83301 1.50018 10.1837 1.5 13.083V13.75C1.50018 16.6493 3.85061 19 6.75 19H11.6387C14.5381 19 16.8885 16.6493 16.8887 13.75V13.083C16.8885 10.1837 14.5381 7.83301 11.6387 7.83301H6.75Z" fill="white"/>
</g>
</svg>
