<svg viewBox="0 0 18.3887 20.9531" fill="none" xmlns="http://www.w3.org/2000/svg">
<path id="Vector" fill-rule="evenodd" clip-rule="evenodd" d="M9.58691 1.29916e-05C10.1681 -3.24421e-06 10.7486 0.0980081 11.3027 0.294935C12.3098 0.652836 13.18 1.31648 13.791 2.19337C14.0277 2.53322 13.9443 3.00152 13.6045 3.23829C13.2646 3.47499 12.7973 3.3906 12.5605 3.05079C12.1285 2.43067 11.5129 1.96116 10.8008 1.70802C10.3527 1.54878 9.87984 1.47999 9.41016 1.50294C9.32773 1.50691 9.24593 1.51407 9.16504 1.52345C8.97309 1.54597 8.78232 1.58428 8.59473 1.63771C8.59059 1.63888 8.58616 1.63946 8.58203 1.64064C8.21819 1.74568 7.87497 1.90639 7.56445 2.11525C7.49328 2.16322 7.4239 2.21385 7.35645 2.26661C7.34882 2.27257 7.34156 2.27915 7.33398 2.28517C7.26816 2.33752 7.20359 2.39154 7.1416 2.44826C7.12957 2.45926 7.11833 2.47126 7.10645 2.48243C7.06083 2.52532 7.01698 2.57007 6.97363 2.61525C6.95534 2.63432 6.93587 2.6524 6.91797 2.67189C6.32553 3.31687 5.96394 4.17729 5.96387 5.12208V6.83204C6.22179 6.80212 6.48405 6.78616 6.75 6.78615H11.6387C15.3666 6.78615 18.3887 9.80822 18.3887 13.5361V14.2031C18.3882 17.9307 15.3663 20.9531 11.6387 20.9531H6.75C3.02248 20.953 0.000472317 17.9306 0 14.2031V13.5361C1.61788e-06 10.6107 1.86107 8.11942 4.46387 7.18263V5.12208C4.46394 3.86059 4.92063 2.70619 5.67676 1.81349C5.70688 1.77789 5.73753 1.74272 5.76855 1.70802C5.78222 1.69275 5.79572 1.67723 5.80957 1.66212C5.91072 1.55169 6.01603 1.44548 6.12598 1.34474C6.14959 1.3231 6.17423 1.30247 6.19824 1.28126C6.22903 1.2541 6.25961 1.2266 6.29102 1.20021C6.32001 1.17582 6.34937 1.1517 6.37891 1.12794C6.40346 1.10822 6.42822 1.08861 6.45312 1.06935C6.62593 0.935534 6.80867 0.814328 6.99805 0.703138C7.03212 0.683172 7.06604 0.662746 7.10059 0.643568C7.14126 0.620936 7.18228 0.598707 7.22363 0.577161C7.2391 0.569121 7.25496 0.56161 7.27051 0.553724C7.71963 0.325542 8.20643 0.161807 8.71973 0.0742317C8.73309 0.0719297 8.74639 0.0686081 8.75977 0.0664192C8.80766 0.0586443 8.85597 0.0523503 8.9043 0.0459114C8.93517 0.0417592 8.96615 0.0377785 8.99707 0.0341927C9.03532 0.0298059 9.0738 0.0260139 9.1123 0.0224739C9.16008 0.0180278 9.20802 0.0148332 9.25586 0.0117317C9.28443 0.00990483 9.3131 0.00722594 9.3418 0.00587237C9.41856 0.0021929 9.49546 0.00023657 9.57227 1.29916e-05C9.57711 -1.63716e-05 9.58207 1.32568e-05 9.58691 1.29916e-05ZM9.31348 12.0264C8.89938 12.0265 8.56348 12.3623 8.56348 12.7764V14.9629C8.56384 15.3767 8.89961 15.7128 9.31348 15.7129C9.72746 15.7129 10.0631 15.3768 10.0635 14.9629V12.7764C10.0635 12.3622 9.72769 12.0264 9.31348 12.0264Z" fill="currentColor"/>
</svg>
