<svg viewBox="0 0 18.3887 20.5" fill="none" xmlns="http://www.w3.org/2000/svg">
<g id="Vector">
<path d="M9.19434 11.6113C9.60855 11.6113 9.94434 11.9471 9.94434 12.3613V14.4727C9.9441 14.8867 9.60841 15.2227 9.19434 15.2227C8.78032 15.2226 8.44457 14.8866 8.44434 14.4727V12.3613C8.44434 11.9472 8.78018 11.6114 9.19434 11.6113Z" fill="white"/>
<path fill-rule="evenodd" clip-rule="evenodd" d="M9.41699 0C12.0401 0.000263867 14.167 2.12681 14.167 4.75V6.82422C16.6419 7.82492 18.3885 10.2494 18.3887 13.083V13.75C18.3885 17.4778 15.3665 20.5 11.6387 20.5H6.75C3.02219 20.5 0.000175489 17.4778 0 13.75V13.083C0.000133213 10.2491 1.74728 7.82471 4.22266 6.82422V4.75C4.22266 2.12665 6.3493 2.57703e-07 8.97266 0H9.41699ZM6.75 7.83301C3.85061 7.83301 1.50018 10.1837 1.5 13.083V13.75C1.50018 16.6493 3.85061 19 6.75 19H11.6387C14.5381 19 16.8885 16.6493 16.8887 13.75V13.083C16.8885 10.1837 14.5381 7.83301 11.6387 7.83301H6.75ZM8.97266 1.5C7.17773 1.5 5.72266 2.95508 5.72266 4.75V6.41016C6.0576 6.35902 6.40077 6.33301 6.75 6.33301H11.6387C11.9883 6.33301 12.3317 6.35988 12.667 6.41113V4.75C12.667 2.95524 11.2117 1.50026 9.41699 1.5H8.97266Z" fill="white"/>
</g>
</svg>
