<svg viewBox="0 0 19.7818 19.7824" fill="none" xmlns="http://www.w3.org/2000/svg">
<path id="Vector" fill-rule="evenodd" clip-rule="evenodd" d="M16.4377 0.0842794C16.999 -0.0186997 17.5445 -0.0545218 18.0481 0.136037C18.7849 0.415093 19.3666 0.997882 19.6457 1.73467C19.8364 2.23845 19.8005 2.7836 19.6975 3.34502C19.5935 3.9116 19.3935 4.62281 19.1467 5.5042L16.6877 14.2884C16.2955 15.6891 15.9882 16.7864 15.6926 17.5814C15.413 18.3331 15.0743 19.0266 14.4944 19.3802C13.6945 19.8675 12.7007 19.9153 11.8586 19.5052C11.2483 19.2076 10.8462 18.5484 10.4973 17.8265C10.1282 17.0627 9.71875 15.9988 9.19651 14.6409L8.46116 12.7278C8.25953 12.2036 8.20084 12.0649 8.12229 11.9544C8.04135 11.8406 7.94116 11.7414 7.82737 11.6605C7.71694 11.582 7.57797 11.5222 7.05393 11.3206L5.14085 10.5853C3.78323 10.0631 2.7189 9.65452 1.9553 9.28545C1.23334 8.93646 0.574957 8.53362 0.277567 7.92315C-0.132451 7.08102 -0.0858275 6.08724 0.40159 5.2874C0.755112 4.70762 1.44882 4.36872 2.20042 4.08916C2.9954 3.79351 4.09354 3.48725 5.49436 3.09502L14.2785 0.635061C15.1596 0.388352 15.8713 0.188285 16.4377 0.0842794ZM17.5168 1.53936C17.4059 1.49749 17.1954 1.47046 16.7082 1.55987C16.2255 1.6485 15.5925 1.82469 14.6828 2.0794L5.89866 4.53936C4.47032 4.93929 3.44506 5.22682 2.72288 5.49541C1.95806 5.77993 1.73928 5.97607 1.68284 6.06865C1.46139 6.4321 1.44001 6.88323 1.6262 7.26592C1.67367 7.3634 1.87365 7.57958 2.60862 7.93487C3.30233 8.27013 4.29571 8.65248 5.67991 9.18487L7.593 9.92119C7.92321 10.0482 8.19894 10.1522 8.44065 10.2815L10.9485 7.77471C11.2414 7.4819 11.7161 7.48185 12.009 7.77471C12.3014 8.06761 12.3017 8.54251 12.009 8.83526L9.5012 11.3421C9.63072 11.5839 9.73454 11.8595 9.86155 12.1897L10.5969 14.1019C11.1294 15.4864 11.5126 16.4803 11.8479 17.1741C12.2027 17.9081 12.4182 18.1087 12.5158 18.1565C12.8985 18.3429 13.3506 18.3213 13.7141 18.0999C13.8068 18.0432 14.0019 17.8235 14.2864 17.0589C14.555 16.3366 14.8434 15.3117 15.2434 13.8831L17.7024 5.0999C17.9571 4.19017 18.1333 3.55728 18.2219 3.07451C18.3113 2.58744 18.2852 2.37685 18.2434 2.26592C18.1165 1.9311 17.8517 1.6662 17.5168 1.53936Z" fill="currentColor"/>
</svg>
