<svg viewBox="0 0 16.3838 20.1045" fill="none" xmlns="http://www.w3.org/2000/svg">
<g id="Icon">
<path fill-rule="evenodd" clip-rule="evenodd" d="M7.98539 4.28933e-05C8.53292 4.28933e-05 8.94574 0.00248267 9.30278 0.0234804V2.3311C9.30278 3.25256 9.30139 4.01985 9.38286 4.62602C9.46725 5.25374 9.65308 5.82097 10.1084 6.27641C10.5638 6.73159 11.1303 6.91758 11.7579 7.002C12.3641 7.0835 13.1312 7.0811 14.0528 7.0811H16.3565C16.3836 7.52161 16.3838 8.03217 16.3838 8.69047V11.9131C16.3838 13.0403 16.3844 13.9229 16.337 14.6348C16.2891 15.3533 16.1896 15.9523 15.9659 16.5069C15.3815 17.9547 14.233 19.1023 12.7852 19.6866C12.2307 19.9103 11.6324 20.0098 10.9141 20.0577C10.2021 20.1051 9.3188 20.1045 8.19145 20.1045C7.06431 20.1045 6.18164 20.1051 5.46977 20.0577C4.75159 20.0098 4.15312 19.9103 3.59868 19.6866C2.15107 19.1022 1.00232 17.9545 0.418012 16.5069C0.194311 15.9523 0.0948022 15.3532 0.0469179 14.6348C-0.000511829 13.9229 4.2825e-05 13.0403 4.28933e-05 11.9131V7.98539C4.07187e-05 5.96997 -0.0116065 4.76165 0.350629 3.7725C0.9324 2.18463 2.18463 0.9324 3.7725 0.350629C4.76165 -0.0116067 5.96997 4.07278e-05 7.98539 4.28933e-05ZM5.40141 13.0235C4.98737 13.0236 4.65154 13.3594 4.65141 13.7735C4.65141 14.1876 4.98729 14.5234 5.40141 14.5235H9.12211C9.53633 14.5235 9.87211 14.1877 9.87211 13.7735C9.87199 13.3594 9.53625 13.0235 9.12211 13.0235H5.40141ZM5.40141 9.30278C4.98729 9.30289 4.65141 9.63863 4.65141 10.0528C4.65141 10.4669 4.98729 10.8027 5.40141 10.8028H10.9825C11.3967 10.8028 11.7325 10.467 11.7325 10.0528C11.7325 9.63857 11.3967 9.30278 10.9825 9.30278H5.40141Z" fill="white"/>
<path d="M10.8028 0.319379C11.2996 0.492166 11.7717 0.733417 12.2051 1.03618C12.6324 1.33471 13.007 1.71404 13.6319 2.33891L13.8389 2.54496C14.6613 3.36732 15.1608 3.86057 15.5225 4.44438C15.7443 4.80255 15.9253 5.18412 16.0635 5.5811H14.0528C13.0888 5.5811 12.4411 5.57963 11.9581 5.51469C11.497 5.45269 11.2993 5.34604 11.169 5.21586C11.0387 5.08554 10.9312 4.88712 10.8692 4.42582C10.8043 3.94285 10.8028 3.29469 10.8028 2.3311V0.319379Z" fill="white"/>
</g>
</svg>
