<svg viewBox="0 0 20 17.956" fill="none" xmlns="http://www.w3.org/2000/svg">
<path id="Vector" fill-rule="evenodd" clip-rule="evenodd" d="M19.4617 0.375193C19.0263 0.000348421 18.4193 -0.102771 17.8846 0.107289L0.982628 6.74735C0.342973 6.99864 -0.0546228 7.64136 0.00609788 8.32592C0.0668185 9.01047 0.571337 9.57317 1.24524 9.70795L5.4707 10.553V15.8474C5.4707 16.4739 5.84811 17.0387 6.42691 17.2785C7.00572 17.5182 7.67196 17.3857 8.11497 16.9427L10.4889 14.5687L13.9873 17.5736C14.3967 17.9313 14.9639 18.0482 15.4816 17.8812C16.0007 17.7139 16.3935 17.2858 16.5158 16.7544L16.5161 16.753L19.9608 1.895C20.0891 1.33504 19.897 0.750041 19.4617 0.375193ZM7.10335 15.6454V11.6608L9.24683 13.5019L7.10335 15.6454ZM18 3C18.3203 2.74554 18.375 2.27752 18.1223 1.95466C17.8695 1.6318 17.4049 1.57635 17.0846 1.83081L7.24911 8.64043C6.92881 8.89489 6.87407 9.3629 7.12685 9.68577C7.37962 10.0086 7.8442 10.0641 8.1645 9.80961L18 3Z" fill="currentColor"/>
</svg>
