<svg viewBox="0 0 16.3838 20.1045" fill="none" xmlns="http://www.w3.org/2000/svg">
<g id="Icon">
<path d="M9.12211 13.0235C9.53625 13.0235 9.87199 13.3594 9.87211 13.7735C9.87211 14.1877 9.53633 14.5235 9.12211 14.5235H5.40141C4.98729 14.5234 4.65141 14.1876 4.65141 13.7735C4.65154 13.3594 4.98737 13.0236 5.40141 13.0235H9.12211Z" fill="white"/>
<path d="M10.9825 9.30278C11.3967 9.30278 11.7325 9.63857 11.7325 10.0528C11.7325 10.467 11.3967 10.8028 10.9825 10.8028H5.40141C4.98729 10.8027 4.65141 10.4669 4.65141 10.0528C4.65141 9.63863 4.98729 9.30289 5.40141 9.30278H10.9825Z" fill="white"/>
<path fill-rule="evenodd" clip-rule="evenodd" d="M7.98539 4.28933e-05C8.86941 4.28933e-05 9.40278 -0.002088 9.91606 0.0889101C10.7385 0.234852 11.5203 0.557841 12.2051 1.03618C12.6324 1.33471 13.007 1.71404 13.6319 2.33891L13.8389 2.54496C14.6613 3.36731 15.1608 3.86058 15.5225 4.44438C15.8497 4.97266 16.0892 5.55142 16.2315 6.15629C16.3887 6.82502 16.3838 7.52729 16.3838 8.69047V11.9131C16.3838 13.0403 16.3844 13.9229 16.337 14.6348C16.2891 15.3533 16.1896 15.9523 15.9659 16.5069C15.3815 17.9547 14.233 19.1023 12.7852 19.6866C12.2307 19.9103 11.6324 20.0098 10.9141 20.0577C10.2021 20.1051 9.3188 20.1045 8.19145 20.1045C7.06431 20.1045 6.18164 20.1051 5.46977 20.0577C4.75159 20.0098 4.15312 19.9103 3.59868 19.6866C2.15107 19.1022 1.00232 17.9545 0.418012 16.5069C0.194315 15.9523 0.0948019 15.3532 0.0469179 14.6348C-0.000510883 13.9229 4.28249e-05 13.0403 4.28931e-05 11.9131V7.98539C4.06639e-05 5.96998 -0.0116057 4.76165 0.350629 3.7725C0.932403 2.18463 2.18463 0.932398 3.7725 0.350629C4.76165 -0.0116067 5.96997 4.07278e-05 7.98539 4.28933e-05ZM7.98539 1.50004C5.83848 1.50004 4.96453 1.51202 4.28813 1.75981C3.11464 2.18982 2.18982 3.11464 1.75981 4.28813C1.51202 4.96453 1.50005 5.83849 1.50004 7.98539V11.9131C1.50004 13.0603 1.50066 13.8847 1.54399 14.5352C1.5869 15.1788 1.6693 15.5999 1.80864 15.9454C2.24044 17.0153 3.08938 17.864 4.15922 18.2959C4.5047 18.4354 4.92576 18.5176 5.56938 18.5606C6.21981 18.6039 7.04431 18.6045 8.19145 18.6045C9.33881 18.6045 10.164 18.6039 10.8145 18.5606C11.4582 18.5177 11.8791 18.4353 12.2247 18.2959C13.2947 17.864 14.1434 17.0154 14.5752 15.9454C14.7146 15.5998 14.797 15.179 14.8399 14.5352C14.8832 13.8847 14.8838 13.0603 14.8838 11.9131V8.69047C14.8838 7.9281 14.8826 7.44699 14.8555 7.08207H13.253C12.7053 7.08207 12.2491 7.0831 11.878 7.05278C11.4983 7.02175 11.1418 6.95395 10.8047 6.78227C10.2875 6.51872 9.86625 6.09826 9.60258 5.5811C9.43078 5.24392 9.36312 4.88666 9.33207 4.50688C9.30176 4.13581 9.30278 3.67943 9.30278 3.13188V1.52446C9.01287 1.50307 8.63186 1.50004 7.98539 1.50004ZM10.8028 3.13188C10.8028 3.70415 10.803 4.08898 10.8272 4.38481C10.8507 4.67168 10.8934 4.80894 10.9395 4.89946C11.0593 5.13454 11.2503 5.32653 11.4854 5.44633C11.5759 5.49239 11.7134 5.53423 12 5.55766C12.2959 5.58183 12.6806 5.58207 13.253 5.58207H14.4395C14.3808 5.46365 14.3169 5.34707 14.2471 5.23442C13.9983 4.83282 13.6491 4.47725 12.7774 3.60551L12.5713 3.39946C11.9091 2.73724 11.6397 2.47105 11.3457 2.26567C11.1727 2.14484 10.9908 2.0387 10.8028 1.94536V3.13188Z" fill="white"/>
</g>
</svg>
