<svg viewBox="0 0 20 17.956" fill="none" xmlns="http://www.w3.org/2000/svg">
<path id="Vector" fill-rule="evenodd" clip-rule="evenodd" d="M17.8846 0.107289C18.2709 -0.0444795 18.695 -0.0327662 19.0648 0.126794C19.0814 0.133666 19.0979 0.141099 19.1141 0.149087C19.2379 0.207713 19.3549 0.283285 19.4617 0.375193C19.897 0.75004 20.0891 1.33504 19.9608 1.895L16.5161 16.753L16.5158 16.7544C16.3935 17.2858 16.0007 17.7139 15.4816 17.8812C14.9639 18.0482 14.3967 17.9313 13.9873 17.5736L10.4889 14.5687L8.11497 16.9427C7.67196 17.3857 7.00572 17.5182 6.42691 17.2785C5.84811 17.0387 5.4707 16.4739 5.4707 15.8474V10.553L1.24524 9.70795C0.571337 9.57317 0.0668185 9.01047 0.00609788 8.32591C-0.0546228 7.64136 0.342973 6.99864 0.982628 6.74735L17.8846 0.107289ZM7.10335 11.6608V15.6454L9.24683 13.5019L7.10335 11.6608ZM1.84459 8.16284L13.754 3.48416L6.09793 9.01351L1.84459 8.16284ZM14.956 16.2534L7.60472 9.9392L18.1928 2.29228L14.956 16.2534Z" fill="currentColor"/>
</svg>
