<svg viewBox="0 0 20 20" fill="none" xmlns="http://www.w3.org/2000/svg">
<g id="Vector">
<path d="M7.79688 6.40039C8.44575 6.40039 8.97155 6.92635 8.97168 7.5752V12.4258C8.97121 13.0743 8.44555 13.6006 7.79688 13.6006C7.14831 13.6005 6.62253 13.0743 6.62207 12.4258V7.5752C6.6222 6.92643 7.14811 6.40052 7.79688 6.40039Z" fill="currentColor"/>
<path d="M12.2031 6.40039C12.852 6.40039 13.3778 6.92635 13.3779 7.5752V12.4258C13.3775 13.0743 12.8518 13.6006 12.2031 13.6006C11.5546 13.6005 11.0288 13.0743 11.0283 12.4258V7.5752C11.0284 6.92643 11.5544 6.40052 12.2031 6.40039Z" fill="currentColor"/>
<path fill-rule="evenodd" clip-rule="evenodd" d="M10 0C15.5228 0 20 4.47715 20 10C20 15.5228 15.5228 20 10 20C4.47715 20 0 15.5228 0 10C0 4.47715 4.47715 0 10 0ZM10 1.5C5.30558 1.5 1.5 5.30558 1.5 10C1.5 14.6944 5.30558 18.5 10 18.5C14.6944 18.5 18.5 14.6944 18.5 10C18.5 5.30558 14.6944 1.5 10 1.5Z" fill="currentColor"/>
</g>
</svg>
