<svg viewBox="0 0 20 20" fill="none" xmlns="http://www.w3.org/2000/svg">
<path id="Vector" fill-rule="evenodd" clip-rule="evenodd" d="M10 0C15.5228 0 20 4.47715 20 10C20 15.5228 15.5228 20 10 20C4.47715 20 0 15.5228 0 10C0 4.47715 4.47715 0 10 0ZM7.79688 6.40039C7.14811 6.40052 6.6222 6.92643 6.62207 7.5752V12.4258C6.62253 13.0743 7.14831 13.6005 7.79688 13.6006C8.44555 13.6006 8.97121 13.0743 8.97168 12.4258V7.5752C8.97155 6.92635 8.44575 6.40039 7.79688 6.40039ZM12.2031 6.40039C11.5544 6.40052 11.0284 6.92643 11.0283 7.5752V12.4258C11.0288 13.0743 11.5546 13.6005 12.2031 13.6006C12.8518 13.6006 13.3775 13.0743 13.3779 12.4258V7.5752C13.3778 6.92635 12.852 6.40039 12.2031 6.40039Z" fill="currentColor"/>
</svg>
