<svg viewBox="0 0 19.588 19.5835" fill="none" xmlns="http://www.w3.org/2000/svg">
<g id="Vector">
<path d="M9.2998 0.983899C9.71402 0.983899 10.0498 1.31969 10.0498 1.7339C10.0497 2.14805 9.71398 2.4839 9.2998 2.4839H6.25C3.62665 2.4839 1.5 4.61055 1.5 7.2339V13.3335C1.50007 15.9568 3.62669 18.0835 6.25 18.0835H12.3496C14.9729 18.0835 17.0995 15.9568 17.0996 13.3335V10.2837C17.0997 9.86971 17.4356 9.53391 17.8496 9.5337C18.2638 9.5337 18.5995 9.86958 18.5996 10.2837V13.3335C18.5995 16.7852 15.8013 19.5835 12.3496 19.5835H6.25C2.79826 19.5835 6.86785e-05 16.7852 0 13.3335V7.2339C2.57711e-07 3.78212 2.79822 0.983899 6.25 0.983899H9.2998Z" fill="currentColor"/>
<path d="M16.6494 7.51613L10.9287 13.3862C10.6183 13.7046 10.1925 13.8843 9.74805 13.8843H6.56934C6.10035 13.8843 5.7254 13.4929 5.74512 13.0239L5.87988 9.82472C5.89736 9.41187 6.06855 9.0204 6.36035 8.72804L12.1064 2.97316L16.6494 7.51613Z" fill="currentColor"/>
<path d="M14.6367 0.439954C15.222 -0.146249 16.171 -0.146728 16.7568 0.438977L19.1484 2.8296C19.7291 3.41036 19.7353 4.35079 19.1621 4.93898L17.6963 6.44191L13.167 1.91163L14.6367 0.439954Z" fill="currentColor"/>
</g>
</svg>
