<svg viewBox="0 0 19.7497 19.7495" fill="none" xmlns="http://www.w3.org/2000/svg">
<g id="Vector">
<path d="M9.2998 1.14988C9.71394 1.14988 10.0497 1.48578 10.0498 1.89988C10.0498 2.3141 9.71402 2.64988 9.2998 2.64988H6.25C3.62673 2.64988 1.50013 4.77664 1.5 7.39988V13.4995C1.5 16.1228 3.62665 18.2495 6.25 18.2495H12.3496C14.973 18.2495 17.0996 16.1228 17.0996 13.4995V10.4497C17.0998 10.0358 17.4357 9.6999 17.8496 9.69969C18.2637 9.69969 18.5994 10.0357 18.5996 10.4497V13.4995C18.5996 16.9513 15.8014 19.7495 12.3496 19.7495H6.25C2.79822 19.7495 0 16.9513 0 13.4995V7.39988C0.0001302 3.94822 2.7983 1.14988 6.25 1.14988H9.2998Z" fill="currentColor"/>
<path fill-rule="evenodd" clip-rule="evenodd" d="M13.6182 0.68504C14.5338 -0.228103 16.0191 -0.228265 16.9355 0.684063L19.0625 2.80223C19.9708 3.70708 19.9798 5.17112 19.083 6.08738L12.0576 13.2886C11.4556 13.9035 10.6297 14.2505 9.76758 14.2505H7.41895C6.3276 14.2503 5.4563 13.344 5.50195 12.2573L5.60254 9.86961C5.63629 9.0717 5.9697 8.31539 6.53613 7.75047L13.6182 0.68504ZM7.44043 8.65184C7.10069 8.99077 6.9011 9.44467 6.88086 9.92332L6.78027 12.31C6.76497 12.6722 7.05523 12.9749 7.41895 12.9751H9.76758C10.2848 12.9751 10.7804 12.7669 11.1416 12.3979L15.8633 7.55223L12.2002 3.90379L7.44043 8.65184ZM16.0312 1.58641C15.6147 1.17166 14.9397 1.17142 14.5234 1.58641L13.1045 3.00242L16.7568 6.63914L18.168 5.19774C18.5756 4.78122 18.5711 4.11487 18.1582 3.70359L16.0312 1.58641Z" fill="currentColor"/>
</g>
</svg>
