<svg viewBox="0 0 20.5424 20.5" fill="none" xmlns="http://www.w3.org/2000/svg">
<g id="Vector">
<path d="M2.01953 12.4541C4.89978 10.5476 9.56311 10.5476 12.4229 12.4541C13.7143 13.3151 14.4214 14.4834 14.4316 15.7441C14.4316 17.0151 13.7143 18.1835 12.4229 19.0547C10.9879 20.0182 9.10179 20.5 7.21582 20.5C5.32988 20.5 3.44374 20.0182 2.00879 19.0547C0.717451 18.1937 6.09292e-05 17.0253 0 15.7646C0 14.5039 0.717782 13.3254 2.01953 12.4541Z" fill="currentColor"/>
<path d="M12.3311 11.0596C14.5962 10.4037 17.4456 10.8445 19.1982 12.2588C20.1412 13.0173 20.6235 13.9711 20.5312 14.9551C20.4492 15.9492 19.813 16.8103 18.7471 17.3945C17.7221 17.9582 16.4305 18.2241 15.1494 18.1934C15.8873 17.5271 16.3184 16.6969 16.4004 15.8154C16.5027 14.5447 15.8977 13.3252 14.6885 12.3516C14.0018 11.8083 13.2022 11.3773 12.3311 11.0596Z" fill="currentColor"/>
<path d="M7.21582 0C9.90132 0 12.085 2.18364 12.085 4.86914C12.0745 7.50306 10.0143 9.63507 7.39062 9.72754H7.31836C7.25686 9.71729 7.17477 9.71729 7.09277 9.72754C4.40747 9.63523 2.34786 7.50317 2.34766 4.86914C2.34766 2.18367 4.53037 5.22038e-05 7.21582 0Z" fill="currentColor"/>
<path d="M14.5039 2.12207C16.5129 1.94783 18.3062 3.44414 18.4805 5.47363C18.6444 7.46207 17.2302 9.20469 15.2725 9.44043H15.2217C15.1602 9.44043 15.0981 9.44044 15.0469 9.46094C14.0529 9.51211 13.1408 9.19437 12.4541 8.61035C13.5099 7.66735 14.1142 6.25234 13.9912 4.71484C13.9194 3.88465 13.6326 3.12618 13.2021 2.48047C13.5916 2.28573 14.0427 2.16307 14.5039 2.12207Z" fill="currentColor"/>
</g>
</svg>
