<svg viewBox="0 0 21.2617 20" fill="none" xmlns="http://www.w3.org/2000/svg">
<g id="Union">
<path fill-rule="evenodd" clip-rule="evenodd" d="M11.2656 0C11.6871 3.14314e-06 12.0951 0.0120358 12.4893 0.0371094C12.8834 0.0622027 13.2649 0.100968 13.6318 0.151367C14.3658 0.252205 15.0459 0.403957 15.6719 0.607422C16.9238 1.01442 17.9614 1.62761 18.7881 2.45605C18.8915 2.5597 18.991 2.66795 19.0879 2.77832C19.1845 2.88849 19.278 3.00225 19.3682 3.11914C19.4584 3.23614 19.5452 3.3567 19.6289 3.48047C19.7126 3.60429 19.7939 3.73168 19.8711 3.8623C20.1025 4.25397 20.3043 4.67656 20.4775 5.12988C20.7665 5.88584 20.9756 6.72795 21.1045 7.6582C21.2076 8.4023 21.2596 9.2029 21.2617 10.0605C21.262 10.2758 21.2589 10.4875 21.2529 10.6953C21.2171 11.9428 21.069 13.056 20.8047 14.04C20.7166 14.3681 20.6149 14.6819 20.501 14.9814C20.1022 16.0298 19.5451 16.9051 18.8242 17.6152C18.7214 17.7165 18.6144 17.8146 18.5049 17.9092C18.3403 18.0513 18.1679 18.1863 17.9883 18.3135C17.8686 18.3982 17.7456 18.4805 17.6191 18.5586C17.0501 18.9103 16.4122 19.1958 15.7051 19.417C15.2336 19.5644 14.7309 19.6824 14.1973 19.7734C13.3077 19.9252 12.3308 20 11.2656 20C10.078 19.999 9.00157 19.9027 8.0332 19.7119C8.44658 19.3646 8.80713 18.9574 9.10352 18.5039C9.75921 18.5885 10.4781 18.635 11.2656 18.6357C14.5024 18.6357 16.5818 17.9096 17.8672 16.6436C17.8832 16.6278 17.8973 16.6098 17.9131 16.5938C17.6328 15.7667 17.0203 15.0256 16.1611 14.4473L16.1602 14.4453C14.7879 13.5272 13.0099 13.0899 11.2686 13.0898C10.682 13.0899 10.0912 13.1402 9.5127 13.2412C8.65066 11.3306 6.7303 10 4.49805 10C3.29715 10.0001 2.18668 10.3859 1.28223 11.0391C1.26774 10.7217 1.26072 10.3956 1.26172 10.0605C1.27471 3.99979 3.69827 0.84314 8.87598 0.148438C9.24581 0.0988283 9.63026 0.0617595 10.0283 0.0371094C10.4263 0.0124777 10.8392 7.52096e-06 11.2656 0ZM11.2617 4.94824C9.35573 4.94857 7.82554 6.48967 7.8252 8.38477C7.82533 10.2392 9.29303 11.7482 11.1367 11.8115C11.1605 11.8123 11.1854 11.8115 11.209 11.8086C11.2466 11.8039 11.2879 11.805 11.3066 11.8076C11.3326 11.8113 11.3595 11.8124 11.3857 11.8115C13.2321 11.7486 14.6866 10.238 14.6973 8.3877V8.38477C14.6969 6.48866 13.1579 4.9484 11.2617 4.94824Z" fill="currentColor"/>
<path fill-rule="evenodd" clip-rule="evenodd" d="M4.49805 11.0029C6.98187 11.003 8.9959 13.0162 8.99609 15.5C8.9959 17.9838 6.98187 19.998 4.49805 19.998C2.01428 19.9979 0.000197923 17.9838 0 15.5C0.000197886 13.0162 2.01428 11.0031 4.49805 11.0029ZM4.54883 12.1484C4.21757 12.1486 3.94922 12.4168 3.94922 12.748V12.8857C3.69123 12.9497 3.434 13.0654 3.2168 13.2549C2.8911 13.5394 2.70223 13.9486 2.70215 14.4395C2.70222 14.7168 2.77827 14.9692 2.9248 15.1846C3.06626 15.3921 3.25353 15.5369 3.43262 15.6406C3.76835 15.8349 4.19965 15.9499 4.50098 16.0391C4.85414 16.1436 5.08098 16.2249 5.21875 16.3281C5.2753 16.3706 5.2972 16.404 5.30762 16.4268C5.31734 16.4483 5.33378 16.498 5.32324 16.5996C5.29917 16.8277 5.10861 17.0386 4.64355 17.0664C4.17154 17.0945 3.74515 16.891 3.58301 16.626C3.41049 16.3434 3.04059 16.2536 2.75781 16.4258C2.47525 16.5984 2.38527 16.9682 2.55762 17.251C2.87213 17.7664 3.40267 18.0696 3.94922 18.1973V18.2529C3.94957 18.5839 4.21779 18.8524 4.54883 18.8525C4.87982 18.8524 5.14808 18.5839 5.14844 18.2529V18.1973C5.79534 18.0355 6.42673 17.5847 6.5166 16.7236C6.5459 16.4418 6.51064 16.1728 6.39941 15.9287C6.28862 15.686 6.11937 15.5038 5.93848 15.3682C5.60064 15.1149 5.16168 14.9826 4.84082 14.8877C4.4682 14.7774 4.21414 14.7066 4.03418 14.6025C3.95654 14.5576 3.92703 14.5243 3.91699 14.5098C3.91253 14.5032 3.90239 14.4879 3.90234 14.4395C3.90241 14.2775 3.95425 14.2044 4.00586 14.1592C4.07409 14.0998 4.20001 14.0427 4.38574 14.0254C4.56897 14.0084 4.76983 14.0347 4.94043 14.0967C5.11683 14.1609 5.21117 14.2431 5.24609 14.2939C5.433 14.5672 5.80657 14.6378 6.08008 14.4512C6.35309 14.2642 6.42383 13.8906 6.2373 13.6172C6.01731 13.2953 5.67847 13.088 5.35059 12.9688C5.28509 12.945 5.21685 12.9265 5.14844 12.9082V12.748C5.14844 12.4168 4.88004 12.1486 4.54883 12.1484Z" fill="currentColor"/>
</g>
</svg>
