<svg viewBox="0 0 21.2617 20" fill="none" xmlns="http://www.w3.org/2000/svg">
<g id="Union">
<path d="M11.2656 0C18.0131 7.23319e-05 21.245 3.1984 21.2617 10.0605C21.2709 16.9539 18.0835 19.9999 11.2656 20C10.0783 19.999 9.00236 19.9016 8.03418 19.7109C8.44678 19.3641 8.80654 18.9575 9.10254 18.5049C9.7584 18.5897 10.4777 18.6351 11.2656 18.6357C13.6774 18.6357 15.4458 18.2312 16.7227 17.502C16.7176 17.4786 16.7135 17.454 16.7109 17.4297C16.6465 16.8255 16.251 16.1513 15.3994 15.5781C14.2995 14.843 12.8028 14.4532 11.2686 14.4531C10.8115 14.4532 10.3569 14.4878 9.91504 14.5557C9.83529 14.095 9.69946 13.654 9.5127 13.2402C10.091 13.1394 10.6822 13.0899 11.2686 13.0898C13.0098 13.0899 14.7869 13.5274 16.1592 14.4453L16.1611 14.4473C17.0205 15.0258 17.633 15.7675 17.9131 16.5947C19.1648 15.3293 19.9025 13.2857 19.8984 10.0635L19.8877 9.46875C19.792 6.56219 19.0408 4.64121 17.8223 3.41992C16.5238 2.11866 14.4471 1.36332 11.2656 1.36328C8.03443 1.36333 5.9604 2.10752 4.6748 3.39551C3.38813 4.68501 2.63302 6.77894 2.62598 10.0635C2.62571 10.1519 2.62803 10.2395 2.62891 10.3262C2.14549 10.5009 1.6938 10.7416 1.28418 11.0371C1.26976 10.7204 1.26072 10.3949 1.26172 10.0605C1.27657 3.13367 4.44025 0.000103501 11.2656 0Z" fill="currentColor"/>
<path fill-rule="evenodd" clip-rule="evenodd" d="M4.49805 11.0029C6.98187 11.003 8.9959 13.0162 8.99609 15.5C8.9959 17.9838 6.98187 19.998 4.49805 19.998C2.01428 19.9979 0.000197923 17.9838 0 15.5C0.000197886 13.0162 2.01428 11.0031 4.49805 11.0029ZM4.54883 12.1484C4.21757 12.1486 3.94922 12.4168 3.94922 12.748V12.8857C3.69123 12.9497 3.434 13.0654 3.2168 13.2549C2.8911 13.5394 2.70223 13.9486 2.70215 14.4395C2.70222 14.7168 2.77827 14.9692 2.9248 15.1846C3.06626 15.3921 3.25353 15.5369 3.43262 15.6406C3.76835 15.8349 4.19965 15.9499 4.50098 16.0391C4.85414 16.1436 5.08098 16.2249 5.21875 16.3281C5.2753 16.3706 5.2972 16.404 5.30762 16.4268C5.31734 16.4483 5.33378 16.498 5.32324 16.5996C5.29917 16.8277 5.10861 17.0386 4.64355 17.0664C4.17154 17.0945 3.74515 16.891 3.58301 16.626C3.41049 16.3434 3.04059 16.2536 2.75781 16.4258C2.47525 16.5984 2.38527 16.9682 2.55762 17.251C2.87213 17.7664 3.40267 18.0696 3.94922 18.1973V18.2529C3.94957 18.5839 4.21779 18.8524 4.54883 18.8525C4.87982 18.8524 5.14808 18.5839 5.14844 18.2529V18.1973C5.79534 18.0355 6.42673 17.5847 6.5166 16.7236C6.5459 16.4418 6.51064 16.1728 6.39941 15.9287C6.28862 15.686 6.11937 15.5038 5.93848 15.3682C5.60064 15.1149 5.16168 14.9826 4.84082 14.8877C4.4682 14.7774 4.21414 14.7066 4.03418 14.6025C3.95654 14.5576 3.92703 14.5243 3.91699 14.5098C3.91253 14.5032 3.90239 14.4879 3.90234 14.4395C3.90241 14.2775 3.95425 14.2044 4.00586 14.1592C4.07409 14.0998 4.20001 14.0427 4.38574 14.0254C4.56897 14.0084 4.76983 14.0347 4.94043 14.0967C5.11683 14.1609 5.21117 14.2431 5.24609 14.2939C5.433 14.5672 5.80657 14.6378 6.08008 14.4512C6.35309 14.2642 6.42383 13.8906 6.2373 13.6172C6.01731 13.2953 5.67847 13.088 5.35059 12.9688C5.28509 12.945 5.21685 12.9265 5.14844 12.9082V12.748C5.14844 12.4168 4.88004 12.1486 4.54883 12.1484Z" fill="currentColor"/>
<path fill-rule="evenodd" clip-rule="evenodd" d="M11.2617 4.72168C13.2834 4.72184 14.9245 6.36314 14.9248 8.38477V8.38867C14.9137 10.3597 13.3639 11.9716 11.3945 12.0391C11.3547 12.0404 11.3139 12.0379 11.2744 12.0322L11.2764 12.0332C11.2741 12.0331 11.27 12.0332 11.2656 12.0332C11.2547 12.0332 11.2437 12.0334 11.2373 12.0342C11.2019 12.0386 11.1656 12.0402 11.1299 12.0391C9.1639 11.9719 7.59779 10.3622 7.59766 8.38477C7.598 6.36456 9.2297 4.72195 11.2617 4.72168ZM11.2617 6.08496C9.98553 6.08523 8.96225 7.11497 8.96191 8.38477C8.96204 9.62043 9.93502 10.6256 11.1621 10.6748C11.2332 10.6703 11.3081 10.6673 11.3809 10.6729C12.594 10.614 13.5524 9.61848 13.5615 8.38477L13.5498 8.14941C13.4315 6.99108 12.4509 6.08511 11.2617 6.08496Z" fill="currentColor"/>
</g>
</svg>
