<svg viewBox="0 0 19.8438 20.5" fill="none" xmlns="http://www.w3.org/2000/svg">
<g id="Vector">
<path fill-rule="evenodd" clip-rule="evenodd" d="M7.29785 10.7305C9.15171 10.7305 11.0443 11.1955 12.5078 12.1729C13.8248 13.0491 14.582 14.2801 14.582 15.6084C14.5818 16.9359 13.8244 18.1691 12.5088 19.0498C11.0408 20.0319 9.14573 20.5 7.29102 20.5C5.43627 20.4999 3.54113 20.0319 2.07324 19.0498C0.75788 18.1738 0.00016256 16.9425 0 15.6152C7.78031e-05 14.2877 0.75787 13.0546 2.07324 12.1738L2.07617 12.1719C3.54799 11.196 5.44386 10.7306 7.29785 10.7305ZM7.29785 12.2305C5.67078 12.2306 4.08024 12.6428 2.90527 13.4219C1.90244 14.0943 1.50008 14.9033 1.5 15.6152C1.50015 16.2828 1.85348 17.0343 2.72461 17.6758L2.90625 17.8027L2.9082 17.8037C4.07764 18.586 5.66461 18.9999 7.29102 19C8.91731 19 10.5043 18.5859 11.6738 17.8037L11.8555 17.6758C12.7278 17.0299 13.0818 16.2764 13.082 15.6084C13.082 14.8962 12.6797 14.0888 11.6758 13.4209C10.5114 12.6432 8.92544 12.2305 7.29785 12.2305Z" fill="currentColor"/>
<path d="M15.3887 12.0947C15.4798 11.6908 15.8812 11.4374 16.2852 11.5283C17.0442 11.6994 17.7906 12.0047 18.4209 12.4844C19.3313 13.1673 19.8436 14.1219 19.8438 15.1318C19.8436 16.1419 19.3325 17.0973 18.4219 17.7803L18.4209 17.7793C17.7832 18.2671 17.0264 18.5862 16.2451 18.749C15.8398 18.8335 15.4421 18.5722 15.3574 18.167C15.2732 17.7617 15.5333 17.3649 15.9385 17.2803C16.5352 17.1559 17.0797 16.9189 17.5146 16.585L17.5215 16.5801C18.1067 16.1412 18.3436 15.6081 18.3438 15.1318C18.3436 14.6557 18.1064 14.1234 17.5215 13.6846L17.5166 13.6807C17.0934 13.3575 16.5563 13.1266 15.9561 12.9912C15.5521 12.9002 15.2978 12.4987 15.3887 12.0947Z" fill="currentColor"/>
<path d="M14.2402 1.91797C16.5161 1.91814 18.3463 3.76093 18.3467 6.02441C18.3467 8.24259 16.587 10.0487 14.3926 10.1309C14.3522 10.1324 14.3115 10.131 14.2715 10.126C14.2596 10.1245 14.2327 10.1231 14.1982 10.127C13.7868 10.1725 13.416 9.87629 13.3701 9.46484C13.3246 9.05342 13.6209 8.68267 14.0322 8.63672C14.1339 8.62542 14.2402 8.62485 14.3457 8.63086C15.7341 8.57403 16.8467 7.42858 16.8467 6.02441C16.8463 4.58657 15.6849 3.41814 14.2402 3.41797C13.8261 3.41783 13.4902 3.08209 13.4902 2.66797C13.4904 2.25395 13.8262 1.91811 14.2402 1.91797Z" fill="currentColor"/>
<path fill-rule="evenodd" clip-rule="evenodd" d="M7.13379 0C9.89756 0.00031285 12.1416 2.24495 12.1416 5.00879V5.01172C12.1303 7.7137 10.0006 9.91614 7.3125 10.0068C7.27927 10.008 7.245 10.0072 7.21191 10.0039C7.16783 9.99953 7.10055 9.99825 7.03809 10.0039C7.00732 10.0067 6.97619 10.0079 6.94531 10.0068C4.25753 9.91649 2.12518 7.71388 2.125 5.00879C2.125 2.24585 4.35906 0 7.13379 0ZM7.13379 1.5C5.18969 1.5 3.625 3.07208 3.625 5.00879C3.62517 6.90235 5.11074 8.43649 6.98145 8.50684C7.07882 8.50115 7.18008 8.50005 7.27734 8.50586C9.14566 8.43468 10.6319 6.90329 10.6416 5.00879L10.6377 4.82812C10.5436 2.97628 9.00867 1.5003 7.13379 1.5Z" fill="currentColor"/>
</g>
</svg>
