<svg viewBox="0 0 21.2617 20" fill="none" xmlns="http://www.w3.org/2000/svg">
<g id="Union">
<path fill-rule="evenodd" clip-rule="evenodd" d="M11.2656 0C11.6871 3.68555e-06 12.0951 0.0120323 12.4893 0.0371094C12.8834 0.0622048 13.2649 0.100963 13.6318 0.151367C14.3659 0.252209 15.0459 0.403945 15.6719 0.607422C16.9238 1.01443 17.9614 1.62759 18.7881 2.45605C18.8915 2.55971 18.991 2.66794 19.0879 2.77832C19.1846 2.8885 19.278 3.00223 19.3682 3.11914C19.4584 3.23615 19.5452 3.35669 19.6289 3.48047C19.7126 3.6043 19.7939 3.73167 19.8711 3.8623C20.1025 4.25398 20.3043 4.67655 20.4775 5.12988C20.7665 5.88584 20.9756 6.72795 21.1045 7.6582C21.2076 8.40229 21.2596 9.2029 21.2617 10.0605C21.262 10.2758 21.2589 10.4875 21.2529 10.6953C21.2171 11.9428 21.069 13.056 20.8047 14.04C20.7166 14.3681 20.6149 14.6819 20.501 14.9814C20.1022 16.0298 19.5451 16.9051 18.8242 17.6152C18.7213 17.7166 18.6144 17.8145 18.5049 17.9092C18.3403 18.0513 18.1679 18.1863 17.9883 18.3135C17.8686 18.3982 17.7456 18.4804 17.6191 18.5586C17.05 18.9103 16.4122 19.1958 15.7051 19.417C15.2336 19.5644 14.731 19.6824 14.1973 19.7734C13.3077 19.9252 12.3308 20 11.2656 20C10.078 19.999 9.00158 19.9027 8.0332 19.7119C8.44659 19.3646 8.80712 18.9574 9.10352 18.5039C9.75923 18.5885 10.4781 18.6351 11.2656 18.6357C14.5025 18.6357 16.5818 17.9096 17.8672 16.6436C17.8832 16.6278 17.8972 16.6098 17.9131 16.5938C17.6328 15.7667 17.0203 15.0256 16.1611 14.4473L16.1602 14.4453C14.7879 13.5272 13.0099 13.0899 11.2686 13.0898C10.682 13.0899 10.0912 13.1402 9.5127 13.2412C8.65068 11.3305 6.7303 10 4.49805 10C3.29712 10 2.1867 10.3859 1.28223 11.0391C1.26774 10.7217 1.26072 10.3956 1.26172 10.0605C1.27471 3.99975 3.6982 0.843115 8.87598 0.148438C9.24583 0.0988263 9.63023 0.0617589 10.0283 0.0371094C10.4263 0.0124771 10.8392 5.69844e-06 11.2656 0ZM11.2617 4.94824C9.35568 4.94852 7.82554 6.48964 7.8252 8.38477C7.82533 10.2392 9.29299 11.7483 11.1367 11.8115C11.1605 11.8123 11.1854 11.8115 11.209 11.8086C11.2467 11.8039 11.288 11.805 11.3066 11.8076C11.3327 11.8113 11.3595 11.8124 11.3857 11.8115C13.232 11.7485 14.6866 10.238 14.6973 8.3877V8.38477C14.6969 6.48867 13.1579 4.94841 11.2617 4.94824Z" fill="currentColor"/>
<path fill-rule="evenodd" clip-rule="evenodd" d="M4.49805 11.002C6.98205 11.002 8.99609 13.016 8.99609 15.5C8.99609 17.984 6.98205 19.998 4.49805 19.998C2.0141 19.998 0 17.984 0 15.5C0 13.016 2.0141 11.002 4.49805 11.002ZM4.49805 13C4.08389 13.0001 3.74805 13.3358 3.74805 13.75V14.75H2.74805C2.33389 14.7501 1.99805 15.0858 1.99805 15.5C1.99805 15.9142 2.33389 16.2499 2.74805 16.25H3.74805V17.25C3.74805 17.6642 4.08389 17.9999 4.49805 18C4.91226 18 5.24805 17.6642 5.24805 17.25V16.25H6.24805C6.66226 16.25 6.99805 15.9142 6.99805 15.5C6.99805 15.0858 6.66226 14.75 6.24805 14.75H5.24805V13.75C5.24805 13.3358 4.91226 13 4.49805 13Z" fill="currentColor"/>
</g>
</svg>
