<svg viewBox="0 0 21.2617 20" fill="none" xmlns="http://www.w3.org/2000/svg">
<g id="Union">
<path d="M11.2656 0C18.0131 7.23319e-05 21.245 3.1984 21.2617 10.0605C21.2709 16.9539 18.0835 19.9999 11.2656 20C10.0783 19.999 9.00236 19.9016 8.03418 19.7109C8.44678 19.3641 8.80654 18.9575 9.10254 18.5049C9.7584 18.5897 10.4777 18.6351 11.2656 18.6357C13.6774 18.6357 15.4458 18.2312 16.7227 17.502C16.7176 17.4786 16.7135 17.454 16.7109 17.4297C16.6465 16.8255 16.251 16.1513 15.3994 15.5781C14.2995 14.843 12.8028 14.4532 11.2686 14.4531C10.8115 14.4532 10.3569 14.4878 9.91504 14.5557C9.83529 14.095 9.69946 13.654 9.5127 13.2402C10.091 13.1394 10.6822 13.0899 11.2686 13.0898C13.0098 13.0899 14.7869 13.5274 16.1592 14.4453L16.1611 14.4473C17.0205 15.0258 17.633 15.7675 17.9131 16.5947C19.1648 15.3293 19.9025 13.2857 19.8984 10.0635L19.8877 9.46875C19.792 6.56219 19.0408 4.64121 17.8223 3.41992C16.5238 2.11866 14.4471 1.36332 11.2656 1.36328C8.03443 1.36333 5.9604 2.10752 4.6748 3.39551C3.38813 4.68501 2.63302 6.77894 2.62598 10.0635C2.62571 10.1519 2.62803 10.2395 2.62891 10.3262C2.14549 10.5009 1.6938 10.7416 1.28418 11.0371C1.26976 10.7204 1.26072 10.3949 1.26172 10.0605C1.27657 3.13367 4.44025 0.000103501 11.2656 0Z" fill="currentColor"/>
<path fill-rule="evenodd" clip-rule="evenodd" d="M4.49805 11.002C6.98205 11.002 8.99609 13.016 8.99609 15.5C8.99609 17.984 6.98205 19.998 4.49805 19.998C2.0141 19.998 0 17.984 0 15.5C0 13.016 2.0141 11.002 4.49805 11.002ZM4.49805 13C4.08389 13.0001 3.74805 13.3358 3.74805 13.75V14.75H2.74805C2.33389 14.7501 1.99805 15.0858 1.99805 15.5C1.99805 15.9142 2.33389 16.2499 2.74805 16.25H3.74805V17.25C3.74805 17.6642 4.08389 17.9999 4.49805 18C4.91226 18 5.24805 17.6642 5.24805 17.25V16.25H6.24805C6.66226 16.25 6.99805 15.9142 6.99805 15.5C6.99805 15.0858 6.66226 14.75 6.24805 14.75H5.24805V13.75C5.24805 13.3358 4.91226 13 4.49805 13Z" fill="currentColor"/>
<path fill-rule="evenodd" clip-rule="evenodd" d="M11.2617 4.72168C13.2834 4.72184 14.9245 6.36314 14.9248 8.38477V8.38867C14.9137 10.3597 13.3639 11.9716 11.3945 12.0391C11.3547 12.0404 11.3139 12.0379 11.2744 12.0322L11.2764 12.0332C11.2741 12.0331 11.27 12.0332 11.2656 12.0332C11.2547 12.0332 11.2437 12.0334 11.2373 12.0342C11.2019 12.0386 11.1656 12.0402 11.1299 12.0391C9.1639 11.9719 7.59779 10.3622 7.59766 8.38477C7.598 6.36456 9.2297 4.72195 11.2617 4.72168ZM11.2617 6.08496C9.98553 6.08523 8.96225 7.11497 8.96191 8.38477C8.96204 9.62043 9.93502 10.6256 11.1621 10.6748C11.2332 10.6703 11.3081 10.6673 11.3809 10.6729C12.594 10.614 13.5524 9.61848 13.5615 8.38477L13.5498 8.14941C13.4315 6.99108 12.4509 6.08511 11.2617 6.08496Z" fill="currentColor"/>
</g>
</svg>
