<svg viewBox="0 0 20.0001 20" fill="none" xmlns="http://www.w3.org/2000/svg">
<path id="Vector" fill-rule="evenodd" clip-rule="evenodd" d="M10.0036 0C16.7513 0 19.9834 3.19815 20.0001 10.0604C20.0093 16.9539 16.8218 20 10.0036 20C3.13559 19.9944 -0.0202516 16.8613 9.77643e-05 10.0604C0.014948 3.13348 3.1782 9.11923e-05 10.0036 0ZM10.0001 6.36364C9.49807 6.36369 9.09101 6.77068 9.09101 7.27273V9.09091H7.27283C6.77079 9.09096 6.36373 9.49796 6.36373 10C6.36373 10.502 6.77079 10.909 7.27283 10.9091H9.09101V12.7273C9.09101 13.2293 9.49807 13.6363 10.0001 13.6364C10.5022 13.6364 10.9092 13.2294 10.9092 12.7273V10.9091H12.7274C13.2294 10.9091 13.6365 10.5021 13.6365 10C13.6365 9.49792 13.2294 9.09091 12.7274 9.09091H10.9092V7.27273C10.9092 6.77065 10.5022 6.36364 10.0001 6.36364Z" fill="currentColor"/>
</svg>
