<svg viewBox="0 0 18.5002 18.5002" fill="none" xmlns="http://www.w3.org/2000/svg">
<g id="Vector">
<path fill-rule="evenodd" clip-rule="evenodd" d="M4.25008 10.0001C5.12211 10.0001 5.73605 9.99109 6.25399 10.1593C7.24338 10.4807 8.0194 11.2568 8.34091 12.2462C8.50911 12.7641 8.50009 13.378 8.50008 14.2501C8.50008 15.1221 8.5091 15.736 8.34091 16.254C8.01942 17.2434 7.24341 18.0194 6.25399 18.3409C5.73604 18.5091 5.12214 18.5001 4.25008 18.5001C3.37805 18.5001 2.76413 18.5091 2.24618 18.3409C1.2568 18.0194 0.480737 17.2434 0.159265 16.254C-0.00891021 15.736 8.48705e-05 15.1221 8.48705e-05 14.2501C8.42848e-05 13.378 -0.00893904 12.7641 0.159265 12.2462C0.480752 11.2568 1.2568 10.4808 2.24618 10.1593C2.76413 9.99106 3.37805 10.0001 4.25008 10.0001ZM4.25008 11.5001C3.26114 11.5001 2.94419 11.5096 2.70907 11.586C2.17659 11.7592 1.75916 12.1766 1.58602 12.7091C1.50963 12.9442 1.50009 13.2611 1.50008 14.2501C1.50008 15.239 1.50965 15.556 1.58602 15.7911C1.75914 16.3236 2.17659 16.741 2.70907 16.9141C2.94419 16.9905 3.26114 17.0001 4.25008 17.0001C5.23903 17.0001 5.55598 16.9905 5.7911 16.9141C6.32363 16.741 6.74101 16.3236 6.91415 15.7911C6.99053 15.556 7.00008 15.239 7.00008 14.2501C7.00008 13.2611 6.99054 12.9442 6.91415 12.7091C6.74099 12.1766 6.32359 11.7591 5.7911 11.586C5.55598 11.5097 5.23896 11.5001 4.25008 11.5001Z" fill="currentColor"/>
<path d="M11.7501 15.7501C12.0292 15.7501 12.1691 15.7499 12.2813 15.7891C12.4824 15.8595 12.6406 16.0178 12.711 16.2188C12.7503 16.3311 12.7501 16.4709 12.7501 16.7501C12.7501 17.0293 12.7503 17.1691 12.711 17.2813C12.6407 17.4824 12.4824 17.6407 12.2813 17.711C12.1691 17.7503 12.0293 17.7501 11.7501 17.7501C11.4709 17.7501 11.3311 17.7503 11.2188 17.711C11.0178 17.6406 10.8595 17.4824 10.7891 17.2813C10.7499 17.1691 10.7501 17.0293 10.7501 16.7501C10.7501 16.4709 10.7499 16.3311 10.7891 16.2188C10.8595 16.0178 11.0178 15.8595 11.2188 15.7891C11.3311 15.7499 11.4709 15.7501 11.7501 15.7501Z" fill="currentColor"/>
<path d="M16.7501 15.7501C17.0292 15.7501 17.1691 15.7499 17.2813 15.7891C17.4824 15.8595 17.6406 16.0178 17.711 16.2188C17.7503 16.3311 17.7501 16.4709 17.7501 16.7501C17.7501 17.0293 17.7503 17.1691 17.711 17.2813C17.6407 17.4824 17.4824 17.6407 17.2813 17.711C17.1691 17.7503 17.0293 17.7501 16.7501 17.7501C16.4709 17.7501 16.3311 17.7503 16.2188 17.711C16.0178 17.6406 15.8595 17.4824 15.7891 17.2813C15.7499 17.1691 15.7501 17.0293 15.7501 16.7501C15.7501 16.4709 15.7499 16.3311 15.7891 16.2188C15.8595 16.0178 16.0178 15.8595 16.2188 15.7891C16.3311 15.7499 16.4709 15.7501 16.7501 15.7501Z" fill="currentColor"/>
<path d="M14.2501 13.2501C14.5292 13.2501 14.6691 13.2499 14.7813 13.2891C14.9824 13.3595 15.1406 13.5178 15.211 13.7188C15.2503 13.8311 15.2501 13.9709 15.2501 14.2501C15.2501 14.5293 15.2503 14.6691 15.211 14.7813C15.1407 14.9824 14.9824 15.1407 14.7813 15.211C14.6691 15.2503 14.5293 15.2501 14.2501 15.2501C13.9709 15.2501 13.8311 15.2503 13.7188 15.211C13.5178 15.1406 13.3595 14.9824 13.2891 14.7813C13.2499 14.6691 13.2501 14.5293 13.2501 14.2501C13.2501 13.9709 13.2499 13.8311 13.2891 13.7188C13.3595 13.5178 13.5178 13.3595 13.7188 13.2891C13.8311 13.2499 13.9709 13.2501 14.2501 13.2501Z" fill="currentColor"/>
<path d="M11.7501 10.7501C12.0292 10.7501 12.1691 10.7499 12.2813 10.7891C12.4824 10.8595 12.6406 11.0178 12.711 11.2188C12.7503 11.3311 12.7501 11.4709 12.7501 11.7501C12.7501 12.0293 12.7503 12.1691 12.711 12.2813C12.6407 12.4824 12.4824 12.6407 12.2813 12.711C12.1691 12.7503 12.0293 12.7501 11.7501 12.7501C11.4709 12.7501 11.3311 12.7503 11.2188 12.711C11.0178 12.6406 10.8595 12.4824 10.7891 12.2813C10.7499 12.1691 10.7501 12.0293 10.7501 11.7501C10.7501 11.4709 10.7499 11.3311 10.7891 11.2188C10.8595 11.0178 11.0178 10.8595 11.2188 10.7891C11.3311 10.7499 11.4709 10.7501 11.7501 10.7501Z" fill="currentColor"/>
<path d="M16.7501 10.7501C17.0292 10.7501 17.1691 10.7499 17.2813 10.7891C17.4824 10.8595 17.6406 11.0178 17.711 11.2188C17.7503 11.3311 17.7501 11.4709 17.7501 11.7501C17.7501 12.0293 17.7503 12.1691 17.711 12.2813C17.6407 12.4824 17.4824 12.6407 17.2813 12.711C17.1691 12.7503 17.0293 12.7501 16.7501 12.7501C16.4709 12.7501 16.3311 12.7503 16.2188 12.711C16.0178 12.6406 15.8595 12.4824 15.7891 12.2813C15.7499 12.1691 15.7501 12.0293 15.7501 11.7501C15.7501 11.4709 15.7499 11.3311 15.7891 11.2188C15.8595 11.0178 16.0178 10.8595 16.2188 10.7891C16.3311 10.7499 16.4709 10.7501 16.7501 10.7501Z" fill="currentColor"/>
<path fill-rule="evenodd" clip-rule="evenodd" d="M14.2501 0.00692081C15.1222 0.00692081 15.736 -0.00210443 16.254 0.166101C17.2434 0.487584 18.0194 1.26359 18.3409 2.25301C18.5091 2.77094 18.5001 3.38494 18.5001 4.25692C18.5001 5.12889 18.5091 5.74291 18.3409 6.26083C18.0194 7.25014 17.2433 8.02628 16.254 8.34774C15.7361 8.5159 15.1221 8.50692 14.2501 8.50692C13.378 8.50692 12.7641 8.51594 12.2462 8.34774C11.2568 8.02627 10.4808 7.25016 10.1593 6.26083C9.99107 5.74291 10.0001 5.12889 10.0001 4.25692C10.0001 3.38496 9.99113 2.77093 10.1593 2.25301C10.4807 1.26364 11.2568 0.487612 12.2462 0.166101C12.7641 -0.00210311 13.378 0.00692022 14.2501 0.00692081ZM14.2501 1.50692C13.2611 1.50692 12.9442 1.51646 12.7091 1.59286C12.1766 1.76602 11.7591 2.18343 11.586 2.71591C11.5097 2.95101 11.5001 3.26822 11.5001 4.25692C11.5001 5.24576 11.5096 5.56283 11.586 5.79794C11.7592 6.33037 12.1766 6.74787 12.7091 6.92098C12.9442 6.99738 13.2611 7.00692 14.2501 7.00692C15.2389 7.00692 15.556 6.99734 15.7911 6.92098C16.3236 6.74787 16.741 6.33035 16.9141 5.79794C16.9905 5.56283 17.0001 5.24576 17.0001 4.25692C17.0001 3.26815 16.9905 2.95102 16.9141 2.71591C16.741 2.18338 16.3236 1.76599 15.7911 1.59286C15.556 1.51646 15.2391 1.50692 14.2501 1.50692Z" fill="currentColor"/>
<path fill-rule="evenodd" clip-rule="evenodd" d="M4.25008 8.48705e-05C5.12211 8.48705e-05 5.73605 -0.00891021 6.25399 0.159265C7.24338 0.480737 8.0194 1.2568 8.34091 2.24618C8.50911 2.76413 8.50009 3.37805 8.50008 4.25008C8.50008 5.12214 8.5091 5.73604 8.34091 6.25399C8.01942 7.24341 7.24341 8.01942 6.25399 8.34091C5.73604 8.5091 5.12214 8.50008 4.25008 8.50008C3.37805 8.50009 2.76413 8.50911 2.24618 8.34091C1.2568 8.0194 0.480737 7.24338 0.159265 6.25399C-0.00891021 5.73605 8.48705e-05 5.12211 8.48705e-05 4.25008C8.42848e-05 3.37805 -0.00893904 2.76413 0.159265 2.24618C0.480752 1.2568 1.2568 0.480752 2.24618 0.159265C2.76413 -0.00893904 3.37805 8.42848e-05 4.25008 8.48705e-05ZM4.25008 1.50008C3.26114 1.50009 2.94419 1.50963 2.70907 1.58602C2.17659 1.75916 1.75916 2.17659 1.58602 2.70907C1.50963 2.94419 1.50009 3.26114 1.50008 4.25008C1.50008 5.23896 1.50965 5.55598 1.58602 5.7911C1.75914 6.32359 2.17659 6.74099 2.70907 6.91415C2.94419 6.99054 3.26114 7.00008 4.25008 7.00008C5.23903 7.00008 5.55598 6.99053 5.7911 6.91415C6.32363 6.74101 6.74101 6.32363 6.91415 5.7911C6.99053 5.55598 7.00008 5.23903 7.00008 4.25008C7.00008 3.26114 6.99054 2.94419 6.91415 2.70907C6.74099 2.17659 6.32359 1.75914 5.7911 1.58602C5.55598 1.50965 5.23896 1.50008 4.25008 1.50008Z" fill="currentColor"/>
</g>
</svg>
