<svg viewBox="0 0 20.0001 20" fill="none" xmlns="http://www.w3.org/2000/svg">
<path id="Vector" fill-rule="evenodd" clip-rule="evenodd" d="M10.004 0C16.7516 5.03232e-05 19.9834 3.19838 20.0001 10.0605C20.0093 16.9539 16.822 20 10.004 20C3.136 19.9944 -0.0201966 16.8613 9.72217e-05 10.0605C0.0149475 3.13366 3.17856 9.11923e-05 10.004 0ZM9.74717 12.5352C9.21025 12.5352 8.77452 12.9709 8.77451 13.5078C8.77475 14.0445 9.21039 14.4804 9.74717 14.4805C10.2838 14.4803 10.7196 14.0445 10.7198 13.5078C10.7198 12.971 10.284 12.5353 9.74717 12.5352ZM11.0646 5.83496C10.4887 5.54059 9.82962 5.44932 9.19541 5.57617C8.56052 5.70328 7.98681 6.04194 7.56846 6.53613C7.25188 6.9107 7.2988 7.471 7.67295 7.78809C8.04759 8.10484 8.60879 8.05897 8.92588 7.68457C9.08491 7.49674 9.30274 7.36772 9.54404 7.31934C9.7854 7.27109 10.0369 7.30583 10.256 7.41797L10.2579 7.41895C10.4801 7.53233 10.6584 7.71778 10.7628 7.94434C10.867 8.17111 10.8917 8.42732 10.8331 8.66992C10.7744 8.91254 10.6359 9.12905 10.4396 9.2832C10.2431 9.43732 9.99975 9.52113 9.7501 9.52051C9.25941 9.51915 8.86018 9.91558 8.8585 10.4062C8.85726 10.8968 9.25369 11.2961 9.74424 11.2979C10.3937 11.2997 11.0253 11.0825 11.5362 10.6816C12.0471 10.2807 12.4089 9.71911 12.5616 9.08789C12.7141 8.45668 12.6493 7.79113 12.378 7.20117C12.1065 6.61135 11.643 6.12984 11.0646 5.83496Z" fill="currentColor"/>
</svg>
