<svg viewBox="0 0 20.0001 20" fill="none" xmlns="http://www.w3.org/2000/svg">
<g id="Vector">
<path fill-rule="evenodd" clip-rule="evenodd" d="M10.0036 0C16.7513 0 19.9834 3.19815 20.0001 10.0604C20.0093 16.9539 16.8218 20 10.0036 20C3.13559 19.9944 -0.0202516 16.8613 9.77643e-05 10.0604C0.014948 3.13348 3.1782 9.11957e-05 10.0036 0ZM10.0036 1.36364C6.77216 1.36368 4.69833 2.1076 3.41274 3.39577C2.12604 4.68527 1.37078 6.77846 1.36373 10.063C1.35408 13.2785 2.09804 15.3379 3.37989 16.6113C4.66456 17.8874 6.7488 18.6326 10.0036 18.6355C13.2407 18.6355 15.3198 17.9094 16.6052 16.6433C17.8859 15.3817 18.6407 13.3261 18.6365 10.063L18.6258 9.46911C18.5302 6.56233 17.7794 4.64108 16.5608 3.41974C15.2624 2.1184 13.1853 1.36364 10.0036 1.36364Z" fill="currentColor"/>
<path d="M9.74673 12.5347C10.2837 12.5347 10.7194 12.9704 10.7194 13.5074C10.7194 14.0443 10.2837 14.48 9.74673 14.48C9.20981 14.48 8.77408 14.0443 8.77408 13.5074C8.77408 12.9704 9.20981 12.5347 9.74673 12.5347Z" fill="currentColor"/>
<path d="M9.19498 5.57573C9.82925 5.44882 10.4882 5.54011 11.0641 5.83452C11.6428 6.12937 12.106 6.61077 12.3776 7.20073C12.6491 7.79081 12.7137 8.45607 12.5612 9.08745C12.4086 9.71881 12.0468 10.2802 11.5358 10.6812C11.0247 11.0821 10.3934 11.2994 9.7438 11.2974C9.25311 11.2957 8.85659 10.8966 8.85806 10.4058C8.85974 9.91514 9.25897 9.5187 9.74966 9.52006C9.99943 9.52076 10.2426 9.43695 10.4391 9.28276C10.6355 9.12853 10.774 8.91224 10.8327 8.66948C10.8913 8.4267 10.8668 8.17079 10.7624 7.94389C10.6579 7.71719 10.4798 7.53187 10.2575 7.4185L10.2555 7.41753C10.0364 7.30535 9.78502 7.27059 9.54361 7.31889C9.30231 7.36728 9.08448 7.4963 8.92545 7.68413C8.60826 8.05877 8.0472 8.1048 7.67252 7.78764C7.29833 7.47052 7.25134 6.91025 7.56802 6.53569C7.98638 6.0415 8.56009 5.70283 9.19498 5.57573Z" fill="currentColor"/>
</g>
</svg>
