<svg viewBox="0 0 12.8438 18.1406" fill="none" xmlns="http://www.w3.org/2000/svg">
<path id="Vector" d="M12.3281 3.65391C12 2.93672 11.5336 2.29219 10.9383 1.74141C9.72891 0.61875 8.12344 0 6.42188 0C4.72031 0 3.11484 0.61875 1.90547 1.73906C1.31016 2.29219 0.84375 2.93437 0.515625 3.65391C0.173437 4.40391 0 5.19844 0 6.01875V6.65156C0 6.79687 0.117187 6.91406 0.2625 6.91406H1.52813C1.67344 6.91406 1.79062 6.79687 1.79062 6.65156V6.01875C1.79062 3.68672 3.86719 1.79062 6.42188 1.79062C8.97656 1.79062 11.0531 3.68672 11.0531 6.01875C11.0531 6.975 10.7133 7.875 10.0687 8.625C9.43125 9.36797 8.53125 9.9 7.53516 10.125C6.96563 10.2539 6.45234 10.575 6.08906 11.0344C5.72705 11.4922 5.52973 12.0585 5.52891 12.6422V13.3781C5.52891 13.5234 5.64609 13.6406 5.79141 13.6406H7.05703C7.20234 13.6406 7.31953 13.5234 7.31953 13.3781V12.6422C7.31953 12.2742 7.575 11.9508 7.92891 11.8711C9.29766 11.5617 10.5398 10.8234 11.4281 9.79219C11.8758 9.26953 12.225 8.68828 12.4664 8.05781C12.7172 7.40391 12.8438 6.71719 12.8438 6.01875C12.8438 5.19844 12.6703 4.40156 12.3281 3.65391ZM6.42188 15.5156C5.69766 15.5156 5.10938 16.1039 5.10938 16.8281C5.10938 17.5523 5.69766 18.1406 6.42188 18.1406C7.14609 18.1406 7.73438 17.5523 7.73438 16.8281C7.73438 16.1039 7.14609 15.5156 6.42188 15.5156Z" fill="currentColor"/>
</svg>
