<svg width="24" height="24" viewBox="0 0 24 24" fill="none" xmlns="http://www.w3.org/2000/svg">
<path d="M13.4477 5.40803C13.4716 5.02889 13.3932 4.6496 13.2163 4.31233C13.028 3.95343 12.7386 3.65741 12.3843 3.46077C12.0297 3.26407 11.6245 3.17556 11.2202 3.20588C10.8161 3.23628 10.43 3.38447 10.1089 3.63166C10.1014 3.63742 10.0937 3.64321 10.0864 3.64924L2.94774 9.58967C2.9418 9.59462 2.93595 9.60017 2.93016 9.6053C2.68816 9.8199 2.49448 10.0837 2.3618 10.3787C2.22913 10.6737 2.16063 10.9938 2.16063 11.3172C2.16069 11.6405 2.22922 11.9599 2.3618 12.2547C2.49448 12.5497 2.68816 12.8135 2.93016 13.0281C2.93597 13.0333 2.94178 13.0388 2.94774 13.0438L10.0864 18.9842C10.0937 18.9903 10.1013 18.996 10.1089 19.0018C10.43 19.249 10.8161 19.3972 11.2202 19.4276C11.6243 19.4579 12.0288 19.3691 12.3833 19.1727C12.7375 18.9763 13.0269 18.6806 13.2153 18.3221C13.3924 17.9851 13.4712 17.6064 13.4477 17.2274V15.9696C13.4478 15.8969 13.4771 15.8478 13.5015 15.825C13.5126 15.8147 13.5209 15.8107 13.5249 15.8094C13.5274 15.8086 13.5353 15.8062 13.5522 15.8094C14.4593 15.9798 15.4824 16.3714 16.1909 16.8572C17.2252 17.5667 18.0315 18.5616 18.5112 19.7205C18.6682 20.1082 18.9609 20.4255 19.3345 20.6141C19.7111 20.8042 20.1442 20.8502 20.5522 20.743C20.9601 20.6358 21.3148 20.3835 21.5493 20.033C21.7693 19.7042 21.8677 19.3103 21.8325 18.9178V17.0828C21.8324 11.9217 18.2671 7.57235 13.5747 7.07991C13.5308 7.0753 13.4931 7.05472 13.4702 7.03108C13.45 7.01015 13.4478 6.99447 13.4477 6.9842V5.40803ZM11.9477 6.9842C11.9479 7.8577 12.6463 8.49 13.4175 8.57112C17.2335 8.97143 20.3324 12.5703 20.3325 17.0828V18.9403C20.3325 18.9739 20.3348 19.0075 20.3393 19.0408C20.3468 19.0961 20.3342 19.1527 20.3032 19.199C20.2723 19.2453 20.2251 19.2786 20.1714 19.2928C20.1175 19.307 20.06 19.3003 20.0102 19.2752C19.9605 19.2501 19.9215 19.2078 19.9009 19.1561L19.897 19.1463C19.3061 17.7192 18.3133 16.4947 17.0395 15.6209C16.1284 14.9959 14.9009 14.5371 13.8286 14.3358C12.7383 14.1311 11.9479 15.0396 11.9477 15.9696V17.2274C11.9478 17.2515 11.9483 17.2756 11.9507 17.2996C11.9616 17.4118 11.9396 17.5251 11.8872 17.6248C11.8348 17.7244 11.7542 17.8066 11.6558 17.8612C11.5572 17.9157 11.4448 17.9399 11.3325 17.9315C11.2202 17.923 11.1131 17.8819 11.0239 17.8133L3.91942 11.8992C3.83911 11.8264 3.77348 11.7384 3.72899 11.6395C3.68349 11.5382 3.66069 11.4283 3.66063 11.3172C3.66063 11.206 3.68341 11.0954 3.72899 10.994C3.77358 10.8948 3.83886 10.8061 3.91942 10.7332L11.0239 4.82014L11.0942 4.77327C11.1672 4.73251 11.2485 4.70833 11.3325 4.70198C11.4449 4.69355 11.5581 4.7176 11.6567 4.77229C11.7552 4.82697 11.8349 4.90985 11.8872 5.00959C11.9396 5.10943 11.9617 5.2226 11.9507 5.33479C11.9483 5.35912 11.9477 5.38358 11.9477 5.40803V6.9842Z" fill="currentColor"></path>
</svg>