<svg viewBox="0 0 20 20" fill="none" xmlns="http://www.w3.org/2000/svg">
<path id="Vector" d="M14.9993 5.83399C14.9993 5.9988 14.9504 6.15991 14.8589 6.29695C14.7673 6.43398 14.6372 6.54079 14.4849 6.60386C14.3326 6.66693 14.1651 6.68343 14.0034 6.65128C13.8418 6.61912 13.6933 6.53976 13.5768 6.42322C13.4602 6.30668 13.3809 6.1582 13.3487 5.99656C13.3166 5.83492 13.3331 5.66737 13.3961 5.51511C13.4592 5.36284 13.566 5.2327 13.7031 5.14113C13.8401 5.04957 14.0012 5.0007 14.166 5.0007C14.387 5.0007 14.599 5.08849 14.7552 5.24476C14.9115 5.40104 14.9993 5.61299 14.9993 5.83399ZM11.6661 7.50058C11.5013 7.50058 11.3402 7.54945 11.2032 7.64102C11.0661 7.73258 10.9593 7.86272 10.8963 8.01499C10.8332 8.16725 10.8167 8.3348 10.8488 8.49644C10.881 8.65809 10.9604 8.80657 11.0769 8.9231C11.1934 9.03964 11.3419 9.11901 11.5036 9.15116C11.6652 9.18331 11.8327 9.16681 11.985 9.10374C12.1373 9.04067 12.2674 8.93386 12.359 8.79683C12.4505 8.6598 12.4994 8.49869 12.4994 8.33388C12.4994 8.11287 12.4116 7.90092 12.2554 7.74465C12.0991 7.58838 11.8871 7.50058 11.6661 7.50058ZM9.16624 10.0005C9.00143 10.0005 8.84032 10.0493 8.70329 10.1409C8.56625 10.2325 8.45945 10.3626 8.39638 10.5149C8.33331 10.6671 8.3168 10.8347 8.34896 10.9963C8.38111 11.158 8.46047 11.3064 8.57701 11.423C8.69355 11.5395 8.84203 11.6189 9.00367 11.651C9.16532 11.6832 9.33286 11.6667 9.48513 11.6036C9.63739 11.5406 9.76754 11.4337 9.8591 11.2967C9.95066 11.1597 9.99954 10.9986 9.99954 10.8338C9.99954 10.6128 9.91174 10.4008 9.75547 10.2445C9.5992 10.0883 9.38724 10.0005 9.16624 10.0005ZM19.8874 2.46582L19.8249 2.64164C18.5733 6.11481 17.3725 9.41716 14.9993 12.3504V12.5003C14.9978 13.7767 14.7303 15.0387 14.2138 16.2059C13.6973 17.3731 12.9431 18.4198 11.9994 19.2792C11.4999 19.7401 10.8459 19.9972 10.1662 20C9.45879 19.9978 8.78107 19.7155 8.28133 19.2148C7.78159 18.7141 7.50053 18.0359 7.49965 17.3285V16.3693C6.88476 16.171 5.86556 15.3769 5.86556 15.3769L5.83306 15.3452L3.92232 17.256C3.76516 17.4078 3.55466 17.4917 3.33618 17.4898C3.11769 17.4879 2.90869 17.4003 2.75419 17.2458C2.59969 17.0913 2.51205 16.8823 2.51016 16.6638C2.50826 16.4453 2.59225 16.2348 2.74404 16.0777L4.65478 14.1669L4.62228 14.1353C4.16778 13.6753 3.82707 13.1154 3.62733 12.5003H2.80237C2.05948 12.4997 1.3472 12.2043 0.82182 11.6791C0.296441 11.1539 0.000882519 10.4417 0 9.69881C0.00147399 8.97327 0.28124 8.27595 0.78163 7.75057C1.65284 6.85583 2.69887 6.14996 3.85462 5.67687C5.01037 5.20379 6.25112 4.97363 7.49965 5.0007H7.64964C10.5828 2.62831 13.8827 1.42753 17.3542 0.176756L17.5342 0.112593C17.8627 -0.00816722 18.2188 -0.0323793 18.5607 0.0428173C18.9025 0.118014 19.2156 0.289477 19.4631 0.536946C19.7105 0.784416 19.882 1.09755 19.9572 1.43935C20.0324 1.78115 20.0082 2.13734 19.8874 2.46582ZM2.80237 10.8338H3.41651C3.47911 10.0996 3.73531 9.39508 4.15897 8.79219C4.62399 8.12314 5.12731 7.48154 5.6664 6.87061C4.26857 7.15994 2.99066 7.86454 1.99991 8.89218C1.78913 9.10815 1.66975 9.39706 1.66659 9.69881C1.66703 9.99983 1.78686 10.2884 1.99979 10.5011C2.21272 10.7139 2.50135 10.8335 2.80237 10.8338ZM13.0827 14.3769C12.485 14.9001 11.8585 15.3895 11.2061 15.8427C10.6028 16.2622 9.89883 16.5141 9.16624 16.5727V17.3285C9.16668 17.595 9.27282 17.8505 9.46137 18.0389C9.64992 18.2273 9.90549 18.3332 10.172 18.3334C10.4363 18.3295 10.6895 18.227 10.882 18.0459C11.9563 17.0626 12.721 15.7877 13.0827 14.3769ZM18.28 1.72002C18.2578 1.69532 18.2284 1.67818 18.196 1.67101C18.1636 1.66384 18.1297 1.66699 18.0992 1.68002L17.92 1.74502C13.8835 3.19912 10.3979 4.45572 7.39632 7.45642C6.7078 8.16644 6.08111 8.93391 5.52308 9.75048C5.18365 10.2323 5.02534 10.8185 5.07612 11.4056C5.12689 11.9928 5.38347 12.5431 5.80056 12.9595L7.04384 14.2011C7.46 14.6179 8.00996 14.8744 8.59675 14.9253C9.18353 14.9762 9.76945 14.8183 10.2512 14.4794C11.0673 13.9215 11.8342 13.2948 12.5436 12.6062C15.5434 9.60632 16.8017 6.11731 18.2567 2.07917L18.32 1.90334C18.3335 1.87247 18.3369 1.83812 18.3297 1.8052C18.3225 1.77228 18.3051 1.74247 18.28 1.72002Z" fill="currentColor"/>
</svg>
