<svg viewBox="0 0 20 20" fill="none" xmlns="http://www.w3.org/2000/svg">
<path id="Vector" d="M19.459 0.541009C19.2131 0.292415 18.9008 0.119783 18.5595 0.0436912C18.2182 -0.0324005 17.8622 -0.00874222 17.534 0.111846L17.354 0.176012C13.3233 1.48704 9.65369 3.71973 6.63661 6.69679C5.87943 7.47397 5.19051 8.31484 4.57746 9.2101C3.4108 10.8767 3.18914 12.7009 4.62246 14.1351L4.65496 14.1667L2.74414 16.0775C2.58792 16.2338 2.50016 16.4457 2.50016 16.6667C2.50016 16.8877 2.58792 17.0996 2.74414 17.2559C2.90041 17.4121 3.11234 17.4998 3.3333 17.4998C3.55427 17.4998 3.76619 17.4121 3.92246 17.2559L5.83328 15.345L5.86495 15.3775C7.2991 16.8109 9.12742 16.5875 10.7899 15.4225C11.6852 14.8095 12.526 14.1206 13.3032 13.3634C16.2804 10.3461 18.5131 6.67619 19.824 2.64516L19.8882 2.46516C20.0088 2.13706 20.0325 1.78119 19.9564 1.44001C19.8803 1.09883 19.7076 0.786749 19.459 0.541009V0.541009ZM9.16658 11.6667C9.00177 11.6667 8.84065 11.6179 8.70361 11.5263C8.56657 11.4347 8.45976 11.3046 8.39669 11.1523C8.33362 11 8.31712 10.8325 8.34927 10.6708C8.38142 10.5092 8.46079 10.3607 8.57733 10.2442C8.69388 10.1276 8.84236 10.0483 9.00401 10.0161C9.16566 9.98395 9.33321 10.0005 9.48548 10.0635C9.63776 10.1266 9.7679 10.2334 9.85947 10.3704C9.95104 10.5075 9.99991 10.6686 9.99991 10.8334C9.99991 11.0544 9.91211 11.2664 9.75583 11.4227C9.59956 11.5789 9.3876 11.6667 9.16658 11.6667ZM11.6666 9.16676C11.5017 9.16676 11.3406 9.11789 11.2036 9.02632C11.0666 8.93476 10.9597 8.80461 10.8967 8.65234C10.8336 8.50007 10.8171 8.33251 10.8492 8.17087C10.8814 8.00922 10.9608 7.86073 11.0773 7.74419C11.1939 7.62765 11.3423 7.54828 11.504 7.51613C11.6656 7.48397 11.8332 7.50047 11.9855 7.56355C12.1377 7.62662 12.2679 7.73343 12.3594 7.87047C12.451 8.00751 12.4999 8.16862 12.4999 8.33344C12.4999 8.55445 12.4121 8.76641 12.2558 8.92269C12.0995 9.07897 11.8876 9.16676 11.6666 9.16676ZM14.1665 6.66679C14.0017 6.66679 13.8406 6.61791 13.7036 6.52635C13.5665 6.43478 13.4597 6.30463 13.3966 6.15236C13.3336 6.00009 13.3171 5.83254 13.3492 5.67089C13.3814 5.50924 13.4607 5.36075 13.5773 5.24421C13.6938 5.12767 13.8423 5.0483 14.004 5.01615C14.1656 4.98399 14.3332 5.0005 14.4854 5.06357C14.6377 5.12664 14.7679 5.23345 14.8594 5.37049C14.951 5.50753 14.9999 5.66865 14.9999 5.83346C14.9999 6.05447 14.9121 6.26643 14.7558 6.42271C14.5995 6.57899 14.3876 6.66679 14.1665 6.66679ZM1.96915 10.8651C1.7106 10.8652 1.45455 10.8144 1.21565 10.7155C0.976748 10.6166 0.759664 10.4717 0.576801 10.2889C0.393938 10.1061 0.248878 9.88906 0.149909 9.6502C0.0509396 9.41134 -2.31718e-08 9.15532 0 8.89677C0.00201447 8.38343 0.200278 7.89031 0.554162 7.51845C1.97778 6.055 3.899 5.17945 5.93745 5.06514C5.77828 5.2168 5.61578 5.36097 5.45828 5.51846C4.63301 6.36317 3.88165 7.27707 3.21247 8.25011C2.64972 9.02977 2.25785 9.91943 2.06248 10.8609L1.96915 10.8651ZM9.16658 17.9375C10.1082 17.7425 10.9979 17.3506 11.7774 16.7875C12.752 16.1187 13.6673 15.3674 14.5132 14.5417C14.6715 14.3842 14.8149 14.2217 14.9674 14.0626C14.8523 16.101 13.9766 18.0221 12.5132 19.4458C12.1417 19.7997 11.6488 19.998 11.1357 20C10.6135 20 10.1126 19.7925 9.74333 19.4233C9.37405 19.054 9.16658 18.5531 9.16658 18.0309V17.9375Z" fill="currentColor"/>
</svg>
