<svg viewBox="0 0 19.4999 19.4999" fill="none" xmlns="http://www.w3.org/2000/svg">
<g id="Vector">
<path d="M0 6.19727V5.25C2.57711e-07 2.35051 2.35051 5.15405e-07 5.25 0H6.19727C6.61148 0 6.94727 0.335786 6.94727 0.75C6.94727 1.16421 6.61148 1.5 6.19727 1.5H5.25C3.17893 1.5 1.5 3.17893 1.5 5.25V6.19727C1.5 6.61148 1.16421 6.94727 0.75 6.94727C0.335786 6.94727 0 6.61148 0 6.19727Z" fill="currentColor"/>
<path d="M0 14.2499V13.3026C0 12.8884 0.335786 12.5526 0.75 12.5526C1.16421 12.5526 1.5 12.8884 1.5 13.3026V14.2499C1.5 16.321 3.17893 17.9999 5.25 17.9999H6.19727C6.61144 17.9999 6.94721 18.3357 6.94727 18.7499C6.94727 19.1641 6.61148 19.4999 6.19727 19.4999H5.25C2.35051 19.4999 0 17.1494 0 14.2499Z" fill="currentColor"/>
<path d="M17.9999 14.2499V13.3026C17.9999 12.8885 18.3357 12.5527 18.7499 12.5526C19.1641 12.5526 19.4999 12.8884 19.4999 13.3026V14.2499C19.4999 17.1494 17.1494 19.4999 14.2499 19.4999H13.3026C12.8884 19.4999 12.5526 19.1641 12.5526 18.7499C12.5527 18.3357 12.8885 17.9999 13.3026 17.9999H14.2499C16.321 17.9999 17.9999 16.321 17.9999 14.2499Z" fill="currentColor"/>
<path d="M17.9999 6.19727V5.25C17.9999 3.17893 16.321 1.5 14.2499 1.5H13.3026C12.8884 1.5 12.5526 1.16421 12.5526 0.75C12.5526 0.335786 12.8884 0 13.3026 0H14.2499C17.1494 0 19.4999 2.35051 19.4999 5.25V6.19727C19.4999 6.61148 19.1641 6.94727 18.7499 6.94727C18.3357 6.94721 17.9999 6.61144 17.9999 6.19727Z" fill="currentColor"/>
</g>
</svg>
