<svg viewBox="0 0 19.5995 19.5996" fill="none" xmlns="http://www.w3.org/2000/svg">
<path id="Vector" d="M6.75 15.4248C6.75 14.7419 6.47802 14.0874 5.99512 13.6045C5.51221 13.1216 4.85774 12.8496 4.1748 12.8496C3.49187 12.8496 2.8374 13.1216 2.35449 13.6045C1.87159 14.0874 1.59961 14.7419 1.59961 15.4248C1.59961 16.1077 1.87159 16.7632 2.35449 17.2461C2.83735 17.7287 3.4921 18 4.1748 18C4.85751 18 5.51226 17.7287 5.99512 17.2461C6.47802 16.7632 6.75 16.1077 6.75 15.4248ZM6.75 4.1748C6.75 3.49187 6.47802 2.8374 5.99512 2.35449C5.51221 1.87159 4.85774 1.59961 4.1748 1.59961C3.49187 1.59961 2.8374 1.87159 2.35449 2.35449C1.87159 2.8374 1.59961 3.49187 1.59961 4.1748C1.59961 4.85774 1.87159 5.51221 2.35449 5.99512C2.8374 6.47802 3.49187 6.75 4.1748 6.75C4.85774 6.75 5.51221 6.47802 5.99512 5.99512C6.47802 5.51221 6.75 4.85774 6.75 4.1748ZM8.34961 4.1748C8.34961 4.72927 8.23871 5.27203 8.03027 5.77441L10.9248 8.66895L18.2344 1.35938C18.5468 1.04696 19.0528 1.04696 19.3652 1.35938C19.6777 1.67179 19.6777 2.17781 19.3652 2.49023L12.0557 9.7998L19.3652 17.1094C19.6777 17.4218 19.6777 17.9278 19.3652 18.2402C19.0528 18.5527 18.5468 18.5527 18.2344 18.2402L10.9248 10.9307L8.03027 13.8242C8.23893 14.3268 8.34961 14.87 8.34961 15.4248C8.34961 16.5321 7.90992 17.594 7.12695 18.377C6.34399 19.1599 5.28208 19.5996 4.1748 19.5996C3.06753 19.5996 2.00562 19.1599 1.22266 18.377C0.439692 17.594 0 16.5321 0 15.4248C0 14.3175 0.439692 13.2556 1.22266 12.4727C2.00562 11.6897 3.06753 11.25 4.1748 11.25C5.28047 11.25 6.34041 11.6889 7.12305 12.4697L9.79395 9.7998L7.12305 7.12891C6.34036 7.91004 5.2807 8.34961 4.1748 8.34961C3.06753 8.34961 2.00562 7.90992 1.22266 7.12695C0.439692 6.34399 0 5.28208 0 4.1748C0 3.06753 0.439692 2.00562 1.22266 1.22266C2.00562 0.439692 3.06753 0 4.1748 0C5.28208 0 6.34399 0.439692 7.12695 1.22266C7.90992 2.00562 8.34961 3.06753 8.34961 4.1748Z" fill="currentColor"/>
</svg>
