<svg viewBox="0 0 18.5948 20.7" fill="none" xmlns="http://www.w3.org/2000/svg">
<g id="Vector">
<path d="M1.83336 20.35C1.51263 20.35 1.23199 20.2707 0.951347 20.1122C0.590524 19.8745 0.349976 19.5179 0.349976 19.1216C0.349976 18.5273 0.614403 17.9276 0.895043 17.8087L3.67756 16.6253C3.87802 16.5064 4.03838 16.4272 4.15866 16.3083L4.19875 16.2687C4.15866 16.2687 4.07848 16.2291 4.03839 16.2291C3.27665 15.9913 2.83564 15.5951 2.67528 14.9215C2.555 14.446 2.67528 13.8516 2.99601 13.4157C2.59509 13.0987 2.35455 12.6629 2.31445 12.0685C2.27436 11.3553 2.51491 10.8005 2.99601 10.4043C2.63519 9.96843 2.59509 9.53256 2.59509 9.17595C2.59509 8.58158 2.87573 7.98722 3.31674 7.67023C3.9582 7.19473 4.76003 7.11549 5.52177 7.03624L5.80241 6.99661C6.7646 6.87774 7.64661 6.83812 8.76917 6.87774C8.76917 6.71924 8.72908 6.56075 8.72908 6.40225V6.28338C8.56871 5.25315 8.60881 4.18329 8.88945 3.15306C9.12999 2.16246 9.53091 1.48884 10.1323 1.01335C10.5332 0.696359 11.335 0.022747 12.2972 0.537862C12.6179 0.696359 12.6179 1.21147 12.6179 1.2511C12.6179 1.52847 12.5378 1.76621 12.4576 1.96433C12.3774 2.12283 12.3373 2.28133 12.2972 2.51907C12.1368 3.35118 12.1368 4.0248 12.3373 4.65878C12.4977 5.13427 12.7783 5.64939 13.0189 6.12488L13.1391 6.323C13.5801 7.15511 14.0612 7.70985 14.5824 7.94759C14.9833 8.10609 15.3442 8.10609 15.705 8.06647C16.0658 8.02684 16.4266 8.02684 16.7875 8.18534C17.9501 8.74008 18.1506 10.6817 18.2307 12.3063V12.4648C18.2708 13.6931 18.2307 14.6045 18.0303 15.4366C17.8699 16.1102 17.9283 16.861 17.5674 17.2572C17.1264 17.7723 16.3695 18.2029 15.7681 18.2425C15.3271 18.2821 14.8353 18.1574 14.4745 18.0781C14.274 18.0385 14.0051 17.9657 13.9249 17.9657C13.8046 18.0053 13.8214 18.0085 13.7012 18.0481C13.3002 18.167 12.658 17.9725 11.4152 18.0518C10.7737 18.0914 10.2353 18.4013 9.71411 18.3617C8.91229 18.3221 8.24798 17.8933 7.2457 18.2499C6.7646 18.4084 6.3236 18.6065 5.88259 18.8839C4.9204 19.4782 3.83793 19.9537 2.71537 20.2707C2.43473 20.2707 2.114 20.35 1.83336 20.35ZM6.04296 15.3573L5.88259 15.9517C5.80241 16.1894 5.64204 16.3876 5.3614 16.5064C5.08076 16.6649 4.84021 16.7838 4.59966 16.9423C4.4393 17.0612 4.27893 17.1404 4.07848 17.2593L1.43244 18.765C1.1919 18.9235 1.1518 18.9631 1.1518 19.082C1.1518 19.2009 1.23199 19.3594 1.35226 19.399C1.67299 19.5971 2.07391 19.5179 2.51491 19.399C3.55729 19.1216 4.55957 18.6858 5.44158 18.131C5.92268 17.814 6.44387 17.5763 6.96506 17.4178C8.12771 17.0612 8.92954 17.1008 9.77146 17.1404C10.2526 17.18 10.7336 17.2197 11.335 17.18C12.4977 17.1008 13.059 16.9423 13.4599 16.8234C13.6202 16.7838 13.7405 16.7442 13.8608 16.7442C14.1414 16.7046 14.4622 16.7838 14.7829 16.8631C15.1036 16.9423 15.4243 17.0215 15.705 17.0215C16.0658 16.9819 16.3865 16.8234 16.7073 16.4668C16.9077 16.2291 17.1082 15.9121 17.2685 15.1988C17.4289 14.446 17.5091 13.5742 17.4289 12.4251V12.227C17.3487 10.2458 17.028 9.05707 16.4266 8.7797C16.2663 8.70046 16.0658 8.74008 15.7852 8.74008C15.3843 8.7797 14.8631 8.81933 14.3018 8.54196C13.5801 8.22496 12.9788 7.59098 12.4576 6.56075L12.3373 6.36263C12.0968 5.88713 11.776 5.3324 11.6157 4.77766C11.3751 4.06442 11.3751 3.27193 11.5756 2.28133C11.6157 2.00396 11.7359 1.76621 11.776 1.60772C11.8562 1.44922 11.8963 1.33035 11.8963 1.17185C11.8963 1.17185 11.8963 1.17185 11.8963 1.13223C11.5756 1.01335 11.2548 1.13223 10.6936 1.56809C10.2526 1.92471 9.93182 2.51907 9.73137 3.31156C9.49082 4.22292 9.45072 5.1739 9.571 6.12488V6.24375C9.61109 6.60037 9.69127 6.99661 9.53091 7.39286L9.41063 7.67023H9.12999C7.88716 7.6306 6.96506 7.6306 5.92268 7.7891L5.60195 7.82872C4.8803 7.90797 4.23884 7.98722 3.75775 8.34384C3.5172 8.50233 3.35683 8.85895 3.35683 9.21557C3.35683 9.61181 3.43701 9.88918 3.87802 10.2458L4.4393 10.7213L3.71765 10.959C3.23656 11.1175 2.99601 11.5138 3.0361 12.0685C3.07619 12.5836 3.27665 12.861 3.71765 13.0195L4.55957 13.2969L3.79784 13.7327C3.55729 13.8516 3.39692 14.4063 3.47711 14.763C3.5172 15.0007 3.67756 15.3177 4.27893 15.4762C4.59966 15.5554 5.08076 15.5554 5.44158 15.4762L6.04296 15.3573Z" fill="currentColor"/>
<path fill-rule="evenodd" clip-rule="evenodd" d="M10.3781 1.26516C10.3684 1.27283 10.3589 1.28041 10.3494 1.2879C9.8243 1.70307 9.45678 2.30002 9.22959 3.23565L9.2273 3.24509C8.96059 4.22417 8.92154 5.24407 9.07494 6.22954L9.0791 6.2563V6.40225C9.0791 6.45573 9.08588 6.51301 9.09638 6.59608L9.09733 6.60356C9.10678 6.67813 9.1192 6.77616 9.1192 6.87774V7.24031L8.75685 7.22752C7.65266 7.18855 6.78984 7.22743 5.84836 7.3436L5.55803 7.38459C4.77583 7.46597 4.07634 7.54285 3.52519 7.9514L3.52107 7.95445C3.18334 8.19721 2.94512 8.67889 2.94512 9.17594C2.94512 9.4992 2.98087 9.83711 3.26564 10.1811L3.48938 10.4514L3.21855 10.6745C2.83144 10.9933 2.62995 11.4359 2.66382 12.0469C2.67924 12.2725 2.72763 12.4661 2.80565 12.634C2.73801 12.4695 2.70219 12.2885 2.68718 12.0957L2.68703 12.0937C2.66298 11.7609 2.72131 11.4464 2.88298 11.1824C3.04651 10.9154 3.29847 10.7286 3.60816 10.6266L3.73627 10.5844L3.65479 10.5154C3.4104 10.3172 3.23869 10.1192 3.13409 9.89179C3.02869 9.6626 3.00686 9.43642 3.00686 9.21557C3.00686 8.78148 3.19617 8.30036 3.55662 8.05729C4.12589 7.63927 4.86543 7.5575 5.56141 7.48107L5.87496 7.44233C6.94668 7.27981 7.89287 7.28069 9.1356 7.32022H9.18094L9.20798 7.25786C9.30974 7.00334 9.27977 6.755 9.24068 6.43111C9.23493 6.38341 9.22897 6.33408 9.22322 6.28285L9.22102 6.26336V6.14671C9.09937 5.16529 9.14129 4.17678 9.39254 3.22391C9.60266 2.39425 9.95089 1.71855 10.4735 1.29594L10.4789 1.2916C11.0388 0.856777 11.5033 0.613282 12.018 0.80404L12.1314 0.846097C11.7583 0.64655 11.4267 0.675275 11.1307 0.789939C10.8321 0.905609 10.5822 1.1035 10.3781 1.26516ZM12.2463 1.05702V1.17164C12.2463 1.39189 12.1893 1.56 12.1043 1.7336C12.0848 1.80007 12.057 1.87592 12.0328 1.94195C12.023 1.96872 12.0138 1.99387 12.006 2.01613C11.9686 2.12243 11.9372 2.22617 11.922 2.3314L11.9206 2.34112L11.9186 2.35075C11.7251 3.3072 11.7335 4.03192 11.9473 4.6658L11.9498 4.67308L11.9519 4.68045C12.0703 5.08992 12.2821 5.4963 12.4919 5.89906C12.543 5.99709 12.594 6.0949 12.6435 6.19249L12.7638 6.39068L12.7699 6.40275C13.0163 6.88978 13.2753 7.27248 13.5493 7.56806C13.2917 7.27198 13.0545 6.9095 12.8347 6.496L12.7127 6.29494L12.7066 6.28287C12.6689 6.20849 12.6296 6.13177 12.5893 6.05326C12.3813 5.64788 12.1488 5.19483 12.0057 4.77063L12.0036 4.76432C11.7801 4.05757 11.7865 3.32198 11.9528 2.45684C11.9937 2.21524 12.0396 2.02012 12.1382 1.82052C12.2105 1.6402 12.268 1.45612 12.268 1.2511C12.268 1.241 12.2679 1.15498 12.2463 1.05702ZM16.7353 8.55436C17.0879 8.79741 17.3107 9.24597 17.4598 9.76837C17.6363 10.3868 17.7381 11.2111 17.7787 12.2129L17.7789 12.2199V12.413C17.8598 13.5867 17.7779 14.4878 17.6109 15.2717L17.61 15.2756C17.4387 16.0375 17.2154 16.4071 16.9749 16.6924L16.9677 16.701C16.5965 17.1137 16.1995 17.3193 15.7432 17.3695L15.7242 17.3715H15.705C15.3813 17.3715 15.0256 17.2836 14.722 17.2085L14.699 17.2028C14.3587 17.1188 14.1097 17.0625 13.9097 17.0907L13.8854 17.0942H13.8608C13.8137 17.0942 13.7726 17.1048 13.675 17.13C13.6414 17.1386 13.6012 17.149 13.5517 17.1613C13.132 17.2856 12.5449 17.4484 11.3588 17.5292C10.7316 17.5706 10.2282 17.5292 9.74891 17.4897C8.91675 17.4506 8.16681 17.4153 7.06772 17.7524C6.57703 17.9016 6.08584 18.1257 5.63418 18.4233L5.62799 18.4274C4.71571 19.0011 3.68102 19.4508 2.60554 19.7371C2.19726 19.8471 1.65953 19.9799 1.19827 19.7146C1.05582 19.6537 0.961238 19.5425 0.905537 19.4481C0.84306 19.3423 0.801828 19.2122 0.801828 19.082C0.801828 19.0344 0.805459 18.9681 0.829298 18.8955C0.854498 18.8187 0.895012 18.7562 0.941707 18.7043C1.01815 18.6193 1.13121 18.5444 1.2399 18.4727L1.24944 18.4665L3.90269 16.9566C3.97651 16.9129 4.03915 16.8774 4.09492 16.8457C4.21031 16.7803 4.29633 16.7315 4.39127 16.6611L4.39904 16.6554L4.40712 16.65C4.58587 16.5323 4.77255 16.4304 4.95801 16.3293C5.03555 16.287 5.11287 16.2448 5.18931 16.2017L5.20661 16.1919L5.22492 16.1842C5.40406 16.1083 5.49688 15.9935 5.54779 15.8491L5.55836 15.8099L5.51296 15.8189C5.1064 15.9075 4.57262 15.9093 4.195 15.816L4.18975 15.8147C3.84071 15.7227 3.58687 15.5757 3.41177 15.3882C3.23846 15.2026 3.16364 15.0002 3.1336 14.8304C3.07956 14.5797 3.11077 14.2927 3.18231 14.057C3.21947 13.9346 3.27161 13.8121 3.3403 13.7049C3.40451 13.6047 3.49861 13.4939 3.63132 13.4248L3.70367 13.3834L3.59926 13.349C3.48979 13.3096 3.38699 13.262 3.29255 13.204L3.47831 13.3509L3.27794 13.6232C3.01497 13.9805 2.9217 14.4683 3.01461 14.8356L3.01582 14.8404C3.08184 15.1177 3.20058 15.3227 3.37166 15.4843C3.54173 15.6449 3.78047 15.7785 4.11318 15.8856L4.1163 15.8861C4.13561 15.8896 4.15268 15.8938 4.16583 15.8973C4.18921 15.9036 4.21239 15.9113 4.22572 15.9157L4.22811 15.9164C4.23062 15.9173 4.23288 15.918 4.23492 15.9187H5.05079L4.40472 16.5572C4.27375 16.6867 4.10134 16.7854 3.95259 16.8705C3.91897 16.8897 3.88656 16.9083 3.85611 16.9263L3.85072 16.9295L1.18689 18.4453L1.16806 18.4533C0.94859 18.5463 0.7 18.7295 0.7 19.1216C0.7 19.3653 0.847792 19.6212 1.13409 19.8134C1.36228 19.9404 1.58119 20 1.83338 20C1.94649 20 2.07317 19.9838 2.22866 19.9634L2.23912 19.962C2.36726 19.9451 2.51679 19.9254 2.66411 19.9214C3.73983 19.6133 4.77625 19.1558 5.69749 18.5868C6.1639 18.2936 6.62971 18.0846 7.13233 17.9187C8.10821 17.5723 8.81642 17.6115 9.52906 17.6509C9.60212 17.6549 9.67522 17.6589 9.74866 17.6626L9.75793 17.663C10.2793 17.7027 10.7788 17.7404 11.3935 17.7025C12.6034 17.6253 13.1791 17.4727 13.5563 17.361C13.6346 17.3355 13.7005 17.3225 13.7492 17.3129L13.7528 17.3122C13.803 17.3023 13.8341 17.2958 13.8716 17.2835L13.9249 17.2659H13.9811C14.0399 17.2659 14.104 17.278 14.1423 17.2856C14.1897 17.2949 14.2438 17.3073 14.2968 17.3198C14.3214 17.3256 14.3458 17.3314 14.3701 17.3372C14.4559 17.3576 14.5384 17.3772 14.6102 17.3914L14.6175 17.3929C14.6801 17.4066 14.7412 17.4208 14.8011 17.4346C15.117 17.5074 15.4007 17.5728 15.7138 17.5447L15.7221 17.5439C16.2039 17.5122 16.6442 17.2595 17.0428 16.7939L17.0498 16.7858C17.3505 16.4555 17.534 16.0102 17.6898 15.3555C17.8792 14.5696 17.9207 13.6947 17.881 12.4762L17.8806 12.4648L17.8808 12.3149C17.8407 11.5065 17.7712 10.6517 17.5772 9.93619C17.3948 9.26316 17.1223 8.78833 16.7353 8.55436ZM3.43019 16.3634C3.2278 16.2621 3.04702 16.1405 2.89103 15.9932C2.61162 15.7293 2.42988 15.4001 2.33537 15.0049C2.21308 14.5184 2.29536 13.9508 2.5454 13.4778C2.20529 13.1207 2.00366 12.6612 1.96527 12.0921L1.96501 12.0882C1.92606 11.3953 2.12265 10.8096 2.53607 10.3588C2.27574 9.92255 2.24512 9.49968 2.24512 9.17594C2.24512 8.48518 2.56736 7.77911 3.11035 7.38756C3.82297 6.86037 4.69868 6.76964 5.42817 6.69407C5.44527 6.6923 5.46228 6.69054 5.4792 6.68878L5.75951 6.6492C6.62427 6.54237 7.42603 6.49847 8.38376 6.517C8.38095 6.48004 8.3791 6.44141 8.3791 6.40225V6.31016C8.21688 5.245 8.25955 4.13662 8.5505 3.06577C8.80456 2.02263 9.23858 1.27381 9.91522 0.738803C9.92752 0.729077 9.94044 0.718807 9.95397 0.708056C10.1512 0.551299 10.4765 0.292651 10.8779 0.137191C11.3222 -0.0349178 11.8708 -0.0856546 12.4579 0.226891C12.7526 0.375434 12.8685 0.666659 12.9165 0.850633C12.968 1.04766 12.968 1.22181 12.968 1.25091C12.968 1.59588 12.8678 1.88371 12.782 2.09564L12.7765 2.10924L12.7699 2.12233C12.7136 2.23364 12.6805 2.35098 12.6424 2.57727L12.641 2.58532C12.4876 3.38117 12.4939 3.99084 12.6701 4.55012C12.7949 4.91908 12.9973 5.31424 13.2049 5.71942C13.245 5.79754 13.2852 5.87603 13.3251 5.95477L13.4436 6.15009L13.4484 6.1591C13.8745 6.96308 14.3066 7.43354 14.7196 7.62545C15.0429 7.75128 15.3371 7.75476 15.6668 7.71856C16.0506 7.67641 16.4843 7.66988 16.9282 7.86489L16.9383 7.8693C17.6611 8.2142 18.0395 8.96614 18.2529 9.75301C18.4691 10.5506 18.5402 11.4754 18.5803 12.289L18.5808 12.2976V12.459C18.6209 13.6942 18.5818 14.6413 18.3707 15.5181C18.2063 16.2084 17.9895 16.7917 17.5711 17.2532L17.5745 17.2492L17.5674 17.2572L17.5711 17.2532C17.0892 17.8145 16.4896 18.1937 15.7723 18.2422L15.7764 18.2419L15.7681 18.2425L15.7723 18.2422C15.339 18.2803 14.9339 18.1853 14.6207 18.1119C14.568 18.0995 14.5179 18.0878 14.4707 18.0774L14.4745 18.0781L14.4673 18.0766L14.4707 18.0774C14.3852 18.0604 14.2862 18.0368 14.2001 18.0163C14.1779 18.011 14.1565 18.0059 14.1364 18.0012C14.0849 17.9891 14.0418 17.9793 14.008 17.9726C14.0336 17.9659 13.9518 17.9756 13.9811 17.9659C13.9738 17.9659 13.9695 17.9657 13.9695 17.9657C13.9695 17.9657 13.9801 17.967 14.0065 17.9723L14.008 17.9726C13.963 17.9842 13.924 17.9919 13.8923 17.9981L13.8886 17.9989C13.8384 18.0088 13.8074 18.0152 13.7699 18.0276L13.7599 18.0309C13.3352 18.1568 12.7079 18.3201 11.4375 18.4011C10.772 18.4422 10.23 18.4011 9.71091 18.3616L9.70951 18.3615L9.71411 18.3617L9.70486 18.3611L9.70951 18.3615C9.63645 18.3579 9.565 18.354 9.49479 18.3502C8.78623 18.3118 8.20448 18.2803 7.36305 18.5796L7.35527 18.5824C6.89761 18.7332 6.48295 18.9198 6.06895 19.1802L6.06655 19.1817C4.92719 19.8855 3.65272 20.4817 2.32011 20.6574L2.30958 20.6587C2.16655 20.6776 1.99688 20.7 1.83338 20.7C1.44801 20.7 1.10851 20.6029 0.779254 20.417L0.768814 20.4111L0.758801 20.4045C0.329915 20.1219 0 19.6677 0 19.1216C0 18.3403 0.532236 17.9679 0.875164 17.8173L0.895043 17.8087C0.888492 17.8115 0.881864 17.8144 0.875164 17.8173L3.43019 16.3634ZM10.9111 1.84232C10.5532 2.13301 10.2611 2.64471 10.0707 3.39739L10.0698 3.40088C9.84225 4.26306 9.80282 5.16825 9.91826 6.08096L9.92102 6.10283V6.22367C9.92494 6.2569 9.92951 6.29218 9.93431 6.3293C9.97489 6.64271 10.0324 7.08679 9.85537 7.52416L9.85214 7.53214L9.64038 8.02022H9.11886C7.88055 7.98074 6.98475 7.98163 5.97532 8.13512L5.96564 8.13659L5.64018 8.17666C4.89653 8.25833 4.35751 8.33494 3.96619 8.62501L3.95842 8.63077L3.95034 8.6361C3.83527 8.71191 3.70686 8.93985 3.70686 9.21557C3.70686 9.39096 3.72512 9.50159 3.77006 9.5993C3.81534 9.69777 3.90319 9.81602 4.09812 9.97365L4.10434 9.97868L5.00616 10.7428C5.06578 10.7933 5.04703 10.8896 4.97281 10.914L3.8272 11.2915C3.65579 11.3479 3.54693 11.4386 3.47993 11.548C3.41117 11.6603 3.3693 11.8209 3.38514 12.0423C3.40231 12.2614 3.45071 12.3898 3.51086 12.4736C3.56831 12.5536 3.66052 12.6264 3.8319 12.6886L5.20227 13.1401C5.2845 13.1672 5.29579 13.2789 5.22064 13.3219L3.96246 14.0418L3.96044 14.0428C3.95695 14.0461 3.94587 14.0573 3.92968 14.0825C3.90315 14.1239 3.87511 14.1847 3.85213 14.2604C3.80428 14.418 3.79528 14.5825 3.8186 14.6862L3.82068 14.6954L3.82226 14.7048C3.8334 14.7708 3.85927 14.8418 3.92335 14.9104C3.98857 14.9802 4.11493 15.0706 4.36551 15.1371C4.62841 15.2013 5.05295 15.2032 5.36653 15.1343L5.37372 15.1328L6.36976 14.9359C6.44247 14.9216 6.505 14.9885 6.48569 15.0601L6.21771 16.0533L6.21426 16.0635C6.10597 16.3846 5.88405 16.6589 5.51726 16.8204C5.42558 16.872 5.34223 16.9174 5.26414 16.9599C5.09512 17.052 4.95071 17.1307 4.79979 17.2296C4.67142 17.3238 4.53336 17.4022 4.4024 17.4766C4.3526 17.5049 4.30384 17.5326 4.25702 17.5603L4.25163 17.5635L1.61558 19.0635C1.58441 19.0841 1.58666 19.1295 1.62202 19.1416C1.79137 19.1992 2.0304 19.1671 2.42384 19.0611L2.42494 19.0608C3.43278 18.7926 4.40137 18.3714 5.2522 17.8367C5.76161 17.5015 6.31216 17.2506 6.86245 17.0832C8.07811 16.7103 8.92774 16.7503 9.77159 16.79L9.80023 16.7914C10.2812 16.831 10.7391 16.8685 11.3118 16.8308C12.4434 16.7536 12.9788 16.601 13.3604 16.4879L13.3681 16.4856L13.3759 16.4836C13.3972 16.4784 13.4205 16.4722 13.4455 16.4656C13.5555 16.4365 13.6973 16.399 13.8347 16.3946C14.1771 16.3524 14.5449 16.4435 14.8352 16.5154C14.8459 16.5181 14.8564 16.5207 14.8669 16.5233C15.1905 16.6032 15.4604 16.6679 15.6859 16.6714C15.9427 16.6392 16.181 16.5271 16.4433 16.2369C16.6026 16.0472 16.7785 15.7821 16.9267 15.1239C17.0795 14.4054 17.1578 13.567 17.0798 12.4495L17.0789 12.4373V12.2341C17.0391 11.258 16.9406 10.4997 16.7867 9.96046C16.6267 9.39972 16.4331 9.16809 16.2801 9.09753L16.2715 9.09359C16.2646 9.09019 16.24 9.08017 16.151 9.08017C16.1097 9.08017 16.0645 9.08201 16.0061 9.0844L15.9955 9.08483C15.9392 9.08713 15.8739 9.08966 15.8029 9.09003C15.396 9.12993 14.7984 9.17527 14.1539 8.85925C13.3392 8.49895 12.6917 7.7945 12.1515 6.73093L12.0311 6.53269L12.025 6.52062C11.9824 6.43628 11.9355 6.34654 11.8863 6.25245C11.6751 5.84831 11.422 5.3639 11.2816 4.88224C11.0176 4.09403 11.0258 3.23867 11.2307 2.22107C11.256 2.05304 11.3037 1.90289 11.3457 1.78375C11.3633 1.73371 11.3781 1.69342 11.3905 1.65961C11.4144 1.59439 11.3512 1.54087 11.2915 1.57643C11.1888 1.63757 11.0643 1.72349 10.9111 1.84232Z" fill="currentColor"/>
</g>
</svg>
