<svg viewBox="0 0 16.6415 21" fill="none" xmlns="http://www.w3.org/2000/svg">
<path id="Vector" d="M16.5521 4.12688L8.27119 0L0.0912926 4.12957L0.0536446 4.64309L0.0555361 4.61578L0.0551078 4.6218L0.0536446 4.64309L0.0486433 4.72163C0.0445215 4.78955 0.0390007 4.88809 0.0331589 5.01392C0.0214785 5.26551 0.00849362 5.62664 0.00286306 6.07066C-0.00838213 6.95744 0.00961468 8.18116 0.127403 9.52666C0.244956 10.8695 0.463439 12.3521 0.859875 13.7503C1.25413 15.1407 1.83925 16.5015 2.72256 17.5553C3.73359 18.7614 5.08062 19.5998 6.13456 20.1298C6.66784 20.398 7.1411 20.5946 7.48291 20.7248C7.65412 20.79 7.79316 20.8389 7.89125 20.8721C7.94032 20.8886 7.97921 20.9013 8.00683 20.9101L8.03969 20.9205L8.04954 20.9235L8.05277 20.9245L8.05445 20.925C8.05446 20.925 8.05445 20.925 8.05445 20.925L8.30242 21L8.5521 20.9247L8.55534 20.9237L8.56523 20.9207L8.59835 20.9103C8.62621 20.9014 8.6655 20.8887 8.71508 20.872C8.8142 20.8386 8.95476 20.7894 9.12777 20.7239C9.47319 20.593 9.95131 20.3956 10.4891 20.1269C11.5512 19.5965 12.9084 18.7578 13.9153 17.5548C14.7976 16.5006 15.3827 15.1398 15.7773 13.7494C16.1741 12.3513 16.3934 10.8689 16.5119 9.5263C16.6306 8.18103 16.6495 6.95759 16.639 6.07104C16.6338 5.62714 16.6211 5.2661 16.6097 5.01459C16.604 4.8888 16.5985 4.79029 16.5945 4.72239L16.5895 4.64388L16.5881 4.6226L16.5877 4.61658L16.5521 4.12688Z" fill="currentColor"/>
</svg>
