<svg viewBox="0 0 16.6415 21" fill="none" xmlns="http://www.w3.org/2000/svg">
<path id="Vector" fill-rule="evenodd" clip-rule="evenodd" d="M8.27119 0L16.5521 4.12688L16.5875 4.6137L16.5877 4.61658L16.5881 4.6226L16.5895 4.64388L16.5945 4.72239C16.5985 4.79029 16.604 4.8888 16.6097 5.01459C16.6211 5.2661 16.6338 5.62714 16.639 6.07104C16.6495 6.95759 16.6306 8.18103 16.5119 9.5263C16.3934 10.8689 16.1741 12.3513 15.7773 13.7494C15.3827 15.1398 14.7976 16.5006 13.9153 17.5548C12.9084 18.7578 11.5512 19.5965 10.4891 20.1269C9.95131 20.3956 9.47319 20.593 9.12777 20.7239C8.95476 20.7894 8.8142 20.8386 8.71508 20.872C8.6655 20.8887 8.62621 20.9014 8.59835 20.9103L8.56523 20.9207L8.55534 20.9237L8.5521 20.9247L8.55044 20.9252C8.14258 19.575 8.28367 20.9944 8.05445 20.925L8.05277 20.9245L8.04954 20.9235L8.03969 20.9205L8.00683 20.9101C7.97921 20.9013 7.94032 20.8886 7.89126 20.8721C7.79316 20.8389 7.65412 20.79 7.48291 20.7248C7.1411 20.5946 6.66784 20.398 6.13456 20.1298C5.08062 19.5998 3.73359 18.7614 2.72256 17.5553C1.83925 16.5015 1.25413 15.1407 0.859875 13.7503C0.463439 12.3521 0.244956 10.8695 0.127403 9.52666C0.00961467 8.18116 -0.00838213 6.95744 0.00286306 6.07066C0.00849362 5.62664 0.0214785 5.26551 0.0331589 5.01392C0.0390007 4.88809 0.0445215 4.78955 0.0486433 4.72163L0.0536446 4.64309L0.0551078 4.6218L0.0555361 4.61578L0.0536446 4.64309L0.0912926 4.12957L8.27119 0ZM1.73885 5.21667C1.72953 5.4417 1.72016 5.73874 1.71567 6.09238C1.70494 6.93885 1.72229 8.10325 1.83383 9.37727C1.94559 10.654 2.1504 12.0223 2.50786 13.283C2.8675 14.5514 3.36688 15.6574 4.03532 16.4549C4.83356 17.4072 5.94844 18.1189 6.9041 18.5994C7.37562 18.8365 7.79408 19.0103 8.09279 19.1241C8.17211 19.1543 8.24276 19.1802 8.30345 19.2019C8.36586 19.1797 8.43877 19.1532 8.52078 19.1221C8.82365 19.0073 9.24736 18.8324 9.72373 18.5945C10.69 18.1119 11.8107 17.4004 12.6017 16.4554C13.2698 15.6571 13.7693 14.5504 14.1294 13.2817C14.4873 12.0207 14.6929 10.6524 14.8055 9.37577C14.9179 8.10183 14.9362 6.9376 14.9262 6.09131C14.9221 5.73961 14.913 5.44392 14.9039 5.21938L8.27616 1.91635L1.73885 5.21667ZM8.05445 20.925L8.30242 21L8.55044 20.9252C8.14258 19.575 8.28367 20.9944 8.05445 20.925Z" fill="currentColor"/>
</svg>
