<svg viewBox="0 0 20.4169 18.2898" fill="none" xmlns="http://www.w3.org/2000/svg">
<g id="Vector">
<path fill-rule="evenodd" clip-rule="evenodd" d="M9.52837 0.286591C10.8296 -0.358602 12.4081 0.11973 13.1329 1.37839C13.366 1.7836 13.4332 2.34048 13.4659 2.92526C13.5006 3.54869 13.5 4.38429 13.5 5.45358V12.8364C13.5 13.9057 13.5007 14.7414 13.4659 15.3647C13.4332 15.9494 13.3661 16.5065 13.1329 16.9116C12.4079 18.1698 10.8294 18.6484 9.52837 18.0034C9.10946 17.7956 8.74523 17.3684 8.3936 16.8999C8.01886 16.4005 7.55612 15.7057 6.96294 14.8159C6.70951 14.4358 6.63721 14.3345 6.56059 14.2583C6.38778 14.0867 6.16831 13.9691 5.92973 13.9204C5.82372 13.8988 5.69896 13.895 5.24126 13.895H4.75005C3.86851 13.895 3.28021 13.9013 2.77934 13.7671C1.4856 13.4203 0.474879 12.4094 0.127976 11.1157C-0.00621153 10.6149 4.31511e-05 10.0263 4.6197e-05 9.14499C4.6197e-05 8.2637 -0.00605953 7.67506 0.127976 7.17429C0.474716 5.88046 1.48558 4.8698 2.77934 4.52292C3.28021 4.38871 3.86851 4.39499 4.75005 4.39499H5.24126C5.6986 4.39499 5.82377 4.39114 5.92973 4.3696C6.1681 4.32093 6.38785 4.20301 6.56059 4.03171C6.63723 3.95554 6.70962 3.85406 6.96294 3.47409C7.556 2.58449 8.01889 1.88953 8.3936 1.39011C8.74517 0.921601 9.10957 0.494464 9.52837 0.286591ZM11.8331 2.12644C11.5035 1.55454 10.7858 1.33707 10.1944 1.63034C10.1339 1.66072 9.95922 1.80353 9.5938 2.2905C9.25033 2.74827 8.81459 3.40071 8.21098 4.30612C7.99205 4.63453 7.82666 4.88925 7.61723 5.09714C7.2369 5.47445 6.75352 5.73233 6.22856 5.83933C5.93945 5.89816 5.63599 5.89499 5.24126 5.89499H4.75005C3.77221 5.89499 3.43005 5.90196 3.16802 5.97214C2.39176 6.1803 1.78521 6.78664 1.57719 7.56296C1.50718 7.82493 1.50005 8.16778 1.50005 9.14499C1.50005 10.1225 1.50703 10.465 1.57719 10.727C1.78537 11.5032 2.39178 12.1098 3.16802 12.3178C3.43005 12.388 3.77221 12.395 4.75005 12.395H5.24126C5.63611 12.395 5.93937 12.3918 6.22856 12.4507C6.75374 12.5577 7.23683 12.8153 7.61723 13.1928C7.82669 13.4008 7.99192 13.6553 8.21098 13.9839C8.81472 14.8895 9.2503 15.5417 9.5938 15.9995C9.96003 16.4875 10.1343 16.6298 10.1944 16.6596C10.7855 16.9528 11.5033 16.735 11.8331 16.1635C11.8664 16.1055 11.9338 15.8901 11.9678 15.2807C11.9997 14.7094 12 13.9246 12 12.8364V5.45358C12 4.36543 11.9997 3.58066 11.9678 3.00925C11.9339 2.4006 11.8665 2.18499 11.8331 2.12644Z" fill="currentColor"/>
<path d="M19.1368 6.6694C19.4296 6.3768 19.9045 6.37678 20.1973 6.6694C20.4901 6.96222 20.49 7.43704 20.1973 7.72995L18.7823 9.14401L20.1973 10.5591C20.4901 10.852 20.4902 11.3267 20.1973 11.6196C19.9044 11.9124 19.4296 11.9124 19.1368 11.6196L17.7217 10.2046L16.3086 11.6196C16.0157 11.9125 15.54 11.9125 15.2471 11.6196C14.9545 11.3268 14.9546 10.8519 15.2471 10.5591L16.6612 9.14401L15.2471 7.72995C14.9547 7.43704 14.9544 6.96214 15.2471 6.6694C15.54 6.37651 16.0157 6.37651 16.3086 6.6694L17.7217 8.08347L19.1368 6.6694Z" fill="currentColor"/>
</g>
</svg>
