<svg viewBox="0 0 20.417 18.2898" fill="none" xmlns="http://www.w3.org/2000/svg">
<g id="Vector">
<path d="M9.52837 0.286433C10.8295 -0.358534 12.408 0.119881 13.1329 1.37823C13.3661 1.78339 13.4332 2.34028 13.4659 2.9251C13.5007 3.54852 13.5 4.38395 13.5 5.45342V12.8362C13.5 13.9057 13.5006 14.7411 13.4659 15.3646C13.4332 15.9494 13.3661 16.5062 13.1329 16.9114C12.4081 18.1701 10.8296 18.6484 9.52837 18.0032C9.10947 17.7954 8.74524 17.3683 8.3936 16.8997C8.01885 16.4003 7.55611 15.7055 6.96294 14.8157C6.70947 14.4355 6.63725 14.3343 6.56059 14.2581C6.38783 14.0867 6.16817 13.9689 5.92973 13.9202C5.82375 13.8987 5.69868 13.8948 5.24126 13.8948H4.75005C3.86854 13.8948 3.2802 13.9011 2.77934 13.7669C1.48549 13.4201 0.474732 12.4094 0.127976 11.1155C-0.00614259 10.6147 4.61975e-05 10.0263 4.61975e-05 9.14483C4.44297e-05 8.26335 -0.00622523 7.67497 0.127976 7.17413C0.474819 5.88039 1.48558 4.86956 2.77934 4.52276C3.28017 4.38861 3.86861 4.39483 4.75005 4.39483H5.24126C5.69874 4.39483 5.82374 4.39102 5.92973 4.36944C6.1682 4.32071 6.38784 4.20302 6.56059 4.03155C6.63719 3.95537 6.70957 3.85398 6.96294 3.47393C7.55611 2.58417 8.01886 1.88935 8.3936 1.38995C8.7452 0.921418 9.10951 0.494208 9.52837 0.286433Z" fill="currentColor"/>
<path d="M19.1368 6.67022C19.4296 6.37763 19.9045 6.37761 20.1973 6.67022C20.4902 6.96311 20.4902 7.43885 20.1973 7.73175L18.7832 9.14483L20.1973 10.5599C20.4901 10.8528 20.4902 11.3275 20.1973 11.6204C19.9044 11.9132 19.4296 11.9132 19.1368 11.6204L17.7217 10.2064L16.3086 11.6204C16.0157 11.9133 15.54 11.9133 15.2471 11.6204C14.9545 11.3276 14.9546 10.8527 15.2471 10.5599L16.6612 9.14483L15.2471 7.73175C14.9542 7.43887 14.9543 6.96312 15.2471 6.67022C15.54 6.37733 16.0157 6.37733 16.3086 6.67022L17.7217 8.08428L19.1368 6.67022Z" fill="currentColor"/>
</g>
</svg>
