<svg viewBox="0 0 20.5 18.2899" fill="none" xmlns="http://www.w3.org/2000/svg">
<g id="Vector">
<path fill-rule="evenodd" clip-rule="evenodd" d="M9.52837 0.286591C10.8296 -0.358602 12.4081 0.119731 13.1329 1.37839C13.3661 1.78362 13.4332 2.34038 13.4659 2.92526C13.5007 3.54873 13.5 4.38407 13.5 5.45358L13.5 12.8364C13.5 13.9059 13.5007 14.7413 13.4659 15.3647C13.4332 15.9496 13.3662 16.5064 13.1329 16.9116C12.408 18.1701 10.8295 18.6485 9.52837 18.0034C9.1094 17.7956 8.74527 17.3685 8.3936 16.8999C8.01883 16.4004 7.55617 15.7057 6.96294 14.8159C6.7094 14.4356 6.63724 14.3345 6.56059 14.2583C6.38778 14.0867 6.16831 13.9691 5.92973 13.9204C5.82369 13.8988 5.6991 13.895 5.24126 13.895H4.75005C3.86841 13.895 3.28024 13.9013 2.77934 13.7671C1.48546 13.4203 0.474806 12.4095 0.127976 11.1157C-0.00623134 10.6148 4.49766e-05 10.0265 4.62048e-05 9.14499C4.62048e-05 8.26346 -0.00617053 7.67514 0.127976 7.17428C0.474741 5.88037 1.48545 4.86974 2.77934 4.52292C3.28024 4.3887 3.86841 4.39499 4.75005 4.39499H5.24126C5.69896 4.39499 5.82372 4.39119 5.92973 4.3696C6.16823 4.3209 6.3878 4.20317 6.56059 4.03171C6.63726 3.95551 6.70943 3.85434 6.96294 3.47409C7.55613 2.5843 8.01885 1.88955 8.3936 1.39011C8.74525 0.921489 9.10945 0.494409 9.52837 0.286591ZM11.8331 2.12644C11.5035 1.55454 10.7858 1.33707 10.1944 1.63034C10.1341 1.6604 9.95983 1.80272 9.5938 2.2905C9.25029 2.74829 8.81474 3.40049 8.21098 4.30612C7.99193 4.6347 7.82673 4.88917 7.61723 5.09714C7.23686 5.4746 6.75366 5.7323 6.22856 5.83932C5.93937 5.89821 5.63611 5.89499 5.24126 5.89499H4.75005C3.77207 5.89499 3.43007 5.90196 3.16802 5.97214C2.39163 6.18023 1.78523 6.78655 1.57719 7.56296C1.50708 7.82498 1.50005 8.16727 1.50005 9.14499C1.50005 10.1228 1.50702 10.465 1.57719 10.727C1.7853 11.5034 2.39164 12.1098 3.16801 12.3178C3.43007 12.388 3.77207 12.395 4.75005 12.395H5.24126C5.63615 12.395 5.93934 12.3918 6.22856 12.4507C6.75374 12.5577 7.23683 12.8153 7.61723 13.1928C7.82674 13.4008 7.99189 13.6552 8.21098 13.9839C8.81478 14.8896 9.25028 15.5417 9.59379 15.9995C9.96013 16.4876 10.1343 16.6298 10.1944 16.6596C10.7857 16.9528 11.5034 16.7352 11.8331 16.1635C11.8665 16.1055 11.9338 15.8904 11.9678 15.2807C11.9997 14.7093 12 13.9248 12 12.8364L12 5.45358C12 4.3652 11.9997 3.58069 11.9678 3.00925C11.9338 2.39988 11.8665 2.18468 11.8331 2.12644Z" fill="currentColor"/>
<path d="M16.126 2.728C16.3561 2.38368 16.8226 2.29097 17.167 2.52097C19.1862 3.8695 20.5 6.35252 20.5 9.14499C20.5 11.9374 19.1862 14.4205 17.167 15.769C16.8227 15.9988 16.3561 15.9061 16.126 15.562C15.8961 15.2176 15.9889 14.7511 16.3331 14.521C17.9005 13.4742 19 11.48 19 9.14499C19 6.80991 17.9006 4.81583 16.3331 3.76901C15.9888 3.53899 15.8962 3.07238 16.126 2.728Z" fill="currentColor"/>
<path d="M15.126 6.728C15.3561 6.38368 15.8226 6.29097 16.167 6.52097C16.9906 7.07106 17.5 8.06174 17.5 9.14499C17.5 10.2282 16.9905 11.219 16.167 11.769C15.8227 11.9988 15.3561 11.9061 15.126 11.562C14.8961 11.2176 14.9889 10.7511 15.3331 10.521C15.7049 10.2726 16 9.77075 16 9.14499C16 8.51914 15.705 8.0174 15.3331 7.76901C14.9888 7.53898 14.8962 7.07238 15.126 6.728Z" fill="currentColor"/>
</g>
</svg>
