<svg viewBox="0 0 20 20" fill="none" xmlns="http://www.w3.org/2000/svg">
<path id="Vector" fill-rule="evenodd" clip-rule="evenodd" d="M14.7178 0C16.41 6.15746e-05 17.7897 0.334009 18.7275 1.27148C19.6654 2.20934 20 3.58963 20 5.28223V9.16797C19.9999 10.8605 19.6654 12.2399 18.7275 13.1777C17.7897 14.1155 16.4102 14.4501 14.7178 14.4502H14.4502V14.7178C14.4501 16.4102 14.1155 17.7897 13.1777 18.7275C12.2399 19.6654 10.8605 19.9999 9.16797 20H5.28223C3.58963 20 2.20934 19.6654 1.27148 18.7275C0.334044 17.7897 6.15736e-05 16.41 0 14.7178V10.832C6.39989e-05 9.13953 0.333668 7.75911 1.27148 6.82129C2.20934 5.88351 3.58969 5.54984 5.28223 5.5498H5.5498V5.28223C5.54984 3.58967 5.88348 2.20934 6.82129 1.27148C7.75912 0.333651 9.13949 5.19718e-05 10.832 0H14.7178ZM5.28223 7.0498C3.73772 7.04984 2.85098 7.36296 2.33203 7.88184C1.81312 8.40075 1.50007 9.28755 1.5 10.832V14.7178C1.50006 16.2618 1.81341 17.148 2.33203 17.667C2.85097 18.1859 3.73762 18.5 5.28223 18.5H9.16797C10.7125 18.4999 11.5983 18.1859 12.1172 17.667C12.636 17.1481 12.9501 16.2622 12.9502 14.7178V10.832C12.9501 9.63676 12.7601 8.83666 12.4346 8.29492C12.3395 8.13693 12.2344 8.00001 12.1172 7.88281C12.0524 7.81806 11.982 7.7564 11.9053 7.69824C11.5975 7.46512 11.1889 7.28675 10.6426 7.17676C10.2331 7.09418 9.7463 7.0498 9.16699 7.0498H5.28223ZM10.832 1.5C9.2875 1.50005 8.40076 1.81311 7.88184 2.33203C7.36293 2.85098 7.04984 3.73768 7.0498 5.28223V5.5498H9.16797C10.8602 5.54987 12.2399 5.88385 13.1777 6.82129C13.4853 7.12883 13.7268 7.48471 13.9141 7.88281C14.1195 8.31928 14.2591 8.80699 14.3438 9.34082C14.3879 9.61909 14.4181 9.9097 14.4346 10.2119C14.4456 10.4135 14.4502 10.6204 14.4502 10.832V12.9502H14.7178C16.2622 12.9501 17.1481 12.6361 17.667 12.1172C18.1859 11.5983 18.4999 10.7125 18.5 9.16797V5.28223C18.5 3.73762 18.1859 2.85097 17.667 2.33203C17.148 1.81338 16.2618 1.50006 14.7178 1.5H10.832Z" fill="currentColor"/>
</svg>
