<svg viewBox="0 0 19.6926 19.6695" fill="none" xmlns="http://www.w3.org/2000/svg">
<g id="Vector">
<path d="M0 6.5C0 2.91015 2.91015 0 6.5 0H10.5C14.0899 0 17 2.91015 17 6.5V10.5C17 14.0899 14.0899 17 10.5 17H6.5C2.91015 17 0 14.0899 0 10.5V6.5Z" fill="white"/>
<path d="M18.1897 4.6998C19.1243 5.75771 19.6926 7.14696 19.6926 8.66953V11.6695C19.6926 16.0877 16.1108 19.6694 11.6926 19.6695H8.69263C7.15931 19.6695 5.76111 19.0934 4.70044 18.1471C4.8621 18.1582 5.02521 18.1666 5.1897 18.1666H11.1897C15.0556 18.1665 18.1896 15.0325 18.1897 11.1666V4.6998Z" fill="white"/>
</g>
</svg>
