<svg viewBox="0 0 19.6931 19.6697" fill="none" xmlns="http://www.w3.org/2000/svg">
<g id="Vector">
<path fill-rule="evenodd" clip-rule="evenodd" d="M10.8359 0.00878906C14.2698 0.183358 17.0009 3.02275 17.001 6.5V10.5L16.9922 10.835C16.8235 14.158 14.1589 16.8223 10.8359 16.9912L10.501 17H6.50098C3.02347 17 0.1841 14.2691 0.00976562 10.835L0 10.5V6.5C0.000115504 2.91025 2.9112 6.44243e-08 6.50098 0H10.501L10.8359 0.00878906ZM6.50098 1.5C3.73962 1.5 1.50109 3.73867 1.50098 6.5V10.5C1.50098 13.2614 3.73955 15.5 6.50098 15.5H10.501C13.2622 15.4997 15.501 13.2613 15.501 10.5V6.5C15.5009 3.73884 13.2621 1.50026 10.501 1.5H6.50098Z" fill="white"/>
<path d="M18.1902 4.70001C19.1247 5.75792 19.6931 7.14718 19.6931 8.66974V11.6697C19.6931 16.0879 16.1113 19.6696 11.6931 19.6697H8.69312C7.15979 19.6697 5.7616 19.0936 4.70093 18.1473C4.86258 18.1584 5.02569 18.1668 5.19019 18.1668H11.1902C15.0561 18.1667 18.1901 15.0327 18.1902 11.1668V4.70001Z" fill="white"/>
</g>
</svg>
