<svg viewBox="0 0 18.4157 18.6304" fill="none" xmlns="http://www.w3.org/2000/svg">
<g id="Vector">
<path d="M2.27058 0.0437126C3.15822 -0.0793908 4.14983 0.0570731 5.3614 0.458752C7.25989 1.09374 9.54768 2.47334 11.7442 4.30055C12.8457 5.21414 14.4917 6.9698 15.4571 8.2527C16.9409 10.2225 17.9711 12.2966 18.3145 13.9812C18.444 14.5967 18.4503 15.7626 18.3272 16.2097C18.0033 17.4343 17.0376 18.316 15.7677 18.5427C14.8023 18.7112 14.1865 18.6524 12.7481 18.2312C12.0094 18.0173 9.98207 17.0656 9.78719 16.8386C9.70943 16.7479 9.67736 16.4947 9.65144 15.782C9.61258 14.901 9.61917 14.8298 9.74226 14.6873C9.85871 14.545 9.89083 14.5319 10.0137 14.616C11.8926 15.7951 13.5384 16.4759 14.6788 16.5408C15.6961 16.5991 16.1305 16.3847 16.3184 15.7302C16.7135 14.3695 15.6637 11.7264 13.6358 8.97926C11.5235 6.12182 8.7373 3.52326 6.26863 2.10426C4.71363 1.21663 3.64452 0.853903 2.54305 0.847424C1.92114 0.847425 1.83015 0.85999 1.49324 1.03492C0.838933 1.36538 0.553504 1.88402 0.495193 2.84938C0.449864 3.53618 0.599426 4.37851 0.949295 5.42164C1.06563 5.77066 1.14982 6.07468 1.13094 6.09547C1.04022 6.18618 0.962209 6.08205 0.735428 5.58961C-0.0160193 3.9764 -0.204477 2.39554 0.229568 1.44313C0.592363 0.652753 1.28595 0.179863 2.27058 0.0437126Z" fill="currentColor"/>
<path d="M4.20906 8.90211C4.59926 8.08043 5.72606 8.08047 6.11629 8.90211L6.79109 10.323C6.94606 10.6493 7.24553 10.8752 7.59187 10.9275L9.09969 11.156C9.97188 11.288 10.3198 12.402 9.68855 13.0418L8.59773 14.1472C8.34705 14.4013 8.23289 14.768 8.29207 15.1267L8.54988 16.6873C8.69891 17.5907 7.78625 18.2798 7.00594 17.8533L5.6573 17.116C5.34764 16.9469 4.97769 16.9469 4.66805 17.116L3.31941 17.8533C2.5391 18.2798 1.62644 17.5907 1.77547 16.6873L2.03328 15.1267C2.09246 14.768 1.9783 14.4013 1.72762 14.1472L0.636795 13.0418C0.00561547 12.4021 0.353571 11.2881 1.22566 11.156L2.73347 10.9275C3.07979 10.8752 3.37928 10.6492 3.53426 10.323L4.20906 8.90211Z" fill="currentColor"/>
</g>
</svg>
