<svg viewBox="0 0 19.51 19.51" fill="none" xmlns="http://www.w3.org/2000/svg">
<path id="Star 2" d="M7.83601 1.24026C8.62098 -0.413419 10.889 -0.413422 11.674 1.24026L13.0306 4.09825C13.3423 4.75493 13.9449 5.21008 14.6419 5.31539L17.6754 5.77369C19.4307 6.03887 20.1315 8.28155 18.8614 9.56876L16.6663 11.7934C16.162 12.3045 15.9318 13.041 16.0509 13.7628L16.5691 16.904C16.8689 18.7216 15.034 20.1076 13.4641 19.2495L10.7508 17.7664C10.1274 17.4256 9.38261 17.4256 8.75918 17.7664L6.04592 19.2495C4.47598 20.1076 2.64109 18.7216 2.94092 16.904L3.45911 13.7628C3.57818 13.041 3.34802 12.3045 2.84366 11.7934L0.648586 9.56876C-0.621524 8.28155 0.0793356 6.03887 1.83458 5.77369L4.86811 5.31539C5.56512 5.21008 6.16766 4.75493 6.47938 4.09825L7.83601 1.24026Z" fill="currentColor"/>
</svg>
