<svg viewBox="0 0 21.6214 21.4502" fill="none" xmlns="http://www.w3.org/2000/svg">
<g id="Vector">
<path d="M7.70014 17.003C7.97351 16.7296 8.41701 16.7296 8.69037 17.003C8.96347 17.2763 8.96344 17.7189 8.69037 17.9922L5.43744 21.2451C5.16408 21.5185 4.72058 21.5185 4.44721 21.2451C4.17414 20.9718 4.17395 20.5282 4.44721 20.2549L7.70014 17.003Z" fill="currentColor"/>
<path d="M5.57905 14.8809C5.85241 14.6078 6.29599 14.6077 6.56928 14.8809C6.84257 15.1542 6.84241 15.5977 6.56928 15.8711L4.73041 17.71C4.45703 17.9832 4.01349 17.9833 3.74018 17.71C3.46694 17.4367 3.46699 16.9931 3.74018 16.7197L5.57905 14.8809Z" fill="currentColor"/>
<path d="M3.45795 12.7598C3.73123 12.4868 4.17389 12.4868 4.44721 12.7598C4.72058 13.0332 4.72058 13.4767 4.44721 13.75L1.19526 17.003C0.921941 17.2763 0.4784 17.2762 0.205023 17.003C-0.0683427 16.7296 -0.068339 16.2861 0.205023 16.0127L3.45795 12.7598Z" fill="currentColor"/>
<path d="M10.6035 1.86037C11.4515 -0.62007 14.9607 -0.620179 15.8085 1.86037L16.6162 4.22561C16.7412 4.5918 17.0293 4.87981 17.3955 5.0049L19.7607 5.81252C22.2417 6.66019 22.2415 10.1697 19.7607 11.0176L17.3955 11.8252C17.0295 11.9502 16.7414 12.2386 16.6162 12.6045L15.8085 14.9697C14.9609 17.4511 11.4511 17.4511 10.6035 14.9697L9.79584 12.6045C9.67068 12.2386 9.38252 11.9502 9.01655 11.8252L6.65131 11.0176C4.17006 10.1699 4.16997 6.66011 6.65131 5.81252L9.01655 5.0049C9.38258 4.87976 9.67083 4.59171 9.79584 4.22561L10.6035 1.86037Z" fill="currentColor"/>
</g>
</svg>
