<svg viewBox="0 0 19.4952 19.5076" fill="none" xmlns="http://www.w3.org/2000/svg">
<path id="Star 2 (Stroke)" d="M7.29934 1.57243C8.29475 -0.524139 11.2004 -0.524146 12.1958 1.57243L13.4468 4.20915C13.6314 4.59811 13.9813 4.85375 14.3687 4.91227L17.1675 5.33512C19.4319 5.67757 20.2567 8.50945 18.6831 10.1047L16.6577 12.1574C16.3647 12.4543 16.2249 12.8911 16.2964 13.3254L16.774 16.2238C17.1411 18.4495 14.8664 20.2919 12.8101 19.1681L10.3062 17.8C9.95527 17.6082 9.53991 17.6082 9.18899 17.8L6.68509 19.1681C4.6288 20.2919 2.35407 18.4495 2.72122 16.2238L3.19876 13.3254C3.27031 12.8911 3.13042 12.4543 2.83743 12.1574L0.812039 10.1047C-0.761571 8.50945 0.0632167 5.67757 2.32766 5.33512L5.12649 4.91227C5.51388 4.85374 5.86373 4.59811 6.04837 4.20915L7.29934 1.57243ZM10.8404 2.21598C10.3872 1.26162 9.10793 1.26162 8.65481 2.21598L7.40286 4.8527C7.01234 5.6754 6.24978 6.25985 5.3511 6.39567L2.55227 6.81852C1.57838 6.96565 1.10991 8.272 1.87942 9.05192L3.90481 11.1037C4.54233 11.7498 4.82714 12.6721 4.67923 13.5695L4.20071 16.4679C4.01465 17.596 5.12583 18.3112 5.96634 17.8517L8.46927 16.4836C9.26858 16.0467 10.2266 16.0467 11.0259 16.4836L13.5288 17.8517C14.3693 18.3111 15.4805 17.596 15.2945 16.4679L14.8159 13.5695C14.668 12.6721 14.9528 11.7498 15.5904 11.1037L17.6157 9.05192C18.3853 8.272 17.9168 6.96565 16.9429 6.81852L14.1441 6.39567C13.2454 6.25985 12.4828 5.67539 12.0923 4.8527L10.8404 2.21598Z" fill="currentColor"/>
</svg>
