<svg viewBox="0 0 21.6214 21.4505" fill="none" xmlns="http://www.w3.org/2000/svg">
<g id="Vector">
<path d="M7.70011 17.0024C7.97346 16.7291 8.41697 16.7291 8.69034 17.0024C8.96371 17.2758 8.96371 17.7193 8.69034 17.9926L5.43741 21.2456C5.16402 21.5187 4.72046 21.5189 4.44718 21.2456C4.17394 20.9723 4.17409 20.5287 4.44718 20.2553L7.70011 17.0024Z" fill="currentColor"/>
<path d="M5.57901 14.8813C5.85238 14.608 6.29588 14.608 6.56925 14.8813C6.84242 15.1547 6.84255 15.5982 6.56925 15.8716L4.73038 17.7094C4.45701 17.9828 4.01351 17.9828 3.74014 17.7094C3.46722 17.4362 3.46729 16.9935 3.74014 16.7202L5.57901 14.8813Z" fill="currentColor"/>
<path d="M3.45792 12.7602C3.73126 12.4869 4.1738 12.4869 4.44718 12.7602C4.72054 13.0336 4.72054 13.4761 4.44718 13.7495L1.19522 17.0024C0.921856 17.2758 0.478356 17.2758 0.204989 17.0024C-0.0683053 16.729 -0.0683539 16.2855 0.204989 16.0122L3.45792 12.7602Z" fill="currentColor"/>
<path fill-rule="evenodd" clip-rule="evenodd" d="M10.6034 1.86081C11.4512 -0.620217 14.9608 -0.620322 15.8085 1.86081L16.6161 4.22604C16.7412 4.59229 17.0292 4.88027 17.3954 5.00534L19.7607 5.81296C22.2418 6.66063 22.2417 10.1703 19.7607 11.018L17.3954 11.8257C17.0293 11.9507 16.7412 12.2389 16.6161 12.6049L15.8085 14.9702C14.9609 17.4515 11.4511 17.4515 10.6034 14.9702L9.79581 12.6049C9.67072 12.2388 9.38264 11.9507 9.01651 11.8257L6.65128 11.018C4.16987 10.1704 4.16988 6.66056 6.65128 5.81296L9.01651 5.00534C9.38262 4.88022 9.67077 4.59219 9.79581 4.22604L10.6034 1.86081ZM14.3886 2.34616C14.0033 1.21837 12.4087 1.21847 12.0233 2.34616L11.2157 4.71139C10.9406 5.51693 10.3074 6.15005 9.50186 6.42526L7.13663 7.23288C6.00857 7.6181 6.00857 9.2129 7.13663 9.59811L9.50186 10.4057C10.3074 10.6809 10.9406 11.3141 11.2157 12.1196L12.0233 14.4848C12.4086 15.6129 14.0034 15.6129 14.3886 14.4848L15.1962 12.1196C15.4714 11.3141 16.1045 10.6809 16.9101 10.4057L19.2753 9.59811C20.403 9.21274 20.4031 7.61814 19.2753 7.23288L16.9101 6.42526C16.1044 6.15012 15.4714 5.51704 15.1962 4.71139L14.3886 2.34616Z" fill="currentColor"/>
</g>
</svg>
