<svg viewBox="0 0 17 14.2439" fill="none" xmlns="http://www.w3.org/2000/svg">
<g id="Android/WiFi">
<path id="Bar 1" d="M8.45511 14.2439C8.14374 14.2439 7.83237 14.1006 7.6335 13.814L7.25049 13.2619C6.79039 12.5988 7.26498 11.6919 8.0721 11.6919H8.83812C9.64524 11.6919 10.1198 12.5988 9.65973 13.2619L9.27672 13.814C9.07785 14.1006 8.76648 14.2439 8.45511 14.2439Z" fill="currentColor"/>
<path id="Bar 2" d="M10.946 9.71114C10.6605 9.30028 10.2759 8.96811 9.82788 8.74541C9.37986 8.52271 8.88296 8.41668 8.38306 8.43714C7.90132 8.40391 7.41969 8.5055 6.99243 8.73052C6.56518 8.95554 6.20899 9.2951 5.96387 9.71114" stroke="currentColor" stroke-width="2" stroke-linecap="round"/>
<path id="Bar 3" d="M13.4541 6.95614C12.1125 5.57726 10.287 4.77432 8.36401 4.71714C7.43089 4.73568 6.51138 4.94372 5.66113 5.32862C4.81089 5.71351 4.04762 6.26723 3.41797 6.95614" stroke="currentColor" stroke-width="2" stroke-linecap="round"/>
<path id="Bar 4" d="M16 4.20114C13.902 2.28306 11.2036 1.15211 8.36499 1.00114C5.59852 1.11938 2.97427 2.25959 1 4.20114" stroke="currentColor" stroke-width="2" stroke-linecap="round"/>
</g>
</svg>
