<svg viewBox="0 0 19.5 12" fill="none" xmlns="http://www.w3.org/2000/svg">
<g id="Android/Battery">
<path id="outline" d="M4 11.5C3.07174 11.5 2.18152 11.1313 1.52515 10.4749C0.868769 9.8185 0.5 8.92826 0.5 8V4C0.5 3.07174 0.868769 2.1815 1.52515 1.52513C2.18152 0.868749 3.07174 0.5 4 0.5H14C14.9283 0.5 15.8185 0.868749 16.4749 1.52513C17.1312 2.1815 17.5 3.07174 17.5 4H18C18.2652 4 18.5196 4.10536 18.7072 4.29289C18.8947 4.48043 19 4.73478 19 5V7C19 7.26522 18.8947 7.51957 18.7072 7.70711C18.5196 7.89464 18.2652 8 18 8H17.5C17.5 8.92826 17.1312 9.8185 16.4749 10.4749C15.8185 11.1313 14.9283 11.5 14 11.5H4Z" stroke="currentColor"/>
<rect id="indicator" x="2" y="2" width="14" height="8" rx="2" fill="currentColor"/>
</g>
</svg>
