<svg viewBox="0 0 18 16" fill="none" xmlns="http://www.w3.org/2000/svg">
<g id="bars">
<path id="Bar 1" d="M16.5 0C16.8978 0 17.2794 0.158035 17.5607 0.43934C17.842 0.720644 18 1.10218 18 1.5V16H15V1.5C15 1.10218 15.158 0.720644 15.4393 0.43934C15.7206 0.158035 16.1022 0 16.5 0V0Z" fill="currentColor"/>
<path id="Bar 2" d="M11.5 4C11.8978 4 12.2794 4.15804 12.5607 4.43934C12.842 4.72064 13 5.10218 13 5.5V16H10V5.5C10 5.10218 10.158 4.72064 10.4393 4.43934C10.7206 4.15804 11.1022 4 11.5 4V4Z" fill="currentColor"/>
<path id="Bar 3" d="M6.5 8C6.89782 8 7.27936 8.15804 7.56066 8.43934C7.84196 8.72064 8 9.10218 8 9.5V16H5V9.5C5 9.10218 5.15804 8.72064 5.43934 8.43934C5.72064 8.15804 6.10218 8 6.5 8V8Z" fill="currentColor"/>
<path id="Bar 4" d="M1.5 12C1.89782 12 2.27936 12.158 2.56066 12.4393C2.84196 12.7206 3 13.1022 3 13.5V16H0V13.5C0 13.1022 0.158035 12.7206 0.43934 12.4393C0.720644 12.158 1.10218 12 1.5 12V12Z" fill="currentColor"/>
</g>
</svg>
