<svg viewBox="0 0 19.9999 20" fill="none" xmlns="http://www.w3.org/2000/svg">
<path id="Vector" d="M19.9999 8.33337C20 8.27254 19.9933 8.21189 19.9799 8.15254L18.8966 3.26256C18.6953 2.33443 18.1811 1.50372 17.44 0.909718C16.699 0.31572 15.7763 -0.00544697 14.8266 6.99071e-05H5.17332C4.2242 -0.00468033 3.30226 0.316837 2.56193 0.910772C1.8216 1.50471 1.30783 2.33499 1.10666 3.26256L0.0200011 8.15254C0.00667454 8.21189 -3.30498e-05 8.27254 1.14116e-06 8.33337V9.1667C-0.000671196 9.97803 0.295768 10.7615 0.833331 11.3692V15.8333C0.834655 16.938 1.27407 17.997 2.05518 18.7782C2.83629 19.5593 3.89532 19.9987 4.99998 20H14.9999C16.1046 19.9987 17.1636 19.5593 17.9448 18.7782C18.7259 17.997 19.1653 16.938 19.1666 15.8333V11.3692C19.7042 10.7615 20.0006 9.97803 19.9999 9.1667V8.33337ZM1.66666 8.42421L2.73332 3.62422C2.85419 3.06777 3.1625 2.56971 3.60667 2.21338C4.05083 1.85705 4.60389 1.66407 5.17332 1.66673H5.83331V4.16672C5.83331 4.38773 5.92111 4.5997 6.07739 4.75598C6.23367 4.91226 6.44563 5.00005 6.66664 5.00005C6.88766 5.00005 7.09962 4.91226 7.2559 4.75598C7.41218 4.5997 7.49997 4.38773 7.49997 4.16672V1.66673H12.5V4.16672C12.5 4.38773 12.5878 4.5997 12.744 4.75598C12.9003 4.91226 13.1123 5.00005 13.3333 5.00005C13.5543 5.00005 13.7663 4.91226 13.9225 4.75598C14.0788 4.5997 14.1666 4.38773 14.1666 4.16672V1.66673H14.8266C15.396 1.66407 15.9491 1.85705 16.3933 2.21338C16.8374 2.56971 17.1457 3.06777 17.2666 3.62422L18.3333 8.42421V9.1667C18.3333 9.60873 18.1577 10.0327 17.8451 10.3452C17.5326 10.6578 17.1086 10.8334 16.6666 10.8334H15.8333C15.3913 10.8334 14.9673 10.6578 14.6548 10.3452C14.3422 10.0327 14.1666 9.60873 14.1666 9.1667C14.1666 8.94569 14.0788 8.73373 13.9225 8.57745C13.7663 8.42117 13.5543 8.33337 13.3333 8.33337C13.1123 8.33337 12.9003 8.42117 12.744 8.57745C12.5878 8.73373 12.5 8.94569 12.5 9.1667C12.5 9.60873 12.3244 10.0327 12.0118 10.3452C11.6992 10.6578 11.2753 10.8334 10.8333 10.8334H9.16664C8.72461 10.8334 8.30069 10.6578 7.98813 10.3452C7.67557 10.0327 7.49997 9.60873 7.49997 9.1667C7.49997 8.94569 7.41218 8.73373 7.2559 8.57745C7.09962 8.42117 6.88766 8.33337 6.66664 8.33337C6.44563 8.33337 6.23367 8.42117 6.07739 8.57745C5.92111 8.73373 5.83331 8.94569 5.83331 9.1667C5.83331 9.60873 5.65772 10.0327 5.34516 10.3452C5.0326 10.6578 4.60868 10.8334 4.16665 10.8334H3.33332C2.8913 10.8334 2.46738 10.6578 2.15482 10.3452C1.84226 10.0327 1.66666 9.60873 1.66666 9.1667V8.42421ZM14.9999 18.3333H4.99998C4.33694 18.3333 3.70106 18.0699 3.23222 17.6011C2.76338 17.1323 2.49999 16.4964 2.49999 15.8333V12.3942C2.77216 12.4647 3.05218 12.5002 3.33332 12.5H4.16665C4.63983 12.5003 5.10761 12.3995 5.53874 12.2045C5.96986 12.0095 6.35439 11.7247 6.66664 11.3692C6.97889 11.7247 7.36343 12.0095 7.79455 12.2045C8.22568 12.3995 8.69346 12.5003 9.16664 12.5H10.8333C11.3065 12.5003 11.7743 12.3995 12.2054 12.2045C12.6365 12.0095 13.021 11.7247 13.3333 11.3692C13.6455 11.7247 14.0301 12.0095 14.4612 12.2045C14.8923 12.3995 15.3601 12.5003 15.8333 12.5H16.6666C16.9478 12.5002 17.2278 12.4647 17.4999 12.3942V15.8333C17.4999 16.4964 17.2365 17.1323 16.7677 17.6011C16.2989 18.0699 15.663 18.3333 14.9999 18.3333Z" fill="currentColor"/>
</svg>
