<svg viewBox="0 0 18.3341 20" fill="none" xmlns="http://www.w3.org/2000/svg">
<g id="Vector">
<path d="M12.5005 10.833C12.1124 11.3505 11.6091 11.7705 11.0305 12.0598C10.4519 12.3491 9.81393 12.4997 9.16705 12.4997C8.52016 12.4997 7.88217 12.3491 7.30358 12.0598C6.72499 11.7705 6.2217 11.3505 5.83357 10.833C5.50692 11.2733 5.09587 11.6442 4.62438 11.924C4.1529 12.2038 3.63043 12.3869 3.08743 12.4627C2.54444 12.5385 1.99179 12.5054 1.46171 12.3654C0.931632 12.2254 0.434736 11.9812 0 11.6472V15.8332C0.00132327 16.9379 0.440753 17.997 1.2219 18.7781C2.00305 19.5592 3.06213 19.9987 4.16684 20H14.1673C15.272 19.9987 16.331 19.5592 17.1122 18.7781C17.8933 17.997 18.3328 16.9379 18.3341 15.8332V11.6447C17.8995 11.9789 17.4027 12.2232 16.8728 12.3634C16.3428 12.5036 15.7902 12.5369 15.2472 12.4614C14.7042 12.3858 14.1817 12.2029 13.7101 11.9233C13.2386 11.6438 12.8274 11.2731 12.5005 10.833Z" fill="currentColor"/>
<path d="M17.2507 2.60933C17.0894 1.86688 16.6778 1.20244 16.0848 0.727387C15.4919 0.252334 14.7537 -0.00445617 13.9939 5.85297e-05H13.3339V2.50016C13.3339 2.72118 13.2461 2.93316 13.0898 3.08944C12.9335 3.24573 12.7215 3.33353 12.5005 3.33353C12.2795 3.33353 12.0675 3.24573 11.9112 3.08944C11.7549 2.93316 11.6671 2.72118 11.6671 2.50016V5.85297e-05H6.66694V2.50016C6.66694 2.72118 6.57914 2.93316 6.42285 3.08944C6.26657 3.24573 6.0546 3.33353 5.83357 3.33353C5.61255 3.33353 5.40058 3.24573 5.24429 3.08944C5.08801 2.93316 5.00021 2.72118 5.00021 2.50016V5.85297e-05H4.34018C3.5803 -0.0044154 2.84199 0.252494 2.24903 0.727711C1.65607 1.20293 1.24452 1.86756 1.08338 2.61017L0.0183341 7.41703L0 8.3504C0.00109439 8.67872 0.0668451 9.00361 0.193498 9.30652C0.320151 9.60943 0.505226 9.88442 0.738156 10.1158C1.20858 10.5831 1.84537 10.8444 2.50844 10.8422C2.83676 10.8411 3.16164 10.7753 3.46455 10.6487C3.76746 10.522 4.04245 10.3369 4.27384 10.104C4.50522 9.87109 4.68846 9.59486 4.81309 9.29112C4.93772 8.98737 5.0013 8.66205 5.00021 8.33374C5.00021 8.11271 5.08801 7.90074 5.24429 7.74446C5.40058 7.58817 5.61255 7.50037 5.83357 7.50037C6.0546 7.50037 6.26657 7.58817 6.42285 7.74446C6.57914 7.90074 6.66694 8.11271 6.66694 8.33374C6.66694 8.99681 6.93034 9.63272 7.39921 10.1016C7.86807 10.5704 8.50398 10.8338 9.16705 10.8338C9.83011 10.8338 10.466 10.5704 10.9349 10.1016C11.4037 9.63272 11.6671 8.99681 11.6671 8.33374C11.6671 8.11271 11.7549 7.90074 11.9112 7.74446C12.0675 7.58817 12.2795 7.50037 12.5005 7.50037C12.7215 7.50037 12.9335 7.58817 13.0898 7.74446C13.2461 7.90074 13.3339 8.11271 13.3339 8.33374C13.3339 8.99681 13.5973 9.63272 14.0661 10.1016C14.535 10.5704 15.1709 10.8338 15.834 10.8338C16.4971 10.8338 17.133 10.5704 17.6018 10.1016C18.0707 9.63272 18.3341 8.99681 18.3341 8.33374V7.58954L17.2507 2.60933Z" fill="currentColor"/>
</g>
</svg>
