<svg viewBox="0 0 21.5 22.0968" fill="none" xmlns="http://www.w3.org/2000/svg">
<path id="Vector" d="M9.21682 0.208134C10.22 -0.0693861 11.28 -0.0693698 12.2832 0.208134C12.8887 0.375657 13.4369 0.671704 14.042 1.08704C14.6393 1.49703 15.3328 2.0525 16.2158 2.75891L18.2158 4.3595C19.2856 5.21534 19.935 5.72653 20.4053 6.37513C20.8095 6.93274 21.111 7.55883 21.294 8.22278C21.5067 8.99517 21.5 9.82168 21.5 11.1915V16.3468C21.5 19.5224 18.9257 22.0968 15.75 22.0968C14.2313 22.0968 13 20.8656 13 19.3468V15.3468C12.9998 14.1043 11.9925 13.0968 10.75 13.0968C9.50752 13.0968 8.50021 14.1043 8.50002 15.3468V19.3468C8.50002 20.8656 7.26881 22.0968 5.75002 22.0968C2.57441 22.0968 2.3853e-05 19.5224 2.3853e-05 16.3468V11.1915C2.18823e-05 9.82168 -0.00667824 8.99517 0.206079 8.22278C0.389031 7.55882 0.690537 6.93274 1.09475 6.37513C1.56503 5.72651 2.21438 5.21536 3.2842 4.3595L5.2842 2.75891C6.16724 2.05248 6.86073 1.49703 7.45803 1.08704C8.06318 0.67168 8.61129 0.375663 9.21682 0.208134Z" fill="currentColor"/>
</svg>
