<svg viewBox="0 0 21.5 22.0968" fill="none" xmlns="http://www.w3.org/2000/svg">
<path id="Vector" d="M20 16.3468V11.1916C20 9.73817 19.994 9.15232 19.8477 8.62124C19.7125 8.13059 19.4901 7.66811 19.1914 7.25601C18.8681 6.80997 18.4144 6.43848 17.2793 5.53042L15.2793 3.93081C14.3791 3.21062 13.735 2.69516 13.1934 2.32339C12.6596 1.95698 12.2663 1.75954 11.8828 1.65347C11.1416 1.44849 10.3585 1.44849 9.61721 1.65347C9.2338 1.75954 8.84049 1.95698 8.30666 2.32339C7.76506 2.69516 7.12097 3.21062 6.22073 3.93081L4.22073 5.53042C3.08566 6.43848 2.63195 6.80997 2.30862 7.25601C2.00997 7.66811 1.78754 8.13059 1.65237 8.62124C1.50609 9.15232 1.50002 9.73817 1.50002 11.1916V16.3468C1.50002 18.694 3.40281 20.5968 5.75002 20.5968C6.44038 20.5968 7.00002 20.0372 7.00002 19.3468V15.3468C7.00002 13.2758 8.67896 11.5968 10.75 11.5968C12.8211 11.5968 14.5 13.2758 14.5 15.3468V19.3468C14.5 20.0372 15.0597 20.5968 15.75 20.5968C18.0972 20.5968 20 18.694 20 16.3468ZM21.5 16.3468C21.5 19.5225 18.9257 22.0968 15.75 22.0968C14.2312 22.0968 13 20.8656 13 19.3468V15.3468C13 14.1042 11.9927 13.0968 10.75 13.0968C9.50738 13.0968 8.50002 14.1042 8.50002 15.3468V19.3468C8.50002 20.8656 7.26881 22.0968 5.75002 22.0968C2.57439 22.0968 2.3853e-05 19.5225 2.3853e-05 16.3468V11.1916C2.30161e-05 9.8215 -0.00669618 8.99526 0.206079 8.22281C0.389023 7.55873 0.690474 6.93286 1.09475 6.37515C1.56504 5.72644 2.21427 5.21547 3.2842 4.35953L5.2842 2.75894C6.16731 2.05245 6.8607 1.49708 7.45803 1.08706C8.06323 0.671658 8.61125 0.3757 9.21682 0.208158C10.2201 -0.0693861 11.28 -0.0693861 12.2832 0.208158C12.8888 0.3757 13.4368 0.671658 14.042 1.08706C14.6394 1.49708 15.3327 2.05245 16.2158 2.75894L18.2158 4.35953C19.2858 5.21547 19.935 5.72644 20.4053 6.37515C20.8096 6.93286 21.111 7.55873 21.294 8.22281C21.5067 8.99526 21.5 9.8215 21.5 11.1916V16.3468Z" fill="currentColor"/>
</svg>
