<svg viewBox="0 0 22.0001 22" fill="none" xmlns="http://www.w3.org/2000/svg">
<path id="Vector" fill-rule="evenodd" clip-rule="evenodd" d="M11.004 0C18.4265 0 21.9817 3.51796 22.0001 11.0664C22.0102 18.6493 18.504 22 11.004 22C3.44914 21.9938 -0.0222768 18.5474 0.000107541 11.0664C0.0164428 3.44683 3.49602 0.000100312 11.004 0ZM11.0001 7C10.4479 7.00006 10.0001 7.44775 10.0001 8V10H8.00011C7.44787 10.0001 7.00011 10.4478 7.00011 11C7.00011 11.5522 7.44787 11.9999 8.00011 12H10.0001V14C10.0001 14.5522 10.4479 14.9999 11.0001 15C11.5524 15 12.0001 14.5523 12.0001 14V12H14.0001C14.5524 12 15.0001 11.5523 15.0001 11C15.0001 10.4477 14.5524 10 14.0001 10H12.0001V8C12.0001 7.44772 11.5524 7 11.0001 7Z" fill="currentColor"/>
</svg>
