<svg viewBox="0 0 20.0353 21.5" fill="none" xmlns="http://www.w3.org/2000/svg">
<g id="Vector">
<path d="M13.0177 5.00002C13.4319 5.00002 13.7676 5.33582 13.7677 5.75002V7.75002C13.7677 9.82109 12.0887 11.5 10.0177 11.5C7.94673 11.4999 6.26765 9.82098 6.26765 7.75002V5.75002C6.26767 5.33593 6.6036 5.0002 7.01765 5.00002C7.43186 5.00002 7.76764 5.33582 7.76765 5.75002V7.75002C7.76765 8.99256 8.77516 9.99985 10.0177 10C11.2603 10 12.2677 8.99266 12.2677 7.75002V5.75002C12.2677 5.33593 12.6036 5.0002 13.0177 5.00002Z" fill="currentColor"/>
<path fill-rule="evenodd" clip-rule="evenodd" d="M10.0177 2.39778e-05C12.2887 2.39778e-05 13.6127 -0.00993288 14.7247 0.37893C16.429 0.975022 17.8238 2.22864 18.5968 3.86038C19.101 4.92503 19.2308 6.24354 19.4708 8.50198L19.7071 10.7266C19.868 12.2413 19.9932 13.4164 20.0264 14.3633C20.0599 15.3161 20.0038 16.1002 19.7696 16.8252C19.1799 18.6506 17.8409 20.1388 16.088 20.918C15.3919 21.2273 14.6188 21.3662 13.668 21.4336C12.7229 21.5006 11.5409 21.5 10.0177 21.5C8.49442 21.5 7.31242 21.5006 6.36726 21.4336C5.41654 21.3662 4.64338 21.2274 3.94734 20.918C2.19449 20.1388 0.85543 18.6506 0.265701 16.8252C0.0315325 16.1003 -0.0245981 15.3161 0.00886551 14.3633C0.0421368 13.4164 0.167268 12.2413 0.328201 10.7266L0.56453 8.50198C0.804488 6.24355 0.934348 4.92502 1.43855 3.86038C2.21148 2.22865 3.60633 0.97505 5.31062 0.37893C6.42257 -0.0099752 7.74658 2.35213e-05 10.0177 2.39778e-05ZM10.0177 1.50002C7.62549 1.50002 6.61744 1.51013 5.80574 1.79397C4.48008 2.25766 3.39515 3.23369 2.79402 4.50295C2.42599 5.28013 2.30947 6.2813 2.05672 8.66018L1.82039 10.8848C1.65718 12.4209 1.53886 13.5346 1.50789 14.416C1.47714 15.2915 1.53626 15.8765 1.69344 16.3633C2.15207 17.7831 3.19332 18.9408 4.55672 19.5469C5.02419 19.7547 5.59986 19.8756 6.47371 19.9375C7.35347 19.9999 8.47301 20 10.0177 20C11.5623 20 12.6818 19.9998 13.5616 19.9375C14.4355 19.8756 15.0111 19.7547 15.4786 19.5469C16.842 18.9408 17.8832 17.7832 18.3419 16.3633C18.4991 15.8765 18.5582 15.2915 18.5274 14.416C18.4965 13.5346 18.3781 12.4209 18.2149 10.8848L17.9786 8.66018C17.7258 6.28127 17.6093 5.28014 17.2413 4.50295C16.6401 3.23368 15.5553 2.25763 14.2296 1.79397C13.4179 1.51017 12.4098 1.50002 10.0177 1.50002Z" fill="currentColor"/>
</g>
</svg>
