<svg viewBox="0 0 20.0353 21.5" fill="none" xmlns="http://www.w3.org/2000/svg">
<path id="Vector" fill-rule="evenodd" clip-rule="evenodd" d="M10.0177 2.39777e-05C12.2888 2.39777e-05 13.6127 -0.00994378 14.7247 0.37893C16.429 0.975021 17.8238 2.22865 18.5968 3.86038C19.101 4.92502 19.2308 6.24355 19.4708 8.50198L19.7071 10.7266C19.868 12.2412 19.9932 13.4164 20.0264 14.3633C20.0599 15.3161 20.0038 16.1002 19.7696 16.8252C19.1799 18.6506 17.8409 20.1388 16.088 20.918C15.3919 21.2274 14.6188 21.3662 13.668 21.4336C12.7229 21.5006 11.5409 21.5 10.0177 21.5C8.4944 21.5 7.31242 21.5006 6.36726 21.4336C5.41652 21.3662 4.64339 21.2274 3.94734 20.918C2.19447 20.1388 0.855433 18.6506 0.265701 16.8252C0.0315365 16.1003 -0.0245982 15.3161 0.00886509 14.3633C0.0421382 13.4164 0.167269 12.2412 0.328201 10.7266L0.564529 8.50198C0.804487 6.24354 0.934336 4.92502 1.43855 3.86038C2.21148 2.22864 3.60631 0.975042 5.31062 0.37893C6.42258 -0.00997782 7.74655 2.36568e-05 10.0177 2.39777e-05ZM13.0177 5.00002C12.6035 5.00011 12.2677 5.33588 12.2677 5.75002V7.75002C12.2677 8.99266 11.2603 10 10.0177 10C8.77509 9.99994 7.76765 8.99261 7.76765 7.75002V5.75002C7.76764 5.33582 7.43186 5.00002 7.01765 5.00002C6.60352 5.00011 6.26767 5.33588 6.26765 5.75002V7.75002C6.26765 9.82104 7.94666 11.4999 10.0177 11.5C12.0887 11.5 13.7677 9.82109 13.7677 7.75002V5.75002C13.7676 5.33582 13.4319 5.00002 13.0177 5.00002Z" fill="currentColor"/>
</svg>
