<svg viewBox="0 0 22.0001 22" fill="none" xmlns="http://www.w3.org/2000/svg">
<g id="Vector">
<path d="M11.0001 7C11.5524 7 12.0001 7.44772 12.0001 8V10H14.0001C14.5524 10 15.0001 10.4477 15.0001 11C15.0001 11.5523 14.5524 12 14.0001 12H12.0001V14C12.0001 14.5523 11.5524 15 11.0001 15C10.4479 14.9999 10.0001 14.5522 10.0001 14V12H8.00011C7.44787 11.9999 7.00011 11.5522 7.00011 11C7.00011 10.4478 7.44787 10.0001 8.00011 10H10.0001V8C10.0001 7.44775 10.4479 7.00006 11.0001 7Z" fill="currentColor"/>
<path fill-rule="evenodd" clip-rule="evenodd" d="M11.004 0C18.4265 0 21.9817 3.51796 22.0001 11.0664C22.0102 18.6493 18.504 22 11.004 22C3.44914 21.9938 -0.0222768 18.5474 0.000107541 11.0664C0.0164428 3.44683 3.49602 0.000100315 11.004 0ZM11.004 1.5C7.44938 1.50005 5.16816 2.31836 3.75401 3.73535C2.33864 5.1538 1.50786 7.45631 1.50011 11.0693C1.48949 14.6063 2.30785 16.8716 3.71788 18.2725C5.13101 19.6762 7.42368 20.4959 11.004 20.499C14.5647 20.499 16.8518 19.7004 18.2657 18.3076C19.6744 16.9199 20.5048 14.6587 20.5001 11.0693L20.4884 10.416C20.3832 7.21856 19.5573 5.10519 18.2169 3.76172C16.7886 2.33024 14.5038 1.5 11.004 1.5Z" fill="currentColor"/>
</g>
</svg>
