<svg viewBox="0 0 22.75 19.3496" fill="none" xmlns="http://www.w3.org/2000/svg">
<g id="Vector">
<path fill-rule="evenodd" clip-rule="evenodd" d="M15.4502 0C15.7384 4.25611e-06 16.0485 0.0105622 16.3604 0.0625L16.3594 0.0634766C17.8667 0.246598 19.1484 0.90231 20.0527 1.9502C20.9282 2.96465 21.4108 4.30083 21.4463 5.81934C21.2213 5.77391 20.9884 5.75 20.75 5.75H19.75C17.817 5.75 16.25 7.317 16.25 9.25V10.25C16.25 12.183 17.817 13.75 19.75 13.75H20.75C20.9871 13.75 21.2185 13.7256 21.4424 13.6807C21.3728 15.2863 20.7957 16.677 19.7861 17.6865C18.7078 18.7647 17.1955 19.3496 15.4502 19.3496H6C4.25457 19.3496 2.74142 18.7649 1.66309 17.6865C0.584884 16.6082 0 15.0949 0 13.3496V6C1.63586e-06 4.41914 0.478637 3.02626 1.375 1.97461C2.2687 0.926228 3.53802 0.264814 5.03516 0.0722656C5.0419 0.0712283 5.04891 0.0693739 5.05566 0.0683594C5.3624 0.0222548 5.67731 3.77768e-07 6 0H15.4502Z" fill="currentColor"/>
<path d="M17.75 9.25C17.75 8.14543 18.6454 7.25 19.75 7.25H20.75C21.8546 7.25 22.75 8.14543 22.75 9.25V10.25C22.75 11.3546 21.8546 12.25 20.75 12.25H19.75C18.6454 12.25 17.75 11.3546 17.75 10.25V9.25Z" fill="currentColor"/>
</g>
</svg>
