<svg viewBox="0 0 22.5 19.3496" fill="none" xmlns="http://www.w3.org/2000/svg">
<path id="Vector" fill-rule="evenodd" clip-rule="evenodd" d="M15.4502 0C15.7384 4.25611e-06 16.0485 0.0105622 16.3604 0.0625L16.3594 0.0634766C17.8667 0.246598 19.1484 0.90231 20.0527 1.9502C20.9627 3.00471 21.4502 4.4068 21.4502 6V7.09082C21.4339 7.078 21.4169 7.06616 21.4004 7.05371C22.0671 7.55552 22.5 8.35126 22.5 9.25V10.25C22.5 11.1262 22.0886 11.9046 21.4502 12.4082V13.3496C21.4502 15.095 20.8645 16.6082 19.7861 17.6865C18.7078 18.7647 17.1955 19.3496 15.4502 19.3496H6C4.25457 19.3496 2.74142 18.7649 1.66309 17.6865C0.584884 16.6082 0 15.0949 0 13.3496V6C1.63586e-06 4.41914 0.478637 3.02626 1.375 1.97461C2.2687 0.926228 3.53802 0.264814 5.03516 0.0722656C5.0419 0.0712283 5.04891 0.0693739 5.05566 0.0683594C5.3624 0.0222548 5.67731 3.77768e-07 6 0H15.4502ZM6 1.5C5.74177 1.5 5.49658 1.51886 5.26367 1.55469C5.25687 1.55573 5.24999 1.55676 5.24316 1.55762C4.07209 1.70458 3.14908 2.20619 2.5166 2.94824C1.88263 3.69209 1.5 4.72491 1.5 6V13.3496C1.5 14.754 1.96459 15.8668 2.72363 16.626C3.4828 17.3851 4.59544 17.8496 6 17.8496H15.4502C16.8546 17.8496 17.9665 17.385 18.7256 16.626C19.4848 15.8668 19.9502 14.7542 19.9502 13.3496V12.9893C19.884 12.994 19.8174 13 19.75 13H18.75C17.2312 13 16 11.7688 16 10.25V9.25C16 7.73122 17.2312 6.5 18.75 6.5H19.75C19.821 6.5 19.8912 6.50545 19.9609 6.51074C19.9574 6.51047 19.9538 6.51002 19.9502 6.50977V6C19.9502 4.7163 19.5609 3.6769 18.917 2.93066C18.2745 2.18612 17.3374 1.68587 16.1514 1.54785C16.1391 1.54643 16.1264 1.54402 16.1143 1.54199C15.9224 1.51002 15.7077 1.5 15.4502 1.5H6ZM18.75 8C18.0596 8 17.5 8.55964 17.5 9.25V10.25C17.5 10.9404 18.0596 11.5 18.75 11.5H19.75C20.4404 11.5 21 10.9404 21 10.25V9.25C21 8.55964 20.4404 8 19.75 8H18.75Z" fill="currentColor"/>
</svg>
