<svg viewBox="0 0 20.4935 20.1045" fill="none" xmlns="http://www.w3.org/2000/svg">
<g id="Vector">
<path d="M11.582 0C13.1578 0.000309376 14.2201 1.6121 13.5996 3.06055L12.8682 4.7666C12.7324 5.0834 12.6416 5.2952 12.5811 5.45898C12.5207 5.62244 12.5113 5.68561 12.5098 5.70605C12.4845 6.04598 12.6923 6.35996 13.0146 6.4707C13.034 6.47728 13.0954 6.494 13.2695 6.50293C13.4439 6.51185 13.6747 6.51172 14.0195 6.51172H14.6904C15.6408 6.51172 16.402 6.51104 17.0098 6.56348C17.6245 6.61654 18.1614 6.72903 18.6416 7.00195C19.3979 7.43203 19.9817 8.11195 20.292 8.9248C20.4889 9.44103 20.5186 9.98967 20.4775 10.6055C20.437 11.2141 20.3203 11.9661 20.1758 12.9053L19.792 15.3984C19.6826 16.1093 19.595 16.6843 19.4873 17.1475C19.3774 17.6196 19.2349 18.0297 18.9912 18.4033C18.6012 19.0012 18.0486 19.4759 17.3984 19.7705C16.9922 19.9545 16.5653 20.0325 16.082 20.0693C15.6079 20.1054 15.026 20.1045 14.3066 20.1045H8.34082C7.51327 20.1045 6.84738 20.1055 6.30957 20.0615C5.76315 20.0169 5.28294 19.9225 4.83887 19.6963C4.13337 19.3368 3.55968 18.7622 3.2002 18.0566C2.97406 17.6126 2.87863 17.1323 2.83398 16.5859C2.79009 16.0482 2.79102 15.3821 2.79102 14.5547V12.168C2.79101 10.7367 2.78629 9.89829 2.97754 9.10156C3.1429 8.41295 3.4161 7.75422 3.78613 7.15039C4.21433 6.45177 4.80999 5.86188 5.82227 4.84961L10.0293 0.642578C10.441 0.23115 11 2.39618e-05 11.582 0Z" fill="white"/>
<path d="M0.75 6.51172C1.16411 6.51172 1.49983 6.84765 1.5 7.26172V18.4248C1.49984 18.8389 1.16411 19.1748 0.75 19.1748C0.336073 19.1746 0.00016021 18.8387 0 18.4248V7.26172C0.000171172 6.84779 0.33608 6.51194 0.75 6.51172Z" fill="white"/>
</g>
</svg>
