<svg viewBox="0 0 20.4935 20.1045" fill="none" xmlns="http://www.w3.org/2000/svg">
<g id="Vector">
<path fill-rule="evenodd" clip-rule="evenodd" d="M11.582 0C13.1578 0.000309376 14.2201 1.6121 13.5996 3.06055L12.8682 4.7666C12.7324 5.0834 12.6416 5.2952 12.5811 5.45898C12.5207 5.62244 12.5113 5.68561 12.5098 5.70605C12.4845 6.04598 12.6923 6.35996 13.0146 6.4707C13.034 6.47728 13.0954 6.494 13.2695 6.50293C13.4439 6.51185 13.6747 6.51172 14.0195 6.51172H14.6904C15.6408 6.51172 16.402 6.51104 17.0098 6.56348C17.6245 6.61654 18.1614 6.72903 18.6416 7.00195C19.3979 7.43203 19.9817 8.11195 20.292 8.9248C20.4889 9.44103 20.5186 9.98967 20.4775 10.6055C20.437 11.2141 20.3203 11.9661 20.1758 12.9053L19.792 15.3984C19.6826 16.1093 19.595 16.6843 19.4873 17.1475C19.3774 17.6196 19.2349 18.0297 18.9912 18.4033C18.6012 19.0012 18.0486 19.4759 17.3984 19.7705C16.9922 19.9545 16.5653 20.0325 16.082 20.0693C15.6079 20.1054 15.026 20.1045 14.3066 20.1045H8.34082C7.51327 20.1045 6.84738 20.1055 6.30957 20.0615C5.76315 20.0169 5.28294 19.9225 4.83887 19.6963C4.13337 19.3368 3.55968 18.7622 3.2002 18.0566C2.97406 17.6126 2.87863 17.1323 2.83398 16.5859C2.79009 16.0482 2.79102 15.3821 2.79102 14.5547V12.168C2.79101 10.7367 2.78629 9.89829 2.97754 9.10156C3.1429 8.41295 3.4161 7.75422 3.78613 7.15039C4.21433 6.45177 4.80999 5.86188 5.82227 4.84961L10.0293 0.642578C10.441 0.23115 11 2.39618e-05 11.582 0ZM11.582 1.5C11.3977 1.50002 11.2202 1.57381 11.0898 1.7041L6.88281 5.91016C5.82021 6.97276 5.37831 7.42159 5.06445 7.93359C4.77675 8.40308 4.56515 8.91578 4.43652 9.45117C4.29631 10.0352 4.29102 10.6653 4.29102 12.168V14.5547C4.29102 15.4068 4.29135 16.0013 4.3291 16.4639C4.36615 16.9173 4.43564 17.1785 4.53613 17.376C4.7518 17.7993 5.09628 18.1437 5.51953 18.3594C5.71702 18.46 5.97787 18.5293 6.43164 18.5664C6.89422 18.6042 7.48852 18.6045 8.34082 18.6045H14.3066C15.0487 18.6045 15.5637 18.604 15.9678 18.5732C16.3622 18.5432 16.5956 18.4875 16.7793 18.4043C17.1694 18.2275 17.5013 17.9427 17.7354 17.584C17.8455 17.4151 17.9367 17.1929 18.0264 16.8076C18.1182 16.413 18.1968 15.9039 18.3096 15.1709L18.6934 12.6777C18.8419 11.7124 18.9452 11.0349 18.9805 10.5059C19.0152 9.98428 18.9763 9.68476 18.8906 9.45996C18.7045 8.9722 18.3542 8.56373 17.9004 8.30566C17.6912 8.18684 17.4015 8.10256 16.8809 8.05762C16.3526 8.01204 15.6673 8.01172 14.6904 8.01172H14.0195C13.6903 8.01172 13.4143 8.01234 13.1924 8.00098C12.9712 7.98964 12.745 7.96435 12.5273 7.88965C11.56 7.55751 10.9378 6.61472 11.0137 5.59473C11.0308 5.36533 11.0971 5.14713 11.1738 4.93945C11.2508 4.73118 11.3597 4.47803 11.4893 4.17578L12.2207 2.46973C12.417 2.01108 12.0809 1.50031 11.582 1.5Z" fill="currentColor"/>
<path d="M0.75 6.51172C1.16411 6.51172 1.49983 6.84765 1.5 7.26172V18.4248C1.49984 18.8389 1.16411 19.1748 0.75 19.1748C0.336073 19.1746 0.00016021 18.8387 0 18.4248V7.26172C0.000171172 6.84779 0.33608 6.51194 0.75 6.51172Z" fill="currentColor"/>
</g>
</svg>
