<svg viewBox="0 0 20.0001 20" fill="none" xmlns="http://www.w3.org/2000/svg">
<path id="Vector" fill-rule="evenodd" clip-rule="evenodd" d="M10.004 0C16.7516 5.03232e-05 19.9834 3.19838 20.0001 10.0605C20.0093 16.9539 16.822 20 10.004 20C3.136 19.9944 -0.0201966 16.8613 9.72217e-05 10.0605C0.0149475 3.13366 3.17856 9.11923e-05 10.004 0ZM14.0763 7.21973C13.7674 6.90377 13.2614 6.89822 12.9454 7.20703L8.99033 11.0713L6.94541 9.02734C6.63298 8.71499 6.12695 8.71495 5.81455 9.02734C5.50226 9.33975 5.50223 9.84581 5.81455 10.1582L8.41807 12.7627C8.72796 13.0725 9.22967 13.0749 9.54307 12.7686L14.0636 8.35059C14.3793 8.04174 14.385 7.53562 14.0763 7.21973Z" fill="currentColor"/>
</svg>
