<svg viewBox="0 0 19.9985 20.0001" fill="none" xmlns="http://www.w3.org/2000/svg">
<path id="Vector" fill-rule="evenodd" clip-rule="evenodd" d="M11.541 0.384695C12.1253 0.142734 12.9996 -0.197051 13.8692 0.14446C13.9903 0.192047 14.1106 0.242001 14.2295 0.293874C15.0857 0.667468 15.4647 1.52592 15.7071 2.11028C15.8475 2.44901 15.9483 2.72085 16.0772 2.99114C16.2014 3.2515 16.3182 3.43429 16.4414 3.55755C16.5646 3.68055 16.7467 3.79792 17.0069 3.9218C17.277 4.05042 17.549 4.15079 17.8877 4.29094C18.4718 4.53261 19.3302 4.90989 19.7041 5.76555C19.7562 5.88477 19.8058 6.0064 19.8535 6.12786C20.1952 6.99759 19.8563 7.87243 19.6143 8.45696C19.474 8.79586 19.353 9.05939 19.253 9.34173C19.1566 9.61369 19.1104 9.82562 19.1104 9.99993C19.1105 10.1741 19.1566 10.3864 19.253 10.6581C19.353 10.9401 19.474 11.2033 19.6143 11.5419C19.8563 12.1263 20.1957 13.0013 19.8535 13.871C19.8058 13.9924 19.7562 14.1132 19.7041 14.2324C19.3301 15.0878 18.4718 15.4658 17.8877 15.7079C17.549 15.8483 17.277 15.9492 17.0069 16.0781C16.8118 16.1711 16.6603 16.2599 16.545 16.3505L16.4414 16.4423C16.3184 16.5655 16.2011 16.7476 16.0772 17.0077C15.9485 17.2779 15.8483 17.55 15.708 17.8886C15.4661 18.4727 15.088 19.3311 14.2325 19.705C14.1129 19.7572 13.9919 19.8075 13.8701 19.8554C13.0004 20.1973 12.1254 19.8572 11.541 19.6152C11.2024 19.4749 10.9393 19.3539 10.6573 19.2538C10.3853 19.1574 10.1733 19.1113 9.99905 19.1113C9.82468 19.1113 9.61292 19.1574 9.34085 19.2538C9.05845 19.3539 8.79508 19.4749 8.45609 19.6152C7.87143 19.8571 6.99577 20.1965 6.12601 19.8544C6.00497 19.8068 5.88446 19.7569 5.76566 19.705C4.91014 19.3311 4.53197 18.4727 4.29007 17.8886C4.14985 17.55 4.0496 17.2778 3.92093 17.0077C3.79696 16.7476 3.67972 16.5654 3.55667 16.4423C3.43337 16.3191 3.25068 16.2023 2.99027 16.0781C2.71993 15.9491 2.44818 15.8484 2.10941 15.7079C1.52507 15.4656 0.666598 15.0865 0.293 14.2304C0.241322 14.1119 0.191985 13.9917 0.144562 13.871C-0.197103 13.0012 0.142658 12.1262 0.384796 11.5419C0.525119 11.2033 0.646079 10.9401 0.746125 10.6581C0.842504 10.3864 0.888633 10.1741 0.888703 9.99993C0.888692 9.82562 0.842476 9.61365 0.746125 9.34173C0.646062 9.05941 0.525122 8.79585 0.384796 8.45696C0.142797 7.87248 -0.196982 6.99761 0.144562 6.12786C0.192125 6.00687 0.242139 5.88627 0.293976 5.76751C0.667686 4.91152 1.52622 4.53293 2.11038 4.29094C2.44907 4.15066 2.72107 4.05054 2.99124 3.9218C3.25134 3.79784 3.4335 3.68059 3.55667 3.55755L3.64847 3.45403C3.73906 3.33876 3.82796 3.18713 3.92093 2.99212C4.04965 2.72201 4.14983 2.44987 4.29007 2.11126C4.53201 1.52713 4.91061 0.668617 5.76663 0.294851C5.88557 0.242933 6.00581 0.193067 6.12698 0.145437C6.99661 -0.196309 7.87149 0.14283 8.45609 0.384695C8.79508 0.524953 9.05848 0.645987 9.34085 0.746023C9.61281 0.84235 9.82471 0.888552 9.99905 0.888601C10.1732 0.888585 10.3846 0.842283 10.6563 0.746023C10.9385 0.645993 11.2022 0.525032 11.541 0.384695ZM14.1328 7.21966C13.824 6.90378 13.3179 6.89818 13.002 7.20696L9.04691 11.0712L7.00198 9.02727C6.68955 8.71501 6.18349 8.7149 5.87112 9.02727C5.55902 9.33966 5.55894 9.84579 5.87112 10.1581L8.47464 12.7626C8.78448 13.0724 9.28623 13.0746 9.59964 12.7685L14.1201 8.35052C14.4359 8.04167 14.4416 7.53555 14.1328 7.21966Z" fill="currentColor"/>
</svg>
