<svg viewBox="0 0 19.9985 20.0001" fill="none" xmlns="http://www.w3.org/2000/svg">
<g id="Vector">
<path d="M13.002 7.21868C13.3179 6.91002 13.824 6.91575 14.1328 7.23138C14.4416 7.54726 14.4358 8.05339 14.1202 8.36224L9.59964 12.7802C9.28624 13.0865 8.78454 13.0842 8.47464 12.7743L5.87113 10.1699C5.55912 9.85744 5.55893 9.3513 5.87113 9.039C6.18342 8.72675 6.68955 8.72697 7.00199 9.039L9.04691 11.0829L13.002 7.21868Z" fill="currentColor"/>
<path fill-rule="evenodd" clip-rule="evenodd" d="M11.541 0.384699C12.1253 0.142737 12.9995 -0.197057 13.8692 0.144465C13.9903 0.192053 14.1106 0.242003 14.2295 0.293879C15.0858 0.667469 15.4647 1.52592 15.7071 2.11029C15.8475 2.44903 15.9483 2.72085 16.0772 2.99114C16.2014 3.25152 16.3182 3.43429 16.4414 3.55755C16.5646 3.68056 16.7467 3.79792 17.0069 3.92181C17.277 4.05043 17.549 4.15079 17.8877 4.29095C18.4718 4.53262 19.3302 4.90989 19.7041 5.76556C19.7562 5.88478 19.8058 6.0064 19.8535 6.12786C20.1952 6.99761 19.8563 7.87243 19.6143 8.45696C19.474 8.79588 19.353 9.05939 19.253 9.34173C19.1566 9.6137 19.1104 9.82562 19.1104 9.99993C19.1104 10.1741 19.1566 10.3863 19.253 10.6581C19.353 10.9401 19.474 11.2033 19.6143 11.5419C19.8563 12.1263 20.1957 13.0013 19.8535 13.871C19.8058 13.9924 19.7562 14.1132 19.7041 14.2324C19.3301 15.0878 18.4719 15.4658 17.8877 15.7079C17.549 15.8483 17.2771 15.9492 17.0069 16.0781C16.8118 16.1711 16.6603 16.2599 16.545 16.3505L16.4414 16.4423C16.3184 16.5655 16.2011 16.7476 16.0772 17.0077C15.9485 17.2779 15.8483 17.55 15.708 17.8886C15.4661 18.4727 15.088 19.3311 14.2325 19.705C14.1129 19.7572 13.992 19.8075 13.8702 19.8554C13.0003 20.1974 12.1254 19.8572 11.541 19.6152C11.2024 19.4749 10.9393 19.3539 10.6573 19.2538C10.3853 19.1574 10.1733 19.1113 9.99906 19.1113C9.82467 19.1113 9.61295 19.1574 9.34085 19.2538C9.05842 19.3539 8.79513 19.4748 8.45609 19.6152C7.87143 19.8571 6.9958 20.1965 6.12601 19.8544C6.00496 19.8068 5.88447 19.7569 5.76566 19.705C4.91013 19.3311 4.53197 18.4727 4.29007 17.8886C4.14985 17.55 4.04961 17.2778 3.92093 17.0077C3.79696 16.7476 3.67972 16.5654 3.55667 16.4423C3.43337 16.3191 3.25069 16.2023 2.99027 16.0781C2.71993 15.9491 2.44819 15.8484 2.10941 15.7079C1.52506 15.4656 0.666594 15.0865 0.293002 14.2304C0.24132 14.1119 0.19199 13.9917 0.144564 13.871C-0.197105 13.0012 0.142659 12.1262 0.384799 11.5419C0.525126 11.2033 0.646079 10.9401 0.746127 10.6581C0.842512 10.3864 0.888639 10.1741 0.888705 9.99993C0.888694 9.82562 0.842485 9.61367 0.746127 9.34173C0.646062 9.05941 0.525128 8.79586 0.384799 8.45696C0.142797 7.87248 -0.196996 6.99763 0.144564 6.12786C0.192131 6.00686 0.242136 5.88628 0.293978 5.76751C0.667697 4.9115 1.52622 4.53293 2.11038 4.29095C2.44911 4.15064 2.72105 4.05056 2.99124 3.92181C3.25139 3.79782 3.4335 3.68061 3.55667 3.55755L3.64847 3.45404C3.73908 3.33875 3.82796 3.18716 3.92093 2.99212C4.04966 2.722 4.14983 2.44989 4.29007 2.11126C4.53202 1.52712 4.91058 0.668611 5.76663 0.294856C5.8856 0.242923 6.00578 0.193084 6.12699 0.145441C6.99662 -0.196337 7.87149 0.14283 8.45609 0.384699C8.79509 0.52496 9.05848 0.64599 9.34085 0.746027C9.61282 0.842358 9.82471 0.888557 9.99906 0.888605C10.1732 0.888591 10.3846 0.842302 10.6563 0.746027C10.9385 0.645989 11.2022 0.525054 11.541 0.384699ZM13.3203 1.54095C13.082 1.44753 12.7537 1.50606 12.1153 1.77044C11.8426 1.88335 11.4886 2.04297 11.1582 2.16009C10.8175 2.28087 10.42 2.38859 9.99906 2.38861C9.57815 2.38854 9.18068 2.28081 8.83988 2.16009C8.50949 2.04304 8.1556 1.8833 7.88285 1.77044C7.24357 1.50595 6.9144 1.44816 6.67581 1.54193C6.57183 1.5828 6.46832 1.62529 6.36624 1.66986C6.13156 1.77247 5.94036 2.04679 5.67581 2.68548C5.56291 2.95812 5.42612 3.32141 5.27542 3.63763C5.13938 3.92303 4.96518 4.23179 4.72464 4.50384L4.61722 4.6181C4.31956 4.91562 3.96205 5.11984 3.63578 5.27532C3.31953 5.42601 2.95717 5.5638 2.6846 5.67669C2.0459 5.94127 1.77157 6.13239 1.66898 6.36712C1.62448 6.46906 1.58187 6.57286 1.54105 6.67669C1.44758 6.9152 1.50607 7.24396 1.77054 7.88275C1.88351 8.15557 2.04306 8.51028 2.16019 8.84075C2.28095 9.18156 2.38869 9.579 2.38871 9.99993C2.38864 10.4209 2.28103 10.8184 2.16019 11.1591C2.043 11.4895 1.88354 11.8435 1.77054 12.1161C1.50581 12.755 1.44649 13.0838 1.54007 13.3222C1.58078 13.4258 1.62364 13.5291 1.668 13.6308C1.77071 13.8657 2.04505 14.0573 2.68363 14.3222C2.95628 14.4353 3.31944 14.5727 3.63578 14.7236C3.96211 14.8792 4.31959 15.0842 4.61722 15.3818C4.91479 15.6794 5.11994 16.0369 5.27542 16.3632C5.42599 16.6793 5.563 17.0419 5.67581 17.3144C5.94022 17.9528 6.13161 18.2273 6.36624 18.33C6.46823 18.3746 6.57192 18.418 6.67581 18.4589C6.9142 18.5525 7.24304 18.4938 7.88187 18.2294C8.15472 18.1165 8.50932 17.9569 8.83988 17.8398C9.18075 17.719 9.57804 17.6113 9.99906 17.6113C10.4202 17.6113 10.8174 17.7189 11.1582 17.8398C11.4886 17.9569 11.8426 18.1165 12.1153 18.2294C12.7543 18.4941 13.0831 18.5526 13.3213 18.4589C13.4257 18.4179 13.5294 18.3748 13.6319 18.33C13.8666 18.2273 14.0578 17.9529 14.3223 17.3144C14.4352 17.0418 14.573 16.6794 14.7237 16.3632C14.8791 16.0369 15.0834 15.6794 15.3809 15.3818L15.4952 15.2743C15.7672 15.0338 16.0759 14.8597 16.3614 14.7236C16.6778 14.5727 17.0408 14.4352 17.3135 14.3222C17.9519 14.0576 18.2262 13.8666 18.3291 13.6318C18.3737 13.5297 18.4171 13.4262 18.458 13.3222C18.5517 13.084 18.4932 12.755 18.2285 12.1161C18.1156 11.8435 17.9561 11.4895 17.8389 11.1591C17.7181 10.8184 17.6104 10.4209 17.6104 9.99993L17.6153 9.84271C17.6376 9.48025 17.7333 9.13883 17.8389 8.84075C17.956 8.51026 18.1156 8.15559 18.2285 7.88275C18.4929 7.24404 18.5514 6.91514 18.458 6.67669C18.4171 6.57257 18.3738 6.46836 18.3291 6.36614C18.2265 6.13167 17.9529 5.94086 17.3145 5.67669C17.0418 5.56388 16.6788 5.42601 16.3623 5.27532C16.036 5.11993 15.6786 4.91568 15.3809 4.6181C15.0833 4.32049 14.8783 3.96297 14.7227 3.63665C14.5719 3.32035 14.4344 2.95714 14.3213 2.6845C14.0564 2.04573 13.8649 1.77152 13.6299 1.66888C13.5279 1.62439 13.4242 1.58176 13.3203 1.54095Z" fill="currentColor"/>
</g>
</svg>
