<svg viewBox="0 0 23.9636 12.0002" fill="none" xmlns="http://www.w3.org/2000/svg">
<g id="Vector">
<path d="M15.4944 0.4098C15.7834 0.68305 15.9521 1.0599 15.9634 1.4575C15.9746 1.85509 15.8275 2.24088 15.5544 2.53004L7.0534 11.5311C6.91562 11.6767 6.75005 11.7932 6.56648 11.8738C6.38291 11.9543 6.18506 11.9973 5.98461 12.0001C5.78416 12.0029 5.58518 11.9655 5.39944 11.8901C5.21369 11.8147 5.04493 11.7028 4.90315 11.5611L0.40263 7.06057C0.137639 6.77619 -0.0066235 6.40005 0.000233721 6.0114C0.00709094 5.62276 0.164533 5.25194 0.439391 4.97708C0.714249 4.70223 1.08506 4.54478 1.47371 4.53793C1.86236 4.53107 2.23849 4.67533 2.52287 4.94032L5.93327 8.34872L13.3741 0.469807C13.6474 0.180768 14.0242 0.0120774 14.4218 0.000824641C14.8194 -0.0104281 15.2052 0.136679 15.4944 0.4098Z" fill="currentColor"/>
<path d="M22.4219 0.000598279C22.8195 -0.0106366 23.2051 0.13675 23.4942 0.409778C23.7832 0.683028 23.9517 1.06003 23.963 1.45763C23.9742 1.85508 23.8277 2.24079 23.5548 2.5299L15.0538 11.5309C14.916 11.6765 14.75 11.7931 14.5665 11.8736C14.3829 11.9542 14.1849 11.9968 13.9844 11.9996C13.7841 12.0024 13.5851 11.9656 13.3995 11.8902C13.2138 11.8149 13.0451 11.7028 12.9034 11.5611L10.8702 9.52794L12.9307 7.3463L13.9337 8.34825L21.3741 0.469348C21.6473 0.180426 22.0244 0.0118485 22.4219 0.000598279Z" fill="currentColor"/>
</g>
</svg>
