<svg viewBox="0 0 17.5356 13.1814" fill="none" xmlns="http://www.w3.org/2000/svg">
<path id="Vector" d="M17.0198 0.449899C17.3373 0.750051 17.5226 1.164 17.5349 1.60074C17.5473 2.03748 17.3857 2.46125 17.0857 2.77888L7.7478 12.6661C7.59646 12.826 7.4146 12.954 7.21295 13.0425C7.01131 13.131 6.79397 13.1782 6.57379 13.1812C6.35361 13.1843 6.13504 13.1432 5.93101 13.0604C5.72697 12.9776 5.54161 12.8547 5.38586 12.699L0.442269 7.75543C0.15119 7.44305 -0.00727558 7.02989 0.000256731 6.60298C0.00778905 6.17607 0.180731 5.76875 0.482649 5.46683C0.784566 5.16491 1.19189 4.99197 1.61879 4.98444C2.0457 4.97691 2.45887 5.13537 2.77125 5.42645L6.5174 9.1704L14.6908 0.515814C14.991 0.198319 15.4049 0.0130209 15.8416 0.000660339C16.2784 -0.0117002 16.7022 0.149889 17.0198 0.449899Z" fill="currentColor"/>
</svg>
