<svg viewBox="0 0 20.0001 20" fill="none" xmlns="http://www.w3.org/2000/svg">
<g id="Vector">
<path d="M12.9454 7.20703C13.2614 6.89822 13.7674 6.90377 14.0763 7.21973C14.385 7.53562 14.3793 8.04174 14.0636 8.35059L9.54307 12.7686C9.22967 13.0749 8.72796 13.0725 8.41807 12.7627L5.81455 10.1582C5.50223 9.84581 5.50226 9.33975 5.81455 9.02734C6.12695 8.71495 6.63298 8.71499 6.94541 9.02734L8.99033 11.0713L12.9454 7.20703Z" fill="currentColor"/>
<path fill-rule="evenodd" clip-rule="evenodd" d="M10.004 0C16.7516 5.03232e-05 19.9834 3.19838 20.0001 10.0605C20.0093 16.9539 16.822 20 10.004 20C3.136 19.9944 -0.0201966 16.8613 9.72217e-05 10.0605C0.0149475 3.13366 3.17856 9.11957e-05 10.004 0ZM10.004 1.36328C6.77273 1.36333 4.69879 2.10749 3.41318 3.39551C2.12648 4.68501 1.3714 6.77891 1.36436 10.0635C1.35477 13.2786 2.09822 15.3379 3.37998 16.6113C4.66465 17.8874 6.74915 18.6329 10.004 18.6357C13.2409 18.6357 15.3202 17.9096 16.6056 16.6436C17.8862 15.382 18.641 13.3263 18.6368 10.0635L18.6261 9.46875C18.5304 6.56217 17.7792 4.64121 16.5606 3.41992C15.2622 2.11866 13.1855 1.36331 10.004 1.36328Z" fill="currentColor"/>
</g>
</svg>
