<svg viewBox="0 0 20.5035 20.4998" fill="none" xmlns="http://www.w3.org/2000/svg">
<g id="Vector">
<path d="M10.326 6.31915C10.7044 6.35738 10.9998 6.67679 10.9998 7.06525V10.3555C10.9998 10.4659 11.0894 10.5555 11.1998 10.5555H14.0155L14.0916 10.5594C14.47 10.5976 14.7655 10.917 14.7655 11.3055C14.7653 11.7195 14.4295 12.0554 14.0155 12.0555H10.2498C10.0428 12.0555 9.85527 11.9714 9.71956 11.8358C9.65165 11.7679 9.59642 11.6872 9.55843 11.5975C9.52046 11.5078 9.49988 11.409 9.49984 11.3055V7.06525C9.49984 7.03927 9.50116 7.0134 9.50374 6.9881C9.52171 6.81172 9.60087 6.65368 9.71956 6.53498C9.85529 6.39922 10.0427 6.31525 10.2498 6.31525L10.326 6.31915Z" fill="currentColor"/>
<path fill-rule="evenodd" clip-rule="evenodd" d="M10.2498 2.11115C15.3277 2.1112 19.4442 6.22756 19.4442 11.3055C19.444 16.3833 15.3276 20.4998 10.2498 20.4998C5.17199 20.4998 1.05567 16.3833 1.0555 11.3055C1.0555 6.22753 5.17188 2.11115 10.2498 2.11115ZM10.2498 3.61115C6.00031 3.61115 2.5555 7.05596 2.5555 11.3055C2.55567 15.5549 6.00041 18.9998 10.2498 18.9998C14.4992 18.9998 17.944 15.5548 17.9442 11.3055C17.9442 7.05599 14.4993 3.6112 10.2498 3.61115Z" fill="currentColor"/>
<path d="M3.50179 0.1756C3.81897 -0.0905487 4.29212 -0.0495744 4.55843 0.267397C4.82443 0.584592 4.78358 1.05778 4.46663 1.32404L1.23226 4.0379C0.915098 4.304 0.441925 4.263 0.175616 3.94611C-0.0905435 3.62891 -0.0495938 3.15577 0.267413 2.88947L3.50179 0.1756Z" fill="currentColor"/>
<path d="M15.9451 0.267397C16.2115 -0.0495417 16.6846 -0.0905387 17.0018 0.1756L20.2362 2.88947C20.553 3.15579 20.5941 3.62896 20.328 3.94611C20.0617 4.26308 19.5885 4.30392 19.2713 4.0379L16.0369 1.32404C15.7199 1.05776 15.679 0.584607 15.9451 0.267397Z" fill="currentColor"/>
</g>
</svg>
