<svg viewBox="0 0 20 20" fill="none" xmlns="http://www.w3.org/2000/svg">
<g id="Vector">
<path fill-rule="evenodd" clip-rule="evenodd" d="M10 18.4C14.6392 18.4 18.4 14.6392 18.4 10C18.4 5.36081 14.6392 1.6 10 1.6C5.36081 1.6 1.6 5.36081 1.6 10C1.6 14.6392 5.36081 18.4 10 18.4ZM10 20C15.5228 20 20 15.5228 20 10C20 4.47715 15.5228 0 10 0C4.47715 0 0 4.47715 0 10C0 15.5228 4.47715 20 10 20Z" fill="currentColor"/>
<path d="M9.6239 4.69745C9.41285 4.69745 9.21044 4.78129 9.0612 4.93053C8.91196 5.07976 8.82812 5.28217 8.82812 5.49323V10.6738C8.82812 11.0054 8.9925 11.3154 9.26695 11.5015L12.704 13.8317L12.7078 13.8341C12.884 13.9461 13.0972 13.9843 13.3013 13.9405C13.5054 13.8967 13.6842 13.7745 13.799 13.6001C13.9139 13.4258 13.9556 13.2133 13.9152 13.0085C13.8748 12.8037 13.7552 12.6226 13.5827 12.5049L10.8585 10.6579C10.584 10.4718 10.4197 10.1618 10.4197 9.83019V5.49323C10.4197 5.28217 10.3358 5.07976 10.1866 4.93053C10.0374 4.78129 9.83496 4.69745 9.6239 4.69745Z" fill="currentColor"/>
</g>
</svg>
