<svg viewBox="0 0 20 20" fill="none" xmlns="http://www.w3.org/2000/svg">
<path id="Vector" fill-rule="evenodd" clip-rule="evenodd" d="M10 20C15.5228 20 20 15.5228 20 10C20 4.47715 15.5228 0 10 0C4.47715 0 0 4.47715 0 10C0 15.5228 4.47715 20 10 20ZM9.0612 4.93053C9.21044 4.78129 9.41285 4.69745 9.6239 4.69745C9.83496 4.69745 10.0374 4.78129 10.1866 4.93053C10.3358 5.07976 10.4197 5.28217 10.4197 5.49323V9.83019C10.4197 10.1618 10.584 10.4718 10.8585 10.6579L13.5827 12.5049C13.7552 12.6226 13.8748 12.8037 13.9152 13.0085C13.9556 13.2133 13.9139 13.4258 13.799 13.6001C13.6842 13.7745 13.5054 13.8967 13.3013 13.9405C13.0972 13.9843 12.884 13.9461 12.7078 13.8341L12.704 13.8317L9.26695 11.5015C8.9925 11.3154 8.82812 11.0054 8.82812 10.6738V5.49323C8.82812 5.28217 8.91196 5.07976 9.0612 4.93053Z" fill="currentColor"/>
</svg>
