<svg viewBox="0 0 20.0001 20" fill="none" xmlns="http://www.w3.org/2000/svg">
<g id="Vector">
<path fill-rule="evenodd" clip-rule="evenodd" d="M10.0036 0C16.7513 0 19.9834 3.19815 20.0001 10.0604C20.0093 16.9539 16.8218 20 10.0036 20C3.13559 19.9944 -0.0202516 16.8613 9.77643e-05 10.0604C0.014948 3.13348 3.1782 9.11957e-05 10.0036 0ZM10.0036 1.36364C6.77216 1.36368 4.69833 2.1076 3.41274 3.39577C2.12604 4.68527 1.37078 6.77846 1.36373 10.063C1.35408 13.2785 2.09804 15.3379 3.37989 16.6113C4.66456 17.8874 6.7488 18.6326 10.0036 18.6355C13.2407 18.6355 15.3198 17.9094 16.6052 16.6433C17.8859 15.3817 18.6407 13.3261 18.6365 10.063L18.6258 9.46911C18.5302 6.56233 17.7794 4.64108 16.5608 3.41974C15.2624 2.1184 13.1853 1.36364 10.0036 1.36364Z" fill="currentColor"/>
<path d="M12.5859 9.10991C13.1656 9.56173 13.1656 10.4383 12.5859 10.8901L9.90757 12.9776C9.16646 13.5553 8.0853 13.0272 8.0853 12.0875V7.91245C8.0853 6.97282 9.16646 6.44473 9.90757 7.02237L12.5859 9.10991Z" fill="currentColor"/>
</g>
</svg>
