<svg viewBox="0 0 20.3008 17.5" fill="none" xmlns="http://www.w3.org/2000/svg">
<path id="Vector" fill-rule="evenodd" clip-rule="evenodd" d="M13.8838 0C14.1431 3.82966e-06 14.4285 0.00944848 14.7178 0.0576172L14.7617 0.0654297C16.1126 0.240865 17.2687 0.83577 18.0889 1.78613C18.9241 2.75422 19.3671 4.03665 19.3672 5.4834V6.38379C19.936 6.85911 20.3008 7.57269 20.3008 8.37305V9.26172C20.3007 10.0618 19.9358 10.7747 19.3672 11.25V12.0166C19.3671 13.6021 18.8342 14.9871 17.8438 15.9775C16.8533 16.9678 15.4691 17.5 13.8838 17.5H5.4834C3.89807 17.4999 2.51287 16.9679 1.52246 15.9775C0.532279 14.9871 4.09817e-05 13.6018 0 12.0166V5.4834C6.72674e-05 4.04783 0.435893 2.77411 1.25879 1.80859C2.07965 0.845659 3.24333 0.240873 4.60742 0.0654297C4.61084 0.0647266 4.6162 0.0633863 4.62207 0.0625C4.90251 0.0203537 5.18981 1.52869e-05 5.4834 0H13.8838ZM5.4834 1.63379C5.26131 1.63381 5.05065 1.65004 4.85156 1.68066C4.84539 1.68161 4.83791 1.6826 4.83008 1.68359C3.82284 1.81 3.03761 2.23988 2.50195 2.86816C1.96472 3.49855 1.63386 4.38083 1.63379 5.4834V12.0166C1.63383 13.2308 2.03496 14.1804 2.67773 14.8232C3.32057 15.4659 4.26937 15.8671 5.4834 15.8672H13.8838C15.0979 15.8672 16.0466 15.466 16.6895 14.8232C17.3324 14.1803 17.7343 13.2308 17.7344 12.0166V11.8535C17.7249 11.8537 17.7155 11.8555 17.7061 11.8555H16.8174C15.3846 11.8555 14.2229 10.6944 14.2227 9.26172V8.37305C14.2227 6.94017 15.3845 5.77832 16.8174 5.77832H17.7061C17.7155 5.77832 17.725 5.77911 17.7344 5.7793V5.4834C17.7343 4.37354 17.3972 3.48598 16.8516 2.85352C16.3074 2.22298 15.5106 1.79363 14.4902 1.6748C14.4745 1.67297 14.4555 1.66998 14.4492 1.66895C14.2909 1.64259 14.1096 1.63379 13.8838 1.63379H5.4834ZM16.8174 7.41113C16.2866 7.41113 15.8555 7.84224 15.8555 8.37305V9.26172C15.8557 9.79234 16.2867 10.2227 16.8174 10.2227H17.7061C18.2367 10.2226 18.6668 9.79231 18.667 9.26172V8.37305C18.667 7.84228 18.2368 7.41119 17.7061 7.41113H16.8174Z" fill="currentColor"/>
</svg>
