<svg viewBox="0 0 20.3 17.2658" fill="none" xmlns="http://www.w3.org/2000/svg">
<g id="Vector">
<path fill-rule="evenodd" clip-rule="evenodd" d="M13.7863 0C14.0435 3.79775e-06 14.3202 0.00942472 14.5985 0.0557692L14.5976 0.0566406C15.9426 0.220041 17.0863 0.805138 17.8932 1.74017C18.6744 2.64538 19.105 3.83767 19.1367 5.19264C18.9359 5.1521 18.7281 5.13077 18.5154 5.13077H17.6231C15.8982 5.13077 14.5 6.52902 14.5 8.25385V9.14615C14.5 10.871 15.8982 12.2692 17.6231 12.2692H18.5154C18.7269 12.2692 18.9334 12.2475 19.1332 12.2074C19.0711 13.6401 18.5562 14.881 17.6553 15.7818C16.6932 16.7439 15.3436 17.2658 13.7863 17.2658H5.35385C3.79638 17.2658 2.44619 16.744 1.48398 15.7818C0.521896 14.8196 0 13.4693 0 11.912V5.35385C1.45969e-06 3.94323 0.427092 2.70035 1.22692 1.76196C2.02438 0.826481 3.157 0.236296 4.49291 0.0644832C4.49892 0.0635576 4.50518 0.0619028 4.51121 0.0609976C4.78491 0.0198581 5.0659 3.37085e-07 5.35385 0H13.7863Z" fill="white"/>
<path d="M15.8385 8.25385C15.8385 7.26823 16.6375 6.46923 17.6231 6.46923H18.5154C19.501 6.46923 20.3 7.26823 20.3 8.25385V9.14615C20.3 10.1318 19.501 10.9308 18.5154 10.9308H17.6231C16.6375 10.9308 15.8385 10.1318 15.8385 9.14615V8.25385Z" fill="white"/>
</g>
</svg>
